<svg width="232" height="423" viewBox="0 0 232 423" fill="none" xmlns="http://www.w3.org/2000/svg">
<path d="M89.5221 398.734C97.2142 401.637 95.111 408.577 87.136 409.225C72.2424 410.435 76.6361 397.662 80.5325 389.022C81.6063 386.643 87.2004 377.412 86.6438 375.524C85.0419 373.257 84.3947 370.526 83.0952 368.109C78.7054 359.938 72.288 351.949 67.8997 343.414C60.7908 329.586 56.7529 315.114 51.5372 300.649C46.1956 285.835 38.6763 269.519 35.6422 254.096C33.4763 243.089 35.3209 231.277 35.0236 220.149C34.8118 212.255 33.8264 204.161 32.668 196.503C31.0881 186.055 39.6155 172.087 43.0947 162.509C38.2821 157.586 34.4393 151.839 30.618 146.139C24.2207 136.597 15.7094 123.885 11.1455 113.516C0.431852 89.1832 6.81787 43.7366 38.4024 38.9539C50.7308 37.0878 60.7433 45.5957 69.0609 53.417C68.6849 48.5718 68.0987 43.265 66.4659 38.6549C65.0974 34.7901 62.3386 31.752 60.9218 28.0552C60.124 25.9791 60.6599 24.8319 62.3228 26.8687C63.125 27.854 63.6458 29.0838 64.637 30.1601C71.2449 37.3313 73.8145 40.1676 76.9907 49.8693C79.9381 58.8804 83.8259 69.761 83.911 79.2042C83.9538 84.3113 82.8006 89.529 82.6256 94.6273C82.4346 100.237 83.0244 105.969 82.6695 111.578C81.8631 124.445 75.7011 141.079 69.6404 152.418C66.8447 157.65 62.2048 163.084 60.0465 168.255C59.0416 170.664 58.708 173.372 57.8391 175.819C56.826 178.672 54.8655 182.133 54.2298 184.942C53.4921 188.184 54.0463 191.734 53.6769 195.093C52.9062 202.074 47.7583 207.2 46.6831 213.923C45.8757 218.979 46.5214 235.704 47.8414 240.663C48.6584 243.739 50.6735 246.838 51.7622 249.932C55.3102 260.011 57.4277 270.858 61.0709 280.637C70.5502 306.081 83.5086 330.289 94.0333 355.239C96.184 360.335 99.0333 366.123 98.1562 371.739C97.5588 375.564 93.841 377.626 92.8474 380.991C92.3854 382.558 92.5788 384.337 92.2428 385.982C91.375 390.242 90.076 394.483 89.535 398.729L89.5221 398.734ZM69.8643 73.7721L69.8006 62.0844C69.6857 59.0885 64.4993 56.7618 61.9752 55.5219C48.489 48.9185 37.26 48.2308 28.3428 61.8717C21.6285 72.1466 22.1151 84.2964 23.6279 96.0436C26.2952 116.766 35.1682 124.281 44.678 141.158C46.3135 144.057 47.9362 147.125 48.8872 150.324C49.7449 149.647 52.0859 146.017 51.8311 145.28C43.3899 138.009 39.4965 128.095 36.3191 117.671C32.8157 106.179 30.552 95.1663 33.6545 83.2967C37.6118 68.1529 45.4117 60.826 61.5454 67.1345C65.4027 68.6428 66.947 71.1281 69.8643 73.7721ZM69.4402 78.9128C65.6839 78.6463 62.8856 75.7221 59.3783 74.3228C55.1477 72.6365 47.2485 70.2908 44.9935 75.6335C43.3143 79.6129 41.4462 94.5692 42.1957 98.7236C42.9453 102.878 46.0771 110.07 47.96 114.159C50.9995 120.76 55.6857 126.855 57.3352 133.906C58.1194 134.015 58.1433 133.601 58.4707 133.105C59.618 131.358 61.538 126.69 62.3284 124.587C67.8418 109.893 69.306 94.5438 69.4454 78.9213L69.4402 78.9128Z" fill="black"/>
<path d="M176.151 164.295C178.543 163.737 181.291 168.061 182.315 169.818C199.044 198.444 196.845 249.295 189.252 280.864C186.007 294.359 179.984 317.995 173.741 329.818C169.357 338.126 166.817 343.124 163.195 351.924C162.584 353.41 159.057 359.889 159.101 360.59C159.201 362.151 164.394 369.14 165.669 370.876C172.693 380.438 187.823 394.514 172.842 404.57C168.813 407.273 153.846 412.758 149.081 413.118C146.968 413.277 144.403 412.687 142.275 412.771C133.645 413.1 122.983 413.993 114.514 411.667C112.139 411.014 111.058 409.971 110.981 407.451C110.796 401.464 119.456 403.137 123.161 402.875C128.896 402.476 133.617 401.472 139.136 400.691C142.21 400.255 145.869 400.52 148.83 399.885C150.38 399.551 159.887 395.343 161.386 394.437C161.914 394.119 162.449 393.837 162.776 393.282C163.028 392.571 157.762 380.862 156.952 379.288C154.462 374.437 148.915 368.16 147.892 363.097C146.788 357.637 153.379 339.238 155.782 333.427C167.729 304.518 175.551 280.776 177.118 248.917C178.35 223.902 172.427 200.456 173.372 175.726C173.439 173.934 174.191 165.961 175.049 164.961C175.288 164.684 175.795 164.377 176.151 164.295Z" fill="black"/>
<path d="M140.77 62.2704C140.776 62.3984 140.42 62.751 140.407 63.1421L141.27 63.2892C144.898 56.8022 151.856 53.2892 159.336 54.2948C171.919 55.9939 178.77 61.7978 183.208 73.4005C186.173 81.1514 190.214 91.5718 187.526 99.6579C183.447 111.935 176.511 123.03 170.321 134.193C168.659 137.187 167.65 140.416 165.719 143.255C165.112 146.199 167.736 149.376 168.36 151.985C168.721 153.489 168.521 155.057 168.871 156.473C169.626 159.502 171.707 164.997 171.906 167.765C172.047 169.774 171.137 170.469 169.157 170.253C168.533 169.927 163.777 159.547 162.631 157.809C160.407 154.44 156.821 151.03 154.333 147.673C130.893 116.055 117.974 77.1764 128.689 37.8406C130.163 32.4285 133.483 27.1633 131.727 21.5304C130.829 20.2869 120.821 19.9654 118.863 20.0137C113.084 20.1553 106.04 20.8695 100.246 21.5265C91.2335 22.5513 81.4662 25.3485 72.4993 25.0753C66.61 24.8934 65.7889 19.4772 69.8588 15.7512C79.4332 6.98141 112.964 7.22663 125.464 9.92976C132.99 11.5566 142.145 13.3215 141.305 22.9994C141.101 25.343 139.403 26.8995 138.927 28.8441C138.628 30.074 138.51 34.454 138.607 35.6517C139.315 44.3617 140.492 53.6053 140.77 62.2704ZM162.022 135.599C166.325 126.885 168.247 117.669 171.105 108.51C174.146 98.7771 179.436 91.5256 175.049 81.1555C173.886 78.4043 166.813 67.1487 164.64 65.641C161.935 63.7641 158.124 64.3486 155.252 65.535C149.804 67.7861 146.669 74.3483 142.007 77.8742C141.057 79.423 142.387 83.0382 142.887 84.7706C144.913 91.7733 148.563 98.4756 150.948 105.365C152.674 110.353 153.657 115.521 155.394 120.495C157.097 125.366 159.672 130.072 161.09 135.085L162.017 135.595L162.022 135.599Z" fill="black"/>
<path d="M59.7723 235.487C61.8576 233.017 69.9908 232.68 73.2218 232.533C83.5634 232.06 92.7813 232.26 103.216 230.534C118.639 227.987 134.537 221.469 149.48 219.129C155.447 218.192 162.009 218.421 168.045 217.625C171.729 218.802 168.624 223.114 167.189 225.137C155.671 241.391 130.877 242.564 112.815 244.2C95.1001 245.803 81.7862 247.373 64.0796 243.297C60.3325 242.436 56.6486 239.189 59.7723 235.487Z" fill="black"/>
<path d="M161.886 35.3471C169.091 34.4957 176.653 38.4157 181.717 43.2168C194.025 54.8848 207.146 71.9962 204.871 90.0174C201.856 113.919 189.951 135.333 176.58 154.85C175.367 156.606 172.569 156.076 172.111 154.043C171.535 151.479 173.858 144.242 174.765 141.509C176.654 135.802 179.501 127.876 182 122.487C183.9 118.387 186.96 114.659 188.822 110.585C191.361 105.029 194.216 92.4656 194.158 86.4111C194.109 81.167 188.212 63.9916 185.754 58.8236C183.991 55.115 178.067 48.6728 174.55 46.5562C168.499 42.9079 161.201 47.2597 155.071 48.857C152.195 49.6049 143.388 52.3861 144.766 46.3966C145.643 42.5799 157.998 35.8049 161.886 35.3427L161.886 35.3471Z" fill="black"/>
<path d="M90.6134 298.865C94.4709 298.087 101.759 299.733 106.27 299.632C119.448 299.333 132.792 296.99 146.011 296.815C148.56 296.781 152.923 297.158 155.371 297.832C157.981 298.551 155.128 302.971 153.77 304.19C145.39 311.692 129.141 315.309 118.188 315.232C110.719 315.179 94.5138 312.954 88.5496 308.47C84.3832 305.338 85.5929 299.889 90.6141 298.874L90.6134 298.865Z" fill="black"/>
</svg>
