<svg width="373" height="240" viewBox="0 0 373 240" fill="none" xmlns="http://www.w3.org/2000/svg">
<path d="M53.5105 72.2631C47.2595 72.7864 40.4166 72.3137 34.3893 70.437C31.5706 69.5601 28.9504 68.0118 26.1533 67.0735C25.5759 67.6942 27.8749 72.1801 28.4235 72.9344C29.0514 73.7969 33.9382 78.0843 34.7936 78.3406C35.8799 78.6617 39.2977 78.6329 40.4924 78.4669C42.7697 78.1529 47.227 74.7388 48.9919 76.2618C51.7095 78.6004 45.6823 80.8488 44.8522 82.6496C50.8325 83.6457 54.8928 79.7841 59.9095 77.4275L61.4253 78.0266L61.1257 80.9209C63.3345 80.8379 65.8393 81.9314 67.9831 81.751C74.4181 81.206 77.6519 77.1929 82.6289 74.9049C84.585 74.0062 86.6675 74.4501 86.4293 76.9475C86.1586 79.7986 79.507 83.9344 77.3993 85.7677C86.4077 88.2001 97.2062 91.2641 106.572 89.4921C111.383 88.5827 113.642 85.2408 117.428 83.7287C118.872 83.1549 120.131 83.1007 121.225 84.3602C123.91 87.4639 117.046 90.8202 117.915 91.6539C125.617 93.5161 131.771 91.2172 138.177 87.1608C140.44 85.728 146.745 80.1919 148.578 79.9068C149.834 79.712 151.011 79.7877 152.025 80.5709C156.352 83.9272 147.525 90.4052 145.615 93.0361C147.362 93.3356 149.17 93.3104 150.885 93.83C154.699 94.9885 155.457 97.8396 160.651 97.1647C164.054 96.7244 176.603 89.5932 179.942 87.3737C181.811 86.1322 187.709 80.8488 189.091 80.5925C190.661 80.3002 192.473 80.6972 192.7 82.5161C193.144 86.06 185.738 91.5131 183.363 93.9131C183.204 94.7178 183.728 94.3317 184.182 94.4652C191.054 96.4718 197.922 95.3458 204.105 91.8018C207.79 89.6906 211.359 86.1647 214.986 84.3278C216.751 83.4364 218.505 82.6677 220.396 83.8803C225.359 87.0561 216.975 93.5738 214.532 95.6381C215.304 96.7208 216.506 95.851 217.473 95.8149C218.563 95.7716 219.873 95.7211 220.945 95.8005C224.558 96.064 226.157 97.7313 229.582 95.1112C232.563 92.8304 235.32 89.3983 238.449 87.0128C241.387 84.7753 246.617 81.0689 249.735 79.2536C251.482 78.2359 253.214 77.4636 254.885 79.1706C258.184 82.5377 250.605 88.1388 248.804 90.6145C250.663 90.7552 252.305 90.1959 254.185 90.2572C258.299 90.3944 261.414 91.5348 265.907 90.582C271.523 89.3911 274.432 82.8481 277.883 79.0082C279.51 77.2001 281.12 75.9154 283.556 77.5069C287.1 79.8166 282.293 85.71 282.74 86.1142C284.144 86.0564 285.584 86.2513 286.985 86.0348C290.951 85.4177 299.505 81.4478 302.796 78.9902C305.752 76.7815 309.138 71.4692 313.194 74.1867C317.352 76.9728 312.306 81.4551 312.869 81.9567C315.291 81.8376 317.868 82.148 320.272 81.917C323.657 81.5922 330.431 80.3327 333.737 79.4521C334.513 79.2464 336.809 78.0699 337.274 77.4492C338.938 75.2405 339.27 67.0843 344.052 68.6073C347.719 69.7766 344.936 74.5223 345.42 75.0312C349.336 73.7969 357.164 71.2201 358.077 66.7415C358.687 63.7605 356.103 58.127 360.993 59.65C362.971 60.2671 364.119 65.6841 364.144 67.5824C364.227 73.7067 359.528 76.5072 354.41 78.3081C351.718 79.2536 346.86 79.7517 344.745 80.7621C343.919 81.1591 342.767 82.9672 341.728 83.6312C337.794 86.1503 332.878 85.9049 328.45 86.4606C329.237 88.6657 328.663 90.5279 327.833 92.5922C326.746 95.2844 325.79 98.0886 324.704 100.889C320.918 110.651 314.172 117.746 311.653 128.007C309.74 135.798 308.647 143.803 306.539 151.631C301.555 170.137 290.771 195.468 278.42 210.077C277.828 210.777 275.876 212.304 275.63 212.856C275.385 213.408 275.966 215.923 275.663 217.363C275.36 218.803 274.454 220.067 273.396 220.983C273.252 221.766 273.736 221.463 274.252 221.499C292.857 222.798 311.455 222.643 330.006 224.617C334.86 225.133 342.298 225.671 346.82 226.848C348.134 227.191 349.166 227.541 348.881 229.118C342.572 228.811 336.303 227.826 330.006 227.393C314.836 226.35 301.71 227.458 286.739 228.096C281.47 228.32 277.724 227.447 272.83 227.089C268.261 226.757 256.253 228.529 251.41 229.471C250.908 229.569 250.338 229.468 250.193 230.157C256.278 230.193 262.32 231.344 268.376 231.889C272.703 232.275 277.605 232.03 281.845 232.618C283.343 232.824 285.205 233.842 283.188 234.939C272.707 235.181 262.223 234.596 251.792 235.747C249.226 236.029 246.66 236.772 244.087 237.046C226.178 238.938 208.078 237.57 190.094 236.758C181.818 236.382 173.478 236.216 165.18 235.7C161.066 235.444 155.945 234.271 152.018 234.289C150.361 234.297 148.25 234.982 146.496 235.029C123.715 235.617 102.219 233.939 79.6442 232.247C64.9911 231.146 49.1218 230.767 34.6745 228.739C32.924 228.493 30.6864 228.378 29.6253 226.877C29.6253 225.538 35.27 224.603 36.3635 224.596C53.3372 224.527 71.1411 227.212 88.3205 226.689L100.599 227.739C98.9674 226.371 93.0773 223.199 92.9727 220.958C92.9366 220.157 93.7486 219.738 93.5104 219.428C91.2475 218.608 89.9518 216.349 88.1112 215.126C86.1153 213.798 83.5204 213.069 81.7122 211.134C78.6877 207.897 77.5039 204.061 75.3854 200.495C66.3698 185.295 59.6604 171.241 56.0946 153.648C54.2937 144.748 55.3692 138.581 55.2465 129.908C55.0805 118.046 47.4905 108.092 42.6903 97.7999C41.5787 95.4107 41.9288 93.249 40.1387 90.3077C36.165 83.7864 26.6586 82.1949 21.844 75.3596C19.1444 71.5269 18.7907 68.4557 20.9201 64.1719C11.0925 56.3911 3.98247 45.5427 2.2934 32.9295C-0.445926 12.4886 16.4376 4.1231 34.5229 7.28091C47.3208 9.51483 48.3783 19.8291 52.6371 29.6815C53.2939 31.1972 55.1165 33.6332 55.4233 34.8675C55.5785 35.4882 55.5821 35.4991 55.048 35.9213C54.4489 36.0476 54.2179 35.7589 53.8353 35.4088C52.3086 34.0122 50.6557 31.0096 49.1723 29.3386C45.491 25.1992 37.504 16.6713 32.3755 15.318C23.9698 13.0985 14.1963 13.1382 9.80399 21.8393C5.87004 29.6346 9.46112 37.0906 13.5286 43.8573C19.1913 53.2802 27.3516 63.3744 37.6773 67.8386C43.0946 70.1844 48.9846 68.398 53.496 72.274L53.5105 72.2631ZM323.953 86.8107C319.001 87.3268 314.176 86.6339 309.275 85.8507C306.128 88.7956 302.197 91.228 297.801 91.6503C291.586 92.2493 288.934 91.394 283.235 90.647C278.745 90.0551 279.64 91.4121 277.211 93.9167C272.198 99.0846 265.904 100.391 259.043 98.2149C256.856 97.522 254.791 95.8583 252.694 95.2159C250.255 94.4688 247.36 94.5374 244.866 93.8192C240.33 96.7064 234.551 102.852 229.159 103.693C226.124 104.166 220.306 103.405 217.282 102.578C215.333 102.048 212.034 99.1099 210.558 99.2615C210.157 99.3012 206.472 102.015 205.48 102.52C195.916 107.382 182.114 107.515 174.893 98.6624C170.854 100.593 167.501 100.907 163.109 101.001C157.287 101.124 154.1 100.665 148.459 99.7198C145.485 99.2218 142.447 99.164 139.541 98.2654C134.308 101.885 128.754 103.715 122.286 103.04C117.453 102.535 114.122 99.1243 110.105 96.8507C100.729 99.9183 90.5329 98.5758 81.2069 95.9846C78.9765 95.3638 76.9554 94.4003 75.0064 93.184C73.8732 92.4767 69.6397 88.7306 69.2788 88.6765C68.6255 88.5791 67.1025 89.2575 66.146 89.2575C64.5472 89.2575 62.2626 88.6404 60.6024 88.543C58.6607 88.4275 56.7154 88.7342 54.7917 88.2579C51.2187 89.9865 52.6768 94.3822 53.9544 97.2694C54.9686 99.5574 56.6685 102.463 58.7257 103.928C60.0033 104.837 63.5294 105.573 61.9847 107.901C60.44 110.229 58.5272 108.172 56.7984 107.241C55.2717 106.761 60.0827 111.175 60.2668 111.391C67.088 119.298 73.0575 128.479 81.9323 134.394C83.4049 135.376 86.7758 136.029 86.1803 138.339C85.3863 141.414 79.0126 138.707 77.0672 137.873C71.7474 135.596 69.8743 133.117 66.1532 129.05C65.7635 128.624 65.4964 128.483 65.6371 129.216C66.0089 131.157 67.0736 133.561 67.6077 135.56C68.51 138.949 70.5997 150.992 72.397 152.93C72.7543 153.316 77.5003 156.221 78.334 156.69C80.5103 157.906 82.6614 158.939 85.1986 159.177C87.2125 159.368 90.7422 158.329 91.4604 160.905C92.388 164.237 82.5639 164.211 80.7269 163.995C78.7816 163.767 77.1286 162.54 75.3204 162.475C75.9953 166.333 76.9518 170.144 77.6519 173.995C78.464 178.452 78.5542 184.096 80.7991 188.164C81.4668 189.373 82.6361 190.542 83.3471 191.848C85.1264 195.093 87.9849 203.108 92.2725 203.7C93.5573 203.877 96.8597 202.343 97.4371 204.083C98.0146 205.822 96.0982 206.432 94.7953 206.876C91.8286 207.883 89.4213 207.533 86.7541 205.93C87.4363 209.276 91.1067 213.047 94.2719 214.162C98.0038 215.48 102.457 214.924 106.312 215.281C122.928 216.829 139.469 218.673 156.165 219.446C157.731 219.518 165.455 219.153 166.068 219.583L166.346 221.117C160.164 223.542 153.05 222.318 146.471 222.531C139.891 222.744 134.03 223.091 127.772 223.224C126.953 223.242 126.195 223.589 125.375 223.6L107.528 222.896C107.445 223.394 108.127 223.365 108.492 223.481C128.107 229.843 158.796 224.863 180.09 225.646C184.323 225.801 188.64 226.57 192.87 226.714C206.093 227.165 218.982 224.812 232.018 223.242C241.214 222.134 252.536 222.17 261.021 218.655C262.306 218.121 263.774 217.486 264.738 216.486C255.683 214.429 266.424 211.632 268.874 209.886C275.594 205.104 280.853 192.664 284.173 185.367C288.822 175.15 293.611 165.02 297.036 154.254C300.342 143.857 302.01 132.027 305.687 122.048C308.188 115.256 312.826 110.453 316.479 104.448C319.745 99.081 322.672 92.9603 323.949 86.8179L323.953 86.8107Z" fill="black" stroke="black" stroke-width="4"/>
<path d="M334.914 36.376C339.169 40.815 341.306 46.3402 341.613 52.3635C341.634 52.7533 341.385 53.3127 341.956 53.2224C342.439 51.3999 343.789 49.5413 344.287 47.7621C344.749 46.1237 344.54 44.9003 344.818 43.4459C346.236 35.9862 353.602 31.024 353.039 23.1024C352.195 23.0013 351.541 23.4199 350.95 23.9505C348.282 26.3323 344.587 30.2841 341.945 32.9511C341.154 33.7487 338.596 37.4009 337.903 37.5922C337.293 37.7943 336.538 37.5453 336.246 36.9498C334.929 34.2503 339.007 25.8993 340.913 23.6112C343.544 20.4498 347.521 16.5017 352 18.2556C352.339 14.4554 355.479 15.8521 356.807 18.4685C359.846 24.4485 359.373 29.916 355.955 35.5387C354.479 37.9711 352.296 39.8478 350.903 42.2585C349.466 44.7487 348.975 47.4698 347.68 50.1151C346.557 52.4032 343.089 59.4803 341.44 53.919C340.747 54.7598 340.772 55.8281 339.541 56.2034C337.109 56.9432 337.401 52.6955 337.008 51.0751C334.081 39.0141 319.994 33.1207 310.264 41.7858C307.676 44.0883 305.298 47.0367 307.045 50.5627C311.033 58.6033 319.543 56.3117 326.039 53.0636C327.79 52.1903 329.479 49.6893 331.417 52.1578C333.406 54.684 329.623 57.6975 327.4 58.5817C318.374 62.1689 305.399 61.0863 300.61 51.4504C297.513 45.2142 302.829 36.1992 308.25 32.8537C309.055 32.3557 311.675 31.4209 311.989 31.0528C312.769 30.1326 314.151 25.2822 314.241 23.9613C314.598 18.7645 310.538 12.1746 305.07 11.6801C298.08 11.045 292.034 15.1375 288.905 21.1283C288.421 22.0594 286.963 25.2172 286.906 26.0833C286.819 27.4367 287.566 29.4613 287.288 31.0167C290.717 31.7024 297.834 37.4334 297.928 40.9413C297.953 41.9085 297.311 42.4209 296.387 42.4751C294.409 42.5942 292.164 39.6204 290.248 38.6171C282.459 34.5282 269.791 42.5292 264.035 47.8487C261.44 50.2451 259.657 51.8474 259.906 55.7667C260.187 60.2273 264.504 63.4718 268.528 64.4859C281.131 67.6581 293.312 63.0315 305.763 63.266C306.651 63.2841 309.43 63.5115 310.195 63.6811C312.48 64.1827 312.83 66.1676 310.444 67.2503C308.763 68.0118 303.522 69.0908 301.515 69.4012C293.503 70.6535 285.152 71.2021 277.009 70.8953C274.999 70.8195 272.866 70.123 270.78 70.1699C268.066 70.2313 265.226 71.3681 262.475 71.5702C256.863 71.9852 251.446 70.5922 245.899 71.2707C233.747 72.7575 219.065 77.0594 206.812 74.2624C206.177 74.1181 205.643 73.4468 205.343 73.4252C204.744 73.3819 201.911 75.5039 201.03 75.9189C194.826 78.8205 175.622 78.7303 169.497 75.5653C161.146 71.2454 162.961 61.7503 168.288 55.644C177.611 44.9544 195.642 42.4751 205.7 53.5617L206.202 53.5689C210.158 47.1342 215.232 42.2621 221.819 38.5377C228.131 34.9685 232.971 34.687 239.796 37.2963C233.058 29.1148 237.872 20.9226 245.502 15.8232C253.691 10.3485 264.955 10.4964 273.223 15.8232C274.119 16.4006 277.951 18.833 275.8 19.8291C275.151 20.1286 269.311 17.7251 267.669 17.5663C261.645 16.9817 253.485 19.2264 248.487 22.6152C247.837 23.0555 244.968 25.2749 244.679 25.7333C243.105 28.2451 245.011 37.1736 248.631 37.3215C250.165 37.3829 251.439 35.8852 252.796 37.2854C255.236 39.8045 247.815 41.9482 246.029 41.6234C248.642 43.8212 249.757 47.2785 253.294 48.3757C257.856 38 269.315 30.6089 280.655 30.3671C277.378 23.4957 277.984 16.812 283.549 11.4456C293.543 1.80613 312.126 2.45573 318.359 16.0397C320.745 21.2402 319.853 25.127 317.363 30.0207C320.438 29.7644 323.347 30.313 326.364 30.7172C326.306 29.3278 326.606 27.9636 326.96 26.6355C328.375 21.3087 331.587 12.3225 335.531 8.54759C351.7 -6.92747 374.095 7.18703 370.645 28.4255C369.699 34.2539 365.354 40.6237 362.17 45.5751C361.806 46.1453 359.669 48.686 359.666 48.8917C359.666 49.1119 360.644 49.7939 360.618 50.9308C360.543 54.4783 356.894 57.0154 354.31 58.8415C352.588 60.0577 346.416 64.2946 344.8 64.5689C341.945 65.0525 337.04 64.2585 333.785 64.2874C332.796 64.2982 331.962 64.6411 331.045 64.6627C329.901 64.6916 323.582 65.1066 323.935 63.4429C325.415 62.5948 327.368 62.9413 329.197 62.4721C331.76 61.8153 334.322 60.2201 337.073 59.6138C338.534 59.2926 340.646 59.3792 341.956 58.957C342.778 58.6935 345.904 55.8822 347.463 55.1135C350.343 53.6952 355.742 52.7136 357.529 49.9455C361.629 43.5974 365.17 29.3566 364.44 21.8898C363.596 13.1959 355.205 6.74675 346.77 10.7923C342.324 12.9252 336.924 20.125 333.828 24.167C333.128 25.0837 329.342 30.6558 329.176 31.3163C329.1 31.6122 329.057 31.8612 329.277 32.1139C331.157 33.2254 333.388 34.8097 334.893 36.3796L334.914 36.376ZM207.328 71.1588C207.873 71.4872 218.148 69.3507 219.902 69.1522C225.803 68.4882 237.129 68.9032 242.131 66.4491C245.249 64.9189 249.187 58.2316 249.187 54.7779C249.187 48.2674 243.712 48.4767 238.948 48.372C234.176 48.2674 229.293 48.1483 224.493 49.1588C221.728 49.7398 219.289 50.8622 216.853 52.2552C214.005 53.8829 211.284 56.8783 207.949 57.0335C208.873 59.7979 209.883 67.7411 205.7 68.1237C200.85 68.5676 201.875 63.3815 199.987 60.664C194.249 52.3852 176.178 52.6522 171.172 62.3241C168.234 68.001 171.143 70.2601 176.654 70.8376C182.165 71.415 191.993 71.4403 197.731 70.8773C200.395 70.6138 204.195 68.5676 206.715 70.2241C207.101 70.4767 207.187 71.0722 207.328 71.1588Z" fill="black" stroke="black" stroke-width="4"/>
<path d="M135.611 36.5674C141.317 37.3037 144.583 41.5008 148.9 44.5756C153.296 36.8309 161.763 34.3516 170.284 35.3115C174.647 35.8023 179.278 38.4044 181.006 42.5943C183.919 49.6606 176.639 42.7784 174.2 42.4788C170.121 41.9772 159.442 44.9834 156.71 48.2062C154.201 51.1691 155.244 55.7272 151.502 57.1924C147.214 58.8706 146.182 55.5215 143.706 53.2298C138.119 48.0546 130.19 43.9296 122.336 45.0015C118.911 45.4706 112.462 50.3752 111.762 53.8217C111.347 55.8679 112.498 60.0146 110.495 61.2092C106.391 63.6596 104.67 53.7026 105.088 51.1619C102.717 51.0031 101.324 48.946 98.9674 48.1088C94.4813 46.51 90.0998 48.3397 86.4365 51.0067C83.4157 53.2046 82.1308 54.1501 82.6361 58.2065C83.0115 61.2344 84.9423 61.7433 87.7069 62.1402C98.0254 63.6235 108.694 60.7652 118.883 63.5152C121.878 64.3236 124.668 66.0415 127.609 66.9076C136.549 69.5349 148.925 67.0015 158.568 68.1527C159.763 68.2971 164.112 69.7623 163.625 71.3899C163.369 72.2524 159.438 71.5162 158.262 71.5812C147.925 72.1442 135.333 75.403 125.249 73.0717C121.979 72.3174 118.626 70.5057 115.313 70.1954C107.142 69.4303 98.0254 70.6537 89.6811 70.2026C84.8485 69.9427 79.987 68.824 75.1472 68.4595C69.6902 68.0481 64.3342 67.9326 58.87 67.4201C56.802 67.2288 54.4921 67.9145 52.6262 66.738C52.2689 65.9693 52.3628 65.2187 52.9691 64.6232C53.6043 63.9988 54.7989 64.2659 54.5463 63.2626C50.9335 61.7758 48.4252 58.008 46.8661 54.4929C44.3072 48.7187 44.3974 45.5537 49.3491 41.2663C57.4372 34.2649 72.9276 32.4388 79.341 42.4572C87.18 37.5599 96.2642 39.1226 103.031 45.0737C103.648 45.6186 105.128 47.6757 105.623 47.6793C108.82 41.4106 115.227 36.8706 122.25 35.907C125.328 35.4848 128.338 35.8276 131.421 35.8998C130.475 33.6298 127.36 29.9126 125.155 28.8371C121.066 26.845 111.588 26.217 107.055 26.596C104.868 26.78 96.1595 28.4401 95.2139 30.3493C95.0118 30.7535 96.8633 32.76 94.7339 34.7016C92.2941 36.9247 86.6603 34.3552 85.8807 31.4103C84.4046 25.8489 90.9479 20.93 95.4196 19.1147C105.157 15.1557 121.091 14.535 129.948 20.9336C134.257 24.0481 136.008 31.4861 135.618 36.5602L135.611 36.5674ZM69.7227 42.5727C67.1277 42.5907 63.681 43.3161 61.2051 44.1245C59.249 44.7633 52.1967 47.7334 52.5504 50.2128C52.6082 50.6061 54.5355 54.7636 54.8855 55.1353C55.7806 56.0917 60.2559 57.7987 61.5985 57.7013C67.2829 57.2935 73.7937 50.801 75.934 45.7738C74.1691 43.7456 72.5125 42.551 69.7263 42.5727H69.7227Z" fill="black" stroke="black" stroke-width="4"/>
<path d="M177.827 19.9813C183.533 14.3874 191.798 12.5685 199.514 14.3947C206.187 15.9754 215.358 23.4531 217.404 30.0935C218 32.0242 219.657 40.415 216.726 40.6821C214.918 40.8481 214.495 37.3221 213.9 36.0193C212.781 33.5833 211.875 31.5009 209.843 29.6857C203.322 23.85 194.191 21.2444 186.662 26.914C184.19 28.7762 182.468 32.6269 179.361 33.1177C175.156 33.7782 174.488 30.7683 174.705 27.2532C172.575 27.6611 171.233 28.4478 169.028 27.5636C166.823 26.6794 166.483 24.1063 168.147 22.5869C169.598 21.266 170.027 23.5613 170.663 23.4097C176.347 20.8474 171.049 18.7001 167.566 18.2887C163.47 17.8051 152.458 20.4685 149.596 23.4422C145.958 27.2172 152.595 26.5856 151.354 30.3858C150.35 33.457 143.648 30.8044 142.147 29.0649C140.992 27.726 140.371 25.0374 140.411 23.2907C140.606 14.4632 152.888 8.31002 160.673 8.55543C166.516 8.73948 177.289 13.2037 177.823 19.9813H177.827Z" fill="black" stroke="black" stroke-width="4"/>
<path d="M22.2482 18.3062C22.6308 18.2268 23.0711 18.1511 23.4068 18.3965C24.5328 22.9184 20.4148 26.7259 22.2807 31.302C25.1139 38.26 30.3616 41.7137 34.9921 46.9863C39.2436 51.8259 42.73 57.4414 46.0937 62.9089C46.1298 67.8098 40.4671 64.3164 38.2295 62.7934C26.4926 54.7888 14.7377 37.0221 19.48 22.4854C19.8951 21.2078 20.7902 18.613 22.2519 18.3099L22.2482 18.3062Z" fill="black" stroke="black" stroke-width="4"/>
<path d="M30.8991 25.5959C36.3597 24.3436 46.3642 32.8101 46.1946 38.173C46.1296 40.2012 43.43 41.3127 41.6038 40.3636C39.2542 39.1402 35.858 33.6221 33.4291 31.5758C32.4402 30.7422 30.0149 29.6198 29.4554 28.9702C28.2572 27.5808 29.3436 25.9496 30.8991 25.5923V25.5959Z" fill="black" stroke="black" stroke-width="4"/>
<path d="M189.686 33.0522C188.744 32.0597 189.441 30.0929 189.989 29.0355C191.884 28.3786 191.278 30.3599 192.187 30.3996C195.089 30.526 195.104 26.5561 197.565 27.7687C200.442 29.187 196.724 34.4055 192.902 34.1926C192.281 34.1565 190.054 33.4383 189.69 33.0522H189.686Z" fill="black" stroke="black" stroke-width="4"/>
<path d="M120.427 49.8411C122.167 48.1197 126.231 51.4182 124.091 54.7204C121.676 58.4448 116.19 55.3194 118.594 53.0278C119.081 52.5658 119.98 52.4901 120.193 52.2013C120.341 52.0029 119.655 50.6026 120.427 49.8375V49.8411Z" fill="black" stroke="black" stroke-width="4"/>
<path d="M293.135 58.4126C293.651 58.9937 297.675 55.1429 298.689 56.9149C299.519 60.2026 291.814 63.7394 290.785 59.2066C289.757 54.6738 293.644 52.9559 293.139 58.4126H293.135Z" fill="black" stroke="black" stroke-width="4"/>
<path d="M329.064 42.5725C330.601 45.1709 327.707 48.5561 324.917 48.3035C323.232 48.1519 321.008 46.8888 321.528 44.9147L324.405 45.207C326.26 44.2434 326.621 41.0062 329.064 42.5761V42.5725Z" fill="black" stroke="black" stroke-width="4"/>
<path d="M152.812 174.482C153.794 175.189 152.61 176.575 151.762 176.918C146.399 179.083 132.5 172.111 126.068 171.627C123.408 171.425 120.492 171.913 117.832 171.552C115.172 171.191 105.11 166.698 102.786 165.128C99.5883 162.966 101.364 159.877 104.58 159.837C108.911 159.783 115.187 163.168 119.864 163.634C121.683 163.814 123.542 163.533 125.357 163.681C133.236 164.323 141.4 170.866 149.336 173.638C150.069 173.894 152.614 174.338 152.812 174.482Z" fill="black" stroke="black" stroke-width="4"/>
<path d="M121.994 145.77C125.624 145.391 129.428 146.964 132.98 147.055C134.055 147.083 135.373 146.621 136.805 146.697C147.167 147.235 155.548 151.825 165.866 152.259C166.703 152.457 167.732 153.561 167.692 154.438C167.375 156.726 165.346 156.806 163.444 157.091C155.161 158.34 148.474 155.521 140.591 154.677C136.971 154.29 133.258 154.55 129.62 153.875C127.335 153.453 125.126 152.435 122.849 151.992C121.149 151.659 116.97 152.331 116.916 149.314C116.869 146.827 120.037 145.972 121.994 145.766V145.77Z" fill="black" stroke="black" stroke-width="4"/>
<path d="M80.7703 119.074C81.9072 118.829 83.4591 119.352 84.6104 119.594C97.4697 122.265 107.756 131.157 120.417 134.69C122.07 135.152 127.27 135.73 128.31 136.491C131.219 138.62 122.189 140.042 121.2 140.125C107.416 141.309 100.263 133.683 89.7534 127.606C86.4872 125.718 82.8961 124.571 79.4963 122.972C78.0166 121.597 78.9622 119.461 80.7703 119.071V119.074Z" fill="black" stroke="black" stroke-width="4"/>
<path d="M153.866 197.356C157.854 197.117 162.658 199.265 166.664 199.94C175.618 201.444 185.5 199.608 194.602 199.33C197.24 199.247 202.611 199.564 197.717 202.098C189.326 203.13 180.978 206.569 172.442 206.284C167.999 206.136 164.112 204.519 159.283 204.869C156.833 205.046 154.548 206.01 152.018 205.941C150.383 205.894 141.895 204.043 141.288 202.809C139.173 198.528 148.07 198.536 149.925 198.279C151.138 198.11 152.502 197.442 153.87 197.359L153.866 197.356Z" fill="black" stroke="black" stroke-width="4"/>
<path d="M102.241 103.852C103.685 103.718 107.128 104.779 108.712 105.184C114.985 106.786 121.81 109.879 128.227 110.601C131.623 110.983 135.113 110.471 138.516 110.702C143.944 111.066 147.214 112.593 152.108 114.08C153.079 114.375 154.425 113.755 154.92 115.101V115.996C154.046 119.006 145.976 116.736 143.71 116.588C136.788 116.137 130.735 117.468 123.798 116.068C115.833 114.458 108.756 110.254 101.176 107.526C99.4007 106.468 100.245 104.036 102.241 103.852Z" fill="black" stroke="black" stroke-width="4"/>
<path d="M258.043 138.166C259.202 138.141 260.559 139.101 260.559 140.306C260.559 142.811 251.273 148.571 249.313 150.505C247.104 152.681 245.913 155.579 243.04 157.391C240.355 159.083 228.084 161.711 224.691 161.92C221.645 162.108 220.14 159.098 222.714 157.492C225.846 155.539 231.827 154.821 235.403 153.215C239.29 151.469 240.171 146.492 243.849 144.002C245.823 142.663 252.846 139.88 255.394 138.927C256.083 138.671 257.376 138.184 258.047 138.17L258.043 138.166Z" fill="black" stroke="black" stroke-width="4"/>
<path d="M89.8691 176.492C92.2186 175.796 94.727 176.113 97.0621 176.738C98.6176 177.153 100.101 178.192 101.548 178.484C108.055 179.802 113.834 181.39 120.077 183.847C125.347 185.919 128.566 188.12 134.46 189.203C135.604 189.412 140.664 189.307 140.404 190.816C139.444 192.335 137.632 192.126 136.08 192.083C133.179 191.996 129.941 191.209 127.09 191.036C116.674 190.397 110.759 191.484 101.534 185.081C98.6573 183.086 97.6143 179.794 94.3047 178.806C92.7095 178.329 89.7139 178.784 89.8691 176.496V176.492Z" fill="black" stroke="black" stroke-width="4"/>
<path d="M128.389 128.44C129.576 127.256 136.538 127.509 138.516 127.318C142.771 126.903 147.878 125.723 152.039 125.921C156.526 126.138 161.383 128.007 165.88 128.353C168.01 128.516 174.777 127.769 175.903 129.064C178.047 131.533 173.64 132.879 171.933 133.377C161.683 136.376 153.876 132.078 143.699 132.529C139.415 131.414 133.622 132.511 129.537 131.457C128.19 131.111 127.339 129.49 128.389 128.444V128.44Z" fill="black" stroke="black" stroke-width="4"/>
<path d="M261.111 200.878C262.432 201.142 262.829 202.102 261.598 202.953C259.736 204.242 254.907 205.458 252.489 206.656C250.547 207.616 248.569 209.254 246.621 210.139C241.647 212.398 226.279 213.802 220.573 213.556C218.451 213.466 214.387 213.185 212.424 212.701C208.346 211.701 209.88 207.692 213.745 207.046C218.065 206.32 223.973 207.309 228.546 206.959C231.776 206.71 235.237 205.635 238.579 205.566C242.34 205.487 243.805 206.053 247.768 205.057C252.204 203.942 256.625 201.914 261.108 200.885L261.111 200.878Z" fill="black" stroke="black" stroke-width="4"/>
<path d="M224.486 123.6C227.019 123.257 231.332 123.9 228.73 127.155C226.128 130.41 213.741 136.062 209.403 136.913C203.462 138.083 194.357 139.443 188.38 139.783C187.146 139.851 183.829 140.219 183.421 138.848C183.092 137.736 183.666 136.859 184.666 136.415C190.412 135.073 196.32 134.308 201.979 132.604C209.648 130.302 216.495 124.679 224.486 123.6Z" fill="black" stroke="black" stroke-width="4"/>
<path d="M309.654 102.495C311.202 104.487 306.73 106.198 305.435 107.244C304.384 108.096 303.536 109.301 302.453 110.15C295.047 115.978 284.715 116.27 275.63 115.906C274.19 115.848 270.628 115.725 269.484 115.473C267.293 114.986 267.315 112.64 269.484 112.16C271.653 111.68 275.288 112.015 277.677 111.698C280.272 111.351 284.628 110.305 286.992 109.24C291.305 107.295 295.596 102.452 300.732 101.51C302.576 101.171 308.455 100.961 309.65 102.495H309.654Z" fill="black" stroke="black" stroke-width="4"/>
<path d="M192.642 183.172C198.662 182.833 202.791 184.969 208.126 185.489C212.074 185.875 221.194 184.724 224.356 186.918C226.085 188.116 225.092 190.188 223.287 190.614C220.256 191.325 213.398 192.01 210.219 192.086C204.04 192.234 198.211 188.766 191.516 188.596C189.308 188.538 183.316 190.195 184.118 186.438C184.634 184.009 190.592 183.288 192.642 183.172Z" fill="black" stroke="black" stroke-width="4"/>
<path d="M285.776 157.874C288.36 157.722 289.439 159.408 288.244 161.728C287.44 163.283 281.059 167.784 279.29 168.704C274.129 171.389 262.049 174.258 256.257 174.431C255.744 174.446 254.809 174.522 254.499 174.089C253.218 172.317 257.495 171.108 258.484 170.408C259.931 169.383 261.003 167.441 262.641 166.6C264.962 165.406 268.65 165.586 271.408 164.633C275.508 163.215 281.38 158.13 285.776 157.877V157.874Z" fill="black" stroke="black" stroke-width="4"/>
<path d="M264.655 117.367C266.716 117.089 274.252 116.703 274.093 119.843C273.956 122.597 269.08 122.669 267.171 123.347C264.756 124.206 261.992 126.321 259.433 127.382C254.9 129.262 245.48 131.644 240.655 131.828C239.113 131.886 237.284 131.132 237.782 129.302C238.265 127.508 246.66 125.953 248.804 125.061C253.853 122.968 259.011 118.129 264.655 117.367Z" fill="black" stroke="black" stroke-width="4"/>
<path d="M241.445 168.238C243.675 167.758 244.545 169.902 243.57 171.772C240.232 178.192 222.367 178.614 216.091 178.217C214.037 178.087 206.389 177.174 205.162 175.99C204.202 175.063 204.285 174.182 205.173 173.193C206.739 171.447 212.045 172.955 214.34 173.042C221.598 173.316 230.094 172.778 236.962 170.357C238.225 169.913 240.679 168.404 241.445 168.242V168.238Z" fill="black" stroke="black" stroke-width="4"/>
<path d="M129.688 202.119C129.916 203.812 127.729 204.339 126.364 204.498C122.712 204.931 113.725 205.255 110.167 204.844C107.572 204.544 103.403 202.43 101.068 201.13C99.8336 200.448 95.5965 198.265 95.8058 196.825C98.4585 191.913 105.341 195.793 109.607 196.749C112.891 197.482 116.54 197.655 119.662 198.471C122.784 199.286 126.393 201.304 129.696 202.119H129.688Z" fill="black" stroke="black" stroke-width="4"/>
<path d="M174.467 115.091C172.352 113.189 174.156 110.883 176.426 110.168C181.086 108.699 187.005 108.262 191.845 107.923C194.266 107.754 198.146 106.887 200.449 107.634C201.871 108.096 201.575 110.955 200.452 112.03C199.254 113.178 192.794 115.7 190.997 116.079C187.839 116.747 176.777 117.166 174.467 115.087V115.091Z" fill="black" stroke="black" stroke-width="4"/>
<path d="M278.846 179.687C284.516 178.712 285.862 182.35 281.712 186.013C276.868 190.29 264.698 193.866 258.325 193.74C257.159 193.718 255.751 192.939 256.13 191.618C256.538 190.192 262.013 189.51 263.543 188.965C268.759 187.099 273.707 180.571 278.85 179.687H278.846Z" fill="black" stroke="black" stroke-width="4"/>
<path d="M179.736 155.023C180.328 154.85 181.764 156.333 182.937 156.658C189.921 158.585 199.882 155.387 207.086 155.009C212.525 156.95 208.602 160.343 205.169 161.764C199.333 164.179 193.609 163.197 187.716 161.573C185.68 161.01 181.169 159.617 179.952 157.91C179.519 157.3 178.635 155.344 179.736 155.023Z" fill="black" stroke="black" stroke-width="4"/>
<path d="M66.915 100.384C67.9689 100.146 69.4595 100.29 70.5567 100.406C73.1191 100.673 82.1961 102.586 84.3363 103.596C87.5231 105.097 87.5195 109.572 84.3507 110.547C80.6333 111.687 72.3215 108.728 68.7593 107.053C67.0017 106.227 64.4392 105.346 64.6016 102.928C64.6702 101.918 65.9153 100.612 66.915 100.384Z" fill="black" stroke="black" stroke-width="4"/>
<path d="M266.207 152.515C264.381 149.613 268.585 147.563 270.74 146.304C273.469 144.712 284.018 139.281 286.617 138.638C288.049 138.285 289.168 138.194 290.19 139.436C290.67 140.631 290.316 141.655 289.511 142.569C287.92 144.377 281.943 148.004 279.619 148.953C278.305 149.49 276.886 149.678 275.63 150.158C273.642 150.92 267.907 154.222 266.203 152.511L266.207 152.515Z" fill="black" stroke="black" stroke-width="4"/>
</svg>
