<svg width="435" height="198" viewBox="0 0 435 198" fill="none" xmlns="http://www.w3.org/2000/svg">
<path d="M381.884 31.4516C383.111 30.9005 384.511 30.4926 385.65 29.7578C387.898 28.3065 388.412 26.2526 391.844 26.9507C395.613 27.7186 395.143 32.2232 395.782 34.9935C398.167 45.2959 402.23 54.9701 404.548 65.0043C405.889 70.8205 406.316 76.7727 407.366 82.6294C409.641 95.2796 414.016 107.493 417.378 119.856C418.366 123.494 418.829 127.403 419.748 130.879C420.571 133.987 424.178 137.83 425.648 140.84C427.57 144.778 429.373 152.806 430.343 157.293C431.155 161.037 433.169 170.266 432.989 173.676C432.588 181.245 422.665 180.466 417.393 181.366C410.625 182.52 405.261 183.611 398.266 184.445C376.443 187.054 353.649 189.262 331.642 187.961C324.467 187.538 317.347 186.315 310.168 185.907C308.801 188.046 308.581 188.446 305.895 188.336C300.634 188.119 295.303 187.245 290.042 186.914C276.316 186.047 262.506 186.065 248.806 185.143C246.95 185.018 240.998 183.732 239.819 184.272C239.216 184.548 237.717 186.3 236.531 186.973C232.901 189.03 228.643 191.543 225.017 193.436C211.713 200.387 202.032 191.591 190.702 186.142C182.046 181.979 161.597 178.577 151.883 178.434C138.701 178.239 124.886 181.3 111.679 181.968C107.971 182.156 104.066 181.733 100.388 181.957C92.8311 182.417 85.5199 186.407 78.0875 188.207C54.4418 193.943 28.86 195.945 5.67733 187.516C-0.223051 185.371 2.47364 182.226 3.61257 177.89C6.58113 166.603 8.67162 155.059 11.8496 143.823C16.071 128.902 21.5378 114.305 24.973 99.1338C27.9122 86.1419 33.0006 64.5009 32.9308 51.7184C32.9161 49.1171 30.6419 42.1692 33.9411 41.1221C35.734 40.5526 36.557 41.6328 38.0229 41.6879C39.2978 41.7356 40.5653 40.9604 41.8953 40.9384C43.093 40.92 44.107 41.3756 45.4002 41.3241C53.5197 40.9935 68.3735 31.797 76.3717 28.2146C85.6926 24.0408 97.4897 18.7315 107.2 16.0384C116.275 13.5215 125.364 11.2362 134.417 8.71203C141.452 6.74634 148.734 2.71943 156.082 2.17565C177.832 0.566357 192.26 10.0898 203.586 27.6708C207.264 33.3769 208.899 39.961 212.15 45.9022C214.829 43.6168 217.107 40.751 219.719 38.3187C233.551 25.4443 256.091 11.3905 274.949 8.59445C290.435 6.29808 307.953 7.12478 323.288 9.49095C330.026 10.5307 336.922 10.7732 343.528 11.813C350.589 12.9263 358.477 15.7848 365.491 16.2882C370.979 16.6813 376.479 15.4983 381.976 16.0163C383.023 16.1853 383.578 17.2288 383.581 18.2282C383.592 20.3445 382.079 24.4192 381.88 27.0499C381.77 28.5049 381.943 29.9966 381.88 31.4516H381.884ZM209.847 52.9676L207.396 52.0711C202.539 44.5942 197.914 36.86 191.187 30.9152C184.647 25.1357 173.673 20.3849 165.366 17.6072C162.945 16.7989 155.395 14.3188 153.293 14.2417C148.594 14.0727 141.434 16.8981 136.695 18.0261C126.922 20.3445 118.093 21.7334 108.28 23.4529C96.5271 25.5104 83.1465 31.1613 72.2642 36.0811C61.382 41.0008 55.713 45.9352 43.3097 45.5164C41.7997 45.4649 40.4073 46.5341 39.0773 45.2041C38.574 45.5531 38.5483 45.8397 38.5373 46.4129C38.4822 49.084 39.7901 53.8641 39.9591 57.0093C40.1648 60.9259 39.735 64.7691 39.5954 68.6234C38.4638 100.357 36.3182 133.359 29.6353 164.42C29.345 165.769 27.0414 173 27.4199 173.529C28.4633 174.991 31.4281 172.254 32.6736 171.688C38.3021 169.131 45.6023 169.311 51.6717 167.419C68.6123 162.139 84.7116 151.653 100.602 143.731C104.768 141.655 107.387 139.616 112.152 138.363C133.55 132.742 158.775 130.129 179.327 139.719C187.212 143.397 195.919 148.5 203.406 153.005C207.892 155.702 210.497 158.299 214.447 161.353C214.799 161.624 214.895 162.036 215.505 161.878C214.95 155.94 212.819 150.268 212.025 144.385C209.975 129.181 210.512 112.225 210.233 96.8228C210.023 85.2638 209.678 73.5137 209.498 61.951C209.45 58.9345 209.593 55.9584 209.847 52.9603V52.9676ZM376.946 20.8773C373.011 21.2667 369.091 22.3176 365.153 22.6519C361.637 22.9532 358.025 22.5931 354.579 22.6225C343.807 22.7144 332.778 23.7652 322.138 22.6335C315.484 21.9244 309.915 21.241 303.103 20.8699C289.454 20.1314 273.245 18.8124 259.916 21.7517C240.348 26.0652 232.192 30.3751 217.786 44.1312C217.088 44.7999 213.389 48.2977 213.197 48.7166C213.102 48.9297 213.73 50.2451 213.771 51.0056C213.84 52.3871 213.359 53.7429 213.37 55.253C213.422 61.4918 215.016 68.921 215.501 75.3398C216.706 91.3152 217.044 107.287 218.679 123.277C220.013 136.32 222.5 148.493 224.359 161.308C224.59 162.914 225.079 164.516 225.377 166.111C229.194 160.592 232.725 155.338 238.1 151.164C247.854 143.595 267.194 137.276 279.487 136.5C311.285 134.494 342.907 138.201 372.901 148.475C383.059 151.954 386.395 153.504 397.528 154.868C399.17 155.07 407.006 157.528 406.51 154.03C404.023 147.865 401.26 141.732 398.887 135.53C389.059 109.84 379.933 85.4769 374.591 58.3026C373.915 54.8672 372.956 50.9432 372.725 47.4784C372.118 38.3921 374.723 29.541 376.95 20.8699L376.946 20.8773ZM239.474 159.413C245.087 157.285 250.764 155.397 256.682 154.239C271.209 151.403 286.927 150.256 301.52 153.244C313.805 155.76 325.676 162.951 337.752 165.306C354.285 168.532 371.931 167.591 388.776 168.216C394.941 168.444 405.518 170.707 410.912 167.466C412.102 166.75 412.91 165.611 414.424 164.986C415.648 164.479 419.7 164.035 419.979 163.847C420.335 163.608 420.332 163.175 420.328 162.782C420.155 142.735 411.331 119.132 404.361 100.457C398.821 85.6165 392.38 71.842 389.041 56.2009C387.718 50.0062 386.969 43.6756 385.966 37.4221C385.334 36.4926 382.597 37.7492 381.535 37.4442C381.292 41.0339 382.005 44.5427 382.766 48.0259C385.646 61.1942 389.798 77.0593 393.699 89.9704C398.762 106.732 405.46 122.983 409.99 139.954C410.728 142.713 412.888 150.29 412.323 152.648C412.223 153.06 409.453 158.432 409.101 158.957C407.293 161.628 403.064 162.032 400.041 162.234C381.825 163.443 361.383 153.894 343.123 150.771C316.157 146.16 269.288 142.857 244.76 155.709C242.986 156.639 240.807 157.95 239.481 159.413H239.474ZM184.831 150.606C178.332 147.883 172.461 144.429 165.451 143.018C153.426 140.601 140.339 141.765 128.369 144.014C123.88 144.859 116.429 146.211 112.329 147.714C108.063 149.275 100.469 153.828 96.1193 156.183C80.9936 164.373 66.114 173.845 48.8427 177.291C43.1334 178.43 27.982 180.969 22.8862 179.834C20.5863 179.323 19.7449 177.853 19.3188 175.652C20.3291 162.348 23.7385 149.136 25.7996 135.916C26.3103 132.628 27.0194 128.649 27.2655 125.393C27.2949 125.004 27.5264 124.082 26.9202 124.17C25.4286 131.922 22.2836 139.205 20.0425 146.729C16.4972 158.634 14.2266 171.049 8.93981 182.329C10.0273 182.406 11.2948 183.328 12.3125 183.368C15.2517 183.49 20.0793 182.299 23.2205 181.987C38.4234 180.469 53.1486 177.721 67.5432 172.375C87.1842 165.082 106.043 155.478 126.132 149.184C140.798 144.591 159.315 144.837 174.327 147.898C177.791 148.603 180.565 149.794 183.857 150.708C184.195 150.804 184.915 151.293 184.834 150.609L184.831 150.606ZM195.055 159.42C189.269 157.469 182.843 155.937 176.792 154.945C160.289 152.233 133.858 153.031 118.328 159.354C112.935 161.551 107.604 164.792 102.236 167.231C86.398 174.433 69.9901 180.418 53.0715 184.691C51.1463 185.176 49.1587 185.283 47.2115 185.885C46.8074 186.01 45.9036 186.014 45.9513 186.558C56.514 185.437 67.8151 184.092 78.025 181.098C95.0685 176.097 109.794 165.464 127.311 161.996C146.449 158.207 167.365 156.245 186.767 158.362C189.184 158.626 191.536 159.299 193.909 159.681C194.284 159.74 195.136 160.052 195.052 159.42H195.055ZM366.725 180.565C366.593 179.929 366.034 179.907 365.505 179.848C353.043 178.515 339.387 178.867 327.414 174.932C317.149 171.559 305.642 165.449 294.947 164.042C284.252 162.635 273.248 162.422 262.212 163.296C252.99 164.027 243.504 165.155 234.892 168.583C234.808 169.197 235.693 168.914 236.119 168.932C267.583 170.104 298.338 176.079 329.537 179.507C341.878 180.862 354.314 180.561 366.725 180.561V180.565ZM425.237 167.172C424.814 166.794 422.646 169.307 421.963 169.711C420.747 170.428 418.701 170.663 417.742 171.39C417.102 171.875 416.474 173.569 415.721 174.22L425.96 173C426.669 172.585 425.277 168.161 425.237 167.172ZM234.187 174.22H225.902C225.582 174.22 224.734 175.392 223.812 175.3C223.665 175.285 222.662 173.602 221.354 173.911C220.498 174.113 220.957 176.108 217.096 175.979C208.425 175.689 197.201 171.967 188.126 170.751C185.169 170.354 182.178 170.13 179.199 169.991L192.241 174.04C198.171 177.181 203.722 181.649 210.222 183.556C211.386 183.897 214.663 184.798 215.685 184.794C218.168 184.787 224.928 179.863 227.717 178.496C230.241 177.258 232.559 177.155 234.187 174.216V174.22Z" fill="black" stroke="black" stroke-width="4"/>
<path d="M153.741 104.174C160.52 103.877 167.864 105.512 173.662 109.076C175.792 110.384 179.665 113.261 176.832 115.66C174.907 115.366 173.662 113.859 171.784 113.069C164.899 110.167 153.198 111.537 145.986 113.341C141.158 114.55 136.632 117.35 131.459 116.736C118.537 115.201 108.768 113.367 95.7148 116.652C91.8277 117.629 82.3048 121.715 78.9652 120.583C77.9916 120.253 77.8997 118.717 78.2818 117.908C78.9174 116.567 82.5767 116.071 84.0022 115.516C90.7218 112.9 96.49 110.556 103.919 110.053C113.225 109.425 126.326 111.831 134.956 109.013C141.992 106.717 145.758 104.531 153.738 104.178L153.741 104.174Z" fill="black" stroke="black" stroke-width="4"/>
<path d="M152.683 72.4451C157.059 72.1953 166.479 71.7176 170.473 72.4267C173.107 72.8934 173.313 75.3073 170.833 76.145C159.179 76.4427 148.157 76.4867 137.062 80.4438C132.546 82.0531 124.989 86.4034 120.768 87.0647C115.929 87.8216 110.595 86.5797 105.392 87.2007C97.9745 88.0861 90.2665 90.2025 83.3998 93.0904C80.9971 93.4211 82.4152 90.1694 83.308 89.0855C86.5337 85.1688 103.316 80.0801 108.5 79.731C112.343 79.4738 116.517 80.9876 119.394 80.7819C123.211 80.51 131.646 76.4169 136.04 75.1934C141.404 73.698 147.117 72.7648 152.683 72.4488V72.4451Z" fill="black" stroke="black" stroke-width="4"/>
<path d="M114.251 44.9358C119.736 44.2855 122.473 46.5561 126.871 46.6186C130.493 46.6737 135.365 45.4024 139.193 45.2004C147.202 44.7815 162.078 45.2077 169.768 47.0485C171.164 47.3828 172.847 48.6063 171.296 49.8115C169.878 50.9174 160.899 49.5212 158.573 49.4293C150.935 49.1281 143.69 49.2199 136.122 50.5867C131.188 51.4795 127.131 53.2468 121.922 52.9492C120.434 52.8647 118.516 52.2401 117.039 52.2732C110.724 52.4128 97.4238 56.0649 91.1487 58.1409C90.2045 58.4532 89.646 58.9161 88.79 59.2982C87.2616 57.3766 88.8341 55.4807 90.3661 54.1801C94.334 50.8108 109.008 45.5531 114.254 44.9321L114.251 44.9358Z" fill="black" stroke="black" stroke-width="4"/>
<path d="M288.047 44.5983C295.59 44.1427 300.542 45.2339 307.688 45.899C312.765 46.3693 318.512 45.8806 323.523 46.6301C325.536 46.9314 325.823 49.0514 324.092 49.6209C316.748 49.8928 309.382 49.7973 302.03 49.7936C293.863 49.7899 285.677 50.8518 277.675 52.9056C273.322 54.0226 270.456 56.5945 265.772 56.0875C259.475 55.4041 256.855 53.589 249.562 54.7574C246.252 55.2865 243.184 57.6343 240.065 59.0085C237.482 60.1438 234.712 60.8162 232.17 62.0544L231.016 61.5841C232.86 58.4243 236.523 57.1456 239.378 55.1469C242.012 53.3024 244.209 50.7819 247.306 49.6797C249.797 48.7942 255.393 47.6515 257.983 47.6332C260.61 47.6148 264.802 49.011 267.116 48.7097C269.137 48.4452 272.646 46.4905 275.35 45.9981C279.042 45.3221 284.27 44.8261 288.047 44.5983Z" fill="black" stroke="black" stroke-width="4"/>
<path d="M280.287 97.1238C285.703 96.6168 289.384 99.2071 294.002 101.533C295.733 102.404 296.486 103.488 298.863 103.719C301.604 103.987 301.835 102.984 303.992 102.146C315.524 97.6639 325.484 98.2885 337.597 99.8868C339.078 100.082 343.068 100.383 343.744 101.503C345.963 105.178 338.88 104.494 336.943 104.421C327.083 104.042 320.176 102.54 310.248 105.229C307.647 105.935 304.179 107.735 301.703 107.963C296.177 108.47 291.772 105.277 286.625 103.98C278.766 101.996 272.855 107.434 266.389 110.718C264.037 111.912 257.946 114.94 255.697 115.543C253.89 116.024 252.538 114.969 252.865 113.077C253.258 110.814 261.264 107.026 263.413 105.626C269.1 101.93 272.881 97.8145 280.287 97.1238Z" fill="black" stroke="black" stroke-width="4"/>
<path d="M308.841 69.9793C315.139 69.667 321.469 69.994 327.773 69.8764C328.876 69.8801 329.048 71.6217 328.075 71.9377C322.115 72.3051 316.097 72.1985 310.153 72.6982C302.912 73.3081 293.8 74.4508 286.629 75.6119C282.598 76.2659 278.425 78.2536 274.505 78.6431C266.308 79.4587 262.667 79.0582 254.746 82.501C252.16 83.6253 245.998 87.5971 243.544 87.1415C242.967 87.0349 242.559 86.7446 242.339 86.1898C241.564 83.0374 253.431 75.2187 256.087 73.9695C259.853 72.1948 265.125 71.8789 269.262 72.3381C270.967 72.5255 272.87 73.738 274.545 73.749C277.605 73.7674 282.451 72.0222 285.831 71.6401C292.926 70.8428 301.648 70.332 308.841 69.9756V69.9793Z" fill="black" stroke="black" stroke-width="4"/>
</svg>
