<svg width="498" height="456" viewBox="0 0 498 456" fill="none" xmlns="http://www.w3.org/2000/svg">
<path d="M237.658 200.431C243.923 196.299 249.279 191.065 255.587 186.966C260.686 183.651 266.106 180.74 271.651 178.236C278.414 167.495 286.548 157.553 293.474 146.944C295.245 144.228 296.54 141.154 298.301 138.432C311.2 118.517 322.503 103.672 322.572 78.3827C322.575 77.3037 322.537 72.5225 322.242 71.9608C321.591 70.7223 317.931 73.6873 317.161 74.2984C310.436 79.6386 302.793 92.3983 297.568 99.5717C292.344 106.745 286.809 111.456 282.825 119.658C275.4 134.949 279.713 151.417 274.497 168.255C273.77 170.606 271.425 175.71 268.297 173.681C265.986 172.179 267.602 169.409 267.61 166.982C267.64 157.923 264.158 152.1 266.103 142.265C269.916 122.952 278.29 113.006 288.307 97.2727C290.837 93.2971 292.605 88.7733 295.023 84.8682C299.331 77.9108 309.745 66.4866 317.339 63.4692C331.932 57.668 332.12 77.1843 331.925 86.6982C331.267 118.974 313.465 146.484 292.997 169.877C292.625 170.3 291.951 170.057 292.485 171.059C299.26 167.796 306.837 166.046 313.363 162.261C329.5 152.899 338.14 136.069 352.111 124.388C360.369 117.484 373.508 108.701 382.824 103.14C395.227 95.734 416.146 88.5784 428.65 99.1681C438.069 107.144 423.322 119.98 417.296 125.124C404.917 135.687 395.126 137.713 381.38 144.73C366.003 152.581 352.598 162.044 335.319 166.499C331.458 167.495 327.83 165.968 324.189 167.445L292.857 183.204C292.887 183.763 293.387 183.534 293.799 183.561C299.538 183.965 305.28 184.073 311 184.777C323.1 186.268 336.269 189.666 348.458 189.376C364.541 188.998 396.119 176.515 409.359 186.547C421.882 196.032 408.455 209.64 399.444 215.334C383.237 225.582 365.624 232.492 346.626 226.902C323.635 220.135 301.97 204.42 278.742 198.955C275.047 198.083 265.265 196.855 261.927 198.17C252.295 204.549 243.592 210.136 236.823 219.664C236.391 220.271 231.797 227.355 232.445 227.6C236.159 226.648 240.249 225.607 244.097 225.464C246.866 225.361 249.858 226.06 252.696 226.066C276.853 226.124 293.399 226.731 316.467 235.061C329.618 239.811 339.877 244.323 351.12 252.732C358.935 258.578 362.684 270.787 351.522 275.147C346.834 276.976 337.906 277.838 332.732 278.036C318.159 278.596 303.274 271.932 290.786 265.03C287.6 263.271 284.224 260.196 281.318 258.686C278.99 257.476 275.795 257.387 273.106 255.95C265.425 251.845 261.149 248.981 255.045 242.878C253.254 241.089 246.473 237.574 244.036 237.199C239.251 236.459 232.94 238.157 227.896 236.454C219.791 247.787 218.978 262.605 212.481 274.861C216.559 272.283 220.359 270.407 225.102 269.279C240.741 265.563 259.654 262.063 274.976 267.785C284.293 271.265 305.236 286.399 308.771 295.679C312.176 304.611 305.318 315.854 296.944 319.234C275.657 327.824 248.025 307.038 244.153 285.807C243.67 283.158 244.709 276.132 244.144 274.857C243.626 273.688 240.59 274.497 239.233 274.715C231.643 275.932 227.782 279.867 221.037 282.225C217.055 283.615 209.276 284.623 206.218 287.027C205.303 287.749 201.381 295.102 200.527 296.704C197.782 301.87 195.607 307.381 192.857 312.543C189.788 318.307 186.246 323.805 182.66 329.258C193.523 325.698 205.217 324.532 216.598 323.751C222.718 323.329 229.657 322.959 235.762 323.254C250.472 323.964 267.338 331.792 281.727 335.6C290.834 338.011 311.427 337.563 315.267 348.242C319.652 360.431 302.086 365.397 293.557 368.322C288.632 370.01 280.539 372.825 275.618 373.659C269.381 374.715 248.907 370.441 242.817 367.858C240.563 366.9 238.286 365.333 236.143 364.459C218.839 357.41 198.915 356.254 180.996 351.372C176.61 350.175 172.567 348.484 169.123 345.445L152.463 360.736L137.052 370.66C139.822 370.9 142.59 369.993 145.29 369.865C151.852 369.55 163.657 370.972 169.551 373.788C171.939 374.93 173.865 376.726 176.152 377.899C190.417 385.221 216.889 389.204 225.095 403.624C228.944 410.385 229.536 418.569 220.745 421.149C205.505 421.777 190.603 422.391 175.8 418.064C166.015 415.204 153.01 410.925 143.553 407.223C133.609 403.329 127.037 396.597 115.748 396.142C115.054 396.112 113.672 395.98 113.134 396.278C111.971 397.938 110.778 399.7 109.189 400.997C104.957 404.458 93.4546 410.416 88.2046 411.396C86.1881 411.772 82.0095 411.078 81.6752 408.525C81.5449 407.535 82.9665 402.451 83.5297 401.601C85.0285 399.351 87.3797 398.945 87.4721 395.237C87.6393 388.414 79.7832 376.204 76.8934 369.555C68.8556 351.062 60.8068 327.2 57.6871 307.334C55.0368 290.45 57.769 254.993 67.7265 240.825C74.2244 231.573 82.9043 234.221 88.6389 242.507C101.683 261.362 96.4325 281.62 103.861 301.854C109.456 317.095 115.911 332.361 115.109 349.033C114.71 357.322 112.471 365.715 110.995 373.859L107.768 385.436L138.481 358.973C138.502 353.929 137.596 348.902 137.428 343.874C137.196 337.007 137.433 332.481 136.476 325.438C136.251 323.797 136.177 319.127 135.727 318.062C135.127 316.642 128.401 315.541 126.249 314.3C113.19 306.775 101.46 279.248 108.932 264.995C115.231 252.982 125.268 251.447 137.429 254.541C150.257 257.803 156.28 263.977 157.861 277.665C158.917 286.818 156.032 309.548 148.325 315.302C145.3 317.565 142.286 317.141 143.107 321.937C144.206 328.359 145.558 334.691 146.155 341.237C146.498 344.994 146.636 348.723 146.406 352.477C155.962 344.21 165.455 335.396 172.323 324.684C176.414 318.301 174.664 316.584 175.074 309.683C176.157 291.42 176.778 272.769 179.014 254.604C180.506 242.473 184.358 230.369 181.751 218.058C176.461 193.076 162.35 171.292 153.553 147.714L148.269 137.496C146.307 140.044 146.106 144.046 145.857 147.217C144.674 162.515 143.147 177.15 150.796 190.931C157.744 203.456 166.742 216.045 173.374 228.634C178.978 239.27 178.769 250.113 176.875 261.662C176.588 263.422 176.652 265.825 174.426 265.77C172.416 265.722 172.035 259.53 171.458 257.585C164.71 234.73 150.786 215.988 139.001 195.935C128.666 178.353 122.888 155.554 135.458 137.634C138.703 133.01 146.299 126.595 151.144 132.74C154.884 137.484 158.594 144.736 162.22 149.929C166.277 155.735 171.559 161.439 175.037 167.553C183.245 181.981 193.844 203.675 196.118 219.954C198.191 234.813 192.696 246.619 190.401 260.761C189.362 267.148 189.284 273.686 188.246 280.074C187.208 286.461 184.71 293.108 184.878 299.693C184.89 300.138 184.799 301.153 185.324 301.274C188.004 295.629 190.555 289.901 193.326 284.301C196.681 277.526 200.466 270.892 203.574 263.968C207.305 255.66 209.703 246.66 213.72 238.608C217.736 230.555 223.477 220.015 228.42 212.201C229.488 210.514 230.925 208.761 232.263 207.272C230.901 201.687 229.587 196.054 229.512 190.293C229.498 189.117 230.089 183.746 229.933 183.384C229.71 182.859 228.562 182.281 228.178 181.198C226.825 177.366 226.411 173.946 224.475 169.72C220.139 160.263 213.697 151.287 210.14 141.384C203.672 123.372 207.254 107.602 207.776 89.4268C208.091 78.4854 205.582 60.1109 215.467 52.7259C228.717 42.8262 240.456 57.0577 245.687 68.4998C252.735 83.9238 252.731 98.0055 252.891 114.498C253.082 133.736 253.262 155.697 245.231 173.416C244.102 175.908 242.331 178.448 241.214 181.064C238.552 187.289 237.852 193.658 237.639 200.392L237.658 200.431ZM232.064 175.368C236.588 167.867 239.886 160.579 241 151.804C242.483 140.12 242.216 124.81 241.921 112.896C241.554 98.1365 240.395 88.2367 233.059 75.0346C231.905 72.957 225.736 63.1974 223.48 63.3268C222.094 63.4029 221.555 70.5071 221.524 71.7741C221.312 80.5358 223.848 90.0848 224.434 98.9493C225.283 111.746 223.203 126.339 225.838 138.849C227.87 148.496 229.946 154.502 230.931 164.616C231.281 168.208 232.005 171.75 232.068 175.367L232.064 175.368ZM418.558 106.135C408.96 108.416 399.99 111.291 391.27 115.915C372.478 125.876 356.66 138.362 340.529 151.92L335.68 156.275C350.489 150.587 363.126 140.455 376.953 132.936C389.89 125.903 409.228 120.104 418.119 107.707C418.475 107.209 418.893 106.809 418.555 106.14L418.558 106.135ZM98.709 386.254C99.4522 385.579 99.4996 384.259 99.6606 383.322C101.255 374.164 104.139 349.455 102.708 340.989C99.2479 320.538 88.5537 304.613 86.9074 283.929C85.8498 270.644 87.8874 262.399 81.3595 249.499C80.821 248.432 78.7575 243.933 77.3381 244.322C76.2416 244.974 75.9404 246.491 75.5859 247.653C71.1609 262.145 71.6396 298.729 74.9777 313.581C78.4837 329.174 84.0118 344.46 89.2747 359.484C91.9832 367.221 96.0543 375.791 98.3053 383.222C98.6086 384.217 98.3239 385.281 98.7061 386.259L98.709 386.254ZM402.716 196.168C402.84 195.866 401.871 195.634 401.58 195.551C397.092 194.272 379.31 198.659 373.477 199.535C354.441 202.39 339.196 202.47 320.211 199.428C308.828 197.605 297.959 192.072 286.259 193.037C292.309 195.252 298.745 196.336 304.788 198.588C322.172 205.064 349.035 222.722 367.813 215.858C373.257 213.869 379.089 210.067 384.257 207.345C390.706 203.95 397.464 201.54 402.716 196.168ZM132.993 269.634C132.277 269.219 132.292 269.866 132.371 270.429C132.573 271.839 133.299 274.14 133.76 275.562C135.169 279.907 137.229 284.183 138.618 288.55C140.008 292.917 140.643 297.192 142.299 301.279C142.974 299.572 143.006 297.248 143.017 295.393C143.049 289.105 141.699 281.753 138.248 276.41C136.745 274.085 134.295 272.138 132.993 269.634ZM346.092 263.609C346.656 262.619 342.334 260.74 341.573 260.209C338.483 258.064 335.726 255.461 332.248 253.906C315.15 249.005 298.777 240.778 281.016 238.594C274.89 237.838 267.97 237.697 261.804 237.726C261.836 238.695 263.23 238.709 263.949 238.895C267.78 239.892 272.532 240.482 276.158 241.887C289.101 246.918 300.782 254.103 313.533 259.428C324.075 263.832 334.735 265.026 346.095 263.604L346.092 263.609ZM293.731 288.081C286.66 281.16 277.744 276.047 268.323 273.083C267.924 272.959 267.605 272.549 267.269 273.152C264.867 278.223 265.71 278.859 270.05 281.683C276.648 285.979 285.878 288.371 293.731 288.081ZM199.156 344.805C203.062 344.967 207.212 345.414 210.997 346.406C213.636 347.1 216.72 348.79 219.246 349.374C225.184 350.744 226.609 351.194 232.289 353.229C234.722 354.103 237.642 354.456 239.991 355.405C244.288 357.141 247.052 359.658 252.11 360.882C254.592 361.482 256.656 361.295 258.922 361.718C262.684 362.417 266.061 364.246 269.949 364.457C275.509 364.756 285.461 361.176 291.089 359.314C294.939 358.039 299.675 356.544 303.374 355.055C312.307 351.469 306.518 348.395 300.458 347.524C294.398 346.654 288.543 347.642 282.651 347.386C269.828 346.823 256.278 342.144 243.897 339.243C230.449 336.093 216.669 340.047 203.456 342.795L199.153 344.81L199.156 344.805ZM215.476 412.107C212.656 406.547 206.113 404.863 200.628 402.995C189.909 399.339 180.223 397.865 170.244 391.794C166.551 389.549 163.963 385.91 159.727 384.668C152.905 382.673 145.741 383.905 138.797 384.192C136.206 384.299 132.694 383.712 130.258 384.032C127.601 384.381 123.81 386.722 120.833 386.948C120.927 388.128 121.304 387.497 121.931 387.602C148.3 391.978 174.114 411.331 201.455 412.581C205.944 412.786 210.946 412.282 215.471 412.104L215.476 412.107Z" fill="black"/>
</svg>
