<svg width="461" height="276" viewBox="0 0 461 276" fill="none" xmlns="http://www.w3.org/2000/svg">
<path d="M385.631 79.7242C398.103 77.9674 409.786 79.3235 421.069 84.9656C436.228 92.5482 451.142 116.555 444.063 133.467C442.015 138.354 437.684 140.736 434.871 144.855C437.043 143.798 450.126 142.288 451.424 143.551C452.998 145.085 451.749 146.144 450.055 146.484C446.833 147.132 442.64 146.851 439.22 147.559C432.998 148.85 427.095 151.823 422.38 156.007C421.978 156.365 421.366 156.666 421.426 157.31C427.264 156.772 432.887 154.732 438.615 153.769C441.578 153.273 452.021 152.523 454.798 152.806C457.757 153.104 457.777 155.949 455.19 156.642C450.08 158.015 443.889 157.913 438.806 159.199C436.502 159.778 434.565 160.832 432.098 161.382C423.043 163.398 412.567 161.819 404.031 163.514C398.21 164.67 391.96 168.018 386.11 169.457L389.752 169.315C400.29 167.334 411.027 166.81 421.631 165.323C425.186 164.825 429.152 163.593 432.603 163.402C434.114 163.318 434.49 165.047 433.557 165.641C432.747 166.158 429.238 166.884 428.013 167.157C418.776 169.243 409.198 170.545 399.989 172.672C387.701 175.513 375.63 179.607 363.234 181.79C363.291 182.39 364.083 182.162 364.527 182.172C368.578 182.249 373.48 181.398 377.682 181.164C380.747 180.994 383.825 181.39 386.888 181.091C391.724 180.622 396.563 178.549 401.247 179.193C402.479 181.439 401.839 182.233 399.659 183.02C387.619 187.369 375.181 188.258 362.698 190.467C347.958 193.079 333.432 196.014 318.811 199.29C305.01 202.381 290.547 206.885 276.351 207.418C266.509 207.786 251.222 205.502 242.191 207.213C239.397 207.741 236.673 209.315 234.019 210.124C207.984 218.071 180.778 211.731 154.853 214.889C145.142 216.073 138.597 219.216 129.651 221.374C104.404 227.461 86.2332 219.701 62.1364 214.978C50.3625 212.67 40.264 213.166 30.3835 204.911C21.6849 197.641 19.39 190.262 23.5873 179.643C29.9754 163.484 57.8912 136.203 73.8485 129.453C75.3939 128.799 77.2071 128.886 78.6122 127.845C79.4415 127.229 81.9512 122.664 83.0429 121.29C95.0134 106.201 111.367 97.0781 127.545 87.3988C144.669 77.1581 160.861 65.9161 182.184 68.6499C187.132 69.2832 190.783 71.4285 195.144 73.5593C197.867 70.9695 200.477 68.2176 203.404 65.8468C213.131 57.968 231.876 45.0978 244.546 45.7395C249.272 45.9805 254.535 49.3921 259.439 50.4243C268.875 52.4071 277.825 49.7318 286.347 56.6108C288.06 57.9976 289.811 61.1431 291.631 62.0479C291.902 62.1826 297.163 63.6793 297.464 63.6903C298.84 63.7392 303.075 61.5193 304.776 61.0028C314.844 57.9623 321.785 58.3465 331.745 57.3296C344.711 56.0057 355.168 52.2853 367.646 58.6159C376.504 63.1137 380.615 71.6252 385.613 79.7066L385.631 79.7242ZM277.026 73.3642C266.788 77.8964 256.477 82.6259 247.172 88.8852C245.367 90.1012 238.728 97.0061 237.193 92.8515C236.954 91.996 237.161 91.1272 237.626 90.3964C238.679 88.7339 245.748 83.1296 247.765 81.4264C257.015 73.6312 267.456 65.3626 278.743 60.9594C279.33 60.7317 279.732 60.6854 279.962 59.989C272.345 56.9646 264.249 58.9507 256.373 56.8311C248.946 54.8311 246.477 51.2346 238.035 53.9788C215.577 61.2719 189.786 88.573 173.943 105.872C167.148 113.289 161.949 119.251 157.276 128.31C155.37 132.007 153.63 138.186 151.63 141.283C149.612 144.411 146.331 143.248 146.569 139.663C146.741 137.093 150.822 127.435 152.082 124.578C156.241 115.171 160.995 108.848 167.774 101.23C175.025 93.0791 182.954 85.4792 190.51 77.6107C188.418 76.8117 186.136 77.51 184.106 78.2541C172.36 82.5671 165.012 95.9319 157.896 105.259C155.015 109.03 150.746 112.1 147.728 115.906C146.503 117.453 143.189 123.573 141.606 123.858C139.432 124.252 140.642 120.705 140.685 119.566C147.3 105.59 155.874 94.0322 167.442 83.7208C171.829 79.8137 176.417 77.9569 182.12 76.5726C181.627 75.8897 179.885 76.1629 179.12 76.2009C158.051 77.2321 147.702 85.5125 130.657 95.6793C109.118 108.529 91.1932 117.744 79.918 141.516C79.0684 143.308 76.214 151.477 75.2974 152.031C73.8418 152.912 71.9367 152.848 71.1704 151.163C70.322 149.298 71.9269 145.452 72.1698 143.398L75.8412 133.173C65.8658 140.248 56.7234 148.87 48.6528 158.07C42.546 165.034 28.0906 181.465 31.2767 191.321C33.9225 199.504 42.9311 203.637 50.6196 205.169C75.2325 210.079 105.382 213.804 130.393 212.081C144.265 211.124 157.861 210.221 171.782 209.812C192.545 209.199 209.603 208.106 230.161 203.47C235.026 202.375 239.657 200.168 244.481 199.324C259.118 196.761 272.086 199.606 287.418 195.05C318.699 185.76 349.854 174.847 380.652 164.038C394.596 159.143 414.077 154.942 425.031 145.351C429.366 141.555 433.258 135.981 437.77 132.144C443.594 118.247 430.75 99.8782 418.309 94.2731C385.886 79.6583 350.286 103.826 322.218 118.795C317.53 121.297 312.712 123.557 308.018 126.051C306.303 126.963 299.172 132.33 297.632 129.722C296.546 127.883 300.976 124.352 302.203 123.313C317.884 109.994 335.542 98.8756 354.418 90.5642C362.837 86.8549 371.83 83.3268 380.742 81.1067L376.203 74.5546C374.039 74.6432 371.992 75.1156 369.804 75.1834C366.663 75.2803 363.116 74.6224 360.041 75.0492C355.261 75.7176 343.41 80.7792 339.739 83.9574C333.176 89.6401 327.494 97.3128 320.938 103.109C318.366 104.894 315.818 102.52 317.393 99.6581C319.581 95.6746 328.832 86.0753 332.386 82.3438C338.371 76.0626 350.201 65.3672 359.062 64.5992C361.302 64.4065 363.805 65.798 366.066 65.671C355.327 59.3622 342.942 63.4306 331.426 64.2673C317.279 65.2959 311.387 64.4614 297.272 69.8247C268.225 80.8606 244.172 105.106 225.116 128.863C223.648 130.606 221.1 129.351 221.503 127.073C221.607 126.493 223.724 123.731 224.28 122.937C232.383 111.367 242.448 101.08 252.81 91.527L277.026 73.3642Z" fill="black" stroke="black" stroke-width="6"/>
<path d="M224.249 191.31C223.765 189.649 226.103 189.493 227.307 189.292C236.575 187.755 247.891 189.447 257.381 188.939C272.152 188.15 287.834 183.659 302.409 180.48C305.883 179.722 309.829 178.139 313.233 177.658C318.126 176.965 318.996 181.198 314.175 182.964C312.007 183.757 308.97 184.673 306.701 185.355C292.544 189.597 274.653 193.988 259.989 194.313C247.986 194.576 236.178 191.845 224.249 191.31Z" fill="black" stroke="black" stroke-width="6"/>
<path d="M170.341 194.208C171.05 192.167 178.455 194.547 180.286 194.789C190.221 196.104 200.454 196.486 210.473 196.558C216.033 196.597 225.032 195.383 230.032 196.199C230.544 196.284 231.039 196.321 231.438 196.708C232.067 197.364 232.085 198.482 231.396 199.075C230.374 199.959 220.153 200.447 217.871 200.717C200.698 202.721 187.661 206.905 172.57 196.365C171.928 195.917 169.817 195.729 170.345 194.207L170.341 194.208Z" fill="black" stroke="black" stroke-width="6"/>
<path d="M367.97 154.202C370.13 153.598 377.118 151.204 378.756 151.684C380.169 152.097 380.666 153.434 379.706 154.662C379.031 155.528 375.514 156.688 374.165 157.172C361.689 161.611 344.878 166.835 331.86 168.511C331.231 168.594 329.534 168.78 329.073 168.636C328.019 168.317 327.574 166.65 328.35 165.844C330.093 164.047 349.579 159.809 353.634 158.665C358.374 157.325 363.216 155.536 367.97 154.202Z" fill="black" stroke="black" stroke-width="6"/>
<path d="M129.657 194.526C131.52 193.411 136.158 196.165 138.362 196.819C140.866 197.56 144.189 198.178 146.794 198.638C153.226 199.774 162.399 199.54 168.099 201.078C171.447 201.984 171.024 204.944 167.965 205.376C158.096 204.316 144.68 207.275 135.826 202.278C134.349 201.444 126.514 196.405 129.657 194.526Z" fill="black" stroke="black" stroke-width="6"/>
<path d="M83.5384 188.101C86.438 186.329 88.3837 190.057 90.9412 191.452C94.4129 193.35 102.93 196.154 106.85 196.72C109.02 197.035 116.018 196.692 116.955 198.556C117.416 199.475 116.499 200.714 115.512 200.979C113.824 201.425 109.026 201.149 106.956 201.156C99.644 201.162 88.5655 201.297 84.1151 194.401C83.1845 192.958 81.5814 189.298 83.5384 188.101Z" fill="black" stroke="black" stroke-width="6"/>
<path d="M390.496 100.927C392.729 100.175 400.025 97.9725 401.243 100.815C401.511 101.44 401.712 102.266 401.027 102.715C400.268 103.21 394.376 103.97 392.59 104.536C387.766 106.066 381.552 110.073 377.175 111.109C375.664 111.469 374.342 110.079 374.835 108.682C375.294 107.391 388.423 101.624 390.496 100.927Z" fill="black" stroke="black" stroke-width="6"/>
</svg>
