<svg width="289" height="493" viewBox="0 0 289 493" fill="none" xmlns="http://www.w3.org/2000/svg">
<path d="M93.9461 12.2192C93.8787 13.3985 93.7905 13.0933 94.6926 13.2071C101.111 14.014 107.664 14.0398 114.093 14.7018C128.754 16.2121 140.316 18.974 155.237 16.0414C159.56 15.1932 167.254 11.7848 170.826 11.7072C174.87 11.6193 177.473 15.3018 177.976 18.9637C179.432 29.5768 170.054 49.9445 167.218 61.2404C165.891 66.5159 165.009 71.8742 164.097 77.2221L174.538 74.243C175.057 73.581 168.877 72.2828 168.167 69.9243C166.046 62.8696 179.069 64.5143 182.896 65.6625C188.712 67.4107 193.814 73.5189 189.962 79.4617C188.733 81.3598 184.093 83.9872 183.746 84.6751C183.398 85.363 183.533 86.3716 183.233 87.1422C177.156 102.633 170.748 124.387 169.566 140.999C169.152 146.854 169.981 153.262 170.562 159.102L177.758 144.206C179.546 141.325 183.44 141.553 183.896 145.085C184.166 147.175 182.061 152.936 181.636 155.512C180.381 163.115 181.122 170.61 179.018 177.954C180.34 178.228 179.873 177.623 180.251 176.976C184.036 170.558 184.933 162.515 187.727 155.636C189.371 151.592 191.989 148.194 193.876 144.402C194.908 142.328 195.203 139.81 196.515 137.606C198.724 133.898 207.268 128.788 211.083 125.84C218.876 119.82 221.162 116.385 232.511 116.902C251.387 117.761 264.996 130.293 270.015 147.966C273.043 158.626 268.231 160.364 265.053 169.254C262.57 176.201 261.481 183.7 259.231 190.739C251.895 213.734 240.78 233.404 227.373 253.244C224.35 257.718 220.224 262.156 217.605 266.821C216.672 268.481 214.852 271.083 215.879 272.903C217.46 275.706 221.162 278.877 223.039 281.665C224.418 270.426 229.099 258.359 235.611 249.055C237.26 246.701 239.39 244.984 240.904 242.921C255.644 222.822 266.775 201.425 273.67 177.354C278.403 160.829 275.775 130.086 260.253 119.494C247.805 111.001 227.02 109.439 213.085 114.43C204.81 117.394 198.724 124.65 191.497 130.112C188.235 132.579 183.253 139.111 179.292 132.776C175.974 127.474 183.829 115.397 187.271 111.006C204.919 88.4921 242.055 91.0471 264.913 103.931C283.723 114.534 292.505 135.569 287.709 156.619C284.22 171.949 279.409 190.232 273.276 204.745C267.687 217.97 257.209 227.435 250.07 239.652C246.69 245.434 239.504 260.795 238.768 267.085C237.431 278.494 240.282 293.571 253.233 296.716C258.583 298.014 260.403 296.178 264.105 292.857C265.551 291.559 266.474 288.352 269.248 290.163C273.66 293.038 267.003 301.65 264.053 303.724C257.463 308.353 243.901 306.899 236.731 304.008C238.11 309.015 243.901 311.735 244.964 316.876C245.295 318.495 244.969 320.052 245.301 321.5C246.903 328.555 251.04 337.198 251.584 344.009C252.917 360.627 233.734 393.837 223.904 407.574C219.664 413.496 214.147 419.118 210.254 425.216C206.791 430.637 204.582 436.988 199.973 441.777C203.047 446.748 204.706 452.489 205.743 458.225C208.854 475.442 189.501 476.311 177.903 480.775C169.748 483.909 162.438 488.233 153.666 490.338C129.594 496.115 92.4166 491.404 67.9927 486.475C51.7084 483.19 33.1222 473.948 31.3595 455.535C31.0588 452.39 30.6388 442.729 32.7593 440.681L35.7714 438.731C24.91 428.801 15.9098 416.956 8.82788 404.073C-2.06463 384.253 -0.628556 362.386 1.45559 340.471C3.6849 317.063 9.28412 293.467 25.8121 275.944C29.8819 271.631 34.9626 267.933 38.7473 263.537C45.0464 256.213 50.0649 246.35 55.9596 238.529C68.4749 221.922 73.6023 218.157 74.5925 195.586C75.4946 174.995 73.2861 157.343 69.7399 137.363C67.3551 123.911 66.5722 115.522 60.7293 102.684C58.3652 97.4916 54.7413 93.4418 52.4135 88.6473C49.8316 83.3304 49.1991 81.0081 44.7353 76.4567C39.6442 71.2691 35.253 70.6588 29.2909 67.5452C27.6992 66.7124 18.5954 61.5662 18.1391 60.8059C17.9162 60.4387 16.843 57.5165 16.9156 57.2165C19.4404 53.7098 22.0845 52.4633 26.2165 51.553C39.1932 48.6877 56.0633 48.5118 69.1903 50.5703C77.6202 51.8892 86.0553 54.077 93.4691 58.3543C91.5457 52.7685 88.4868 47.8291 86.5012 42.2381C84.6296 36.9729 82.8824 30.5905 81.7782 25.1133C80.8501 20.5205 78.906 14.5157 83.0017 10.9366C95.631 -0.0955207 118.054 -1.38855 134.276 1.02682C137.475 1.50266 146.262 3.07498 148.823 4.37835C152.494 6.24547 151.55 10.8952 147.439 11.2366C129.615 9.27633 111.615 8.66602 93.9668 12.2089L93.9461 12.2192ZM168.561 22.641C149.767 25.1857 129.89 24.653 111.267 20.9911C105.098 19.7757 99.1668 17.4689 92.9558 16.6879C96.616 24.3375 98.7987 32.7421 100.67 40.9916C102.366 48.455 104.035 56.0372 104.004 63.723C113.248 69.9916 124.908 79.9168 136.464 80.7133C143.81 81.2202 151.442 80.3719 158.627 78.9651L159.104 78.4634C157.528 76.5084 157.984 72.1535 158.124 69.5364C158.466 63.2471 159.98 55.0856 161.261 48.848C163.096 39.9107 166.176 31.4181 168.566 22.641H168.561ZM175.031 87.6491C172.915 87.6646 170.935 88.5077 168.83 88.6525C153.22 89.7283 136.204 88.3628 120.568 87.1422C99.6904 85.513 91.6545 82.2753 73.3794 73.1827C64.1563 68.5899 44.6057 55.6028 35.4811 55.37C32.0179 55.2821 26.9371 57.1389 23.3132 57.3768C23.1058 58.5095 23.3806 58.1681 23.9509 58.4785C29.0057 61.2559 38.0629 63.2885 42.1846 66.0866C44.1184 67.4003 46.2855 69.9967 48.5252 71.6673C60.9367 80.9357 67.8787 83.32 75.6294 98.2209C85.0858 116.39 91.7427 136.117 89.9644 156.862C88.518 173.723 87.4396 190.02 82.8617 206.349C78.9475 220.308 71.1293 230.808 63.7 242.812C57.4424 252.929 50.1531 267.555 41.7232 275.474C33.4592 283.237 27.2637 286.025 22.2297 297.217C15.6247 311.901 9.53295 329.962 9.87512 345.938C10.5335 376.438 13.5924 390.315 32.0646 414.608C35.7351 419.439 40.6033 423.634 43.9058 428.599C45.0671 430.347 50.1168 438.948 50.4538 440.433C51.5477 445.253 47.4883 447.203 43.3511 445.527C41.1321 444.627 39.6079 441.958 37.2023 443.753C36.7668 455.514 34.1487 462.859 46.9232 467.772C71.29 477.149 100.561 478.556 126.541 478.158C145.645 477.868 161.292 474.263 179.603 469.107C183.367 468.046 194.986 465.569 195.411 461.018C194.395 458.235 195.504 451.609 194.182 449.385C193.767 448.687 193.482 448.987 192.912 449.127C189.298 449.996 184.902 454.832 181.506 452.597C175.705 448.775 185.742 444.203 186.354 442.103C187.266 438.984 185.804 435.131 187.214 431.05C193.161 413.822 211 399.609 221.292 384.16C227.632 374.644 240.178 352.357 241.112 341.408C242.221 328.431 233.843 324.976 227.342 316.07C220.654 306.915 216.174 296.607 208.362 287.861C199.688 278.158 189.822 271.186 181.781 260.288C165.574 238.323 163.843 225.501 168.794 198.787C169.67 194.075 170.686 189.389 171.946 184.771L170.266 181.931C163.262 185.914 161.686 177.183 159.363 172.487C157.124 167.951 154.775 165.355 154.189 159.784C152.255 141.351 161.152 111.223 170.287 95.0762C171.733 92.5212 173.678 90.2662 175.02 87.6491H175.031ZM223.666 130.955C220.141 131.374 206.713 137.11 203.535 139.158C200.118 141.361 200.025 146.161 198.413 149.926C196.909 153.438 194.742 156.516 193.415 160.322C190.071 169.937 190.61 178.544 182.227 185.883C181.195 186.788 179.272 187.274 179.002 188.619C180.314 205.33 180.785 219.993 190.537 234.185C195.421 241.291 204.732 249.303 207.734 256.725C208.258 258.023 210.098 265.771 211.089 265.776C216.511 253.808 225.854 244.245 232.314 232.871C245.835 209.069 253.394 183.498 259.096 156.862C256.421 137.979 242.517 128.705 223.661 130.95L223.666 130.955Z" fill="black"/>
<path d="M115.731 269.909C124.597 269.516 135.059 269.495 143.795 270.902C152.375 272.283 162.345 277.6 170.344 278.655C176.508 279.467 183.86 277.356 189.584 278.318C193.296 278.944 201.109 284.323 196.272 287.737C191.237 291.29 182.999 289.625 177.271 290.116C171.35 290.628 167.337 291.719 160.826 291.616C129.968 291.119 99.7113 292.387 68.8172 290.607C62.2485 290.23 55.5243 289.935 49.0645 288.482C44.891 287.54 40.8005 284.582 44.7562 280.486C51.4753 273.524 72.8093 271.915 82.2812 271.724C93.5263 271.491 104.471 270.41 115.731 269.909Z" fill="black"/>
<path d="M226.124 341.795C230.718 341.081 229.152 347.019 228.608 349.269C226.643 357.425 222.013 369.554 218.062 376.96C211.488 389.296 201.394 392.544 191.674 401.75C183.358 409.627 177.1 421.119 168.064 428.314C164.74 430.962 161.013 431.138 163.309 426.054C173.824 411.468 180.242 391.711 196.148 381.899C199.315 379.944 203.027 379.613 205.345 378.17C213.381 373.169 218.285 352.749 222.998 344.665C223.641 343.559 224.766 342.002 226.119 341.795H226.124Z" fill="black"/>
<path d="M85.3502 450.978C96.0924 452.225 106.752 454.102 117.556 454.878C129.516 455.737 145.625 456.574 157.393 454.878C159.275 454.609 160.955 452.023 161.613 454.609C160.219 457.707 156.258 458.338 153.246 459.181C133.794 464.607 108.991 460.826 89.4615 456.104C86.4545 455.375 81.2804 454.738 85.345 450.978H85.3502Z" fill="black"/>
</svg>
