<svg width="349" height="552" viewBox="0 0 349 552" fill="none" xmlns="http://www.w3.org/2000/svg">
<path d="M283.197 48.2378C294.439 50.9195 302.543 60.0957 305.371 71.153C312.013 97.1111 305.83 128.291 280.952 142.015C272.818 146.503 265.349 146.489 256.429 144.827C258.798 154.522 254.645 165.229 244.755 168.612C245.379 174.035 245.914 179.536 246.755 184.925C251.504 215.281 258.509 245.258 262.442 275.724C265.661 300.667 266.7 325.792 269.475 350.772C272.323 376.428 276.422 401.798 279.794 427.32C279.968 428.63 279.519 429.961 279.667 430.895C279.845 431.998 283.798 436.474 284.745 438.118C287.477 442.867 292.183 457.427 284.708 459.683C278.045 461.694 275.277 452.074 272.535 447.914C270.777 445.244 269.587 443.708 266.244 443.643C260.765 443.54 255.527 444.764 249.875 444.621C233.97 444.221 217.348 441.455 201.216 442.075C185.316 442.687 170.202 446.952 154.716 447.791C146.307 448.248 137.801 447.626 129.285 448.788C126.631 449.149 123.595 450.171 120.98 450.5C113.96 451.391 106.853 451.6 99.8255 452.212C99.099 452.826 100.204 459.885 100.225 461.55C100.286 466.092 99.1782 470.654 98.8637 475.166C104.199 474.031 109.597 473.665 115.003 472.981C132.909 470.72 151.125 468.536 169.207 468.35C193.909 468.094 218.758 469.258 243.496 468.13C251.586 467.759 259.379 465.25 267.296 464.074C274.725 462.967 282.443 462.654 289.901 461.517C293.73 460.934 295.368 459.295 299.79 460.464C305.131 461.878 307.238 466.274 309.076 471C314.072 483.82 317.698 502.301 317.123 516.03C316.936 520.558 316.023 525.961 310.797 527.166C304.575 528.598 291.284 524.927 284.102 524.387C271.525 523.446 258.723 524.146 246.095 524.302C242.841 524.341 239.11 523.724 235.772 523.911C224.369 524.55 211.268 527.477 199.5 528.654C185.865 530.016 172.554 530.311 158.982 531.107C142.346 532.082 126.404 536.672 110.005 538.872C102.501 539.878 94.6207 539.903 86.9083 541.022C83.0407 541.585 80.5854 543.473 76.4246 541.804C66.1963 537.692 63.7599 516.574 64.793 507.129C64.8274 506.799 67.0211 501.322 67.2447 500.97C68.3973 499.125 70.1283 499.22 71.469 500.826C71.9316 501.38 73.9823 505.036 74.3063 505.804C76.2435 510.389 76.4049 516.294 77.8703 521.274C78.3087 522.765 80.2758 529.163 81.8193 529.299L95.3965 526.766L108.349 526.038L130.361 522.168L149.42 519.91C179.469 519.186 208.507 515.494 238.658 517.458C257.568 518.693 274.341 519.236 293.403 518.099C295.431 517.979 299.682 517.819 301.409 517.33C301.905 517.19 302.292 517.093 302.387 516.505C300.68 501.584 293.873 487.809 292.007 472.828C291.462 471.446 288.434 471.454 287.106 471.331C278.07 470.479 268.555 473.831 259.37 474.668C247.884 475.712 237.827 477.514 226.625 479.096C217.385 480.4 208.568 479.793 199.443 480.284C192.659 480.649 185.755 481.637 179.027 482.198C164.657 483.395 150.717 484.5 136.401 486.216C119.601 488.224 102.742 490.201 85.8542 491.826C80.9515 492.299 75.9078 493.509 70.8794 493.14C67.7874 492.916 65.3263 490.808 66.3292 487.516C68.2222 481.32 83.5595 478.444 88.9776 476.798C89.3226 476.196 86.9931 467.225 86.7495 465.572C86.0736 460.999 84.4047 447.274 85.2664 443.421C86.4866 437.965 91.7427 435.386 96.874 434.812C95.6669 429.849 94.3581 424.748 93.6455 419.683C91.4402 404.02 91.7098 388.171 91.0479 372.443C89.4689 334.926 89.2492 297.422 86.7337 259.923C85.335 239.071 82.198 218.196 82.6629 197.16C82.746 193.516 82.6387 187.092 86.9754 185.957C88.6154 185.528 90.07 186.209 91.1524 187.4C93.8592 190.387 95.5998 203.283 96.7158 207.871C99.8216 220.644 104.698 235.025 106.658 247.774C110.574 273.231 108.094 299.055 108.944 324.613C109.47 340.382 111.447 356.048 111.569 371.841C111.712 390.452 108.613 408.732 108.253 427.251C108.2 430.024 107.81 432.825 107.696 435.595C112.725 435.973 117.764 436.752 122.819 436.862C136.204 437.153 149.893 435.721 163.408 435.809C177.101 435.898 192.471 437.311 206.023 435.807C223.802 433.837 242.669 427.984 260.185 426.193C262.214 425.984 264.529 426.682 266.666 426.076L265.977 413.8C265.875 412.755 265.33 411.821 265.208 410.772C262.879 390.797 259.71 370.98 257.403 350.989C252.948 312.42 248.899 273.79 243.398 235.417C241.927 213.536 238.027 191.7 238.605 169.777C237.78 169.14 223.144 172.477 220.776 172.806C191.208 176.964 160.581 175.408 130.862 178.954C121.285 180.094 111.758 182.229 102.218 183.469C93.5959 184.589 84 184.984 77.1101 178.645C75.0568 176.755 70.7352 167.444 69.955 164.548C69.6188 163.3 69.5551 159.832 68.8565 159.449C63.1339 159.192 57.4316 158.106 51.895 156.697C37.8673 153.128 30.0398 148.637 19.454 139.016C9.97532 130.403 5.62898 106.485 7.50209 94.3004C9.62561 80.5053 20.7605 67.1496 31.6167 58.9887C30.2794 56.1725 28.6681 53.4708 26.9414 50.8826C24.6232 47.4113 17.6174 39.8364 17.3863 36.1742C16.9836 29.736 28.833 26.8934 33.7074 25.9183C49.0042 22.86 65.6284 22.0631 81.1392 21.0391C103.51 19.5589 125.629 18.5833 148.027 17.8943C183.479 16.8037 218.681 14.8915 254.068 11.9674C265.419 11.0297 278.984 8.2598 289.868 12.7446C292.552 13.8517 294.561 16.3061 295.209 19.1448C297.728 30.189 286.746 38.9408 283.196 48.2239L283.197 48.2378ZM211.967 86.6717C212.589 82.5046 215.851 78.6224 218.843 75.7881C232.664 62.7037 256.762 55.5009 271.657 70.82C282.963 82.4462 283.332 115.118 266.282 122.076C256.294 126.154 244.611 126.091 237.35 117.186C232.472 111.205 229.288 98.0982 235.863 92.3556C238.77 89.814 240.318 90.7895 243.424 90.0221C244.888 89.6608 245.852 88.4919 247.763 88.2662C255.365 87.3577 258.39 97.5281 251.734 101.009C249.252 102.306 244.355 102.242 247.525 106.395C251.345 111.397 260.281 117.306 266.118 112.113C273.825 105.256 272.917 89.3873 267.416 81.3866C259.413 69.7497 234.515 71.4994 226.078 81.3759C214.623 94.7943 221.908 113.721 231.957 125.675C247.463 144.122 283.584 137.029 290.715 114.071C294.345 102.399 293.967 75.0091 287.368 64.7021C285.213 61.3322 278.684 59.3902 274.853 58.5585C262.918 55.9558 251.466 57.9535 239.594 58.6178C226.994 59.3224 214.151 58.1822 201.541 58.5888C198.312 58.6953 189.364 60.4303 187.091 59.2333C186.65 59.0039 186.029 58.6558 186.077 58.0677C186.79 56.1706 188.008 57.3171 189.25 57.0233C191.835 56.4169 194.612 54.8773 197.226 54.1795C200.764 53.2363 204.434 52.9577 207.978 52.0326C211.878 51.0135 215.611 49.1182 219.483 48.0549C230.59 45.0064 248.073 43.9564 259.701 44.23C263.485 44.3189 267.31 44.8476 271.071 45.2421C273.608 37.0484 280.105 30.4352 281.579 21.8088C275.095 17.7615 266.815 21.2408 259.952 22.2154C256.158 22.7578 251.424 23.0427 247.53 23.3795C229.059 24.9798 210.672 25.2462 192.24 26.3199C162.217 28.069 131.975 31.7201 102.122 34.2796C79.0513 36.2596 56.1682 36.7045 33.0672 38.0617C30.7697 38.1976 28.4679 38.5861 26.1713 38.7313L34.464 57.648C43.3071 52.1082 51.6503 46.7134 62.4726 46.0587C68.1343 45.7149 76.2356 46.0062 82.1465 46.0312C97.8711 46.0937 116.678 49.5606 132.308 52.2045C144.519 54.2677 156.527 57.8908 169.048 57.7866C172.823 59.8654 167.902 61.9934 165.562 62.3714C158.253 63.5607 149.603 61.6493 142.252 61.451C137.826 61.3335 133.346 61.8887 128.909 61.7444C113.522 61.2533 91.91 56.7374 77.2464 59.9792C72.3037 61.0727 67.1843 63.3173 62.2856 64.7803C53.2057 67.4941 48.3916 68.216 39.8428 73.21C28.3825 79.9054 22.8128 84.2186 17.9417 96.8332C15.1702 104.012 15.8064 122.554 19.2216 129.415C25.1085 141.236 42.5958 150.098 55.5823 149.777C62.0871 149.616 73.307 148.224 78.642 144.693C83.133 141.719 91.3372 130.407 92.6991 125.218C96.8559 109.365 82.2234 87.4894 67.4097 82.1076C56.0699 77.9877 40.998 88.5748 40.4834 100.366C40.2251 106.324 44.1981 121.229 50.2313 123.605C52.9984 124.695 61.8031 126.615 64.5255 126.033C68.4697 125.192 71.7223 118.813 70.8442 115.071C70.3005 112.755 65.8894 107.818 63.6203 107.409C61.0422 106.941 60.2775 112.527 58.5056 111.647C56.2294 110.516 58.1169 103.317 59.1666 101.519C63.3035 94.4171 72.4698 95.5144 77.5912 100.959C89.1454 113.244 84.1338 134.967 67.4324 138.675C60.4557 140.225 42.6139 135.3 37.655 129.896C29.0113 120.481 26.0574 105.943 31.7176 94.3283C39.8715 77.6008 59.1384 69.4454 76.5037 77.5529C84.3955 81.2348 93.4443 88.8471 98.2576 96.0345C99.7474 95.3486 100.453 94.1665 102.29 93.4435C119.373 86.7347 145.472 86.5953 163.8 85.8535C173.699 85.4535 182.145 84.2977 192.243 85.1256C198.785 85.6611 205.372 87.5652 211.957 86.6679L211.967 86.6717ZM211.227 92.6193C203.473 94.6485 195.607 96.665 187.751 98.3444C169.353 102.272 153.244 103.591 134.675 104.747C128.726 105.118 122.368 105.9 116.439 105.975C111.735 106.033 107.293 104.148 102.602 104.148C104.897 108.719 105.289 113.991 105.843 119.009C112.872 119.313 117.797 124.753 121.61 130.133L122.497 129.78C124.935 120.391 127.433 111.439 137.529 107.911C150.083 103.523 158.966 110.319 165.27 120.663C175.826 109.248 186.449 92.8169 202.36 108.022C202.878 108.515 203.88 110.191 204.002 110.249C205.135 110.788 208.942 107.587 211.848 111.4C214.721 115.17 210.775 126.447 206.423 128.162C196.791 131.959 192.076 116.811 185.747 117.946C182.63 118.504 173.628 125.534 171.829 128.154C171.107 129.207 169.159 136.407 169.702 136.832C190.616 135.489 211.254 131.108 232.23 132.775C232.889 132.339 232.199 131.998 231.912 131.675C228.872 128.266 225.112 125.299 222.106 121.761C215.317 113.76 210.573 103.321 211.232 92.6281L211.227 92.6193ZM158.237 138.794C155.827 131.946 151.954 119.805 143.189 119.651C138.944 119.573 135.929 120.724 133.682 124.38C130.289 129.913 128.606 137.504 127.818 143.886L158.233 138.794L158.237 138.794ZM111.519 146.758L102.629 135.507L95.4819 147.593C100.842 147.964 106.176 147.268 111.519 146.758ZM76.8901 159.416C76.5759 159.749 79.7448 163.532 80.2258 164.034C81.0017 164.843 84.8997 168.489 85.6101 168.898C86.4989 169.417 86.8392 169.563 87.9057 169.589C95.8903 169.779 104.411 167.468 112.25 166.406C130.606 163.92 147.937 162.25 166.381 161.348C189.145 160.237 214.886 161.153 237.038 155.996C239.254 155.48 241.426 154.861 242.856 153.037C245.5 149.67 246.595 145.772 246.627 141.525L239.448 137.486C235.952 140.317 230.273 142.123 225.852 143.448C196.52 152.225 163.26 152.9 132.729 155.948C119.375 157.278 104.448 160.251 91.0735 160.314C87.8266 160.328 84.3818 158.63 82.2966 158.54C80.9847 158.486 78.5338 159.724 76.8804 159.412L76.8901 159.416Z" fill="black"/>
<path d="M146.112 428.283C143.217 425.636 142.796 410.529 142.12 406.157C140.624 396.474 138.346 386.854 137.12 377.104C134.218 332.492 130.621 287.788 128.158 243.079C127.678 234.37 126.294 220.745 127.735 212.42C128.877 205.833 136.398 203.615 139.731 209.349C142.035 213.312 144.382 232.235 145.159 237.891C148.305 260.698 146.363 281.41 147.325 304.025C148.36 328.272 154.7 350.257 154.402 375.012C154.247 387.806 154.459 403.264 153.161 415.758C152.878 418.465 151.931 433.607 146.112 428.288L146.112 428.283Z" fill="black"/>
<path d="M212.286 186.745C213.479 187.721 214.35 190.451 214.721 191.966C216.823 200.645 217.573 210.846 219.123 219.768C222.857 241.227 226.489 261.659 229.092 283.364C234.136 325.482 235.789 368.67 237.923 411.065C238.042 413.426 238.551 415.82 238.604 418.182C238.654 420.255 238.781 425.094 238.179 426.841C236.851 430.696 232.102 430.426 230.543 426.436C228.413 420.991 228.044 412.616 227.25 406.686C222.183 368.899 219.16 330.672 214.745 292.767C211.674 266.419 207.09 239.418 205.474 212.961C205.093 206.758 204.302 194.978 206.075 189.293C207.007 186.297 209.48 184.44 212.285 186.741L212.286 186.745Z" fill="black"/>
<path d="M186.674 410.158C185.383 412.015 182.338 411.456 181.483 409.547C181.2 408.915 180.763 406.944 180.618 406.145C178.669 395.463 177.883 382.486 176.899 371.537C172.175 318.991 164.539 266.788 160.798 214.019C160.26 206.44 158.833 193.001 160.003 185.921C160.61 182.241 163.601 181.134 165.454 184.719C168.859 191.324 172.915 209.653 174.973 217.715C177.658 228.248 181.177 241.239 182.739 251.836C185.009 267.237 184.905 285.95 185.627 301.776C187.238 336.941 188.563 372.101 187.398 407.274C187.341 408.013 187.065 409.598 186.674 410.162L186.674 410.158Z" fill="black"/>
</svg>
