<?xml version="1.0" encoding="UTF-8" standalone="no"?>
<!-- Created with Inkscape (http://www.inkscape.org/) -->

<svg
   version="1.1"
   id="svg1"
   width="1024"
   height="1024"
   viewBox="0 0 1024 1024"
   xmlns="http://www.w3.org/2000/svg"
   xmlns:svg="http://www.w3.org/2000/svg">
  <defs
     id="defs1" />
  <g
     id="g1">
    <path
       style="fill:#1B4229"
       d="m 259.75,984.28045 c -0.9625,-1.06586 -1.75,-2.62691 -1.75,-3.469 0,-1.29561 -2.96048,-1.64711 -19.25,-2.2856 -28.60518,-1.12122 -31.66523,-1.28059 -38.65331,-2.01312 -10.21366,-1.07064 -20.06408,-3.18455 -21.90101,-4.69996 -0.93263,-0.76939 -3.49568,-1.99735 -5.69568,-2.72881 -2.2,-0.73145 -4.68314,-1.92488 -5.51809,-2.65205 -0.83496,-0.72718 -5.29041,-2.5389 -9.90101,-4.02605 -9.26313,-2.98782 -14.62716,-6.81875 -13.5345,-9.66618 0.37081,-0.96632 1.72804,-2.02144 3.01606,-2.34471 2.91227,-0.73094 40.05364,-1.01086 71.93754,-0.54218 l 24,0.3528 12.5,-3.65105 c 10.88706,-3.17992 14.30649,-3.72176 26.5,-4.19912 10.99973,-0.43062 15.27399,-0.20684 19.94477,1.04426 6.72915,1.80243 12.72546,5.4043 15.14533,9.09749 1.47191,2.24641 1.48736,2.8318 0.15187,5.75188 -0.81775,1.78802 -1.7478,4.66259 -2.06679,6.38792 l -0.57997,3.13698 7.2024,0.66832 c 3.96131,0.36757 9.90239,0.84006 13.20239,1.04997 3.3,0.2099 7.94783,0.82012 10.32851,1.35604 2.41739,0.54419 13.67615,0.79159 25.5,0.56035 25.21946,-0.49321 33.75225,0.50523 35.71869,4.17956 1.62508,3.03649 0.63049,4.21226 -4.67494,5.52653 -4.19681,1.03964 -34.51526,3.91493 -35.41533,3.35866 -0.30223,-0.18679 -11.10368,-0.40011 -24.00322,-0.47406 -20.27578,-0.11623 -33.90268,-0.83235 -46.6586,-2.452 -2.52122,-0.32013 -3.33863,0.0144 -3.83183,1.56837 -0.52063,1.64036 -1.41852,1.93911 -5.29511,1.76182 -2.56749,-0.11742 -9.16817,0.13624 -14.66817,0.56369 -9.18319,0.71371 -10.14294,0.61889 -11.75,-1.16075 z m 22.14572,-14.19484 c 0.82269,-0.52093 1.12356,-1.59299 0.73282,-2.61124 -0.55578,-1.44833 -1.46695,-1.62081 -5.63884,-1.06739 -6.33595,0.84049 -20.58892,-1.67065 -28.11475,-4.95337 -6.27342,-2.73643 -12.51703,-3.16703 -15.39607,-1.06182 -1.61719,1.18252 -1.7027,1.6336 -0.56869,3 0.73409,0.88451 2.25827,1.60821 3.38707,1.60821 1.12881,0 5.41347,1.16009 9.52146,2.57798 6.91753,2.38761 8.33975,2.53453 19.2597,1.98954 7.50478,-0.37455 12.01761,-0.22115 12.41511,0.42202 0.76441,1.23683 2.53943,1.27556 4.40219,0.0961 z m -79.36865,-5.12941 c 0.35481,-0.5741 0.15191,-1.63808 -0.45089,-2.3644 -1.41672,-1.70705 -15.2185,-3.93909 -19.09396,-3.08789 -3.80532,0.83578 -3.9789,3.48073 -0.23222,3.53846 1.5125,0.0233 5.225,0.66003 8.25,1.41495 6.798,1.69652 10.68297,1.86465 11.52707,0.49888 z m 103.58467,-6.11313 c 2.47102,-3.47023 1.9322,-5.49993 -1.83611,-6.91646 -1.5266,-0.57386 -5.11026,-2.14211 -7.9637,-3.485 -6.74262,-3.17321 -14.1992,-3.16644 -25.0658,0.0228 -4.53963,1.33231 -8.70213,2.69943 -9.25,3.03803 -1.79426,1.10891 -1.04431,3.44978 1.25387,3.91378 6.81458,1.37586 10.90173,1.90335 16.75,2.16179 3.575,0.15797 9.64875,1.37134 13.49723,2.69636 8.05917,2.77476 9.75672,2.58215 12.61451,-1.43125 z M 397,959.38881 c -5.775,-0.69095 -14.35485,-1.2861 -19.06634,-1.32254 -4.71149,-0.0365 -11.23649,-0.52365 -14.5,-1.08266 -7.14348,-1.22363 -21.53964,-5.01634 -22.93366,-6.04194 -0.55,-0.40465 -4.6,-1.86838 -9,-3.25275 -17.36695,-5.46416 -26.65664,-9.99104 -36.73317,-17.90014 -4.209,-3.30366 -13.73198,-18.07036 -16.78545,-26.02816 -4.37117,-11.39193 -5.71694,-34.09453 -2.80153,-47.26062 2.10242,-9.49461 17.10594,-52.16685 21.18917,-60.26518 3.84804,-7.63187 10.92611,-25.5236 15.12592,-38.23482 0.99946,-3.025 4.59401,-11.125 7.98788,-18 3.39388,-6.875 6.77721,-14.075 7.51853,-16 0.74131,-1.925 2.11024,-4.625 3.04205,-6 0.93181,-1.375 2.0302,-3.625 2.44085,-5 0.41065,-1.375 2.71969,-6.69904 5.13119,-11.83121 2.41151,-5.13216 4.38456,-9.51095 4.38456,-9.73064 0,-0.21969 1.74657,-4.12065 3.88127,-8.6688 2.13469,-4.54814 4.41692,-10.57911 5.07162,-13.40214 0.67464,-2.90905 1.76253,-23.27148 2.51104,-47 0.72638,-23.02697 1.48164,-42.73639 1.67838,-43.79872 0.23799,-1.28513 -0.47894,-2.33026 -2.14231,-3.12306 -13.89481,-6.62258 -16.00446,-8.87338 -15.99341,-17.06346 0.0105,-7.76767 4.20646,-12.3882 17.49341,-19.26344 10.62117,-5.49585 19.61083,-7.15973 42.23146,-7.81655 l 20.23147,-0.58744 0.44579,-3.10727 c 2.53545,-17.67282 3.85734,-24.42032 5.52089,-28.18105 3.22844,-7.29843 3.72075,-6.66366 10.13964,13.07378 2.32528,7.15 4.55035,13.675 4.9446,14.5 0.5507,1.15241 2.19633,1.43022 7.10148,1.19888 3.51157,-0.16561 12.31775,0.13558 19.56928,0.66932 17.2487,1.26956 28.23164,4.54546 34.89052,10.40685 7.6648,6.74682 8.59497,11.54981 3.80665,19.65579 -6.28507,10.63977 -31.90163,18.46204 -72.32639,22.08557 -12.01475,1.07696 -14.65602,2.17472 -15.24952,6.33802 -0.22941,1.60924 -1.11748,2.22384 -3.55266,2.45869 -2.59705,0.25046 -3.36421,0.85081 -3.83352,3 -0.32271,1.47778 -0.81646,3.36188 -1.09723,4.18688 -0.5685,1.67042 -1.95451,9.45957 -3.26578,18.35316 -0.98191,6.6597 -2.48039,9.03792 -3.55712,5.64545 -0.38452,-1.2115 -0.76672,-10.13818 -0.84934,-19.83707 -0.12618,-14.81198 -0.39029,-17.67633 -1.65022,-17.89669 -4.00629,-0.70069 -4.50317,1.09191 -4.42139,15.95127 0.0477,8.67193 0.57799,15.78353 1.34967,18.10088 1.5364,4.61387 0.93583,5.54711 -1.80556,2.80572 -2.82786,-2.82786 -4.90562,-10.63825 -6.403,-24.06915 -0.8837,-7.92646 -1.69251,-11.5445 -2.65228,-11.86442 -1.15837,-0.38613 -1.23476,1.69644 -0.47415,12.92528 1.93795,28.60961 1.04439,53.37431 -3.06285,84.88557 -1.43961,11.04491 -4.10648,20.84078 -8.02709,29.48498 -0.75212,1.65826 -1.51572,3.90985 -1.6969,5.00354 -0.18118,1.09368 -1.08681,2.13437 -2.01252,2.31265 -1.23907,0.23862 -1.98812,-0.8086 -2.83926,-3.96951 -1.2655,-4.69972 -0.99277,-6.87996 3.42256,-27.35989 3.71561,-17.23432 4.58275,-27.71881 4.6293,-55.97177 0.0226,-13.75 0.4294,-26.6713 0.9039,-28.714 0.59025,-2.54104 0.48714,-4.22761 -0.32647,-5.3403 -2.69987,-3.69229 -3.40061,1.03868 -4.37748,29.5543 -0.74002,21.6016 -1.36375,29.58922 -2.57686,33 -0.88028,2.475 -1.60706,5.90568 -1.61507,7.62373 -0.008,1.71804 -1.83715,7.34304 -4.06476,12.5 -5.89442,13.64562 -8.4188,19.46179 -12.09911,27.87627 -1.80418,4.125 -7.64008,15.825 -12.96865,26 -5.32858,10.175 -10.2152,20.525 -10.85916,23 -3.3169,12.74819 -11.2695,33.6982 -21.14864,55.71314 C 302.34784,818.34301 298,830.46005 298,831.87099 c 0,2.05188 2.92357,1.1856 12.90775,-3.8247 13.44166,-6.74534 25.05948,-10.39298 46.21566,-14.51029 3.00755,-0.58532 4.2918,-3.19572 5.80015,-11.78952 1.24507,-7.09376 2.70726,-9.96423 4.8641,-9.54886 1.93527,0.3727 4.01817,6.54612 4.1508,12.30238 0.12288,5.33284 1.42414,7.3606 3.78307,5.89515 1.26418,-0.78535 2.23068,-3.75751 3.34227,-10.27808 0.88439,-5.18783 2.25348,-9.86293 3.15125,-10.76069 1.44993,-1.44993 1.72769,-1.37341 3.20633,0.88329 0.96936,1.47943 1.87364,5.77427 2.25383,10.70449 l 0.63494,8.23376 11.2171,-0.70087 c 7.39287,-0.46193 13.68334,-0.28489 18.45097,0.51928 5.97911,1.0085 7.46636,0.98455 8.57417,-0.13809 0.76082,-0.771 1.79548,-5.68177 2.39311,-11.35824 0.57904,-5.5 1.50853,-14.24964 2.06553,-19.44365 1.67269,-15.59796 5.67223,-18.24756 7.9589,-5.27259 1.58937,9.01839 6.97424,32.39061 7.83843,34.02153 0.51893,0.97935 5.56105,1.42412 20.19164,1.78113 10.725,0.26171 22.2,0.95385 25.5,1.5381 3.3,0.58425 8.25,1.42514 11,1.86864 14.63003,2.35942 28.49094,6.60283 41.07682,12.57535 4.17309,1.9803 7.79131,3.39669 8.04048,3.14752 0.7193,-0.7193 -3.72389,-11.97128 -5.76561,-14.60089 C 545.83326,811.80347 545,810.37223 545,809.93461 c 0,-0.43762 -1.98374,-4.98943 -4.40831,-10.11514 C 538.16712,794.69376 533.18153,783.75 529.5126,775.5 c -3.66894,-8.25 -8.38679,-18.6 -10.48412,-23 -2.09732,-4.4 -6.61963,-14.75 -10.04956,-23 -7.08931,-17.05187 -16.77437,-36.85021 -21.27957,-43.5 -5.57329,-8.2263 -6.28761,-9.46249 -8.66767,-15 -2.16673,-5.04117 -2.51249,-8.25298 -4.14457,-38.5 -0.97934,-18.15 -2.32263,-36.04669 -2.98508,-39.77042 -1.38214,-7.76924 -0.48505,-11.05118 3.51947,-12.87577 5.82983,-2.65625 7.67165,1.21765 8.62745,18.14619 0.38817,6.875 1.18965,16.325 1.78105,21 0.5914,4.675 1.54803,15.41876 2.12583,23.87502 1.17598,17.21055 0.14903,14.13523 16.23745,48.62498 8.51053,18.24454 7.82732,16.68075 12.88835,29.5 2.27996,5.775 5.21931,12.87584 6.53188,15.77964 1.31257,2.90379 2.38649,5.44715 2.38649,5.6519 0,0.20475 1.75687,4.12891 3.90415,8.72036 C 540.05632,772.85988 543,779.25605 543,779.60725 c 0,0.4584 7.20878,16.45645 13.01917,28.89275 8.58138,18.36721 9.79169,21.0994 11.29598,25.5 0.84605,2.475 2.67119,7.48119 4.05587,11.12488 4.4078,11.59879 5.95066,22.6629 5.28158,37.87512 -0.58861,13.38254 -1.2314,17.39826 -3.81452,23.8308 -1.21586,3.02775 -1.15822,3.46194 0.63349,4.77207 1.08407,0.79269 2.4887,1.24262 3.1214,0.99983 0.6327,-0.24279 9.66492,-0.7588 20.07161,-1.14669 42.09519,-1.56902 86.80569,3.60631 105.03197,12.15768 C 711.54407,928.23392 720,933.98985 720,936.0728 c 0,4.89183 -21.08276,11.31404 -42.37763,12.90901 -18.43895,1.38107 -69.9591,3.92811 -70.66248,3.4934 -0.30053,-0.18574 -6.02549,-0.55846 -12.72214,-0.82827 C 581.42652,951.13077 580,950.80385 580,948.38409 c 0,-1.69754 12.54379,-7.74945 20.4444,-9.86365 2.78058,-0.74408 9.3306,-2.51392 14.5556,-3.93297 11.64424,-3.16245 19.6309,-3.97508 27.5,-2.79808 l 6,0.89743 -4,1.81101 c -2.2,0.99605 -6.7,1.94884 -10,2.11729 -3.3,0.16846 -11.5992,1.45403 -18.44267,2.85682 -12.8889,2.64199 -18.52706,4.9841 -15.93922,6.6212 2.8781,1.82072 69.98221,-0.66223 82.76625,-3.06247 2.5386,-0.47663 8.32071,-1.18598 12.84913,-1.57632 9.28236,-0.80013 12.4861,-2.27991 10.39391,-4.80084 -3.8947,-4.69282 -14.67879,-8.36871 -41.1274,-14.01875 -18.2256,-3.89342 -66.19392,-6.05744 -91,-4.10535 -10.26848,0.80808 -11.03031,1.1752 -19.5,9.39693 -5.04095,4.89337 -10.06083,8.04571 -24.5,15.38528 -16.77173,8.52524 -25.53737,11.27448 -41.72473,13.08645 -41.04129,4.59407 -69.95606,5.5415 -91.27527,2.99074 z m 24,-11.3497 c 4.125,-0.46049 16.725,-1.56623 28,-2.4572 11.275,-0.89098 23.75093,-2.0888 27.72429,-2.66183 8.78523,-1.267 25.48487,-6.17729 42.27571,-12.43058 6.875,-2.56041 13.63265,-5.0065 15.01699,-5.43576 8.92446,-2.76732 21.79683,-15.1381 26.74224,-25.70018 2.649,-5.65756 2.73708,-6.3893 2.63045,-21.85356 -0.1,-14.49428 -0.36446,-16.78154 -2.81079,-24.30471 -1.53984,-4.73545 -3.38237,-8.56638 -4.28707,-8.91355 -0.87263,-0.33486 -4.78277,0.10828 -8.68921,0.98475 -17.1696,3.85228 -25.6554,4.97562 -34.42053,4.55656 -6.08173,-0.29077 -9.74569,-0.96232 -11.49149,-2.10621 -6.5194,-4.27168 -9.71403,-5.46073 -16.45634,-6.1251 -6.30414,-0.62119 -7.33492,-0.49297 -7.90125,0.98286 -0.95359,2.485 0.75562,4.66116 5.46603,6.95932 6.67233,3.25536 7.01999,4.0503 2.84797,6.51185 -2.00585,1.18348 -3.647,2.35026 -3.647,2.59284 0,1.44174 4.19181,8.22199 6.29848,10.18782 2.49539,2.32853 16.26764,7.17318 20.3925,7.17343 2.88995,1.8e-4 3.82821,1.66231 1.58703,2.81141 -3.89387,1.99646 -10.73768,2.09833 -16.35998,0.24352 C 480.7631,874.71495 476,870.58541 476,863.52013 c 0,-2.97377 -0.60174,-4.75473 -2.04907,-6.06454 -1.99128,-1.80208 -2.53428,-1.80353 -19.25,-0.0516 -37.14539,3.89317 -41.44825,4.44347 -46.5193,5.94941 -2.88628,0.85713 -5.86278,1.32243 -6.61445,1.03399 -2.38039,-0.91344 -11.85654,2.51568 -14.83554,5.36852 -2.85801,2.73698 -2.8995,2.74347 -16.04853,2.51302 C 363.4324,872.14186 355.25,871.60126 352.5,871.0676 c -2.75,-0.53366 -7.45763,-1.10469 -10.4614,-1.26896 l -5.46141,-0.29866 -0.8445,4.5 c -0.81936,4.36597 -0.12616,23.81106 0.94869,26.61207 0.36899,0.96158 -0.25527,1.38793 -2.03224,1.38793 -1.96954,0 -3.12892,-0.98641 -4.99523,-4.25 -3.00094,-5.2477 -3.6544,-8.83994 -3.74607,-20.59316 -0.0666,-8.53654 -0.24592,-9.33225 -2.42523,-10.76019 -1.29434,-0.84808 -3.61993,-1.39677 -5.16797,-1.21931 L 315.5,865.5 l 0.072,13 c 0.0661,11.93718 0.28284,13.40878 2.65101,18 2.59847,5.0377 5.1774,7.84881 9.77699,10.65719 5.20834,3.18007 7.69137,3.09338 15.80267,-0.55171 23.86395,-10.72408 30.16957,-12.0444 56.19733,-11.76712 31.28362,0.33328 45.93539,3.92981 54.82452,13.45764 l 2.32452,2.49154 -2.0455,4.0095 c -2.42328,4.75002 -7.27514,8.94978 -15.24989,13.20028 -9.60141,5.1175 -14.92213,6.30125 -22.81705,5.07631 -4.94848,-0.76778 -7.68138,-0.74482 -10.06045,0.0845 -3.77682,1.31661 -9.03053,-0.0792 -12.62065,-3.353 -1.39632,-1.2733 -2.37635,-1.58045 -2.80902,-0.88037 -1.0054,1.62677 -7.79867,1.28729 -10.37689,-0.51856 -1.84744,-1.29399 -2.21845,-2.363 -1.97251,-5.68344 0.263,-3.55069 0.68089,-4.19004 3.17087,-4.85129 2.52006,-0.66923 3.49049,-0.18128 8,4.02259 6.27499,5.84968 7.94873,6.51063 11.64574,4.59883 3.61658,-1.87021 9.70815,-1.86689 12.98631,0.007 3.21964,1.84052 7.40744,1.86381 12.46657,0.0693 2.21839,-0.78685 5.21358,-1.68103 6.65599,-1.98706 C 436.93501,923.98558 447,915.1432 447,913.26909 c 0,-0.62095 -3.3743,-2.99165 -7.49844,-5.26823 -13.16641,-7.26802 -35.58948,-9.89156 -59.52779,-6.96486 -9.29495,1.1364 -22.66484,4.46272 -24.68865,6.14234 -2.93103,2.43253 -0.59526,16.6115 3.47793,21.11233 1.61816,1.78805 1.60644,1.96599 -0.21745,3.29965 C 357.48528,932.36564 355.49525,933 354.12332,933 351.4022,933 347,929.46866 347,927.28585 c 0,-0.75104 -0.90915,-3.1476 -2.02032,-5.32569 L 342.95935,918 h -8.51179 c -5.04999,0 -9.88007,-0.5717 -11.87608,-1.40569 -3.96087,-1.65495 -10.88,-10.38299 -13.00442,-16.40425 -1.43958,-4.0802 -1.77162,-7.02611 -3.12286,-27.7067 -0.35876,-5.49085 -0.82321,-10.26614 -1.03211,-10.61176 -0.44228,-0.73173 -6.00517,-3.37999 -8.91209,-4.24267 -1.57837,-0.46841 -2.50349,0.28572 -4.38832,3.57722 -2.14687,3.74912 -2.37799,5.29362 -2.28613,15.27768 0.0562,6.10881 0.74299,13.85379 1.52619,17.21107 4.41265,18.91534 18.60297,34.67441 38.3337,42.57149 15.3932,6.16102 40.6295,11.39203 56.29073,11.66801 5.7619,0.10154 10.6744,0.38284 10.91667,0.62511 0.71497,0.71496 15.99572,0.3851 24.10716,-0.5204 z m -51.14096,-18.73169 c -7.90501,-2.32004 -12.48349,-8.83249 -7.92478,-11.27224 3.476,-1.8603 6.57646,-1.18824 8.87768,1.92433 1.20343,1.62773 2.18806,3.37524 2.18806,3.88337 0,0.50812 0.9,1.15921 2,1.44687 2.24474,0.58701 2.64863,2.96867 0.75,4.42255 -0.81286,0.62246 -2.87299,0.48087 -5.89096,-0.40488 z m 11.93642,-70.20307 c 6.32607,-3.22732 11.16059,-4.02402 27.24983,-4.49058 8.54991,-0.24794 18.22491,-0.9365 21.5,-1.53013 3.27509,-0.59363 12.92971,-1.4178 21.45471,-1.83149 L 467.5,850.5 468,843.78366 c 0.66818,-8.97544 1.9166,-10.13959 11.38647,-10.61779 6.49927,-0.3282 8.3824,0.0287 16.23285,3.07695 10.99692,4.26993 30.3898,7.33746 34.37526,5.43742 3.26808,-1.55804 4.01644,-7.4553 1.26236,-9.94771 -4.19951,-3.8005 -27.60471,-10.74426 -46.41095,-13.76902 -8.45989,-1.36067 -34.5272,-1.6652 -35.78366,-0.41805 -0.57929,0.57501 -1.32095,4.62501 -1.64812,9 -1.03473,13.83634 -3.43112,17.48828 -10.46235,15.94397 -5.61986,-1.23433 -8.39261,-6.25248 -9.42321,-17.05421 -0.36393,-3.81437 -0.98555,-7.26651 -1.38137,-7.67142 -0.39583,-0.40491 -5.87839,-0.8905 -12.18348,-1.07908 -18.63108,-0.55725 -26.9638,2.3096 -26.9638,9.27684 0,3.75139 -1.85577,8.76912 -3.47268,9.38958 -2.92418,1.12212 -4.71664,-1.84058 -5.26781,-8.70699 -0.44094,-5.49314 -0.83782,-6.67632 -2.15013,-6.4099 -1.35385,0.27486 -1.5575,1.61947 -1.28262,8.46856 0.49588,12.35587 -2.19392,15.32642 -6.66865,7.36472 C 366.79858,833.64857 366,830.48956 366,827.53051 c 0,-7.26918 -2.14691,-5.15181 -4.86965,4.80267 -1.3038,4.76675 -2.72695,8.66682 -3.16255,8.66682 -1.04748,0 -1.95936,-6.29928 -1.78664,-12.34223 0.0844,-2.95127 -0.35376,-5.14641 -1.12187,-5.62113 -1.71076,-1.05731 -7.20721,0.21091 -22.37817,5.16341 -15.93151,5.20078 -16.84851,6.16718 -17.04639,17.96484 -0.1518,9.04983 -0.0411,9.20193 7.52429,10.33631 l 4.65901,0.6986 2.03475,-4.5999 c 1.11912,-2.52995 2.58713,-4.5999 3.26225,-4.5999 2.08954,0 4.88497,3.1952 4.88497,5.58356 0,2.68679 2.27475,5.21516 5.31993,5.91309 2.17423,0.49831 10.7629,0.9208 26.46991,1.30211 6.45391,0.15667 9.11276,-0.21858 12.00562,-1.69441 z m -71.36784,-7.42777 c 1.44324,-1.05532 1.58836,-1.7137 0.71636,-3.25 -0.60144,-1.05962 -1.75605,-3.612 -2.5658,-5.67196 -1.39677,-3.55333 -1.616,-3.69093 -4.27522,-2.68339 -3.30163,1.25093 -7.30296,4.78388 -7.30296,6.4481 0,2.56958 4.53048,5.18258 11.05887,6.37831 0.30738,0.0563 1.37332,-0.49318 2.36875,-1.22106 z M 480.19941,567.10387 c 3.86467,-1.49837 5.92283,-2.91699 6.39346,-4.40679 0.38173,-1.20839 1.49386,-2.76014 2.47141,-3.44832 4.97096,-3.49951 2.20848,-12.57042 -4.91505,-16.13908 -4.36586,-2.18716 -15.35986,-4.7988 -23.64923,-5.61792 -6.55717,-0.64796 -20.56127,0.98935 -21.50363,2.51411 -1.1137,1.802 -0.46164,6.50305 0.86281,6.22049 9.10689,-1.94284 20.14082,-1.47866 20.14082,0.8473 0,1.3682 -4.61977,3.37834 -15.93563,6.93383 -10.15282,3.19006 -10.76258,3.261 -22.5,2.61771 -6.6354,-0.36367 -13.41437,-0.88008 -15.06437,-1.14757 -1.65,-0.2675 -8.175,-0.75327 -14.5,-1.07949 -9.07625,-0.46811 -11.88715,-0.96558 -13.33693,-2.36034 -1.77508,-1.70772 -1.7206,-1.83912 1.61803,-3.90251 3.17474,-1.9621 4.83975,-2.13529 20.52792,-2.13529 9.39012,0 17.32596,-0.40939 17.63521,-0.90976 1.00105,-1.61973 -0.65089,-4.21826 -3.33061,-5.23914 -1.43749,-0.54763 -8.97826,-0.95613 -16.75726,-0.90778 -19.93277,0.1239 -34.86386,3.48581 -43.10636,9.7059 -5.00107,3.77398 -4.28863,5.61859 3.51822,9.10932 16.37497,7.32184 29.95909,9.18262 68.04757,9.32131 23.46139,0.0854 27.39813,0.31403 27.89932,1.62012 0.90681,2.36312 18.04018,1.29005 25.4843,-1.5961 z M 402.85606,767.4836 c -4.25311,-2.31052 -4.93776,-6.18599 -4.76612,-26.97883 0.16391,-19.85601 0.66312,-27.82325 3.35253,-53.50477 0.89275,-8.525 1.73923,-19.32809 1.88107,-24.00686 0.14184,-4.67877 0.5329,-8.95377 0.86904,-9.5 0.33613,-0.54623 0.91891,-5.26107 1.29506,-10.47742 C 406.18636,633.32608 406.48413,632 407.96119,632 c 3.12829,0 4.90481,19.62451 7.46835,82.5 0.24666,6.05 0.76494,18.44929 1.15172,27.55397 0.80366,18.91785 0.055,23.04851 -4.61489,25.46342 -3.53635,1.82872 -5.69662,1.82071 -9.11031,-0.0338 z m -29.23828,-11.37309 c -1.86896,-5.84923 -1.79832,-9.07462 0.36376,-16.61051 0.47339,-1.65 1.61485,-6.375 2.53657,-10.5 0.92172,-4.125 2.25788,-9.525 2.96923,-12 0.71135,-2.475 2.05681,-7.2 2.9899,-10.5 0.93309,-3.3 2.77879,-9.375 4.10156,-13.5 2.21079,-6.89423 4.85892,-19.23142 7.77099,-36.20367 1.28308,-7.47809 2.6423,-9.71571 4.52427,-7.44808 1.85691,2.23745 1.28831,10.44609 -2.36568,34.15175 -0.84777,5.5 -2.04258,13.375 -2.65515,17.5 -0.61256,4.125 -1.9919,11.1 -3.0652,15.5 -1.07329,4.4 -2.33711,9.8 -2.80848,12 -1.45959,6.81221 -4.9845,17.38502 -6.00668,18.01677 C 381.43779,746.84746 381,747.93548 381,748.93459 381,750.55821 376.41328,762 375.76241,762 c -0.14454,0 -1.10963,-2.65027 -2.14463,-5.88949 z m 55.2484,-8.24433 c -1.9057,-1.9057 -2.07122,-2.88045 -1.5483,-9.11789 0.90355,-10.7775 4.52555,-13.25727 11.97257,-8.19689 l 3.75472,2.55139 -0.65766,6.69861 C 441.47618,749.08393 440.85436,750 435.46482,750 c -3.22482,0 -5.05744,-0.59262 -6.59864,-2.13382 z m -4.41163,-78.32073 c -2.97316,-2.97315 -3.0024,-3.55126 -0.43423,-8.58529 2.31522,-4.5382 4.63424,-5.05457 7.6804,-1.71016 4.58635,5.03539 5.58672,9.99061 2.36502,11.71482 -3.23097,1.72916 -7.02261,1.16922 -9.61119,-1.41937 z M 690.5,626.06776 c -8.12774,-2.41039 -19.73851,-8.38382 -24.27493,-12.48881 -7.79319,-7.05203 -15.34374,-26.75167 -12.37767,-32.29381 C 655.29598,578.57845 652.53391,576 648.18588,576 c -4.33725,0 -14.48778,-5.51412 -20.85072,-11.32685 -5.81489,-5.31206 -13.07712,-15.73238 -15.73124,-22.57221 -2.6595,-6.85367 -3.15083,-16.14229 -1.2916,-24.41746 0.88768,-3.95091 2.34735,-11.04681 3.24372,-15.76866 1.29693,-6.83193 2.32555,-9.46446 5.03686,-12.89073 1.8739,-2.36805 3.4071,-4.63712 3.4071,-5.04238 0,-1.15596 -2.98023,-3.33482 -3.64799,-2.66706 -0.32981,0.32981 -2.3189,-0.27744 -4.42021,-1.34944 -3.19138,-1.62813 -5.03589,-1.84637 -11.20046,-1.32528 -6.91369,0.58442 -7.72267,0.4343 -12.80562,-2.37641 -5.74668,-3.17773 -11.34662,-9.5635 -15.13907,-17.26352 -1.89733,-3.85226 -2.27063,-6.53818 -2.59335,-18.65964 -0.48517,-18.22335 1.08531,-26.28269 7.43486,-38.15391 2.55537,-4.77755 5.92483,-10.5536 7.48769,-12.83568 3.05439,-4.45999 13.18302,-12.60563 18.88415,-15.187 1.925,-0.87161 4.175,-2.13156 5,-2.79989 2.13788,-1.73189 20.0539,-7.35165 29.5,-9.25333 l 8,-1.61055 7.70174,-11.6828 c 5.708,-8.65849 9.07329,-12.68315 13,-15.54711 C 677.20888,327.43005 681.81992,325 684.89429,325 c 1.52898,0 7.09911,-0.64837 12.37807,-1.44082 9.44983,-1.41857 14.39938,-3.15402 16.37985,-5.74324 1.29015,-1.68671 5.94787,-16.66211 7.40736,-23.81594 0.61714,-3.025 2.43818,-10.225 4.04675,-16 6.00877,-21.57236 6.84481,-24.65212 8.41539,-31 0.88452,-3.575 4.23126,-14.6 7.4372,-24.5 3.20594,-9.9 6.59102,-20.7 7.52239,-24 1.32133,-4.68166 2.38587,-6.44239 4.84494,-8.01338 4.13186,-2.63968 4.62855,-5.20888 1.17459,-6.07577 -3.5147,-0.88213 -12.81456,1.06156 -16.24422,3.39509 -8.23014,5.59973 -16.49028,10.11686 -27.53906,15.05998 -2.63034,1.17679 -4.92184,2.70087 -5.09222,3.38685 -1.46071,5.88127 -4.24769,12.93021 -6.42377,16.24723 -1.44327,2.2 -3.82667,6.475 -5.29646,9.5 -5.69964,11.7306 -21.80646,22.82627 -39.06269,26.90951 -21.26772,5.03246 -23.9891,5.47997 -25.93486,4.26483 -2.69457,-1.68279 -4.18817,-1.4731 -8.018,1.12567 -3.50985,2.38164 -19.20085,9.02058 -24.28596,10.27551 l -2.89642,0.71479 0.49993,-4.43532 c 0.27496,-2.43943 1.18808,-5.99225 2.02917,-7.89516 0.84108,-1.90291 2.11057,-5.03483 2.82108,-6.95983 0.71051,-1.925 2.15529,-4.75347 3.21061,-6.28549 1.05533,-1.53203 1.67929,-3.4096 1.38658,-4.17238 -0.59818,-1.55882 -1.39319,-1.43862 -13.15454,1.98888 -4.4,1.28225 -9.8,2.6416 -12,3.02078 -11.24851,1.93874 -33.15612,8.3366 -40.43895,11.80971 -6.12191,2.91949 -26.61509,22.75719 -28.07318,27.17526 -1.44996,4.39342 -0.96029,5.05811 4.2527,5.77263 7.9226,1.08591 15.76299,5.50799 23.35401,13.17197 5.80007,5.85581 7.56435,8.42686 9.66918,14.0907 7.67673,20.65715 5.84499,40.75882 -5.452,59.83072 C 538.35569,388.23742 533.86342,393 531.816,393 c -0.9988,0 -1.816,0.56515 -1.816,1.25589 0,0.69074 -1.2375,1.79747 -2.75,2.4594 -1.5125,0.66193 -4.82371,2.11462 -7.35825,3.2282 -13.92984,6.12025 -33.54444,1.29768 -47.94021,-11.78687 -14.21657,-12.92169 -18.39643,-31.05155 -11.44837,-49.65662 7.14522,-19.13305 18.55938,-34.96539 29.19573,-40.4968 4.56694,-2.37502 8.19563,-5.5767 8.26783,-7.2949 0.0183,-0.43544 1.37581,-3.6632 3.01668,-7.17282 2.08727,-4.46438 4.63667,-7.83108 8.48738,-11.2083 3.02719,-2.65495 5.50965,-5.21476 5.51659,-5.68847 0.007,-0.47371 -1.58969,-0.5607 -3.54808,-0.1933 -5.04012,0.94553 -26.49383,9.13043 -31.63249,12.06825 -2.36874,1.35424 -4.89933,2.46767 -5.62353,2.47429 -0.7242,0.007 -2.7492,1.08482 -4.5,2.39598 -1.7508,1.31117 -4.30828,2.71553 -5.68328,3.12081 -8.28199,2.44112 -31.45608,14.88169 -41,22.01008 -3.025,2.25939 -7.075,5.07494 -9,6.25679 -6.3039,3.87027 -20.80068,19.62141 -24.00751,26.08481 -1.64587,3.31727 -2.99249,6.70509 -2.99249,7.52848 0,0.82338 -0.45,1.77518 -1,2.1151 -2.31299,1.4295 -0.50858,23.5 1.92128,23.5 0.455,0 2.74042,-0.675 5.07872,-1.5 2.50868,-0.88511 7.58179,-1.47934 12.37573,-1.4496 15.90263,0.0986 28.01607,6.36464 37.32067,19.30509 9.34298,12.99383 13.65239,23.62494 15.39878,37.98803 1.78739,14.70041 0.70273,22.55543 -4.57844,33.15648 -2.46596,4.95 -5.05353,9.69005 -5.75015,10.53345 -1.82573,2.2104 -13.75102,9.96655 -15.32384,9.96655 -0.73114,0 -1.91736,0.81013 -2.63605,1.8003 -2.50209,3.44723 -7.73708,4.7032 -19.3067,4.63204 -12.95544,-0.0797 -19.95523,-1.842 -29.51027,-7.42968 -4.32814,-2.53105 -7.65703,-5.43203 -9.93155,-8.6549 -1.8817,-2.66627 -4.96013,-6.58698 -6.84095,-8.71269 -7.8994,-8.92791 -14.21746,-27.58071 -14.21706,-41.97304 1.8e-4,-6.33149 2.09121,-19.14197 3.90186,-23.90435 2.72646,-7.17114 12.65469,-17.21266 19.01408,-19.23105 3.13536,-0.99513 4.01444,-3.47913 3.02251,-8.54063 -0.54037,-2.75731 -0.46432,-8.33952 0.19734,-14.486 0.86152,-8.00312 1.69589,-11.13994 4.17833,-15.7086 1.70601,-3.13973 2.83232,-5.97812 2.50291,-6.30753 -0.32941,-0.32941 -5.48554,2.75292 -11.45806,6.84963 -5.97253,4.09671 -18.95914,11.54597 -28.85914,16.55391 -11.92554,6.03256 -19.01241,10.24113 -21,12.47093 -1.65,1.85108 -7.275,5.75976 -12.5,8.68596 -10.03133,5.61794 -14,8.5753 -14,10.43247 0,0.62048 -2.3625,1.95579 -5.25,2.96735 -2.8875,1.01157 -6.15,2.58346 -7.25,3.4931 -1.1,0.90964 -3.26272,2.28543 -4.80605,3.05731 -1.54333,0.77188 -4.56695,3.31377 -6.71915,5.64864 -2.15221,2.33486 -8.76448,8.71651 -14.69395,14.18143 -5.92947,5.46493 -13.72296,12.80254 -17.31888,16.30582 -7.24175,7.05517 -19.68981,24.767 -23.64219,33.6395 -2.55691,5.73987 -6.17262,17.53736 -6.81311,22.23008 -0.18767,1.375 -0.86588,4.75 -1.50713,7.5 -1.69008,7.24788 -2.40571,20.5 -1.10703,20.5 1.76737,0 3.79226,-5.16736 4.5064,-11.5 0.77051,-6.83245 3.13425,-16.57354 5.0958,-21 0.73118,-1.65 2.2868,-5.65198 3.45693,-8.89329 2.17504,-6.02495 9.41324,-18.73979 19.45521,-34.17563 1.91316,-2.94079 10.13415,-10.44446 11.41146,-10.41577 0.37493,0.008 1.31537,0.41647 2.08987,0.90678 1.65425,1.04725 0.0657,5.00685 -5.55287,13.84114 -3.98135,6.26001 -7.85963,14.64067 -13.99254,30.23677 -2.4872,6.325 -6.48909,15.55 -8.89308,20.5 -4.72364,9.72633 -9.94382,24.3592 -9.01966,25.28336 1.32129,1.32129 7.15258,-6.12819 16.21905,-20.71987 12.56813,-20.22729 15.86806,-27.09748 22.71909,-47.29939 6.88491,-20.30178 11.09673,-30.30634 16.50964,-39.21616 C 272.15401,411.83415 274,408.48141 274,408.09741 274,406.33975 284.35492,396 286.11517,396 c 1.07536,0 3.06436,-0.72675 4.42001,-1.61501 1.35565,-0.88826 2.46482,-1.418 2.46482,-1.17721 0,0.24078 -1.28374,3.10504 -2.85275,6.36501 -3.81399,7.92443 -6.96819,15.32051 -12.54977,29.42721 -1.41452,3.575 -5.30437,17.525 -8.64413,31 -3.33975,13.475 -6.94552,26.4076 -8.01282,28.7391 -1.06729,2.33151 -1.94053,4.74352 -1.94053,5.36002 0,2.15512 -6.32673,12.96755 -9.64895,16.49013 -1.84308,1.95424 -3.35105,4.09199 -3.35105,4.75057 0,0.65858 -3.375,4.49634 -7.5,8.52835 -4.125,4.03201 -7.5,7.72457 -7.5,8.2057 0,0.48112 -1.4625,1.62908 -3.25,2.55102 -1.7875,0.92193 -5.19566,3.1594 -7.57369,4.97215 -2.37804,1.81274 -6.26403,4.23519 -8.63554,5.38323 -4.73289,2.29114 -14.75647,4.25792 -17.10578,3.35641 -0.8184,-0.31405 -2.64648,-2.5478 -4.0624,-4.96388 -2.43405,-4.15339 -2.5152,-4.73308 -1.4884,-10.63284 0.5973,-3.43198 1.53206,-12.08996 2.07724,-19.23996 1.19605,-15.68587 1.48536,-17.52169 4.57024,-29 8.65321,-32.19721 19.78271,-48.48003 48.1984,-70.51583 12.54343,-9.72717 14.93873,-12.76793 9.14493,-11.60917 -1.71875,0.34375 -5.31031,0.625 -7.98126,0.625 -4.57553,0 -5.24752,0.36339 -11.625,6.28649 -3.7228,3.45757 -9.16751,8.25484 -12.09934,10.6606 -2.93183,2.40577 -7.88183,6.91352 -11,10.01723 -3.11817,3.10371 -10.6194,9.09846 -16.6694,13.32167 -16.85637,11.7666 -30.85129,18.03284 -55.5,24.85018 -13.47743,3.72759 -35.94416,5.79741 -42.290342,3.89613 -4.164048,-1.24752 -14.191077,-5.19031 -18.370432,-7.22355 -1.188425,-0.57816 -4.788425,-1.5758 -8,-2.21696 -4.853499,-0.96897 -5.893765,-1.54389 -6.162305,-3.4057 C 62.822081,456.72595 68.715294,450 71.225686,450 c 0.784127,0 2.516627,-1.16389 3.85,-2.58642 9.270269,-9.89014 32.647894,-21.7759 61.988364,-31.51639 C 146.83403,412.65373 155.57101,410 156.47956,410 c 0.90856,0 2.55139,-0.48138 3.65075,-1.06974 3.08888,-1.65312 0.70418,-3.55333 -5.38937,-4.29443 C 139.6723,402.80318 113.01243,391.48374 101.14062,381.87781 86.139447,369.73979 64.385571,333.27947 62.324124,316.81989 l -0.586151,-4.68011 3.727028,-0.69919 c 2.77592,-0.52077 4.787091,-0.18464 7.881013,1.31716 4.654659,2.25939 15.335441,5.75793 20.653986,6.76532 1.925,0.36461 7.325,2.21341 12,4.10844 20.66872,8.37816 22.83728,10.0402 43.5286,33.36153 18.18803,20.49984 26.72008,28.40672 35.44408,32.84697 7.19411,3.66159 7.92572,3.82421 16.52732,3.67374 4.95,-0.0866 12.7637,-0.71608 17.36377,-1.39885 6.67516,-0.99077 9.3478,-0.98921 13.23771,0.008 6.28233,1.61011 15.77482,-0.0805 24.7005,-4.39918 7.04433,-3.40839 8.85651,-5.62455 7.1724,-8.77134 C 262.53321,376.25928 259.00224,375 252.89274,375 236.49837,375 208.55456,364.80818 194.7195,353.78274 186.5793,347.29565 176.23382,333.81719 171.4568,323.47528 169.55556,319.35922 168,315.72873 168,315.40752 c 0,-0.32122 -1.35,-3.50071 -3,-7.06555 -1.65,-3.56483 -3,-6.79613 -3,-7.18068 0,-0.38454 -1.37097,-3.96218 -3.04661,-7.95031 -1.67563,-3.98813 -2.77407,-7.6921 -2.44098,-8.23106 1.02911,-1.66514 6.8556,-1.03869 9.48759,1.02008 1.375,1.07554 2.99276,1.96553 3.59501,1.97776 0.60226,0.0122 1.89268,0.90365 2.86761,1.98094 2.47284,2.73246 11.60157,5.3761 50.53738,14.6354 4.07464,0.96899 10.60445,3.89457 17.5,7.8406 28.03994,16.04607 62.0574,31.5653 69.18975,31.5653 2.80395,0 12.35099,2.87554 13.76025,4.14455 1.43416,1.29143 7.65998,1.02764 12.88916,-0.54611 4.61915,-1.39016 19.79236,-9.94491 28.90058,-16.29432 2.60686,-1.81727 5.00131,-3.30412 5.32099,-3.30412 1.46454,0 15.51001,-11.64753 16.03318,-13.29587 0.88918,-2.80156 -0.0492,-3.09041 -5.81539,-1.79003 -2.90319,0.65473 -13.37852,1.87906 -23.27852,2.72075 -20.47207,1.74051 -23.86189,1.36544 -47.26887,-5.23003 -21.58747,-6.08279 -34.33085,-11.8622 -51.56248,-23.38475 -8.40566,-5.62075 -12.10787,-8.90756 -17.80603,-15.80813 C 227.23638,254.71033 216.41089,236.0443 212.03184,221.5 c -0.66238,-2.2 -1.89573,-5.53435 -2.74077,-7.40967 -2.09891,-4.6579 -6.33999,-16.98771 -6.98068,-20.29448 -1.04688,-5.4032 5.93235,-4.78939 25.68961,2.25937 41.80065,14.91314 49.77811,19.66718 76.05957,45.32648 7.54682,7.36817 17.93326,16.58985 23.08096,20.49263 5.14771,3.90278 14.08447,10.72502 19.85947,15.16054 12.41199,9.53308 19.9547,13.28903 33.5,16.68157 l 10,2.5046 12.28466,-2.21023 c 6.75656,-1.21563 13.32148,-1.95 14.58871,-1.63195 1.75507,0.4405 4.59045,-1.02493 11.89987,-6.15029 24.94957,-17.49461 38.75349,-24.6534 53.30204,-27.64271 4.35859,-0.89557 10.17472,-2.08377 12.92472,-2.64045 4.7636,-0.96429 21.77571,-6.95223 25.66435,-9.03337 2.3229,-1.24318 2.36684,-3.49067 0.0856,-4.38131 -0.9625,-0.37578 -5.78938,-1.1058 -10.7264,-1.62225 -13.86599,-1.45049 -27.15008,-7.03703 -46.14029,-19.40401 -8.14287,-5.30287 -26.19978,-22.74618 -32.28231,-31.18532 -8.39215,-11.64359 -21.59958,-43.76243 -30.04273,-73.06023 -0.98922,-3.43259 -2.24172,-6.80759 -2.78333,-7.5 -2.70434,-3.45726 -6.00793,-21.685203 -4.59669,-25.362827 C 395.14301,83.184943 402.69079,79 404.41041,79 c 0.28607,0 2.60929,1.324904 5.1627,2.944231 2.55342,1.619327 6.05654,3.248863 7.78473,3.621192 4.57073,0.984739 30.19157,11.754451 38.24344,16.075617 13.82021,7.41684 27.1764,16.43065 32.17054,21.71121 5.64061,5.96412 12.32511,15.8704 17.04674,25.26291 3.00894,5.98555 4.36338,9.5317 12.17826,31.88484 2.11514,6.05 5.90614,14.42462 8.42444,18.61026 3.48882,5.79872 4.57874,8.60247 4.57874,11.77852 0,4.51637 4.37272,14.3393 7.7345,17.37489 1.87533,1.69336 2.38353,1.62418 12.74919,-1.73555 9.43708,-3.05877 25.25839,-6.21575 47.51631,-9.4814 3.575,-0.52452 9.34225,-0.97749 12.81611,-1.00661 8.24518,-0.0691 22.34597,-2.55545 26.40927,-4.65666 1.76485,-0.91264 6.92782,-4.13429 11.47326,-7.15922 4.54545,-3.02493 11.31025,-6.48758 15.0329,-7.69477 5.88593,-1.9087 6.76846,-2.51007 6.76846,-4.61217 0,-1.88044 -0.77731,-2.66857 -3.5,-3.54872 -3.15687,-1.02051 -3.46722,-1.44556 -3.16565,-4.33561 0.26698,-2.55859 -0.48859,-4.18014 -3.75,-8.04798 -2.24639,-2.66409 -4.0831,-5.21306 -4.08157,-5.66439 0.002,-0.45132 -0.85959,-2.62059 -1.9136,-4.82059 -1.05401,-2.2 -3.34215,-8.05 -5.08476,-13 -5.56062,-15.79529 -20.12757,-37.33336 -32.305,-47.76478 -7.57424,-6.488246 -18.25734,-17.387446 -24.48618,-24.981488 -5.13091,-6.255484 -8.43762,-7.449975 -9.69939,-3.503732 -0.39567,1.2375 -0.96176,2.925 -1.25797,3.75 -0.29621,0.825 -0.45484,7.35 -0.35252,14.5 0.37387,26.12444 7.72731,42.61581 28.3144,63.5 10.02446,10.16912 18.92662,15.85777 33.48612,21.39824 7.31141,2.78228 12.29612,5.92578 12.29612,7.75428 0,1.9587 -12.51193,0.0239 -23.5,-3.63388 -16.56538,-5.51445 -30.2236,-13.09741 -37.19209,-20.64881 -3.96909,-4.30109 -13.33629,-19.20926 -17.82553,-28.36983 -6.63097,-13.53089 -9.4478,-25.33868 -9.53883,-39.985482 -0.13007,-20.930907 3.45674,-43.112064 7.51627,-46.481173 2.33414,-1.937165 5.32538,-0.238716 9.47699,5.381124 2.13905,2.895515 9.44083,10.481905 16.22618,16.858647 22.00013,20.675287 24.43652,23.092959 32.94612,32.693004 4.61499,5.20636 8.73244,9.93136 9.14989,10.5 0.41745,0.56863 2.5018,3.28388 4.63188,6.03388 5.67905,7.33183 17.09652,28.41079 17.11889,31.60493 0.0293,4.17936 12.52074,25.03825 16.161,26.98646 1.00608,0.53844 1.82923,1.62777 1.82923,2.42074 0,0.79297 1.10057,2.16289 2.44571,3.04426 2.32477,1.52324 2.82674,1.42405 10.15067,-2.00576 8.96376,-4.19777 13.90389,-5.49231 21.08852,-5.52618 2.8517,-0.0135 6.26344,-0.43451 7.58166,-0.9357 1.31822,-0.50118 4.83502,-1.22069 7.8151,-1.59889 6.35645,-0.80671 7.37857,-1.28922 13.23271,-6.24676 2.43103,-2.05871 5.86714,-4.5311 7.63581,-5.49421 1.76866,-0.9631 3.03564,-2.29142 2.81551,-2.95181 -0.73293,-2.1988 -15.78589,-5.58769 -25.42551,-5.72408 -6.11116,-0.0865 -21.2116,-4.8212 -29.54941,-9.2652 -9.55829,-5.09452 -19.08536,-14.63133 -23.23498,-23.25875 -4.94514,-10.28136 -5.89681,-15.76948 -5.28852,-30.498052 0.43176,-10.454565 1.0455,-14.174945 3.67436,-22.2733 2.61367,-8.051606 3.66314,-10.021874 6.10719,-11.465607 C 682.87973,55.230547 684,53.742238 684,52.391381 684,49.98513 685.73107,49 689.95934,49 c 3.3115,0 3.64006,0.359765 10.18315,11.150392 2.78461,4.592285 7.04171,10.67138 9.46022,13.5091 2.41851,2.837721 4.39729,5.409673 4.39729,5.715448 0,0.521495 4.43454,7.488475 19.65393,30.87774 3.49034,5.36398 6.34607,10.13173 6.34607,10.59501 0,0.46329 0.91426,1.66973 2.0317,2.68099 1.11743,1.01127 3.42309,4.27058 5.12369,7.24292 1.7006,2.97234 4.76666,7.16468 6.81347,9.31632 3.3448,3.51612 4.21994,3.91208 8.6464,3.91208 7.20995,0 17.6307,-3.21102 32.0972,-9.89034 C 806.80656,128.5257 827.72178,120.51332 836.5,118.10135 847.42849,115.09855 870.58826,110 873.29977,110 c 1.68996,0 6.25136,0.83407 10.13644,1.85349 12.86634,3.37603 16.55997,4.14651 19.87814,4.14651 1.80711,0 3.82565,0.54 4.48565,1.2 1.76576,1.76576 1.46003,4.77969 -0.55,5.42193 -0.9625,0.30754 -4.9,1.85451 -8.75,3.43772 -8.16246,3.35658 -17.9566,7.00514 -28.5,10.61693 -32.02684,10.97127 -53.4591,21.99527 -77.5,39.86329 -11.39815,8.47149 -13.22517,9.94246 -21.6474,17.42865 -6.31737,5.61527 -7.00014,6.9746 -10.8416,21.58465 -1.72767,6.57076 -4.2507,16.15911 -5.60674,21.30746 -2.46117,9.34414 -2.38665,10.68442 0.73064,13.13937 1.60153,1.26125 9.73233,8.02053 15.84947,13.17595 10.46167,8.81692 18.95578,21.28346 24.4088,35.82405 l 1.68759,4.5 9.20962,0.0578 c 12.69728,0.0797 16.89182,1.488 23.13893,7.76899 7.93247,7.97549 14.3801,21.35211 16.67472,34.59434 2.8016,16.16807 2.52565,24.53068 -1.11739,33.86114 -1.65734,4.24476 -4.57534,9.83957 -6.48444,12.43291 -4.46484,6.06511 -15.26519,14.96499 -22.07123,18.1875 -11.25395,5.3285 -31.54778,6.12665 -40.44876,1.59084 -7.17963,-3.65863 -17.09986,-10.00087 -22.23186,-14.21334 -5.1441,-4.22241 -6.2743,-4.22408 -7.19973,-0.0106 -0.45249,2.06017 0.87146,5.99354 5.29751,15.73853 3.24542,7.14556 6.4468,15.33214 7.11418,18.1924 0.66737,2.86026 1.82628,5.70911 2.57534,6.33078 0.74907,0.62167 5.09703,1.48067 9.66214,1.9089 4.56512,0.42823 11.46276,1.73117 15.32809,2.89542 6.44633,1.94165 7.64908,2.7661 14.53499,9.96319 9.28609,9.70575 14.42615,17.34906 18.25516,27.14553 5.65397,14.46565 4.45366,32.51788 -3.08286,46.36495 -3.2043,5.88735 -12.17483,14.32298 -17.9589,16.88802 -9.49967,4.21279 -29.51633,2.67113 -41.77627,-3.21757 -4.97186,-2.38808 -6.22821,-2.65596 -7.3318,-1.56329 -1.10859,1.09762 -1.00006,2.47217 0.64754,8.20112 3.22,11.19646 3.38106,12.37198 3.32049,24.23463 -0.15046,29.46618 -11.58099,50.4507 -30.13623,55.32505 -8.77669,2.30558 -24.53557,2.25251 -32.5,-0.10944 z m 21.78487,-15.31398 c 0.66832,-0.8432 2.82257,-2.04123 4.78722,-2.66228 5.2537,-1.66075 9.22447,-6.40424 14.47355,-17.29013 4.28392,-8.8843 4.67658,-10.32488 4.67658,-17.15743 0,-11.0457 -2.27985,-16.8601 -9.56498,-24.39394 -4.64427,-4.80282 -6.70632,-6.25 -8.90549,-6.25 -2.51986,0 -3.16331,0.68174 -5.38511,5.70564 -1.38782,3.1381 -3.33622,6.8506 -4.32979,8.25 -0.99357,1.3994 -3.02922,4.73818 -4.52367,7.41951 -2.16622,3.88661 -2.50807,5.306 -1.6859,7 0.5672,1.16867 1.32203,5.49985 1.67739,9.62485 0.68473,7.94828 2.96087,14.29943 7.04242,19.65062 2.42032,3.17321 2.4347,3.28876 0.53573,4.30505 -2.7292,1.46063 -2.63457,1.4987 -7.56078,-3.04212 -5.30002,-4.88539 -7.00276,-4.43746 -6.172,1.62363 0.47412,3.4591 0.25838,4.40187 -1.13215,4.94719 -1.40561,0.55124 -1.08166,1.02568 1.78211,2.60999 4.14145,2.29116 12.35416,2.09535 14.28487,-0.34058 z m 3.1473,-9.44497 c 0.49513,-2.2543 -0.041,-4.81567 -1.96484,-9.38642 -1.7502,-4.1583 -2.7002,-8.34014 -2.80656,-12.35425 -0.14917,-5.63039 0.006,-6.09171 2.14427,-6.3949 3.18945,-0.45214 4.84137,1.2154 5.54324,5.59564 0.32883,2.05212 1.56549,6.81195 2.74814,10.57742 2.12163,6.75507 2.12488,6.88033 0.24351,9.40022 -1.04873,1.40466 -2.96021,3.25338 -4.24774,4.10826 -2.31419,1.53656 -2.33317,1.51888 -1.66002,-1.54597 z M 692,604.5596 c 0,-0.79222 -1.18247,-4.71849 -2.62771,-8.72504 -2.27327,-6.30204 -2.54477,-8.26593 -2.01276,-14.5596 C 687.94925,574.29866 687.88588,574 685.81599,574 682.56503,574 680,576.87877 680,580.52734 c 0,4.65059 4.72334,18.42116 7.62206,22.22158 2.63648,3.45659 4.37794,4.17685 4.37794,1.81068 z m -21.52465,-43.14938 c 10.81086,-2.68546 21.9566,-10.53961 25.5808,-18.02621 4.86648,-10.05281 5.79563,-24.42225 2.34929,-36.33217 -0.86709,-2.99648 -1.75252,-7.56624 -1.96764,-10.15501 -0.53668,-6.45874 -7.28959,-17.30091 -11.74247,-18.85319 -3.46107,-1.20654 -3.56792,-1.13094 -6.89882,4.88149 C 676.2886,485.64697 675.57885,486 671.6146,486 c -3.80187,0 -4.79083,-0.43875 -6.54651,-2.90437 C 663.93064,481.49823 663,479.07137 663,477.70262 c 0,-2.57713 -2.34552,-4.22515 -4.29692,-3.01911 -7.07431,4.37216 -15.32679,14.39187 -19.00133,23.07037 l -2.64794,6.25387 1.57718,10.24613 c 2.28015,14.81297 6.73511,25.28464 13.25261,31.15111 1.16402,1.04774 2.1164,2.88347 2.1164,4.0794 0,1.61181 0.58216,2.15387 2.25,2.09501 2.73657,-0.0966 3.61421,3.45848 1.32318,5.35986 -1.27878,1.0613 -1.71363,0.84659 -2.70877,-1.3375 C 654.21242,554.17079 653.18206,553 652.57472,553 649.5252,553 636.39704,535.68957 632.66682,526.75 630.55821,521.69666 628,521.73303 628,526.81634 c 0,6.52979 2.05131,15.50785 4.49733,19.68366 3.15554,5.38709 10.55669,12.44734 15.75334,15.02773 4.87599,2.42116 12.15975,2.38265 22.22468,-0.11751 z m 1.63589,-14.03112 c -1.98465,-1.40152 -2.73,-1.47377 -4.40595,-0.42713 -1.8317,1.14392 -2.682,0.56181 -9.24701,-6.33046 -7.62471,-8.00479 -9.64514,-12.53533 -7.4333,-16.66818 2.11072,-3.94392 5.16533,-2.0693 8.97502,5.50801 3.46622,6.89416 3.55124,6.97252 8.8099,8.1203 6.07707,1.3264 11.44166,5.67167 10.98011,8.89378 -0.37962,2.65017 -4.51624,3.13699 -7.67877,0.90368 z M 729.46641,534.75 c -0.3676,-1.2375 -1.28175,-2.73779 -2.03146,-3.33397 -0.91743,-0.72957 -1.17398,-2.24933 -0.78468,-4.6483 0.5152,-3.1748 0.11104,-4.07136 -3.69813,-8.20383 -2.37721,-2.57897 -4.65738,-4.25866 -5.13404,-3.782 -0.47162,0.47162 -0.55436,4.8011 -0.18387,9.62107 0.63543,8.26667 0.82083,8.81552 3.2697,9.67971 1.42784,0.50387 3.27107,1.33993 4.09607,1.85791 0.825,0.51799 2.31782,0.96826 3.31739,1.0006 1.42388,0.0461 1.67267,-0.42836 1.14902,-2.19119 z M 785,524.9302 c 9.7415,-4.38558 19.51253,-19.51438 20.62231,-31.9302 0.69206,-7.74247 -1.21796,-13.68252 -7.85245,-24.42069 -3.84386,-6.22143 -5.10668,-7.38915 -12.65743,-11.70419 -9.32212,-5.32732 -17.73093,-7.75468 -21.81546,-6.29744 -1.90274,0.67885 -2.93432,2.11023 -3.90778,5.42232 -1.90439,6.47941 -3.45404,8.98217 -6.55417,10.58531 -6.76927,3.50053 -11.10215,0.28416 -8.84216,-6.56367 1.70577,-5.16853 1.0521,-7.45672 -2.23873,-7.83684 -5.55365,-0.6415 -9.9841,7.73883 -11.26877,21.3152 -0.39424,4.16631 -0.23913,8.09384 0.38317,9.7021 1.21702,3.14526 5.77361,5.7979 9.95937,5.7979 3.90933,0 4.84292,1.4309 5.38195,8.24884 0.24998,3.16187 0.79536,6.08687 1.21196,6.5 0.41661,0.41314 1.74653,-0.48634 2.95539,-1.99884 2.91511,-3.64732 4.13518,-3.47295 6.9969,1 4.11117,6.42587 7.65053,8.95016 15.8759,11.32278 10.19742,2.94145 10.39528,4.90455 0.44918,4.45658 -5.56334,-0.25057 -8.94898,-1.07614 -14.2263,-3.46899 -7.48082,-3.39196 -10.75299,-3.60644 -11.29942,-0.74063 -0.47939,2.51425 6.66248,9.50401 11.4572,11.21318 6.07628,2.166 19.95152,1.83635 25.36934,-0.60272 z m -74.6591,-36.37619 c 2.3528,-6.1313 -4.30083,-29.97921 -14.00748,-50.20553 -2.58565,-5.38789 -5.21209,-7.01897 -8.48324,-5.2683 -3.02489,1.61887 -6.98903,11.72382 -10.84905,27.65516 l -0.7839,3.23534 6.41379,1.92418 c 5.76217,1.72869 16.36898,8.36351 16.36898,10.2392 0,0.39769 0.62661,1.34969 1.39247,2.11555 0.76586,0.76586 2.57344,3.723 4.01684,6.57143 2.59387,5.11876 4.854,6.54113 5.93159,3.73297 z M 421.76399,470 c 0.45302,-2.41751 -5.58459,-9 -8.25501,-9 -3.71347,0 -5.4721,-1.02801 -7.08094,-4.13915 -1.36357,-2.63685 -1.34479,-2.95557 0.20927,-3.55191 0.97608,-0.37456 3.23949,0.22458 5.28497,1.39896 2.77343,1.59233 4.72185,1.94332 8.66719,1.5613 4.65279,-0.45053 5.27672,-0.25477 7.27173,2.28148 1.20024,1.52585 2.44626,3.82617 2.76894,5.1118 1.29005,5.13998 5.8048,2.03104 11.26466,-7.75706 7.53449,-13.50738 7.83941,-23.7484 1.21333,-40.75091 -4.34488,-11.14897 -5.8668,-13.65395 -14.01782,-23.0724 -4.17086,-4.81942 -7.08092,-7.11012 -11.68386,-9.1972 -7.46125,-3.38309 -14.61466,-4.45411 -19.93182,-2.9842 -7.6317,2.10974 -7.63697,2.45351 -0.14478,9.44638 5.81924,5.43142 6.78104,6.80218 6.5,9.26379 -0.28033,2.4554 -0.82495,2.9367 -3.62778,3.20605 -3.81181,0.36632 -10.0993,-2.95272 -14.63916,-7.72772 -3.61932,-3.80678 -5.1068,-3.8797 -6.9196,-0.33921 -2.11256,4.12594 -0.88004,39.36762 1.42668,40.79325 0.5115,0.31613 0.93001,1.48228 0.93001,2.59144 0,3.01318 11.94531,25.86531 13.52037,25.86531 0.74888,0 1.63971,-0.45 1.97963,-1 1.1032,-1.78501 3.62913,-1.06579 7.76715,2.21159 8.83015,6.9936 16.77826,9.62305 17.49684,5.78841 z m 222.27635,-4.80071 c 5.13816,-2.20502 12.31307,-9.23468 15.81231,-15.49218 1.29395,-2.31391 2.9353,-4.88211 3.64743,-5.70711 1.79951,-2.08471 7.22288,-14.12704 10.09936,-22.42515 1.51898,-4.38196 2.40056,-9.17437 2.40056,-13.04981 0,-5.41048 -0.6438,-7.42789 -5.52113,-17.30097 -3.03663,-6.14698 -6.41163,-11.6529 -7.5,-12.23538 C 661.89049,378.40621 661,377.26189 661,376.44576 c 0,-1.11582 -0.67533,-1.31437 -2.72276,-0.80049 -4.70118,1.17992 -6.91524,5.01306 -6.39903,11.07845 0.10409,1.22305 -0.72105,4.00805 -1.83363,6.18889 -1.91832,3.76022 -2.21727,3.93808 -5.78373,3.44103 C 637.91515,395.46925 638,395.5802 638,388.16624 c 0,-5.44869 0.43235,-7.44617 2.05945,-9.51469 1.1327,-1.43999 2.1452,-3.86318 2.25,-5.38486 0.15506,-2.25137 -0.18197,-2.70905 -1.80945,-2.45724 -12.68772,1.96309 -18.30484,4.3644 -27.76911,11.87122 -3.97699,3.15445 -7.36053,6.03069 -7.51899,6.39164 -0.15845,0.36095 -1.73345,2.80865 -3.5,5.43934 -5.3347,7.94427 -7.54649,11.90192 -7.63129,13.65502 -0.0443,0.91666 -0.41811,1.81666 -0.83061,2 -1.08074,0.48033 -4.59579,10.82087 -3.91108,11.50559 1.29756,1.29755 3.72733,-0.84785 5.52863,-4.88157 2.6399,-5.91163 3.501,-8.12182 3.61969,-9.29069 0.16854,-1.65985 5.30325,-9.23456 7.22894,-10.6641 0.98974,-0.73475 3.59218,-3.71966 5.78319,-6.63314 3.60989,-4.80022 8.11032,-8.20276 10.84955,-8.20276 0.5729,0 2.19127,-1.07757 3.59636,-2.39459 2.3915,-2.24161 9.05472,-4.53954 9.05472,-3.12269 0,0.3529 -3.19648,3.87616 -7.10329,7.82946 -7.93252,8.02691 -9.34097,10.26693 -10.37766,16.50472 -0.3946,2.3743 -1.61815,6.8743 -2.719,10 -1.10085,3.12571 -2.17215,7.0331 -2.38066,8.6831 -0.20851,1.65 -0.64893,4.2375 -0.97871,5.75 -1.18656,5.44207 2.11542,2.81953 5.35108,-4.25 2.6537,-5.79804 3.61101,-7 5.57519,-7 1.96338,0 2.47801,0.64517 2.9912,3.75 0.34091,2.0625 0.62479,6.26368 0.63084,9.33596 0.0101,5.13 0.3171,5.88521 3.76101,9.25224 2.0625,2.01646 5.0278,4.95613 6.58955,6.53259 3.30753,3.33868 8.89154,5.23127 13.16045,4.46049 l 3,-0.54167 -4,4.01928 c -2.2,2.2106 -5.28467,5.63621 -6.85483,7.61245 -1.57016,1.97625 -4.04516,3.86845 -5.5,4.20489 -3.42792,0.79272 -7.14517,3.12765 -7.14517,4.48811 0,1.60853 9.71088,0.37207 15.04034,-1.91505 z M 724,456.9229 c 1.925,-2.76769 4.27505,-6.07522 5.22233,-7.35008 0.94728,-1.27486 5.08998,-3.79789 9.20599,-5.60675 9.92576,-4.36205 10.06078,-5.0666 4.04462,-21.10462 -2.55036,-6.7988 -5.7094,-14.61145 -7.02009,-17.36145 -1.31069,-2.75 -3.5167,-7.475 -4.90226,-10.5 -1.38555,-3.025 -5.22559,-9.775 -8.5334,-15 -3.30782,-5.225 -6.01489,-9.921 -6.0157,-10.43555 -0.003,-1.85644 -4.39985,-5.56445 -6.59825,-5.56445 -2.33547,0 -3.48236,2.334 -4.91384,10 -1.29432,6.93148 -5.80736,20.02945 -8.11472,23.55092 -1.31777,2.01117 -1.49413,3.85946 -0.92212,9.6644 0.73885,7.49819 2.71379,12.45206 6.99043,17.53456 2.30455,2.7388 14.02189,29.59518 15.27042,35.00012 0.7935,3.4351 2.44882,2.69069 6.28659,-2.8271 z m -615.95472,1.20781 c 5.5962,-0.72193 12.77162,-3.81684 16.45472,-7.09725 4.15667,-3.70221 13.42289,-9.20599 17.63203,-10.47275 5.91815,-1.7811 29.61941,-10.69524 38.86797,-14.6184 8.91967,-3.78364 13.89176,-4.73548 15.03911,-2.87903 0.65032,1.05223 1.61525,0.9454 4.91971,-0.54471 2.2609,-1.01952 5.1675,-2.79078 6.45912,-3.93612 1.29162,-1.14535 5.77405,-4.55745 9.96097,-7.58245 4.18691,-3.025 7.61448,-5.87686 7.61683,-6.33747 0.006,-1.24132 -15.64401,-0.022 -23.58931,1.83792 -3.79854,0.88918 -9.15643,2.03841 -11.90643,2.55386 -4.98626,0.93459 -31.03237,9.07221 -50,15.62156 -15.74058,5.43508 -24.92976,9.77493 -40.150578,18.96227 -10.855845,6.55263 -14.257573,9.10105 -14.610114,10.94525 -0.998813,5.22495 4.185201,6.014 23.305972,3.54732 z M 616.5,454.4863 c 0,-1.29852 -0.77909,-2.09695 -2.25,-2.30585 -1.65701,-0.23533 -2.25,0.18196 -2.25,1.58333 0,1.04659 0.31556,2.21844 0.70124,2.60412 1.32654,1.32654 3.79876,0.10201 3.79876,-1.8816 z m 19.75,1.05571 C 638.57482,455.1498 640,454.35652 640,453.45469 640,452.3434 638.5836,452 634,452 c -5.15152,0 -6,0.25926 -6,1.83333 0,2.37715 0.96938,3.29266 2.92767,2.76499 0.86478,-0.23303 3.25983,-0.70837 5.32233,-1.05631 z M 598.5,445.41667 c 0,-4.27828 -0.2808,-4.95667 -2.16264,-5.22477 -1.99186,-0.28378 -2.12355,0.0321 -1.66766,4 0.67798,5.90094 1.12721,7.04246 2.58083,6.55792 0.7734,-0.2578 1.24947,-2.28981 1.24947,-5.33315 z M 612.45646,443.25 c -0.77882,-7.48077 -0.86729,-7.73216 -2.38993,-6.79112 C 607.7204,437.90887 609.4958,450 612.05484,450 c 0.76613,0 0.88913,-2.06726 0.40162,-6.75 z m -239.06019,-1.82692 c -0.0674,-4.05221 -1.21358,-12.88831 -1.98275,-15.2857 -0.36546,-1.13908 -0.70146,-1.1433 -2.0481,-0.0257 -2.84021,2.35715 -0.16531,20.65493 2.8715,19.64266 0.70492,-0.23497 1.19692,-2.07306 1.15935,-4.33128 z M 187.40499,431.12803 C 189.29193,429.02016 189.28756,429 186.94369,429 c -1.30146,0 -6.09621,1.87377 -10.65499,4.16393 -7.67038,3.85332 -9.9621,6.1116 -7.15247,7.04815 1.66287,0.55429 16.04053,-6.59493 18.26876,-9.08405 z M 193.5,427 c 0.33992,-0.55 0.14148,-1 -0.44098,-1 -0.58246,0 -1.05902,0.45 -1.05902,1 0,0.55 0.19844,1 0.44098,1 0.24254,0 0.7191,-0.45 1.05902,-1 z m 604.69255,-30.619 c 1.60923,-0.99456 0.74749,-2.14299 -2.02393,-2.69728 -3.68927,-0.73785 -9.4257,-6.10493 -8.98667,-8.40804 0.64311,-3.37375 4.19802,-2.52693 9.09682,2.16694 2.59668,2.48805 4.72123,4.93316 4.72123,5.43357 0,2.12231 3.51385,1.93313 9.30477,-0.50096 14.66776,-6.16529 21.18659,-13.33779 23.51706,-25.87523 1.53076,-8.23513 0.63946,-15.10495 -3.62258,-27.92176 -2.81047,-8.45164 -4.59328,-12.04808 -7.88277,-15.90181 -10.85819,-12.7207 -23.06448,-13.82741 -24.65336,-2.23526 -0.88071,6.42548 -3.07894,11.12996 -6.13683,13.13356 -2.5318,1.6589 -2.75189,1.64628 -5.33353,-0.30589 -2.40567,-1.8191 -2.65848,-2.58166 -2.37125,-7.15252 C 784.12203,321.3338 783.99107,321 781.81415,321 c -1.38554,0 -4.95878,2.26236 -8.82151,5.58525 -7.35372,6.32599 -13.49829,16.57242 -14.21006,23.69609 -0.55173,5.52198 1.71482,14.27405 4.90481,18.93943 1.85203,2.70861 2.36655,4.42818 1.89142,6.32125 -0.52043,2.07355 0.27688,3.90313 3.93478,9.02923 2.5231,3.53581 4.93973,6.42875 5.37027,6.42875 1.87146,0 1.77132,-1.50064 -0.48417,-7.25597 -3.46863,-8.85087 -2.96775,-13.28057 1.23569,-10.9282 1.68532,0.94315 7.15497,15.10142 8.06668,20.88071 0.28176,1.78606 1.23094,3.41043 2.15111,3.68126 1.82295,0.53655 11.06659,-0.21017 12.33938,-0.9968 z m -646.46614,-4.04159 c 0.21121,-0.64398 -3.79232,-3.20407 -8.99398,-5.75127 -10.0059,-4.89981 -14.31965,-7.88215 -27.97975,-19.34396 C 106.02028,359.91706 103,356.5914 103,354.30317 103,352.7026 108.18501,350 111.25577,350 c 2.86325,0 11.89592,7.31966 24.49549,19.85002 9.55449,9.50201 13.89927,12.30609 15.39952,9.93873 0.44919,-0.70881 0.71152,-1.60157 0.58296,-1.98391 C 151.1057,375.93703 121.80008,346.91563 117,343.40797 106.50525,335.73891 87.430535,326 82.904615,326 c -2.92864,0 -3.033685,0.1431 -2.385795,3.25 0.372752,1.7875 2.208506,6.68164 4.079455,10.87586 1.870949,4.19422 3.401725,7.87369 3.401725,8.1766 0,0.3029 2.192492,3.84626 4.872204,7.87413 8.384706,12.60305 22.947626,25.08972 36.689806,31.45891 12.55332,5.81818 21.19727,7.65267 22.1644,4.70391 z M 685.87979,384.25 c 1.09459,-4.71607 4.98637,-14.43437 13.11504,-32.75 5.02774,-11.32858 7.06486,-16.90207 6.6105,-18.0861 -0.62087,-1.61796 -5.77033,-1.89354 -8.3689,-0.44786 -0.95504,0.53132 -4.31606,1.46159 -7.46894,2.06727 -8.19143,1.57359 -17.57955,8.97783 -24.56308,19.37245 -2.91258,4.33522 -5.15668,8.60492 -4.98689,9.48823 0.19835,1.03186 1.73403,1.80469 4.29559,2.16174 6.99064,0.97443 10.51923,4.75776 16.01141,17.16739 1.63651,3.69771 3.21066,6.73521 3.49809,6.75 0.28744,0.0148 1.12317,-2.56062 1.85718,-5.72312 z M 278,384.5 c 0.68469,-0.825 1.88062,-1.5 2.65763,-1.5 2.6608,0 6.34237,-3.19643 6.34237,-5.5066 0,-2.72392 -3.59611,-3.97766 -7.33346,-2.55672 -3.17629,1.20762 -3.91763,2.48519 -4.18427,7.21082 -0.23136,4.10045 0.49996,4.78377 2.51773,2.3525 z m 229,-1.94098 c 0,-3.14783 -1.77032,-4.21727 -3.73271,-2.25489 C 501.31379,382.25764 502.30735,385 504.96862,385 506.45566,385 507,384.3459 507,382.55902 Z m 18.75,-8.4859 c 2.3375,-2.11467 4.25,-4.59357 4.25,-5.50865 0,-0.91508 0.61236,-2.87894 1.36079,-4.36413 1.62429,-3.2232 4.28697,-14.64478 5.10917,-21.91578 0.73354,-6.487 -1.60987,-17.14122 -5.06824,-23.04248 C 526.80675,311.40136 518.25377,305 512.37259,305 c -5.34221,0 -5.98805,5.8163 -1.40061,12.61358 2.43589,3.60932 2.80111,4.85303 2.02475,6.89503 -1.14395,3.00881 -3.24851,3.16036 -6.98086,0.50269 C 502.80785,322.72699 497,314.12792 497,311.66245 c 0,-2.80051 -3.9042,-1.98685 -5.21844,1.08755 -0.64656,1.5125 -2.60033,4.775 -4.34171,7.25 -1.74137,2.475 -4.12772,7.10438 -5.30299,10.28751 C 479.94723,336.21794 479.26454,344 480.9339,344 c 0.51365,0 2.21492,-1.9125 3.7806,-4.25 2.3807,-3.55429 3.45555,-4.30081 6.5661,-4.56037 4.473,-0.37324 4.49865,-0.20121 1.60722,10.77949 -2.05164,7.79139 -2.00993,15.03088 0.0866,15.03088 0.48608,0 1.38057,-2.5875 1.98775,-5.75 1.2442,-6.48042 1.99626,-8.19041 4.21874,-9.59232 3.06548,-1.93365 4.81909,-0.0456 4.81909,5.18849 0,6.28689 1.62292,7.85114 5.71123,5.50478 3.87574,-2.22437 6.28877,-1.2426 6.28877,2.55865 0,1.6348 -0.37209,3.20233 -0.82688,3.4834 -0.45478,0.28107 -0.48763,2.89513 -0.073,5.80902 0.41463,2.91389 0.78673,6.05418 0.82688,6.97843 0.0401,0.92425 1.0855,1.87546 2.323,2.11382 1.2375,0.23835 2.475,0.47619 2.75,0.52853 0.275,0.0524 2.4125,-1.63501 4.75,-3.74968 z m -25.25,-1.54747 c 0,-2.52193 -3.06999,-4.35566 -4.64885,-2.7768 -0.93852,0.93852 -0.79536,1.65531 0.64949,3.25185 2.13893,2.3635 3.99936,2.14251 3.99936,-0.47505 z m -20.5318,-4.33467 c -0.0383,-4.44804 -2.55532,-8.47707 -3.91817,-6.27193 -0.47905,0.77512 -0.62384,3.02293 -0.32176,4.99513 1.05272,6.87274 4.29656,7.84959 4.23993,1.2768 z m 263.706,-10.75887 c 3.0551,-16.71694 13.98187,-34.05815 26.83115,-42.58207 2.19706,-1.45748 5.11965,-2.97505 6.49465,-3.37239 4.25634,-1.22996 5.09724,-2.4424 4.37268,-6.30466 -0.69867,-3.72419 -4.59324,-13.87824 -6.66157,-17.36825 -3.02623,-5.1063 -22.89664,-25.38301 -24.6997,-25.20474 -0.55628,0.055 -1.44985,0.1675 -1.98573,0.25 -1.67905,0.2585 -3.81782,5.48044 -4.99373,12.19247 -1.66892,9.52615 -8.65926,37.54496 -11.0916,44.45753 -1.16117,3.3 -3.18173,8.14252 -4.49012,10.76115 -2.71514,5.43411 -2.84579,4.7871 3.78394,18.73885 5.62362,11.83446 8.46228,16.26785 10.07248,15.73112 0.60537,-0.20179 1.67077,-3.48635 2.36755,-7.29901 z m -454.35809,5.07377 C 295.69689,360.8439 300,358.42643 300,356.50371 c 0,-0.69646 -2.1375,-1.80429 -4.75,-2.46185 -7.46708,-1.87947 -39.11776,-17.00804 -43.42201,-20.7551 C 250.31631,331.97076 226.47226,320 225.36266,320 c -0.25555,0 -4.6913,-1.79896 -9.85721,-3.99768 -9.50917,-4.0473 -22.34966,-6.76021 -26.75893,-5.65355 -1.27562,0.32016 -3.30626,1.91705 -4.51255,3.54864 -2.06582,2.79417 -2.10898,3.20539 -0.74284,7.07745 0.89629,2.54037 4.80444,7.75543 10.22964,13.65052 6.7727,7.35929 10.26483,10.28636 15.27923,12.80687 3.575,1.79699 9.425,4.73744 13,6.53435 3.575,1.7969 8.975,3.91508 12,4.70706 5.95711,1.55964 18,2.95016 18,2.07835 0,-0.29546 -4.11089,-2.64144 -9.13532,-5.21329 -8.06076,-4.12605 -20.70279,-12.60088 -27.76804,-18.61484 -2.16758,-1.84505 -2.25176,-2.19733 -0.85812,-3.59097 2.30275,-2.30275 8.81375,-0.83696 14.05333,3.16377 7.51391,5.73729 19.13083,9.75548 32.93136,11.39067 9.05481,1.07287 14.11173,2.93715 15.12422,5.57566 1.12791,2.93928 -0.41192,4.53699 -4.37263,4.53699 -2.09617,0 -4.52303,0.27314 -5.39301,0.60699 -2.82811,1.08525 -1.6717,2.39166 2.16821,2.44945 2.0625,0.031 5.325,0.65236 7.25,1.38069 4.75448,1.79889 6.63636,1.80861 13.31611,0.0687 z M 720,350 c 0,-1.33333 -0.66667,-2 -2,-2 -1.33333,0 -2,0.66667 -2,2 0,1.33333 0.66667,2 2,2 1.33333,0 2,-0.66667 2,-2 z M 368.38812,305.74648 c 0.57263,-0.9078 0.83206,-1.80248 0.57651,-1.98816 -1.0017,-0.72786 -22.50958,-9.77826 -23.21463,-9.7686 -0.4125,0.006 -0.75,0.72751 -0.75,1.60412 0,3.76459 -19.41724,-1.6785 -39.27786,-11.01046 -14.31495,-6.7262 -20.00935,-10.33114 -33.04076,-20.91704 -5.59976,-4.54888 -12.20638,-9.60261 -14.68138,-11.2305 -2.72754,-1.794 -5.2571,-4.53061 -6.42217,-6.94782 -1.05719,-2.19341 -2.51969,-4.34788 -3.25,-4.78771 C 247.59752,240.26048 247,239.22805 247,238.40603 c 0,-1.85856 -8.95029,-13.79249 -12.34954,-16.46634 -1.38935,-1.09286 -2.77148,-1.55289 -3.09464,-1.03001 -0.61376,0.99308 1.89397,7.9373 6.00303,16.62314 1.34263,2.83809 2.44115,5.87768 2.44115,6.75465 0,0.87697 0.42241,1.85556 0.9387,2.17464 0.51628,0.31909 2.39072,3.15814 4.16542,6.30902 7.35176,13.05267 18.30947,22.63159 35.68103,31.19135 10.40022,5.12467 27.60358,12.12385 32.21485,13.10661 6.68491,1.42469 17.53323,4.92361 23.43168,7.55745 4.57926,2.04478 8.22723,2.79341 16,3.2835 11.20013,0.7062 14.42179,0.26937 15.95644,-2.16356 z M 342.96268,291.75 C 342.92033,290.33145 340.05639,288.14016 324.5,277.62357 311.50623,268.8394 306.48867,264.5934 284.76647,244 c -9.88089,-9.36742 -18.89589,-16.98369 -22.78529,-19.25 -10.55929,-6.15279 -11.40376,-4.83457 -4.51416,7.04659 4.99014,8.60554 11.39939,15.63313 18.97098,20.8012 2.7841,1.90033 8.887,6.16759 13.562,9.48281 12.32452,8.73978 21.60266,14.7328 29,18.73196 3.575,1.93272 7.3042,4.20041 8.28711,5.03931 1.7403,1.48533 13.46421,7.06417 14.96289,7.12013 0.4125,0.0154 0.73321,-0.5345 0.71268,-1.222 z m 295.86851,-36.68752 c 8.45744,-1.85493 24.74451,-7.98185 26.11525,-9.82412 0.30446,-0.40919 2.37984,-1.98167 4.61196,-3.49439 6.29331,-4.26503 21.35633,-20.3356 23.45982,-25.02903 1.62148,-3.61793 1.69753,-4.49822 0.53699,-6.21494 -3.79371,-5.61176 -16.07678,1.99104 -39.37719,24.37315 -8.39783,8.06686 -12.24237,10.90461 -22.42802,16.55469 -3.76219,2.08692 -6.75,4.42176 -6.75,5.2748 0,1.08707 0.65191,1.36767 2.25,0.96846 1.2375,-0.30913 6.44904,-1.48301 11.58119,-2.60862 z m -8.64641,-17.33912 c 5.8182,-5.77597 17.47322,-14.24854 22.50797,-16.36208 4.97269,-2.08748 21.80725,-15.37747 21.80725,-17.21566 0,-1.279 -0.77482,-1.56781 -3.47786,-1.29635 -8.22529,0.82603 -20.20501,7.89667 -31.46325,18.57014 -3.81762,3.61933 -7.31626,6.58059 -7.77476,6.58059 -0.4585,0 -1.26136,1.125 -1.78413,2.5 -0.52277,1.375 -1.3317,2.5 -1.79762,2.5 -0.95665,0 -6.20238,7.68774 -6.20238,9.08974 0,2.24655 3.29319,0.48971 8.18478,-4.36638 z m -123.65807,-9.76658 c 0.73481,-1.18894 -2.98201,-6.52258 -8.78042,-12.59994 -8.21455,-8.60973 -22.32639,-29.66198 -28.59318,-42.65572 -2.70596,-5.61061 -6.4349,-12.17461 -8.28652,-14.58666 -4.41314,-5.74884 -6.85481,-9.43693 -6.86133,-10.36386 -0.003,-0.41217 1.64399,-0.63717 3.65973,-0.5 4.53108,0.30834 9.4588,4.96768 17.27711,16.33614 5.61649,8.16684 6.35052,9.38806 19.78296,32.91326 13.23651,23.18207 19.00307,31.5 21.83795,31.5 3.6608,0 3.16432,-3.90362 -1.47474,-11.59529 -2.52408,-4.18497 -4.16189,-8.33378 -4.61691,-11.69523 -3.09909,-22.89467 -20.78138,-59.0056 -36.23771,-74.00495 -2.1511,-2.0875 -9.22603,-6.9015 -15.72207,-10.69776 -13.13844,-7.67807 -39.84916,-19.47494 -42.12135,-18.60302 -1.92926,0.74032 -1.26436,8.10663 1.40775,15.59625 1.07925,3.025 2.95123,9.1 4.15997,13.5 11.37235,41.39731 20.7131,57.58527 44.6333,77.35162 14.80222,12.23174 19.20948,15.02496 28.79949,18.25243 9.28433,3.1246 10.25056,3.28536 11.13597,1.85273 z M 702.75,194.01096 c 1.7875,-1.08986 3.25,-2.6121 3.25,-3.38276 0,-2.36671 -5.62104,-2.48532 -9.66503,-0.20395 -4.24501,2.39479 -5.2256,4.20561 -2.64031,4.87577 3.68581,0.95543 5.88834,0.6419 9.05534,-1.28906 z m 75.59632,-18.31736 c 8.64321,-7.45316 12.48984,-10.22838 26.15368,-18.86907 13.18233,-8.3362 33.42944,-18.88658 42.92023,-22.36492 13.05673,-4.78523 22.07977,-9.077 22.07977,-10.50215 0,-1.15892 -1.63871,-1.44822 -8,-1.41237 -6.59574,0.0372 -10.36246,0.80021 -21.45883,4.34698 -18.28759,5.84531 -56.05764,25.3163 -66.42248,34.2417 l -4.88131,4.20341 3.33608,2.72278 3.33609,2.72278 -2.74214,4.14366 c -2.38345,3.60162 -2.79536,6.0736 -1.01208,6.0736 0.29552,0 3.30646,-2.38788 6.69099,-5.3064 z M 728.5,143.94915 c 0,-0.7613 -2.944,-2.8069 -6.54223,-4.54577 -5.06263,-2.44655 -8.54649,-5.28091 -15.40435,-12.53248 -9.58024,-10.13024 -14.63742,-19.00039 -16.85183,-29.557663 -1.05545,-5.03189 -0.98949,-5.62955 0.76265,-6.910748 C 691.51915,89.63112 693.38509,89 694.61076,89 c 1.80549,0 2.5517,0.996566 3.9311,5.25 6.38482,19.68778 27.19748,44.41066 32.72951,38.87863 0.83326,-0.83326 0.0535,-2.64419 -3.00711,-6.9842 -2.27263,-3.22259 -6.42067,-9.73396 -9.21787,-14.46971 C 707.69658,92.459078 691.48002,72 687.59887,72 c -1.19906,0 -2.76636,3.946052 -4.06403,10.232222 -0.31021,1.502722 -0.60191,7.577722 -0.64823,13.5 -0.0741,9.469428 0.23953,11.575558 2.60062,17.467038 5.05287,12.60808 15.29155,21.39941 34.90426,29.97016 6.50131,2.84107 8.10851,2.99562 8.10851,0.77973 z M 428.09581,624.35456 c -2.25753,-1.58124 -2.32892,-2.0202 -1.8296,-11.25 0.5077,-9.3846 3.87193,-23.10456 5.66539,-23.10456 2.02342,0 6.64709,15.73557 7.54163,25.66614 0.52163,5.79077 0.39417,6.293 -2.09375,8.25 -3.19133,2.5103 -6.12766,2.64897 -9.28367,0.43842 z M 639.48942,169.73953 c -2.30675,-1.28468 -16.97638,-13.87032 -23.34456,-20.02821 -6.51269,-6.29761 -16.99274,-23.03808 -17.61056,-28.13049 -0.13885,-1.14445 -0.83282,-3.97905 -1.54216,-6.2991 -1.4788,-4.83676 -0.33867,-7.28173 3.39559,-7.28173 1.65286,0 2.52868,1.08612 3.8303,4.75 1.82236,5.12971 8.6766,16.43084 15.31435,25.25 2.27678,3.025 5.73473,7.975 7.68434,11 3.63998,5.64776 7.87165,10.41243 13.55091,15.25771 3.53659,3.01726 3.87373,3.96512 1.97179,5.54359 -0.88054,0.73078 -1.86034,0.71216 -3.25,-0.0618 z"
       id="path1" />
  </g>
</svg>
