<svg width="355" height="438" viewBox="0 0 355 438" fill="none" xmlns="http://www.w3.org/2000/svg">
<path d="M83.3948 217.012C83.7018 216.03 85.5484 215.723 86.3182 216.809C88.7315 220.215 88.2781 231.258 85.6617 234.909C89.4966 234.602 92.2499 236.671 95.4 233.549C97.4355 231.532 96.5476 230.611 97.1899 228.542C97.7188 226.842 101.983 216.823 101.516 216.332C98.6256 216.592 96.0092 219.237 93.0386 218.255C90.068 217.272 89.8602 213.923 91.754 211.779C93.6478 209.635 103.004 203.419 105.686 202.602C112.199 200.618 116.596 204.661 123.127 201.01C124.638 200.164 127.387 196.83 128.969 198.157C131.94 200.646 124.898 206.593 122.778 207.911C117.077 211.458 110.744 210.301 105.644 214.363C107.226 219.365 104.723 224.111 104.298 228.849C103.556 237.053 109.214 239.193 116.019 236.042C119.736 234.323 121.819 230.587 123.25 226.964L125.04 226.804C126.131 229.217 125.04 232.155 123.897 234.408C120.676 240.78 114.437 244.261 107.358 244.237C106.423 248.271 105.766 252.394 105.204 256.494C99.8535 295.457 101.842 336.984 109.899 375.398C110.716 379.3 113.521 387.348 113.611 390.65C113.691 393.644 110.56 394.527 108.879 391.826C107.197 389.124 104.77 380.192 103.665 376.645C100.689 367.095 97.9408 356.784 96.2264 346.926C93.6903 332.36 93.7092 317.651 93.8179 302.886L88.3631 308.072C84.3677 310.68 77.4111 307.794 73.581 305.678C66.6716 301.861 58.9547 291.924 54.4776 285.358C52.7538 282.831 46.5387 274.452 53.6653 276.205L73.2221 295.617C75.0686 297.119 80.4903 300.265 82.7572 300.128C84.0371 300.048 88.127 294.833 88.7882 293.534C91.2629 288.688 90.8331 281.636 93.3692 276.597C84.8352 286.87 71.4133 285.117 60.8958 278.939C55.4127 275.718 55.9464 273.64 52.4327 269.956C50.2933 267.707 45.9861 266.98 43.3745 265.195C36.6635 260.599 35.7048 251.162 32.6256 244.181L32.8711 243.066C33.4898 242.136 34.3257 241.899 35.36 242.381C37.6316 243.43 41.3673 254.638 43.1478 257.264C46.397 262.063 51.4031 262.091 55.8991 264.906C61.4436 268.378 61.9914 271.613 69.7839 273.224C86.7999 276.748 90.1389 263.267 100.538 254.081L103.736 243.127C102.177 243.179 100.165 239.76 99.5182 239.906C95.4047 245.725 89.8271 242.358 84.6463 243.175C82.3983 243.529 79.848 245.347 77.6284 245.678C76.1643 245.895 74.7664 245.305 73.8691 245.522C72.9718 245.739 70.3601 247.718 68.8961 248.271C60.1732 251.554 45.3911 247.874 40.5172 239.505C37.7969 234.829 40.5786 232.868 39.8277 230.252C39.6577 229.657 34.2454 224.376 33.1828 222.822C31.8463 220.871 30.6751 218.576 29.9289 216.328H29.263C27.9595 218.245 24.1719 217.896 22.0089 217.683C5.25738 216.03 -5.60488 190.694 8.48772 178.952C5.43212 171.442 8.8986 162.983 13.1065 156.658C6.91506 148.804 7.14647 139.069 13.8433 131.582C17.0547 127.988 33.6598 118.456 38.3212 117.998C40.4086 117.79 43.9176 117.824 46.0381 117.975C48.1586 118.126 51.8423 119.406 53.3063 119.316C53.7928 119.288 57.3065 116.751 58.8367 116.307C61.5664 115.519 63.4885 115.892 66.2136 115.991C67.7815 111.23 67.6445 106.294 69.4675 101.561C71.7864 95.5297 77.4394 90.83 78.417 84.0049C73.9966 86.7113 64.7212 90.6222 61.8875 84.0049C59.0539 77.3876 65.6326 72.669 70.4168 69.8776C77.6661 65.6455 85.7798 62.8163 93.3739 59.3021C87.4091 58.0694 81.3452 61.3898 75.4559 60.9081C72.4759 60.6625 69.4156 58.9999 66.36 58.6787C63.6822 58.3953 59.1342 58.3953 56.4328 58.6078C51.3039 59.0093 44.012 62.4148 39.3413 62.1361C34.0943 61.8244 32.3516 55.0323 34.0754 50.753C35.9503 46.1053 40.1394 44.3482 44.5835 42.6857C57.4529 37.8726 66.0813 42.1 78.077 46.0534C82.233 47.4231 86.0915 48.9109 90.29 50.1532C91.5604 50.531 92.9678 50.7436 94.2807 50.9183C94.8474 50.4743 89.1282 45.1748 88.6087 44.5844C83.5884 38.8551 71.2858 22.437 71.6494 14.96C71.7439 12.9904 73.7085 9.14094 75.6731 8.53163C80.4006 7.06742 88.7315 12.1402 91.2959 16.07C97.4024 25.4315 99.9196 40.5791 102.824 51.2395C103.037 52.0141 102.503 52.5006 103.792 52.2834C103.107 48.3158 105.195 45.9069 107.433 43.0068C114.688 33.5981 123.958 29.4274 135.916 30.476C137.007 26.7777 138.405 23.1738 140.587 19.9667C143.038 16.3581 148.526 11.1531 153.012 10.6429C154.925 10.4257 157.06 11.12 158.302 10.9547C160.304 10.6855 165.013 6.9021 167.214 5.81102C182.681 -1.84069 196.31 2.65115 208.254 13.7509C209.997 15.3662 216.637 22.1914 217.01 24.0665C217.298 25.5307 216.24 27.3208 214.663 27.2405C213.085 27.1602 206.086 21.1192 204.079 19.7352C194.516 13.151 187.323 9.8636 175.611 13.7556C169.906 15.6496 164.564 20.7177 158.396 20.1084C157.183 19.9903 156.2 19.3149 155.175 19.2157C151.629 18.8662 146.575 25.6063 145.088 28.5442C144.238 30.2256 143.817 32.4267 142.863 34.0232C140.818 37.4428 130.759 41.2498 126.773 43.7626C122.787 46.2753 115.717 51.6741 113.12 55.4857C111.788 57.4365 111.778 59.5997 110.654 61.5835C110.692 62.207 117.233 64.5922 118.319 65.1826C120.742 66.5051 122.584 68.5267 125.243 69.5847C127.732 70.5719 130.953 70.638 133.12 71.6771C134.849 72.5037 135.26 74.1191 133.092 74.0152C126.121 73.6798 121.88 72.055 116.222 68.1488L106.064 69.9626C105.842 71.0253 106.206 70.69 106.649 70.9781C108.491 72.1683 115.391 75.2621 116.355 76.4335C117.616 77.9685 117.271 80.9064 114.876 81.2465C108.114 82.21 103.66 76.339 97.4921 81.1048C91.5698 85.6816 91.3668 93.0169 87.5886 98.8407C84.9203 102.955 80.8115 105.142 78.5021 109.241C77.1467 111.646 76.0037 114.985 74.7995 117.545C77.0569 117.649 78.5446 118.079 80.7879 117.417C83.2815 116.681 97.4024 107.683 99.0601 105.784C99.8582 104.872 99.556 103.772 99.9905 103.446C100.864 102.799 103.49 102.728 104.217 103.758C107.004 107.702 98.8475 115.367 96.0989 117.781C90.7622 122.467 84.618 127.001 77.3072 127.535C74.5917 127.733 70.686 127.058 68.2349 127.525C67.0353 127.757 66.6339 128.994 65.6185 129.438C62.9171 130.624 62.3598 128.503 61.8875 128.498C61.6467 128.498 59.0822 130.699 58.2085 131.091C52.1304 133.835 44.9141 128.465 37.967 129.882C36.4746 130.184 25.9004 135.961 24.3513 137.113C20.3606 140.065 18.0135 145.228 19.5153 150.173C22.0939 149.021 24.2238 147.439 26.9725 146.536C32.7909 144.623 40.1772 144.633 45.9909 146.579C47.2943 147.013 49.0039 147.335 48.9142 149.04C48.73 152.596 42.2127 151.689 39.7285 152.044C30.7931 153.314 23.1329 161.103 20.5448 169.562C18.9202 174.876 20.7196 175.443 20.4268 179.396C19.997 185.211 14.41 185.924 12.6909 190.26C10.3107 196.263 14.7973 206.314 20.4598 209.266C22.9865 210.584 26.1365 210.645 28.5687 212.256V201.152C28.5687 199.527 30.9395 192.957 31.7991 191.237C34.0046 186.831 41.0887 178.541 46.5717 180.431C52.9757 182.636 44.5315 189.924 43.0533 193.434C40.6022 199.248 39.771 210.485 42.5338 216.191C44.3662 219.979 48.952 223.412 50.0099 227.748C50.5436 229.945 49.736 233.86 50.2838 234.701C50.7986 235.495 52.4893 236.576 53.3583 237.091C61.6419 241.984 70.1334 238.985 77.2836 233.558C78.7996 232.406 83.3995 226.794 83.3995 225.174C83.3995 223.464 83.0501 218.141 83.3995 217.017L83.3948 217.012ZM97.8936 50.4696C97.3694 47.8529 96.4531 45.1512 95.518 42.6573C93.9595 38.5056 86.6204 19.3527 84.5283 17.3925C83.8057 16.7171 79.116 13.51 78.417 14.2185C78.2754 16.6226 79.5175 18.8473 80.5092 20.9586C83.3523 27.0327 87.7492 32.8234 90.5734 38.992L97.8983 50.4696H97.8936ZM87.9286 54.5458C85.3028 52.0708 81.3782 50.8097 77.959 49.7942C69.0991 47.1586 57.4907 45.3212 48.527 48.0041C47.3085 48.3678 41.4807 50.7719 40.6825 51.367C39.5774 52.1936 38.5148 54.593 39.5066 55.8494C49.854 54.4986 59.1295 51.145 69.8028 53.4169C71.895 53.8609 74.7947 55.3346 76.8822 55.4385C80.0747 55.5991 84.4008 53.7854 87.9192 54.5505L87.9286 54.5458ZM104.236 62.7123C100.973 62.6179 97.6716 63.5578 94.6113 64.6347C89.0857 66.576 73.8832 73.387 69.5761 76.7547C66.7047 78.9982 64.1781 83.8207 69.902 82.0636C79.3191 79.1682 87.6972 67.8466 97.1993 64.5025L104.236 62.7123ZM95.1827 273.432C95.3574 273.654 96.3823 272.638 96.08 272.072C95.9053 271.85 94.8805 272.865 95.1827 273.432Z" fill="black" stroke="black" stroke-width="3"/>
<path d="M321.288 207.949C319.611 221.263 307.214 228.91 303.922 241.337C302.359 247.246 301.57 253.585 299.955 259.574C294.84 278.562 281.848 302.372 266.674 315.115C263.633 317.67 253.748 322.97 252.959 326.323C252.057 330.163 252.662 331.519 250.159 335.302C240.553 349.807 216.93 348.99 202.332 343.686C177.698 334.735 155.104 314.501 140.473 293.166C139.793 292.505 139.812 290.955 140.771 290.677C141.522 290.582 142.169 290.899 142.731 291.362C146.707 294.654 151.029 302.315 154.76 306.519C172.682 326.701 211.805 350.034 238.229 333.791C243.372 330.631 245.729 323.272 249.37 321.817C256.123 319.12 258.518 316.773 263.278 311.256C280.507 291.286 291.516 269.521 297.962 243.978C299.771 236.812 300.064 229.392 304.796 223.167C307.346 219.809 310.907 217.362 313.084 213.333C316.267 207.448 316.126 202.172 317.509 196.008C317.807 194.686 318.827 193.25 318.955 192.437C319.12 191.375 317.037 187.941 316.801 186.16C316.333 182.603 317.169 178.121 316.201 174.522C315.63 172.411 311.294 168.651 309.863 166.36C306.472 160.924 307.941 156.663 308.097 150.674C301.155 148.275 294.76 142.786 290.037 137.241C285.423 131.819 283.874 127.861 284.644 120.54C284.932 117.814 286.434 111.494 290.165 112.637C292.819 113.45 291.341 122.438 294.311 125.716C296.592 128.238 304.253 133.628 307.374 135.763C312.04 138.96 320.801 144.713 326.109 145.573C328.183 145.908 331.956 145.105 332.872 147.868C333.954 151.127 332.254 152.951 329.359 153.924C324.235 155.643 319.143 155.378 314.043 153.791C314.454 155.166 314.506 156.72 314.969 158.071C316.428 162.331 322.922 164.834 325 170.696C327.559 177.913 322.667 186.132 330.842 191.138C337.231 195.049 338.511 189.651 343.069 191.148C347.518 192.612 343.347 197.118 340.91 198.559C336.311 201.279 332.92 201.265 327.97 199.447C325.562 198.559 323.621 196.92 321.292 195.928C320.952 199.716 321.755 204.245 321.292 207.939L321.288 207.949Z" fill="black" stroke="black" stroke-width="3"/>
<path d="M324.905 93.522C324.966 89.2711 322.648 84.6186 320.291 81.147C317.745 77.392 305.551 65.4138 301.594 64.044C300.876 63.7984 289.39 61.8808 293.164 59.2877C294.099 58.6453 302.76 60.3268 304.432 60.7472C310.855 62.3673 314.898 67.6574 319.946 71.5163C320.895 72.2437 322.293 72.5223 323.238 73.2119C329.481 77.7604 333.614 83.2205 332.57 91.4485C332.117 95.0193 328.938 100.494 328.66 103.332C328.518 104.782 331.177 112.68 332.065 114.234C334.497 118.48 339.106 121.512 342.11 125.031C348.42 132.428 353.643 145.573 352.495 155.336C352.056 159.086 346.318 170.563 343.664 173.242C341.964 174.956 338.913 175.414 337.831 172.826C336.169 168.849 343.21 159.719 343.456 154.873C343.744 149.172 336.915 135.677 333.071 131.36C331.078 129.121 327.668 127.317 325.042 125.796C322.256 124.186 316.919 122.646 315.734 119.67C314.052 115.433 319.776 116.954 321.972 116.642C322.596 116.553 322.752 116.898 322.648 115.962C318.624 107.257 315.559 94.1455 305.868 90.1401C298.444 87.07 292.177 88.1658 284.847 87.1456C280.908 86.5977 277.612 85.3177 273.805 84.1416C268.568 82.5262 266.792 83.2725 262.074 85.7475C252.676 90.6833 247.575 100.054 235.395 98.9821C229.341 98.4484 226.573 92.6151 232.349 91.3682C244.737 88.6996 243.075 86.7819 252.529 80.7361C260.516 75.6255 269.956 75.3421 277.324 81.7469C277.48 80.9817 276.932 80.5519 276.606 79.9804C271.694 71.4549 260.53 66.9819 253.068 60.922C249.493 60.8606 245.417 60.8653 241.998 62.0414C235.504 64.2755 230.243 70.241 224.174 73.2167C222.091 74.2369 220.103 74.44 218.115 75.3138C216.353 76.0837 214.351 78.11 212.66 78.4689C208.684 79.3097 206.813 75.9042 209.118 72.664C212.589 67.7849 222.998 59.8262 228.382 57.0394C236.552 52.8074 247.391 48.8162 256.482 52.5192C260.941 54.3377 274.339 67.1614 276.951 71.4738C279.132 75.0776 280.29 79.2199 282.297 82.9088C292.734 79.8529 308.201 77.2787 317.42 84.4769C320.598 86.9614 322.511 90.3905 324.9 93.5315L324.905 93.522Z" fill="black" stroke="black" stroke-width="3"/>
<path d="M238.366 122.07C238.99 124.951 236.014 125.362 234.05 127.048C225.724 134.19 222.153 144.647 210.956 148.364C202.918 151.033 193.33 150.617 184.952 151.59C184.57 152.809 184.291 153.853 183.536 154.934C181.557 157.768 172.192 166.752 169.245 169.194C164.38 173.223 153.353 178.692 147.062 178.759C141.985 178.811 125.739 175.476 120.893 173.624C115.269 171.471 110.385 166.048 103.627 164.154C102.139 163.739 97.4262 163.687 97.0342 162.1L97.3978 160.787C98.3612 159.643 103.145 160.484 104.713 160.801C107.009 161.264 109.634 162.307 111.788 163.238C114.078 164.23 119.642 167.99 121.248 168.287C123.255 168.655 126.249 167.621 128.879 167.9C135.624 168.618 140.762 171.929 148.096 169.799C157.603 167.035 162.685 161.859 169.476 155.359C170.099 154.76 171.53 154.736 170.614 153.801C167.209 153.716 161.551 153.9 158.481 152.341C157.098 151.638 156.696 150.211 158.156 149.498C159.062 149.054 164.29 149.81 166.099 149.744C173.5 149.465 177.094 147.495 183.635 145.526C190.955 143.325 198.984 142.007 206.28 139.626C214.347 136.991 217.893 132.31 224.094 127.076C225.903 125.551 227.811 124.12 229.747 122.759C227.537 122.415 224.033 122.519 221.851 123.019C219.513 123.558 217.671 125.806 215.097 125.182C211.98 122.92 216.344 119.524 218.455 118.263C220.566 117.002 222.597 116.789 224.618 115.816C232.142 112.184 233.894 109.827 243.132 110.276C250.612 110.639 255.085 111.608 262.915 110.162C273.565 108.198 276.984 103.744 279.591 93.5271C281.154 93.2106 281.82 94.6229 281.881 96.0304C281.943 97.4379 280.186 104.112 279.61 105.562C276.398 113.653 260.063 121.498 251.736 122.098C249.252 122.278 246.971 121.612 244.903 121.612C242.834 121.612 240.539 122.523 238.352 122.079L238.366 122.07Z" fill="black" stroke="black" stroke-width="3"/>
<path d="M81.921 404.04C84.5515 403.79 88.7642 408.131 91.1397 409.576C97.7421 413.6 109.738 417.091 117.384 419.126C149.565 427.708 200.801 426.292 232.259 415.282C235.169 414.261 242.673 410.525 244.987 410.289C247.301 410.053 248.156 412.131 246.725 413.888C244.779 416.278 231.948 423.179 228.566 424.728C198.209 438.591 140.284 439.479 108.996 428.426C99.7067 425.144 86.3226 419.362 80.2444 411.413C78.1523 408.678 77.6469 404.451 81.9257 404.04H81.921Z" fill="black" stroke="black" stroke-width="3"/>
<path d="M95.9527 145.502C93.733 147.301 92.3162 145.544 93.1191 142.899C94.1298 139.579 100.354 133.108 102.22 129.344C104.217 125.305 104.803 120.662 107.046 116.501C110.976 109.218 120.78 98.9256 129.39 98.0613C133.059 97.6929 138.674 99.3271 141.055 98.8737C146.495 97.8299 151.44 90.8772 156.493 88.4636C161.518 86.0595 169.15 85.2612 174.581 86.3901C177.377 86.971 187.309 91.3779 189.751 92.9696C192.032 94.4527 191.248 96.7104 188.712 97.1214C184.612 97.7873 178.723 95.6997 173.783 96.2428C160.999 97.6409 157.192 111.017 141.74 110.625C133.758 110.422 133.527 105.567 124.317 110.219C115.108 114.871 113.899 119.236 109.455 127.983C107.259 132.31 104.496 134.634 101.526 138.181C100.047 139.947 97.4168 144.312 95.9433 145.507L95.9527 145.502Z" fill="black" stroke="black" stroke-width="3"/>
<path d="M75.6068 134.421C79.1441 134.147 89.9261 136.089 87.5883 141.445C86.0109 145.053 79.7486 141.809 76.3671 144.723C72.7637 147.826 70.0623 156.304 66.1802 160.362C62.7374 163.961 58.4303 163.97 58.4491 170.337C58.468 176.303 61.6417 175.958 65.4152 178.357C68.5274 180.336 70.8132 182.301 72.8959 185.376C73.6799 186.538 77.0236 192.48 77.0283 193.448C77.0283 195.002 75.5832 196.079 74.1144 195.985C72.1875 195.862 68.7919 190.704 66.8745 189.131C62.8554 185.834 60.0785 186.524 55.7666 184.828C46.6518 181.248 45.6222 167.739 50.1324 160.173C52.1915 156.725 55.5116 155.227 57.7596 152.389C62.8271 145.993 65.2876 135.215 75.6068 134.417V134.421Z" fill="black" stroke="black" stroke-width="3"/>
<path d="M222.795 350.965C223.338 350.813 223.825 350.955 224.34 351.12C226.295 351.744 232.297 362.22 234.3 364.733C239.523 371.289 249.904 384.415 256.076 389.181C259.288 391.66 266.546 395.066 268.738 397.82C272.185 402.146 268.464 407.332 263.174 406.562C259.037 405.962 248.166 400.493 244.572 397.971C231.523 388.822 226.399 370.108 223.22 355.428C222.994 354.375 220.982 351.55 222.805 350.965H222.795Z" fill="black" stroke="black" stroke-width="3"/>
<path d="M247.788 15.2573C260.549 14.3552 275.463 18.181 284.361 27.8024C285.981 29.5547 287.308 31.9305 288.88 33.7065C292.304 37.5748 297.471 41.4385 299.053 46.6435C299.573 48.3486 301.353 54.8667 299.228 55.4052L298.161 55.2541C296.153 51.773 295.369 48.5234 291.978 46.0201C290.415 44.8628 288.55 44.315 287.072 43.2239C283.681 40.7111 280.507 36.002 277.092 33.2625C262.376 21.4637 242.706 26.409 225.955 24.1324C223.457 23.7923 219.14 23.0791 219.315 19.9098C219.763 16.7499 227.145 18.0488 229.521 17.841C235.613 17.312 241.682 15.6966 247.783 15.2621L247.788 15.2573Z" fill="black" stroke="black" stroke-width="3"/>
<path d="M219.202 40.1777C220.203 41.3727 220.179 43.2667 218.21 43.2572C215.867 43.2478 212.934 40.0076 210.469 39.625C205.964 38.9213 200.906 40.48 196.329 39.8896C189.283 42.426 184.655 49.048 178.699 53.1147C174.737 55.8212 170.931 56.6619 166.916 58.5512C163.336 60.2327 158.921 65.7637 154.755 61.815C150.93 58.1875 156.545 53.2564 159.308 50.942C163.421 47.494 165.717 48.0655 169.018 46.1526C170.387 45.3591 175.753 38.6945 177.887 36.895C188.277 28.138 195.484 26.7636 208.127 32.0064C212.325 33.7493 213.728 35.7708 216.854 38.6851C217.501 39.2897 218.828 39.7337 219.202 40.1824V40.1777Z" fill="black" stroke="black" stroke-width="3"/>
<path d="M295.818 188.37C299.818 188.078 304.588 188.385 308.163 190.255C310.473 191.464 315.403 195.451 314.421 198.355C313.476 201.128 310.397 197.893 309.226 197.354C294.524 190.59 283.185 195.828 278.575 211.004C276.134 219.043 273.135 239.642 273.716 247.822C274.197 254.61 276.398 256.603 273.475 263.91C271.18 269.644 268.034 272.119 262.169 273.904C255.779 275.85 252.822 272.775 247.07 270.848C245.804 270.423 240.558 269.412 240.166 269.143C239.495 268.676 239.594 267.684 239.939 267.079C241.724 264.108 253.687 269.077 257.04 268.813C258.32 268.713 263.491 267.112 264.752 266.517C272.063 263.055 268.459 256.962 267.482 251.341C265.933 242.424 271.534 219.865 274.863 210.915C276.516 206.47 283.152 194.147 286.637 191.422C289.419 189.249 292.347 188.63 295.823 188.375L295.818 188.37Z" fill="black" stroke="black" stroke-width="3"/>
<path d="M169.429 172.439C171.832 173.941 166.156 183.076 164.97 184.852C162.477 188.588 158.094 193.169 153.404 193.679C150.542 193.991 145.843 192.612 144.091 195.692C143.194 197.264 143.86 199.352 143.657 201.147C143.194 205.195 142.608 210.405 139.279 213.083C137.805 214.268 135.227 214.925 134.136 216.096C132.469 217.882 132.516 223.058 129.8 223.124C125.186 223.233 128.875 213.886 130.324 211.831C131.137 210.679 133.172 209.375 133.715 208.43C134.835 206.484 133.054 198.27 133.224 195.248C133.569 189.065 140.11 183.761 146.16 183.671C149.371 183.624 151.832 185.31 155.317 184.261C158.802 183.213 162.968 178.083 165.4 175.315C166.689 173.846 166.784 171.678 169.429 172.444V172.439Z" fill="black" stroke="black" stroke-width="3"/>
<path d="M231.622 206.871C228.959 217.211 211.48 215.879 214.351 204.104C211.253 203.66 208.179 203.57 205.043 203.627C199.522 203.721 193.359 204.855 187.824 204.122C185.911 203.867 184.957 202.219 186.464 200.901C187.621 199.886 195.697 198.903 197.963 198.355C209.496 195.569 221.865 190.595 232.893 198.473C234.815 199.848 242.499 207.811 240.893 210.017C239.287 212.223 234.092 205.813 231.627 206.871H231.622Z" fill="black" stroke="black" stroke-width="3"/>
<path d="M328.646 223.238C326.058 225.396 331.154 234.139 329.477 236.987C326.667 239.032 323.819 229.246 323.602 227.389C323.427 225.902 323.366 223.082 323.659 221.651C324.037 219.79 326.053 218.67 326.275 217.452C326.946 213.749 323.682 211.538 326.799 206.668C328.92 203.353 332.953 202.191 336.594 201.511C338.488 201.156 341.468 201.581 343.178 200.505C345.714 198.908 346.205 192.603 345.657 189.929C345.024 186.845 339.971 180.889 339.862 178.91C339.796 177.748 341.034 176.331 342.257 176.515C344.892 176.921 350.285 184.441 351.414 186.892C354.999 194.676 352.567 206.371 343.504 208.869C340.925 209.583 334.965 209.233 333.515 210.66C331.971 212.181 335.494 219.426 331.499 222.236C330.568 222.893 329.066 222.893 328.651 223.238H328.646Z" fill="black" stroke="black" stroke-width="3"/>
<path d="M116.336 182.669C115.495 183.732 109.611 186.845 108.109 187.35C104.539 188.55 98.026 188.262 95.6458 189.839C92.4674 191.946 92.6799 200.306 88.1744 204.571C85.0244 207.556 78.304 209.011 74.4549 206.924C72.1078 205.648 72.3061 201.6 75.1492 200.623C79.0879 199.267 80.7834 200.873 81.8366 195.517C82.8897 190.161 82.9039 184.871 88.5192 181.352C94.8429 177.389 99.6365 180.133 105.823 180.081C107.967 180.062 116.072 177.167 116.87 179.467C117.163 180.308 116.903 181.952 116.331 182.669H116.336Z" fill="black" stroke="black" stroke-width="3"/>
<path d="M215.154 173.861C230.815 172.316 241.682 180.794 251.042 192.102C251.864 193.094 254.221 195.852 251.373 195.413C250.306 195.248 246.853 191.752 245.493 190.85C235.462 184.186 217.261 182.953 205.515 183.709C202.12 183.926 193.378 186.325 190.894 185.182C188.542 184.101 189.274 181.153 191.371 179.987C195.371 177.762 210.337 174.338 215.154 173.861Z" fill="black" stroke="black" stroke-width="3"/>
<path d="M258.622 36.0638C268.053 33.9525 284.606 43.0117 290.023 50.6917C292.984 54.8907 289.952 58.9008 285.154 57.3705C279.473 54.0453 273.871 49.9171 268.119 46.7667C265.904 45.5528 257.011 42.1143 256.27 40.4942C255.382 38.5529 256.638 36.5077 258.622 36.0638Z" fill="black" stroke="black" stroke-width="3"/>
<path d="M62.6573 390.002C63.8994 388.793 79.2907 387.513 82.6014 386.611C86.5496 385.534 94.7718 380.041 98.3422 381.529C102.22 383.14 99.6598 387.669 97.4496 389.681C92.2074 394.452 87.7066 397.087 80.4572 396.695C77.3497 396.53 66.6905 395.345 64.1544 394.419C62.2653 393.729 61.198 391.429 62.662 390.002H62.6573Z" fill="black" stroke="black" stroke-width="3"/>
<path d="M223.409 288.844C226.682 288.825 230.328 288.811 233.558 288.339C237.157 287.814 239.282 285.491 243.056 288.452C244.137 289.302 244.69 290.993 245.847 291.107C248.189 291.159 250.721 289.236 252.751 288.934C255.547 288.518 258.726 290.682 261.484 291.314C263.685 297.828 255.878 294.55 253.106 294.744C252.001 294.819 250.976 296.052 249.719 296.349C244.643 297.554 239.802 294.862 235.117 293.671C233.072 293.152 224.354 291.872 223.631 290.658C223.291 290.086 223.4 289.458 223.404 288.844H223.409Z" fill="black" stroke="black" stroke-width="3"/>
<path d="M305.877 216.786L300.895 215.879C300.833 218.448 300.408 221.769 297.891 223.073C293.509 225.34 288.795 219.979 291.832 215.888C290.892 215.964 289.792 215.714 288.894 215.888C287.917 216.077 287.643 216.942 286.982 217.154C284.956 217.797 283.17 216.455 283.241 214.344C283.534 205.809 306.411 206.806 305.877 216.791V216.786Z" fill="black" stroke="black" stroke-width="3"/>
<path d="M252.36 304.303C253.706 306.481 249.384 308.927 247.628 309.211C246.508 309.39 244.303 309.362 243.165 309.201C239.925 308.748 228.477 303.335 224.921 301.616C223.99 301.167 220.647 299.811 222.555 298.404C223.343 297.818 230.409 300.553 231.925 300.959C236.104 302.069 242.612 303.944 246.754 304.251C247.887 304.336 252.006 303.741 252.36 304.313V304.303Z" fill="black" stroke="black" stroke-width="3"/>
<path d="M65.387 250.888C67.3375 249.589 69.4296 250.765 71.3707 250.798C74.1099 250.845 79.8102 251.095 82.1904 250.24C82.8327 250.009 84.2354 246.948 86.1481 249.617C90.1152 255.148 76.3106 255.483 73.6376 255.332C71.7201 255.224 65.3587 254.643 64.8911 252.725L65.387 250.892V250.888Z" fill="black" stroke="black" stroke-width="3"/>
<path d="M116.35 217.348C118.371 216.932 121.625 217.636 122.281 219.828C123.259 223.106 120.156 221.854 118.305 222.468C115.873 223.28 113.436 228.093 110.659 223.715C110.168 221.589 114.418 217.74 116.354 217.343L116.35 217.348Z" fill="black" stroke="black" stroke-width="3"/>
<path d="M247.986 287.823C246.536 285.844 247.585 278.046 250.716 278.481C255.217 279.104 251.694 291.536 247.986 287.823Z" fill="black" stroke="black" stroke-width="3"/>
</svg>
