<svg width="225" height="257" viewBox="0 0 225 257" fill="none" xmlns="http://www.w3.org/2000/svg">
<path d="M127.373 40.283C127.2 38.4767 125.515 31.9 124.389 30.7195C123.833 30.1364 122.801 29.6955 122.205 29.0896C119.196 26.0203 116.956 19.1534 117.021 14.8894C117.101 9.67237 118.13 3.43702 124.503 3.02171C127.999 2.79414 130.217 4.38142 132.676 6.58883C138.141 1.54252 146.695 6.8164 148.189 13.1314C148.708 13.2679 148.552 12.9465 148.671 12.7844C150.915 9.77193 154.292 4.05714 158.85 5.98009C163.648 8.0026 162.083 16.6957 160.767 20.5643C158.765 26.4612 155.679 29.0554 152.611 33.9424C150.285 37.649 149.205 41.6968 148.05 45.8755C155.586 46.2652 162.988 47.9179 170.35 49.417C172.46 41.6285 177.627 33.3309 184.967 29.5532C195.744 24.0063 202.706 24.5382 211.592 32.7705C225.485 45.648 224.328 62.8634 214.828 78.0593C207.735 89.4035 196.963 94.6802 185.35 85.2931C183.447 83.757 182.468 81.8795 180.923 80.1813C180.682 79.9139 180.679 79.5953 180.157 79.7233L179.366 89.9269C179.59 106.892 188.061 118.757 192.471 134.098C198.149 153.834 199.054 171.715 192.593 191.405C192.128 192.827 190.767 195.242 190.611 196.525C190.475 197.655 191.013 198.957 190.687 200.957C188.915 211.761 180.719 221.273 173.492 229.016C171.13 231.548 168.572 233.923 166.008 236.247C169.094 236.623 172.69 236.091 175.662 237.206C177.59 237.931 177.281 240.292 174.862 240.488C170.982 240.804 165.407 239.405 161.303 239.712L156.485 242.118C156.411 242.568 156.85 242.372 157.16 242.389C161.136 242.602 165.118 242.761 169.082 243.262C170.282 243.723 170.265 245.526 169.082 245.885C167.9 246.243 161.788 246.01 160.143 245.947C157.284 245.842 153.254 244.991 150.628 245.097C148.328 245.188 145.313 247.142 142.877 247.304C142.812 247.779 143.496 247.56 143.825 247.574C154.465 247.99 165.583 247.697 176.175 248.971C177.157 249.088 178.277 249.381 178.478 250.507C178.807 252.373 176.731 252.615 175.387 252.757C170.098 253.315 163.58 253.713 158.26 253.864C152.94 254.014 147.704 252.854 142.182 253.022C139.21 253.113 136.164 253.707 133.212 253.849C118.87 254.532 88.3828 253.275 78.1135 241.979C77.7222 241.547 77.6172 240.833 77.172 240.466C76.5338 239.942 74.2735 239.169 73.3036 238.614C56.5738 229.01 47.0022 218.5 41.3046 199.748C32.4505 170.597 47.4474 135.372 54.4156 106.861C57.0134 96.2334 58.2783 85.1793 54.4439 74.6713L52.5353 71.2664C52.3963 76.2074 52.5977 81.6377 49.2738 85.6003C40.8735 95.6189 20.2101 99.8261 10.6356 89.4063C4.12977 82.3261 0.944891 72.3388 4.43606 63.0057C7.22955 55.5358 16.736 44.9027 24.138 41.8277C30.1419 39.333 42.6233 39.4411 48.5932 42.0581C50.7486 43.0025 52.765 45.244 54.2823 45.904C56.1966 46.7346 67.5663 46.0462 70.3598 45.8869C73.5645 45.702 76.5962 45.6992 79.7471 44.7889C78.9587 40.4111 78.3773 35.6008 76.5282 31.5075C75.3994 29.0099 74.543 29.4252 72.8016 27.8778C68.4511 24.012 65.1698 16.6729 69.2679 11.4929C71.8998 8.16758 79.5599 3.23221 83.6948 6.2361C86.8372 2.73441 90.0759 2.78561 93.984 4.99302C96.9392 6.66279 98.2069 8.99535 99.4746 12.0362C101.426 8.74218 106.278 2.17117 110.632 5.21773C115.977 8.95553 111.939 20.7833 109.185 25.3319C107.747 27.7071 105.549 30.0112 104.012 32.4263C101.59 36.2267 100.212 40.0868 99.3384 44.5186L127.364 44.2484C127.276 42.9655 127.486 41.5546 127.364 40.2916L127.373 40.283ZM106.965 10.3977C106.222 10.7533 105.538 11.2085 104.917 11.7575C104.296 12.3065 99.6419 17.3983 99.4859 17.7709C98.7542 19.5033 99.5058 25.5964 97.5177 26.1796C96.5024 26.4754 95.5353 25.6391 95.3226 24.6691C94.5115 21.0024 95.7367 15.9504 94.3782 12.5141C93.4707 10.2157 89.5172 7.66693 87.169 8.69099C86.7606 8.8702 85.9013 9.86864 85.8587 10.2584C85.7708 11.0776 86.9847 15.0458 87.1123 16.5278C87.2144 17.7226 87.0896 19.1392 87.0896 20.3709C87.0896 21.6026 87.7617 22.8798 86.5621 23.9124C85.6801 24.231 84.9087 24.1713 84.4152 23.3293C83.536 21.8273 83.4226 17.9985 82.6058 15.8622C81.3891 12.6791 80.4306 10.9098 76.6898 11.5555C74.3558 11.9594 73.8453 13.2765 73.349 15.3018C72.3819 19.2643 72.6343 21.3978 75.1726 24.6804C76.2871 26.1198 77.4924 26.5067 78.5361 27.5848C80.1867 29.2887 81.5621 34.9039 81.8968 37.3161C82.2314 39.7283 82.1322 41.9073 81.6586 44.2427H96.0798C96.2245 40.7211 96.8541 37.1284 98.0537 33.8059C99.9822 28.4552 106.965 20.6781 106.965 15.1767V10.4006V10.3977ZM148.391 18.6528C147.534 20.1405 148.842 29.0128 145.058 27.1837C144.275 26.8054 144.08 24.7288 144.006 23.8754C143.759 21.0564 144.307 15.9305 143.203 13.4927C142.222 11.3279 138.141 8.71943 135.872 9.78331C135.464 9.9739 134.809 10.8415 134.792 11.2995C134.738 12.8299 135.926 16.0272 136.076 17.9103C136.167 19.0681 136.335 24.5325 135.54 25.0047C134.139 25.8354 133.396 24.5581 133.011 23.4402C131.641 19.472 131.814 11.8769 127.205 9.88571C125.376 9.09492 123.847 8.73366 123.147 10.9382C121.678 15.5493 121.828 21.1475 124.273 25.3802C125.558 27.6075 127.486 28.0826 128.694 30.7707C130.365 34.4943 131.536 40.4879 129.551 44.2399L144.786 45.6081C145.342 40.8406 146.071 36.349 148.28 32.0508C150.699 27.343 153.918 23.9835 155.262 18.5845C155.821 16.3458 156.071 14.0758 155.943 11.766C155.73 11.7575 155.518 11.7404 155.311 11.8087C153.989 12.2581 150.784 16.3742 149.695 17.6372C149.369 18.0184 148.433 18.5788 148.393 18.6499L148.391 18.6528ZM187.882 196.906C193.557 186.356 192.241 158.348 190.146 146.258C187.335 130.027 179.32 115.585 177.199 99.4734C176.394 93.3603 176.83 89.1902 177.746 83.171C177.936 81.9307 178.991 78.4035 178.946 77.6667C178.912 77.0779 177.715 75.5133 177.386 74.7197C171.272 60.0558 191.152 38.2804 202.854 52.9955C210.903 63.1166 197.879 75.0042 188.997 68.8058C185.344 66.257 185.875 59.4727 190.908 60.6105C192.301 61.8792 189.011 63.9159 191.385 65.3183C196.949 68.5981 204.567 61.37 198.095 56.4062C190.562 50.626 181.998 59.7856 181.039 67.375C180.381 72.592 183.027 76.7138 186.405 80.4117C202.729 98.29 217.488 70.962 216.626 55.8288C216.149 47.4457 211.762 41.0482 205.463 35.9109C201.43 32.6225 198.56 31.0068 193.143 32.0223C167.537 36.8297 166.873 72.3928 169.576 92.6492C170.5 99.5786 171.95 107.811 173.535 114.607C174.899 120.464 177.593 125.891 178.98 131.796C182.712 147.692 184.522 164.08 180.188 180.055C178.807 185.15 173.121 190.759 169.865 195.08C165.293 201.145 164.669 203.238 157.928 207.67C136.099 222.016 109.353 221.438 85.7396 211.676C63.2158 202.362 51.2704 168.421 55.8903 145.718C57.1807 139.38 60.3316 133.682 61.88 127.436C64.9061 115.218 67.5975 101.547 68.8624 89.1276C68.9361 88.3994 68.4256 84.0045 68.3207 82.8638C67.2345 71.2635 59.8381 54.4491 50.0169 47.7302C43.7577 43.4462 30.8906 43.1049 24.5407 47.1328C12.9045 54.5117 10.2386 66.55 12.0026 79.584C13.9425 93.9321 31.6734 91.6024 40.9245 86.2176C42.3596 85.3812 45.1616 83.1283 45.9727 81.7288C47.1014 79.7802 47.4446 72.1567 46.9143 69.9465C46.33 67.5172 41.6874 63.4693 39.3278 63.091C35.0086 62.3969 30.2979 67.0421 28.0971 70.3504C27.3087 71.5394 26.4267 73.0329 27.1045 74.5291C27.1981 74.7339 29.4953 77.021 29.8214 77.2628C32.9496 79.5811 35.9615 78.998 37.354 75.2687C38.6472 71.7983 36.3273 73.3628 35.2752 71.7869C33.7097 69.4401 38.2076 67.2299 40.5247 70.6235C43.3267 74.7311 40.5757 81.2793 36.2819 83.1966C30.6723 85.6998 20.7887 81.2708 20.6894 74.6742C20.593 68.2852 30.3461 59.6092 36.4266 58.7758C40.4396 58.2239 45.8507 60.7101 48.7435 63.475C50.0679 64.7409 51.3895 66.1376 52.6884 67.4318C63.2045 77.9056 62.6287 94.5152 59.2709 108.164C51.9936 137.747 34.5009 179.936 50.5954 208.996C56.0576 218.861 67.728 230.936 78.1334 235.414C91.0742 240.981 109.889 245.33 123.961 245.395C134.171 245.444 151.422 241.02 160.007 235.399C167.627 230.41 180.361 214.568 184.295 206.268C185.733 203.233 186.311 199.836 187.888 196.904L187.882 196.906ZM169.547 51.6131C162.418 50.7312 155.109 51.0271 147.903 51.0527C128.17 51.1238 109.353 50.0656 89.6732 49.1639C85.0873 48.9534 80.4079 48.5409 75.8192 48.3219L67.0898 48.3446L56.3554 47.5169L61.639 55.1802L64.4126 60.3659C67.5238 59.4471 70.7427 58.9607 73.9502 58.4799C97.7786 54.9014 118.652 57.9992 142.191 58.9919C148.586 59.2622 156.51 58.2495 162.616 58.9749C164.111 59.1512 165.313 61.0088 166.825 61.4355L169.547 51.6131ZM114.04 61.7085C108.312 61.4326 102.501 61.2477 96.7491 61.4269C89.4974 61.6516 82.2456 62.6387 74.9882 63.0739C71.9848 63.2531 68.8879 63.1593 65.876 63.3499C65.5782 63.6343 68.4682 69.9522 68.7886 70.9335C70.3626 75.7295 70.6888 80.5625 70.5129 85.6031C70.2293 93.6789 70.3484 102.961 69.0666 110.897C68.4171 114.922 66.7353 118.928 66.1795 123.012C65.6236 127.097 65.7569 131.125 65.3287 134.985C64.3956 143.408 60.5925 150.884 60.15 159.54C59.6254 169.806 64.1205 182.957 69.6791 191.49C74.4068 198.747 81.2615 206.103 89.5456 209.087C89.8632 208.771 88.4395 207.639 88.2297 207.272C87.2881 205.642 86.7946 199.68 86.5592 197.487C85.1384 184.322 85.1753 171.092 84.384 157.913C82.9546 134.132 78.5162 111.005 78.383 86.9657C78.3546 81.6178 78.1646 73.7895 78.6694 68.6721C78.7233 68.1288 79.0523 66.459 79.4777 66.2002C80.9751 65.691 81.5224 66.971 81.8543 68.2027C83.3602 73.8208 83.2581 80.6137 83.8395 86.4081C85.0845 98.8561 86.2955 111.327 87.6823 123.766C88.7997 133.771 90.4446 143.149 90.9012 153.287C91.6868 170.73 91.5989 188.188 91.9903 205.69C92.0101 206.606 92.5858 207.665 92.1406 208.549C91.7832 209.263 90.7339 208.731 90.9126 209.633L103.7 213.456C102.555 207.466 102.631 201.367 102.067 195.311C101.491 189.104 99.8915 181.398 99.8915 175.384C99.8915 171.362 101.046 167.087 100.992 162.82C100.856 152.266 99.5625 140.438 98.8053 129.805C97.5971 112.815 94.313 96.0342 93.3629 79.0406C93.1219 74.7055 92.6113 67.5968 93.0821 63.4807C93.3913 60.7897 95.1695 61.9304 95.7338 64.1065C97.1774 69.6933 97.6056 77.6041 98.6152 83.5948C100.266 93.3859 102.481 103.106 103.927 112.928C106.187 128.312 106.973 145.32 107.52 160.905C107.861 170.617 105.734 178.695 105.322 187.926C105.096 193.012 106.199 197.905 106.434 202.937C106.607 206.641 106.295 210.398 106.406 214.108C110.263 215.294 114.364 215.644 118.397 215.641C118.343 209.283 117.342 202.985 116.763 196.67C116.091 189.323 114.945 181.261 114.574 174.03C113.507 153.37 116.23 132.491 115.39 111.802C114.784 96.8848 114.279 82.5025 114.324 67.5911C114.33 65.6028 113.913 63.6969 114.04 61.7085ZM166.28 63.8932C163.552 64.445 160.753 64.4735 157.974 64.4507C152.571 64.4052 147.086 63.842 141.661 63.8903L116.488 61.7114C117.949 69.0732 119.758 76.435 120.294 83.9561C121.397 99.4449 119.055 114.191 118.652 129.518C118.527 134.26 118.819 139.232 118.927 144.008C119.222 157.426 119.744 170.949 120.039 184.379C120.251 194.031 120.921 203.984 120.583 213.604C120.558 214.298 120.251 214.938 120.3 215.638C127.617 215.891 134.684 214.819 141.349 211.781C150.347 207.679 165.954 195.083 170.781 186.444C180.497 169.049 179.326 158.183 175.73 139.167C173.427 126.981 168.614 116.234 166.638 103.8C165.308 95.434 164.905 86.9515 164.913 78.486L166.283 63.896L166.28 63.8932Z" fill="black" stroke="black" stroke-width="5"/>
<path d="M135.974 65.2698C136.678 65.1532 137.114 66.5043 137.174 67.0249C137.801 72.4012 137.086 79.9337 137.157 85.6001C137.384 103.868 137.148 122.221 138.813 140.435C138.671 148.983 139.264 157.585 139.358 166.091C139.48 177.207 139.051 188.353 139.085 199.387C139.094 202.342 139.4 206.433 139.08 209.229C138.813 211.562 136.303 211.63 135.866 209.71C135.027 202.769 134.108 196.32 134.165 189.288C134.273 175.856 133.986 163.42 133.348 150.01C132.744 137.278 131.61 124.48 131.995 111.787C132.44 97.1349 133.425 82.9091 135.26 68.3932C135.353 67.6536 134.936 65.4405 135.974 65.2698Z" fill="black" stroke="black" stroke-width="5"/>
<path d="M151.615 70.4702L152.696 70.5641C152.943 70.7376 153.136 71.8669 153.192 72.2481C155.835 90.408 154.792 110.078 156.204 128.452L157.574 146.455C157.625 147.542 157.526 148.637 157.58 149.723C158.201 162.092 159.59 175.621 157.77 187.855C157.225 191.508 156.111 195.248 155.813 198.992C154.395 201.93 151.856 200.935 151.581 197.771C151.017 191.331 152.324 183.802 152.421 177.305C152.48 173.311 151.95 169.254 151.854 165.295C151.252 140.814 150.804 116.382 151.323 91.8701C151.459 85.4356 150.949 78.4465 151.306 72.2054C151.34 71.6024 151.357 71.0249 151.618 70.4702H151.615Z" fill="black" stroke="black" stroke-width="5"/>
<path d="M135.986 25.7642C137.937 25.6618 138.26 28.202 138.495 29.6727C139.029 32.9952 138.391 39.35 137.242 42.5416C136.91 43.4604 136.621 44.311 135.418 44.237C133.127 44.0948 133.427 38.4198 133.345 36.7245C134.105 34.6052 133.325 27.471 134.843 26.2194C135.106 26.0032 135.645 25.7813 135.983 25.7614L135.986 25.7642Z" fill="black" stroke="black" stroke-width="5"/>
<path d="M86.7577 24.6353C90.0022 24.055 89.9483 31.4652 89.8178 33.4592C89.7157 34.9953 88.6749 41.5009 88.0311 42.5847C87.2285 43.9387 85.975 43.5319 85.4049 42.2604C83.9642 39.0403 84.7952 32.5973 85.1922 29.0956C85.3482 27.7188 84.7441 24.9966 86.7577 24.6381V24.6353Z" fill="black" stroke="black" stroke-width="5"/>
</svg>
