<svg width="338" height="241" viewBox="0 0 338 241" fill="none" xmlns="http://www.w3.org/2000/svg">
<path d="M89.6315 211.696C90.0747 214.818 92.1876 218.495 95.0682 219.937C105.748 225.286 120.835 223.527 132.358 224.034C142.293 224.474 152.391 225.694 162.319 225.967C179.678 226.447 195.644 225.234 212.765 222.845C221.712 221.597 236.305 219.957 243.752 215.1C245.548 213.927 248.694 208.844 248.717 206.76C248.741 204.921 246.695 202.905 246.961 201.221C247.677 196.7 256.473 201.633 257.715 204.569C259.223 208.127 257.925 210.333 257.221 213.796C257.921 214.739 269.072 213.273 266.195 217.711C265.087 219.414 256.619 218.202 254.661 218.796C254.039 218.986 252.935 220.706 253.26 221.003C260.477 220.912 267.825 220.187 275.082 220.627C276.451 220.71 280.38 221.043 281.445 221.478C283.265 222.223 282.94 224.45 281.152 224.799C279.363 225.147 276.657 224.676 274.71 224.81C272.087 224.993 269.424 225.468 266.788 225.623L246.806 229.367C248.836 229.953 250.973 230.266 253.07 230.512C263.623 231.74 274.314 232.354 284.947 232.425C286.47 232.754 286.866 234.315 285.235 234.977C284.044 235.46 279.672 235.773 278.137 235.852C273.009 236.118 267.683 235.611 262.539 235.821C245.69 236.51 228.526 239.66 211.685 238.875C199.312 238.297 186.674 236.534 174.099 235.833C154.651 234.751 135.08 234.604 115.632 233.931C107.797 233.658 92.1876 230.678 86.5728 225.017C81.231 219.624 81.9631 209.248 85.825 203.154C83.5023 202.132 81.3141 200.746 79.2486 199.284C64.2561 188.662 51.7405 175.936 38.5562 163.242C24.9921 144.109 9.92034 121.728 4.38864 98.6181C2.20445 89.4858 -0.145934 78.535 5.56383 70.512C12.8999 60.203 24.8694 55.2664 36.8508 52.4217C57.2524 47.5762 75.3709 45.3179 96.2513 44.6484C117.132 43.9788 136.54 42.4059 156.617 41.9582C169.232 41.6769 179.785 43.6935 191.924 44.272C210.15 45.1357 227.453 43.4082 245.797 46.2093C247.028 46.3956 251.345 47.6951 251.824 47.6198C252.983 47.4376 262.092 41.7086 263.852 40.6111C270.203 36.6571 276.78 32.6278 281.338 26.566C284.357 22.5525 283.237 21.9582 284.052 17.497C288.282 -5.67645 307.797 0.666645 319.684 13.6619C322.921 17.2039 334.123 30.6032 335.444 34.375C336.968 38.7212 335.207 40.7934 332.025 43.4796C326.375 48.2498 319.664 47.3108 312.842 48.9788C311.735 49.2482 306.017 51.3876 305.138 51.9106C303.235 53.0398 303.231 54.7236 302.175 56.1657C300.204 58.8519 297.731 61.0865 295.405 63.4518C297.09 63.6499 298.744 63.7489 300.414 64.1333C303.746 64.8979 316.131 72.3226 318.556 74.8583C326.05 82.6871 323.293 94.5056 319.882 103.551C311.363 126.13 297.276 152.429 282.81 171.724C279.739 175.821 276.305 177.651 272.617 180.908C267.386 185.524 261.261 192.358 254.771 194.973C251.737 196.197 248.314 196.522 245.295 197.647C238.746 200.096 232.178 203.622 225.328 205.405C215.507 207.96 204.879 208.444 195.098 210.868C192.763 211.447 190.547 212.521 188.201 213.087C179.599 215.167 162.905 214.268 154.235 212.025C152.221 211.506 149.222 210.326 150.971 207.738C152.182 205.944 160.713 204.882 163.217 204.414C167.788 203.559 172.5 203.154 177.051 202.299C184.802 200.841 192.443 197.992 200.289 197.437C211.471 196.649 222.515 195.096 233.65 194.268C240.139 193.784 246.007 192.093 251.566 188.721C256.932 185.468 260.362 180.013 264.644 175.587C267.552 172.58 271.343 169.941 273.958 167.049C276.574 164.157 278.881 159.24 281.275 155.746C290.929 141.657 297.834 131.859 304.964 115.983C309.669 105.512 317.053 91.6173 311.252 80.2861C309.424 76.7204 298.59 69.054 294.467 69.3274C292.504 69.4581 290.676 72.077 289.287 68.642L288.785 68.5786L285.54 70.6824C289.307 72.4296 296.469 72.7505 298.083 77.5088C299.638 82.0809 296.33 84.3789 293.098 86.6174C279.324 96.1617 260.228 97.8416 243.91 100.088C228.64 102.192 213.252 104.248 197.975 106.17C171.167 109.541 141.795 109.284 114.884 107.366C87.5145 105.417 60.8373 100.71 35.3591 90.4406C31.1964 88.7608 29.5781 87.3345 28.3871 82.9763C28.027 81.653 26.7885 76.5619 28.0151 75.7814C30.9155 73.9351 33.7565 78.6499 35.1414 80.7774C35.8616 81.8788 36.008 83.1625 36.8745 84.363C39.1854 87.5643 44.1354 89.0975 47.7995 90.1475C67.936 95.928 93.6398 99.4581 114.492 99.363C132.231 99.2798 149.997 99.3273 167.653 98.2299C177.059 90.2426 188.146 85.0484 198.568 78.6261C207.412 73.1784 215.594 67.3424 224.786 62.3028C231.105 58.8401 238.038 56.3282 243.775 51.8631C239.423 52.0215 235.011 51.6412 230.662 51.8433C221.573 52.2672 212.457 53.3131 203.34 53.3765C190.085 53.4677 176.948 51.0271 163.467 51.4629C158.572 51.6214 153.586 52.4732 148.696 52.6357C121.476 53.5469 91.234 48.5469 64.5093 53.8718C53.7704 56.0112 34.2907 59.4344 25.0198 64.1293C21.5535 65.8844 14.2808 74.1213 12.2628 77.5841C10.8581 79.989 10.6009 80.5278 12.0412 82.9922C16.0812 89.9177 35.6242 99.3551 43.4152 101.756C78.7224 112.628 117.622 114.561 154.374 114.613C181.842 114.652 208.013 112.556 235.189 108.832C250.245 106.768 265.162 103.42 280.396 102.782C283.661 102.643 286.513 103.804 289.521 103.551C292.314 103.317 299.65 100.009 301.589 100.587C301.953 100.694 302.234 100.96 302.44 101.277C303.255 102.881 301.379 103.733 300.307 104.478C289.176 112.2 274.354 111.883 261.538 113.935C253.937 115.151 246.379 117.572 238.596 118.713C186.978 126.269 123.854 127.548 72.9335 115.92C52.5912 111.277 30.504 106.158 12.983 94.6007C11.0322 93.3131 9.37034 91.8075 7.64119 90.2584C7.56996 90.7893 7.68471 91.2727 7.8232 91.7798C10.7117 102.152 18.8985 117.79 24.2759 127.386C38.663 153.051 61.5496 176.665 86.098 192.826C95.8952 199.276 104.525 200.5 115.383 203.796C119.316 204.993 118.663 208.907 115.173 209.529C106.935 210.999 97.565 207.933 89.6354 205.817C89.8214 207.667 89.3822 209.921 89.6354 211.708L89.6315 211.696ZM186.06 97.4652C188.605 97.2711 191.315 97.2988 193.84 97.0849C212.188 95.5278 230.963 92.5128 249.169 89.7632C257.347 82.0849 266.159 75.0841 274.524 67.6356C280.163 62.6119 286.379 55.4605 292.235 51.1578C297.553 47.2514 301.668 47.5841 307.263 45.2981C312.74 43.0636 316.028 41.7046 321.951 40.2387C324.306 39.6563 325.631 40.1238 327.321 37.604C327.918 36.7125 326.589 34.7117 326.082 33.8639C321.041 25.4487 311.758 16.0113 302.487 12.6317C297.573 10.8409 296.509 12.394 294.728 16.7799C293.869 18.8996 293.549 21.4273 292.639 23.432C291.001 27.0414 283.482 33.432 280.171 36.039C268.316 45.3655 252.884 56.2846 240.167 64.4066C233.476 68.6816 226.223 72.1324 219.5 76.4034C210.549 82.0968 202.299 88.7846 192.902 93.8638C190.67 95.0722 187.976 95.9319 186.06 97.4612V97.4652ZM290.842 79.5968C291.491 78.7251 285.805 75.3258 285.14 74.4779C284.361 73.4835 284.484 72.7664 284.203 71.6213C276.538 77.5445 267.422 81.5144 260.473 88.3408C271.236 87.588 281.354 84.6126 290.842 79.5968Z" fill="black" stroke="black" stroke-width="4"/>
<path d="M192.815 57.2869L206.747 57.5603C209.818 58.2259 213.434 58.0199 216.445 58.8717C217.478 59.1649 218.309 59.3313 218.756 60.3891C220.552 64.6522 210.344 63.4953 208.251 63.6221C190.555 64.672 173.755 67.1641 155.862 67.802C137.019 68.4755 118.192 68.531 99.2942 67.8337C90.7909 67.5207 82.434 66.2449 73.8595 66.6609C65.7439 67.0532 57.7075 69.7235 49.9758 70.1157C48.3495 70.1989 44.2977 70.6348 44.0642 68.3725C43.9495 67.2394 44.6736 66.5619 45.5837 66.0983C47.5344 65.0999 55.4244 63.2299 58.0399 62.6039C79.316 57.5207 98.309 59.5294 119.795 59.8464C144.177 60.2069 168.46 58.7608 192.815 57.283V57.2869Z" fill="black" stroke="black" stroke-width="4"/>
<path d="M50.8146 130.611C54.1147 130.028 57.7787 135.924 59.5672 138.404C61.3557 140.884 63.0453 144.45 64.7982 146.47C66.7767 148.748 70.227 151.153 72.5537 153.53C76.1505 157.203 79.4822 161.383 83.1581 164.961C85.2948 167.037 88.484 168.97 90.5891 171.205C92.338 173.063 93.355 175.385 95.3176 177.112C97.0586 178.641 102.424 181.189 102.574 183.57C102.701 185.543 101.114 186.125 99.4169 185.959C88.0963 184.854 66.2029 164.83 60.2359 155.218C59.1122 153.408 58.4079 151.157 57.296 149.422C55.1118 146.011 47.9301 138.618 47.566 134.826C47.3919 133.015 49.0182 130.931 50.8107 130.614L50.8146 130.611Z" fill="black" stroke="black" stroke-width="4"/>
</svg>
