<svg width="70" height="113" viewBox="0 0 70 113" fill="none" xmlns="http://www.w3.org/2000/svg">
<path d="M51.5105 0.0464513C54.0663 -0.361893 55.4685 1.99349 54.8813 4.30448C54.5737 5.51768 51.0328 8.73709 49.9945 9.92069C47.0985 13.217 44.5264 16.9809 42.4084 20.8262C42.0357 21.5038 40.8065 23.3162 41.4973 23.9006C42.0002 24.3267 44.38 24.4613 45.1949 24.6388C82.6359 32.819 72.1745 91.742 45.9744 107.394C26.6712 118.925 7.97877 107.836 1.96194 87.8583C-4.80477 65.3904 6.19502 31.2478 30.8983 24.846C31.7473 24.6255 33.3772 24.5767 33.957 24.0589C36.9935 18.5048 39.5153 12.64 43.355 7.56827C44.7956 5.66415 49.2416 0.41041 51.512 0.0464513H51.5105ZM60.2311 53.5884C59.8746 53.6905 59.777 54.2394 59.7223 54.5693C59.3732 56.6406 59.28 58.7652 58.897 60.8454C56.4136 74.3385 48.5923 86.4379 38.5258 95.5044C38.1753 96.1568 38.4415 96.7575 39.2284 96.5104C40.212 96.2012 42.361 94.8356 43.3121 94.2275C56.1962 85.997 63.0842 69.0152 60.975 53.9775C60.8641 53.6446 60.5742 53.4907 60.2311 53.5884Z" fill="#1B4229"/>
</svg>
