<svg width="488" height="497" viewBox="0 0 488 497" fill="none" xmlns="http://www.w3.org/2000/svg">
<path d="M106.43 298.398C94.9364 300.074 84.5216 309.856 71.8503 310.701C55.1845 311.814 46.2364 303.618 31.0373 302.286C28.0616 302.026 23.711 302.047 20.7106 302.24C17.9888 302.417 8.90319 305.47 10.5955 299.824C11.0292 298.38 16.9487 295.876 18.6058 295.147C24.134 292.709 31.0161 290.303 36.9745 289.303C51.9832 286.785 65.8708 292.146 80.9606 286.781C90.2543 283.477 96.1421 275.679 105.774 273.167C109.568 272.178 113.876 271.723 117.769 271.131L111.14 269.117C101.73 265.136 93.371 260.515 82.7799 263.252C79.8007 264.023 76.6241 265.851 73.4792 266.633C65.9836 268.493 57.6384 268.796 50.2063 266.626C42.1572 264.277 37.5703 259.768 28.4036 260.385C21.8917 260.822 7.57401 265.594 3.05411 259.201C-1.4129 252.879 9.41793 245.327 14.9849 244.675C22.9001 243.752 28.6539 248.064 37.1896 247.271C48.5845 246.218 55.3679 236.99 66.4384 236.169C76.0318 235.457 80.4318 238.814 88.9357 240.987C98.8075 243.513 107.699 242.083 117.388 239.635C117.684 238.434 116.32 238.966 115.449 238.698C104.505 235.345 94.9575 227.662 82.9773 226.588C70.9971 225.514 63.1807 233.08 50.4249 230.308C43.6451 228.835 40.8633 224.225 32.8001 225.986C28.6011 226.905 22.4417 230.03 18.4084 230.424C11.484 231.1 9.56601 223.679 11.1737 218.205C14.2446 207.737 28.4741 203.063 38.346 203.975C45.9226 204.676 51.4544 209.847 59.1685 209.315C64.2279 208.966 70.0381 205.514 75.108 204.119C82.184 202.172 90.004 201.33 97.0165 203.922L85.9495 195.204C69.2801 190.639 44.2162 188.255 35.3033 170.914C33.4524 167.315 30.9774 157.262 34.5383 154.374C37.9053 151.64 38.8325 155.638 39.9572 157.435C45.0306 165.543 49.6352 164.419 57.9839 164.352C70.4189 164.25 92.7822 166.149 103.289 172.894C106.663 175.06 109.367 178.23 112.907 180.182C120.05 184.116 129.118 185.074 137.181 184.334C139.529 184.12 142.462 183.422 143.908 181.46C139.113 179.058 133.609 178.22 128.663 175.958C115.815 170.083 117.906 162.376 108.75 154.377C98.8357 145.712 82.8786 147.262 75.0199 136.23C67.5878 125.797 66.6993 119.348 53.5733 113.494C51.1935 112.433 45.5771 112.046 47.3329 108.016C48.3412 105.706 53.7849 106.255 56.0942 106.368C68.3846 106.963 84.0385 111.807 93.7376 119.453C99.1531 123.723 101.473 128.552 108.168 131.535C114.863 134.518 122.821 135.994 128.924 141.137C131.758 143.525 132.989 146.97 135.873 149.175C136.821 149.9 144.659 154.018 145.064 153.623C143.883 151.098 142.466 148.946 142.032 146.096C141.56 143 142.769 138.256 139.007 137.216C133.599 135.723 128.853 138.883 123.152 134.237C116.503 128.816 120.448 123.976 117.962 117.53C115.276 110.567 107.329 108.506 102.012 103.895C93.1735 96.2344 87.3245 81.814 96.812 72.1946C104.854 64.0439 108.01 76.3579 111.465 81.3948C115.131 86.7382 124.651 88.052 130.422 92.4091C139.434 99.2142 137.318 103.237 138.633 113.008C139.568 119.94 148.163 119.531 153.688 121.01C159.801 122.648 169.398 125.843 173.506 130.781C176.439 134.311 177.137 138.833 179.083 142.866L181.121 141.641C181.34 139.016 180.293 136.308 179.094 134.029C169.952 116.622 141.842 115.854 145.121 90.1161C145.893 84.0648 147.846 82.9306 143.344 77.5802C136.789 69.7888 125.747 65.1464 131.727 52.5436C133.881 48.0068 141.909 37.2919 147.74 40.9305C150.963 42.9417 149.535 46.7564 149.669 49.7609C150.504 68.8061 173.097 68.9082 176.728 83.7865C178.244 89.9928 175.72 99.2494 180.109 104.219C182.098 106.47 190.228 108.577 193.493 110.052C197.307 111.775 200.632 113.744 203.879 116.375C202.73 109.563 206.245 103.054 206.566 96.5936C206.658 94.7761 206.457 91.5039 206.15 89.7251C204.711 81.4195 195.516 77.876 194.66 69.3274C194.187 64.604 195.601 59.789 195.404 55.5587C195.28 52.9204 192.83 47.9892 192.153 44.9494C190.602 38.007 190.993 31.5928 194.318 25.2139C196.26 21.4873 198.168 20.9132 201.154 18.6025C203.731 16.6124 206.552 12.125 209.203 16.3905C213.755 23.7028 207.973 28.5108 208.078 34.7735C208.138 38.2183 210.021 43.9562 211.498 47.1227C215.08 54.7978 221.109 55.8827 226.161 62.0468C234.835 72.6278 230.54 82.1028 228.559 94.1844C229.423 99.6263 233.139 103.952 235.085 108.82C235.73 110.433 235.977 111.993 236.502 113.55C236.671 114.054 236.615 114.723 237.32 114.843C237.708 112.152 238.847 108.95 238.822 106.245C238.783 101.796 236.82 96.3295 236.537 91.6272C236.188 85.7977 237.701 82.2508 238.106 77.0307C238.738 68.8765 236.266 61.0957 236.946 52.8289C237.387 47.4679 239.986 41.7864 240.73 36.2564C241.96 27.123 240 11.8362 245.461 4.11525C247.936 0.621117 251.003 1.76586 252.614 5.28818C254.977 10.4519 257.607 21.7937 258.411 27.5316C259.532 35.5413 258.675 43.4102 259.669 51.2368C260.783 60.0073 264.366 68.6124 266.35 77.2033C268.769 87.6681 269.453 97.4284 266.541 107.928C271.72 103.786 273.257 99.1825 273.835 92.7543C274.601 84.2761 273.476 77.6612 276.97 69.3873C280.347 61.3846 287.808 55.7876 290.762 47.8342C294.387 38.0774 294.739 26.3058 306.293 21.8783C309.589 20.6138 312.427 23.2379 311.341 26.5383C311.091 27.2956 310.305 27.8028 309.907 28.944C306.578 38.486 312.565 52.216 312.276 62.4201C312.195 65.2274 311.574 69.3943 310.851 72.1312C309.621 76.7771 306.85 80.7432 305.362 85.2694L315.745 77.4041C325.314 68.9716 320.388 55.1465 333.454 44.7909C336.053 42.7304 344.176 37.0912 347.261 37.8203C352.313 39.0144 347.754 45.7208 346.697 48.4189C341.553 61.5607 345.808 76.0656 334.776 87.2031C331.621 90.3908 323.276 95.4207 322.444 99.4608C321.925 101.983 322.141 107.305 322.257 110.059C322.504 115.871 324.087 121.687 323.043 127.516L329.608 122.75C333.007 120.44 337.206 119.196 340.463 116.699C351.745 108.059 348.368 89.7075 359.759 79.9084C365.175 75.2484 373.079 72.5574 375.692 65.1006C375.667 63.4557 370.439 62.8358 368.894 61.927C361.395 57.5136 364.611 48.3837 372.864 47.3024C383.141 45.9568 390.768 45.0763 396.003 55.5798C403.544 70.7117 391.642 75.9353 384.383 86.0725C379.69 92.6275 381.513 94.8571 381.865 101.962C382.447 113.638 380.296 122.842 369.666 128.978C363.736 132.401 356.138 132.645 350.917 137.128C347.585 139.992 345.406 144.754 344.567 149.023C346.679 147.896 348.491 146.325 350.72 145.381C353.914 144.029 357.038 143.941 360.228 142.975C367.798 140.686 373.901 128.59 380.307 123.479C385.793 119.101 390.45 120.852 396.557 119.746C402.3 118.703 410.123 107.626 414.901 103.511C419.255 99.7602 422.77 98.4393 427.607 95.8504C429.857 94.6458 431.369 91.8984 434.02 93.6384C437.32 95.8082 433.946 99.091 432.899 101.134C426.366 113.885 421.846 123.409 410.254 132.659C404.221 137.474 396.659 140.989 390.873 145.938C382.186 153.366 380.081 164.145 372.046 172.059L367.629 175.515C372.773 175.314 375.364 174.948 378.315 170.643C380.656 167.23 382.193 163.246 384.933 159.974C394.751 148.245 405.551 154.842 417.894 151.045C427.417 148.118 435.434 138.826 446.247 139.404C451.568 139.689 461.669 144.863 466.157 147.928C471.558 151.616 469.573 159.594 463.16 160.168C461.055 160.355 459.13 159.706 457.378 159.735C454.113 159.787 449.424 159.865 446.237 160.157C436.072 161.091 433.759 171.851 426.44 178.012C417.848 185.243 411.914 183.292 402.131 185.219C392.347 187.145 389.005 198.512 382.613 205.081C396.13 206.821 402.779 194 412.972 188.371C414.992 187.255 417.488 186.152 419.699 185.493C433.562 181.344 446.787 190.601 458.326 177.23C459.729 175.603 462.589 170.372 463.728 169.569C468.759 166.036 469.291 176.342 469.097 179.157C468.082 193.982 455.382 210.005 439.358 208.494C435.899 208.166 432.18 206.782 428.566 206.603C414.58 205.905 409.062 217.585 400.301 225.637C397.047 228.628 393.285 231.04 389.918 233.886C396.045 234.045 406.834 235.359 411.266 240.019C412.711 241.54 414.439 246.056 416.329 246.482C423.461 248.092 436.192 241.167 444.312 240.808C452.586 240.441 455.114 247.486 462.546 249.078C469.721 250.617 474.044 249.399 480.831 248.874C489.13 248.233 485.967 254.052 481.529 257.25C473.825 262.801 465.593 262.181 456.786 264.023C444.174 266.662 432.37 273.671 419.124 270.568C412.066 268.916 407.624 263.118 400.054 262.354C396.049 261.949 389.625 262.326 386.456 264.992C391.201 264.492 395.249 267.2 399.617 268.553C404.109 269.948 408.678 270.645 413.18 272.287C419.276 274.509 422.618 278.634 428.809 280.099C445.186 283.977 458.76 275.675 471.992 290.339C473.522 292.036 477.111 295.816 473.829 297.559C471.699 298.69 464.211 296.319 461.217 296.112C445.024 294.988 438.516 305.382 421.24 297.647C415.095 294.896 407.832 289.046 401.158 288.141C395.217 287.338 389.727 289.574 383.91 290.296C381.587 290.585 378.833 290.56 376.464 290.733L382.75 293.089C385.296 294.435 387.922 296.129 389.925 298.211C393.482 301.906 393.31 304.713 399.67 304.125C404.042 303.72 408.551 302.054 413.155 301.853C421.508 301.483 430.117 305.027 436.94 309.616C442.933 313.649 446.656 319 454.681 319.176C456.919 319.225 461.15 316.865 461.739 320.581C462.233 323.705 452.724 327.562 450.207 328.115C437.648 330.88 429.377 326.971 417.682 325.016C404.927 322.885 398.609 335.343 384.365 331.419C373.033 328.299 364.776 309.345 357.059 308.39C354.83 308.116 350.067 309.905 349.916 306.682C349.817 304.576 352.666 303.663 354.404 303.449C370.513 301.487 374.317 324.949 388.173 325.692C396.246 326.125 403.509 318.802 412.003 318.369C418.412 318.042 424.431 321.159 430.498 322.578C435.776 323.815 441.491 324.382 446.804 323.184C443.702 321.451 440.613 319.722 437.687 317.7C426.26 309.803 424.406 306.777 408.928 307.999C401.782 308.563 396.846 312.628 389.946 307.404C388.017 305.942 386.731 303.692 385.105 302.255C378.939 296.799 370.435 296.351 362.911 294.858C360.521 294.382 356.357 293.625 355.123 291.501C352.613 298.429 350.339 305.544 346.094 311.666C349.919 313.11 353.593 314.808 357.246 316.647C363.92 320.004 371.369 323.808 376.27 329.514C379.299 333.043 381.294 337.883 385.669 340.095C390.017 342.293 396.528 342.215 401.443 343.54C418.426 348.115 423.457 364.039 439.298 370.235C443.205 371.764 447.481 372.07 451.116 373.405C455.456 374.997 456.07 379.682 451.501 381.257C441.667 384.645 425.615 383.624 415.853 380.217C409.358 377.953 402.134 372.465 395.7 371.549C390.859 370.862 385.208 372.208 380.12 371.753C362.527 370.186 358.236 354.846 348.213 343.719C345.086 340.246 341.542 337.076 337.639 334.508C337.671 340.94 340.227 346.611 344.359 351.412C352.193 360.514 365.658 364.216 368.665 377.051C369.145 379.094 369.064 381.348 369.649 383.363C371.151 388.53 380.321 394.909 384.157 399.206C390.172 405.944 391.963 414.018 397.403 420.534C399.137 422.612 402.797 424.246 400.967 427.35C397.371 429.202 395.224 425.93 392.361 424.415C378.801 417.244 363.475 414.5 355.003 399.907C351.277 393.49 351.037 385.945 346.284 380.2C340.989 373.796 333.37 371.658 326.664 367.157L316.492 359.468C315.516 363.543 317.684 367.815 320.018 371.109C327.076 381.052 340.541 387.213 344.56 399.587C347.92 409.932 342.431 414.028 351.093 424.169C359.354 433.838 369.049 438.942 363.292 454.042C360.175 462.221 353.068 464.478 348.082 456.363C344.303 450.209 342.561 443.179 337.946 436.916C327.489 422.728 310.361 425.247 307.305 403.778C306.205 396.043 308.094 391.63 301.498 385.772C296.745 381.552 292.349 380.323 288.65 374.413C287.388 372.394 286.768 370.147 285.354 368.301C281.617 381.32 293.153 392.193 292.218 404.927C291.485 414.933 285.555 419.421 287.378 431.369C289.888 447.821 310.132 450.738 302.555 470.554C300.634 475.584 296.95 479.962 291.153 477.138C288.044 475.623 287.335 472.354 287.688 469.142C287.836 467.786 288.922 467.099 288.065 465.637C287.543 464.746 283.443 461.255 282.403 460.537C277.319 457.029 273.723 457.353 270.052 451.372C266.224 445.13 265.187 438.787 265.751 431.481C266.559 421.059 274.237 415.708 268.639 404.395C264.376 395.783 256.454 388.527 257.293 378.101C257.402 376.752 258.319 375.392 257.868 374.068C249.42 383.377 257.399 392.531 259.705 401.799C262.536 413.172 252.911 420.861 254.388 430.153C254.737 432.344 256.006 434.289 256.63 436.363C258.125 441.326 258.428 446.666 258.076 451.851C257.48 460.547 251.596 468.342 252.681 477.37C259.236 475.848 262.624 480.269 259.525 486.324C255.636 493.921 247.266 498.536 240.19 491.579C234.062 485.552 236.34 475.176 235.779 467.567C235.286 460.843 230.72 453.221 228.742 446.56C224.265 431.474 226.419 422.577 226.919 407.667C227.226 398.519 224.758 396.963 222.512 389.418C221.31 385.381 221.878 380.453 222.692 376.371C220.193 378.925 218.828 383.074 218.518 386.596C217.682 396.103 222.46 402.56 215.207 411.323C211.858 415.367 203.58 419.565 202.349 423.824C199.497 433.679 207.222 442.245 200.988 453.57C197.032 460.752 185.662 466.511 177.539 465.845C170.71 465.285 167.646 458.927 173.753 454.778C178.04 451.868 183.145 453.475 186.011 448.205C188.871 442.95 184.823 437.786 184.305 432.594C183.91 428.649 185.722 423.648 187.524 420.143C189.325 416.638 194.935 410.865 195.379 407.635C196.694 398.062 189.6 388.417 190.841 377.755C191.099 375.561 192.357 373.856 192.721 371.764C185.944 373.923 174.295 374.117 171.567 381.926C168.284 391.313 170.244 401.291 165.256 411.337C158.821 424.299 147.938 421.672 138.341 429.766C133.095 434.19 132.654 438.512 129.234 443.323C125.201 448.998 121.157 440.389 120.846 436.469C119.433 418.47 143.545 411.224 147.846 397.019C149.584 391.285 148.576 388.481 148.904 383.099C149.478 373.645 157.21 369.305 161.508 361.898C163.606 358.28 167.078 350.317 168.58 346.305C168.76 345.826 168.989 345.428 168.884 344.882C164.05 345.97 158.786 348.633 155.423 352.359C152.803 355.262 152.126 360.461 150.113 363.955C146.764 369.767 140.28 371.345 134.801 374.385C121.742 381.633 110.097 393.398 97.3585 401.108C92.345 404.145 82.3885 409.069 77.3821 403.845C71.7023 397.917 81.2991 392.644 84.9059 389.435C95.6662 379.858 93.1524 367.932 104.304 358.506C109.55 354.068 115.279 353.036 120.843 349.686C128.786 344.906 131.081 333.832 136.596 326.833C136.091 326.421 128.568 331.86 127.577 332.606C121.64 337.094 117.007 342.68 111.405 347.171C99.7278 356.533 92.5389 349.626 80.1744 353.606C70.0981 356.85 59.0451 372.817 48.2954 366.463C41.1665 362.25 52.3887 354.913 55.2586 350.989C59.0839 345.759 61.774 338.746 67.2776 334.963C72.6789 331.25 78.6549 331.215 84.6097 329.235C97.9332 324.811 101.618 308.056 113.562 301.321L118.914 298.412C115.054 298.813 110.143 297.869 106.423 298.412L106.43 298.398ZM239.048 122.895C241.04 122.624 243.522 123.092 245.581 122.895C246.282 122.895 247.806 115.251 247.975 114.149C248.849 108.446 249.184 101.197 248.846 95.4418C248.451 88.6825 245.835 80.6094 245.747 74.315C245.725 72.825 246.043 71.5183 247.876 71.8001C249.258 72.0114 249.589 75.1251 249.882 76.3544C252.618 87.8442 253.707 98.9641 252.258 110.75C251.751 114.878 250.443 118.844 249.614 122.895L261.154 123.839C261.707 120.084 259.884 116.727 259.599 113.117C258.989 105.449 261.365 97.4496 260.762 89.2989C259.976 78.6651 254.296 68.9153 252.748 58.5174C250.873 45.8864 253.633 34.0162 250.968 21.5084C250.414 18.916 249.734 16.2496 248.659 13.8298C247.619 13.8227 247.418 28.4263 247.308 29.7683C246.635 38.2359 244.869 43.5546 243.261 51.4552C241.297 61.1204 244.689 68.9082 243.42 78.496C243.081 81.0532 242.115 83.628 241.914 86.2099C241.424 92.5042 243.187 97.6221 243.458 103.508C243.783 110.517 239.696 116.622 238.47 123.282C238.611 123.476 238.931 122.912 239.041 122.898L239.048 122.895ZM231.531 124.029C231.884 119.288 231.524 115.628 229.454 111.356C226.07 104.367 220.679 99.7285 222.512 91.0143C224.737 80.4473 228.439 73.1526 220.778 63.5719C217.936 60.0214 215.327 58.8133 212.147 56.0659C206.538 51.2192 201.224 37.9189 202 30.5819L203.685 23.8156C199.892 27.3484 198.816 36.3127 199.268 41.2827C199.648 45.4637 202.243 49.5073 202.674 53.6249C203.393 60.5075 200.484 65.9213 204.567 72.4693C206.813 76.0691 208.745 77.3477 210.479 81.9232C214.611 92.8248 212.514 97.6574 209.975 108.059C208.216 115.265 208.399 122.166 212.503 128.541L231.531 124.029ZM339.949 47.6264C327.57 52.5858 328.853 66.9181 322.042 76.0092C317.384 82.2261 307.305 85.8787 303.507 93.5926C301.656 97.3544 303.091 104.42 302.661 108.876C302.358 111.979 299.058 121.739 295.204 121.355C290.864 120.922 294.45 113.55 294.877 111.084C296.012 104.515 293.745 98.1012 295.081 91.3172C296.689 83.1454 303.906 76.5728 305.256 68.8413C306.391 62.3567 303.821 49.9864 303.014 42.8572C302.972 42.4874 302.845 41.4166 302.284 41.4835C300.204 56.485 283.711 64.7589 281.183 79.3554C279.935 86.555 281.705 94.5648 279.321 101.69C277.509 107.111 272.841 109.672 270.172 114.441C268.445 117.527 266.777 121.62 266.932 125.181L274.34 126.297C276.92 122.335 282.205 120.528 284.525 116.491C288.393 109.767 286.5 101.472 287.839 94.4556C288.59 90.5247 291.076 91.7681 291.464 95.4876C292.282 103.328 293.015 114.276 287.293 120.408C284.871 123.007 281.535 124.068 279.032 126.364C278.563 126.794 277.932 127.132 278.059 127.886C289.778 131.179 300.426 137.202 311.112 142.866C312.491 137.058 315.615 131.412 316.108 125.389C316.789 117.108 314.151 108.252 314.966 100.053C316.094 88.6684 330.267 86.7311 334.512 77.7175C337.939 70.4334 336.469 62.7442 337.738 55.2135C338.179 52.607 339.363 50.1906 339.945 47.6299L339.949 47.6264ZM205.78 130.94C204.302 126.72 201.566 122.187 197.692 119.665C187.312 112.905 173.763 115.73 170.921 100.708C169.257 91.9089 173.481 86.3085 166.028 78.7144C157.432 69.9508 146.274 67.3091 144.391 52.3287C144.267 51.346 144.581 46.464 143.714 46.4817C140.84 49.0389 135.679 55.3227 136.232 59.3064C136.86 63.8361 147.01 70.8983 149.99 75.1498C156.727 84.7657 149.119 92.24 152.838 101.874C155.659 109.175 162.019 111.842 167.706 116.209C175.12 121.905 183.959 129.601 185.042 139.411C191.487 135.501 198.697 133.37 205.776 130.943L205.78 130.94ZM334.953 161.679C334.107 158.692 336.204 155.223 336.984 152.384C339.832 142.01 341.038 134.765 351.224 128.974C356.156 126.171 361.667 125.427 366.366 122.211C379.739 113.057 369.822 99.4397 375.015 87.4567C378.11 80.3135 390.404 71.7014 390.993 65.7522C391.349 62.1665 387.482 54.0546 383.769 53.16C380.896 53.3995 377.998 53.4523 375.107 53.3995C373.531 53.3713 371.944 52.2829 370.53 53.7869C366.5 58.0806 376.855 59.2677 379.045 60.6026C384.347 63.8326 381.886 71.7437 378.586 75.664C370.59 85.1602 360.204 81.032 355.818 95.1636C351.654 108.58 354.115 116.889 339.318 124.378C330.919 128.629 326.199 130.327 320.184 138.291C319.316 139.443 316.15 144.081 315.882 145.17C315.752 145.688 315.745 145.716 316.08 146.146C316.905 147.209 322.705 150.732 324.369 152.095C327.722 154.842 330.627 158.622 333.793 161.112C334.181 161.415 334.286 161.855 334.949 161.682L334.953 161.679ZM174.652 146.692L169.984 137.745C167.494 134.117 156.011 130.165 151.594 128.851C142.674 126.195 133.567 126.716 131.011 115.621C129.22 107.844 132.717 102.913 124.429 97.6186C116.827 92.7613 110.227 92.7191 105.401 83.5998C104.339 81.5956 103.433 77.9148 102.344 76.284C101.254 74.6531 99.9216 77.7563 99.5127 78.7355C91.2838 98.464 122.243 102.145 123.914 118.865C124.397 123.687 122.073 128.728 127.767 131.148C132.876 133.317 138.947 130.521 143.661 133.321C150.007 137.093 146.672 144.374 148.121 149.988C149.267 154.427 153.942 158.35 156.205 162.267L165.813 153.035L174.652 146.692ZM424.134 106.386L417.199 111.549C410.927 118.414 404.867 126.783 394.741 127.516C392.107 127.706 387.506 126.893 385.338 128.108C382.218 129.858 376.432 138.597 373.587 141.714C366.342 149.657 365.104 148.551 355.222 150.249C351.195 150.943 344.056 155.994 341.486 159.182C340.037 160.982 339.853 163.905 336.49 163.215L343.598 172.422C345.043 168.09 347.659 165.092 351.358 162.517C352.683 161.594 356.491 159.308 357.919 159.065C360.443 158.632 361.949 160.911 360.722 163.046C359.9 164.469 354.189 167.839 352.451 169.372C351.062 170.597 349.006 172.475 348.491 174.25C348.125 175.511 348.95 177.184 346.866 177.434L348.001 179.555L348.971 179.724C351.834 174.69 358.501 172.919 363.13 169.675C370.146 164.761 372.649 158.192 377.303 151.577C384.88 140.802 394.173 137.526 404.26 130.123C412.926 123.758 419.223 115.959 424.127 106.386H424.134ZM148.519 173.972C140.467 173.729 134.008 169.273 128.927 163.398C126.9 161.052 125.366 158.262 123.346 155.916C121.587 153.874 115.967 150.224 117.744 147.255C120.198 143.155 127.799 150.545 129.675 152.669C135.108 158.815 138.57 165.987 147.733 167.653C149.2 167.921 152.214 168.424 151.541 166.17C151.083 164.631 136.116 157.748 133.345 155.529C129.474 152.433 127.834 147.871 124.27 145.008C118.04 140.003 109.12 139.009 102.421 134.959C97.4713 131.965 95.2043 127.963 91.0405 124.438C83.6719 118.2 73.0173 114.913 63.565 113.677C65.6875 116.097 68.0462 118.288 70.0875 120.788C76.2186 128.287 78.0767 135.744 87.6806 139.696C100.105 144.811 109.913 143.884 119.077 155.948C122.856 160.922 122.278 164.817 128.021 168.903C133.398 172.725 140.227 174.68 145.635 178.509C147.173 177.388 148.139 175.842 148.512 173.968L148.519 173.972ZM154.792 174.856C151.636 178.723 147.321 189.703 144.877 194.718C143.788 196.951 142.205 198.966 141.147 201.361C130.598 225.281 129.749 252.59 133.641 278.127C135.76 292.026 141.764 308.637 150.458 319.697C159.153 330.757 181.604 349.052 194.773 354.92C216.201 364.462 248.345 366.206 271.071 361.119C311.073 352.169 338.577 320.648 348.53 281.822C358.254 243.89 360.239 215.88 341.165 180.629C339.938 178.364 336.293 171.637 334.773 170.118C332.605 167.952 328.187 165.31 325.543 163.211C302.989 145.321 278.701 134.547 249.42 132.888C227.688 131.655 199.747 140.848 181.84 152.926C174.373 157.963 160.263 168.149 154.788 174.863L154.792 174.856ZM361.187 208.441C360.634 207.895 360.708 206.997 360.986 206.338C362.358 203.108 373.21 202.957 376.474 201.819C382.57 199.699 384.947 189.614 389.167 184.926C398.041 175.067 410.166 180.661 419.731 175.138C427.071 170.9 428.806 161.753 436.048 157.642C441.6 154.49 448.468 154.5 454.712 154.754C457.018 154.846 462.867 156.487 464.306 154.754C466.114 152.57 462.039 151.852 460.903 151.26C453.961 147.639 447.855 143.173 439.774 147.156C429.458 152.243 426.373 159.668 412.813 160.545C408.174 160.844 401.366 159.27 397.219 160.326C392.671 161.485 386.794 170.295 382.824 173.595C375.861 179.389 366.37 178.378 357.937 180.224L350.342 184.528C355.663 194.761 360.161 205.497 362.619 216.821C369.575 215.25 376.478 216.285 383.473 214.567C385.215 214.14 390.313 211.439 391.014 213.799C391.684 216.324 387.115 217.821 385.13 218.526C379.024 220.702 373.122 220.202 367.17 221.703C362.679 222.837 363.073 223.489 363.574 228.142C373.449 231.555 385.387 229.29 393.895 223.439C405.078 215.743 405.953 203.908 422.132 201.344C433.562 199.533 442.767 206.476 453.154 198.156C458.644 193.757 463.587 186.141 463.929 178.963C460.019 184.511 453.105 188.501 446.519 189.988C439.256 191.626 432.053 188.625 424.723 189.336C409.013 190.861 402.765 207.392 386.678 208.55C380.952 208.963 375.071 207.254 369.37 207.772C367.442 207.948 362.612 209.836 361.194 208.441H361.187ZM139.681 188.952C129.174 191.256 120.071 191.344 110.456 186.078C106.053 183.665 102.841 179.921 98.6665 177.505C92.3803 173.863 77.6113 170.661 70.292 170.14C62.9727 169.618 53.8307 171.482 46.7794 168.667L40.1229 164.761C43.7544 176.008 54.7192 180.904 65.1974 184.063C72.6366 186.303 84.4581 187.6 90.5963 191.714C94.1466 194.095 96.9213 197.371 100.849 199.523C105.436 202.038 118.615 206.497 123.734 206.997C126.66 207.282 129.773 206.994 132.717 207.339L139.681 188.956V188.952ZM131.222 210.072C126.699 209.963 122.162 210.861 117.624 210.407C112.448 209.889 106.592 207.381 101.625 205.849L118.449 216.109C121.724 217.247 125.067 217.036 128.487 216.937L131.219 210.072H131.222ZM123.533 236.567C123.78 233.837 124.266 231.114 124.809 228.43C125.109 226.955 126.019 224.831 126.163 223.605C126.22 223.143 126.318 222.844 125.853 222.541C124.986 221.97 119.739 221.801 118.079 221.477C107.96 219.491 97.4678 209.227 87.9732 208.92C76.9132 208.561 66.6888 216.24 55.6993 215.444C46.8957 214.806 41.6072 208.001 31.9645 209.794C26.7148 210.769 17.2731 215.912 16.6914 221.833C16.575 223.031 16.8112 224.76 18.359 224.665C28.1568 221.942 35.3421 216.19 45.8803 220.259C48.7185 221.354 51.5672 223.531 54.5605 224.26C62.2323 226.127 67.9333 222.347 74.9564 221.643C88.2165 220.311 99.5056 226.38 110.344 232.664C114.303 234.961 118.939 236.338 123.537 236.57L123.533 236.567ZM474.682 253.851C471.223 254.055 467.422 253.851 463.918 253.851C457.413 253.851 453.891 248.98 449.241 246.623C439.608 241.745 419.181 259.208 408.738 249.068C405.85 246.264 406.104 244.742 401.535 243.206C391.335 239.779 379.841 242.287 369.614 239.385C368.725 239.131 367.9 239.064 367.23 238.31C366.409 237.388 366.698 236.334 366.388 235.887C366.296 235.753 363.532 234.506 363.398 234.651C363.363 245.471 362.4 256.32 360.584 266.979C359.735 271.966 358.413 276.883 357.633 281.885C359.943 280.582 359.869 282.276 360.947 282.984C363.574 284.706 371.972 286.911 375.117 286.911C383.008 286.918 390.292 282.248 398.185 281.885C412.764 281.219 420.901 294.72 434.718 294.188C438.353 294.048 441.995 292.579 445.574 291.98C453.306 290.684 460.695 290.832 468.332 292.632C466.065 288.711 461.055 286.136 456.602 285.728C444.142 284.583 432.79 288.62 420.408 282.716C411.058 278.261 404.754 276.369 395.002 273.153C391.614 272.037 389.738 270.659 385.877 270.367C381.241 270.015 376.319 270.177 371.665 269.589C369.599 269.328 365.291 268.736 363.458 268.187C361.913 267.722 361.561 266.721 361.854 265.182C362.4 262.29 368.274 265.119 370.164 265.33C377.691 266.172 380.705 262.776 387.224 261.336C392.523 260.163 398.161 259.99 403.449 261.262C413.913 263.777 417.383 272.068 430.273 267.095C437.68 264.235 444.7 259.68 452.576 257.5C460.364 255.344 468.604 255.908 476.406 253.847C476.328 252.836 474.939 253.837 474.678 253.851H474.682ZM122.761 244.249C113.855 248.444 101.642 249.881 91.8056 249.258C81.2251 248.585 72.7247 242.048 62.049 245.228C57.7442 246.51 53.4852 250.145 48.9582 251.734C41.3992 254.383 34.2456 253.95 26.669 251.734C22.3642 250.477 20.9222 248.92 15.8029 249.716C13.7686 250.033 6.4458 253.724 6.65029 255.95C7.48235 257.94 12.1644 257.447 14.1882 257.32C21.042 256.894 26.9334 254.288 34.1152 255.429C43.3736 256.898 50.915 264.055 60.6423 264.178C75.3125 264.362 83.5414 253.199 98.9521 256.324C107.819 258.123 114.342 266.869 123.917 265.749C122.137 258.729 122.098 251.431 122.761 244.246V244.249ZM124.302 271.899C116.298 275.636 106.645 275.136 99.354 280.191C95.9588 282.547 93.6037 285.742 89.8277 287.954C73.518 297.51 51.1265 289.867 32.719 296.573C32.3171 296.721 31.5767 296.707 31.6684 297.242C35.395 297.838 39.171 298.211 42.8835 298.905C53.6932 300.916 58.3118 303.385 69.6292 300.039C81.6658 296.478 89.2706 291.011 102.954 290.321C111.574 289.888 120 292.357 128.532 292.639L127.327 287.697C125.536 286.538 109.906 291.399 112.674 285.059C113.27 283.692 115.16 283.435 116.471 283.086C119.489 282.28 122.764 282.029 125.842 281.501L124.298 271.899H124.302ZM369.931 289.571C365.919 288.278 361.497 286.936 358.257 284.136C357.76 283.706 357.788 283.047 357.253 283.04L355.712 289.18C359.075 288.278 362.552 289.06 365.897 289.564L369.927 289.571H369.931ZM131.557 299.602C121.957 299.409 114.959 304.396 109.159 311.497C103.86 317.989 99.3399 327.731 91.9819 331.972C86.57 335.09 80.2379 335.185 74.6109 337.273C65.4654 340.665 61.7317 352.116 54.9307 358.703C54.2996 359.316 50.0089 362.247 50.5025 362.912C59.1333 365.688 65.557 356.283 71.8997 351.845C82.2052 344.628 86.8027 346.738 98.2505 346.301C105.824 346.012 113.591 334.755 119.105 329.88C124.619 325.005 132.989 319.341 140.833 318.753C141.465 318.165 135.721 311.148 135.457 309.718C132.333 309.239 129.241 311.198 126.812 313.001C116.778 320.451 112.762 332.86 102.019 338.922C100.066 340.024 89.6796 344.29 88.1812 343.543C87.3844 343.145 87.2222 341.898 87.469 341.081C90.5575 339.521 94.0867 338.682 97.1646 337.14C107.336 332.036 112.66 318.982 121.827 311.856C125.462 309.032 129.188 306.745 133.92 306.46L131.564 299.602H131.557ZM432.589 376.361C429 374.786 424.811 372.197 421.825 369.64C416.346 364.952 412.567 357.481 406.421 353.539C396.038 346.875 384.901 349.813 376.094 339.288C371.281 333.54 370.234 330.088 363.518 325.354C360.665 323.343 346.82 315.069 344.038 315.65L336.874 327.58C344.236 328.675 350.642 334.586 355.335 340.056C365.206 351.563 365.21 364.043 383.945 364.853C386.375 364.959 388.694 364.409 390.863 364.438C405.663 364.617 415.592 375.624 430.481 376.737C430.935 376.773 432.585 377.058 432.589 376.364V376.361ZM163.126 341.021L153.12 332.751C152.324 332.346 150.635 334.452 150.067 335.083C145.17 340.51 144.564 344.378 141.553 350.387C136.289 360.884 116.443 368.273 107.269 375.66C104.54 377.717 101.201 375.945 103.578 372.74C109.642 368.689 115.413 363.839 121.647 360.066C127.394 356.59 132.922 355.438 136.923 349.598C139.25 346.206 140.689 342.092 143.538 338.922C145.191 337.083 150.621 333.371 151.428 331.803C151.618 331.433 151.618 331.412 151.428 331.042C150.55 329.338 146.393 326.872 145.449 324.678L144.581 324.568C136.395 330.648 135.048 341.909 128.525 349.658C121.104 358.474 105.831 357.78 100.144 371.229C96.2197 380.503 96.1421 385.402 87.7934 392.683C86.4607 393.845 75.3901 400.64 81.5283 402.007C91.1392 404.145 101.036 390.062 107.593 384.434C118.132 375.385 126.248 370.954 138.665 365.167C146.972 361.296 144.983 358.654 148.569 351.637C151.301 346.287 157.39 342.434 163.126 341.025V341.021ZM387.616 417.445C386.022 413.746 384.266 409.734 381.844 406.508C377.652 400.929 370.199 396.607 366.553 390.679C361.762 382.887 365.929 375.67 357.817 368.301C346.623 358.129 338.168 357.157 333.973 340.278C333.426 338.073 333.962 335.315 331.688 333.737C326.861 338.982 321.15 343.223 315.763 347.798C315.629 348.608 323.843 355.706 325.169 356.752C336.099 365.41 347.62 368.449 354.122 381.975C356.248 386.403 357.313 391.549 359.488 395.818C364.776 406.198 377.402 412.834 387.619 417.441L387.616 417.445ZM183.882 356.378C184.03 355.737 183.67 355.604 183.3 355.241C181.816 353.783 174.44 348.703 172.48 347.615C172.145 347.428 171.856 347.157 171.429 347.196C168.468 351.986 168.446 358.185 166.021 363.31C162.146 371.489 155.091 374.254 154.291 384.62C153.491 394.987 153.868 397.959 148.294 406.667C143.019 414.912 133.898 419.872 128.906 428.389C127.267 431.185 126.093 435.028 126.999 438.188L131.448 429.776C136.423 420.816 146.425 420.217 153.783 415.99C165.361 409.333 162.534 389.59 166.095 379.133C170.195 367.093 181.929 369.355 191.49 366.1C193.792 365.315 195.573 363.92 197.723 362.916L196.842 362.074C195.026 362.102 188.158 357.742 187.235 357.981C186.766 358.101 185.796 359.341 185.169 359.785C183.205 361.176 176.097 366.149 174.281 366.593C172.684 366.984 171.905 365.367 172.956 364.099C174.415 362.345 180.212 358.777 182.454 357.065C182.877 356.741 183.339 356.442 183.885 356.386L183.882 356.378ZM310.315 351.81C309.829 351.468 303.476 355.107 303.225 355.621C302.111 357.9 306.434 363.085 307.587 365.1C308.739 367.114 312.787 373.751 312.928 375.459C313.069 377.167 311.331 377.093 310.16 376.354C306.769 369.992 300.25 364.758 299.968 357.153L291.897 361C292.962 363.328 293.424 365.938 294.404 368.284C298.053 377.033 306.539 379.326 310.492 387.156C315.107 396.297 310.523 406.751 319.394 414.747C325.476 420.227 332.746 423.088 338.609 429.731C345.484 437.515 346.919 444.535 351.548 452.904C353.942 457.233 355.645 458.233 357.7 453.041C362.548 440.801 351.047 435.521 344.574 427.614C338.411 420.09 338.806 417.219 338.024 408.044C336.479 389.981 313.474 381.087 311.222 364.543C310.65 360.362 311.997 355.716 310.319 351.81H310.315ZM211.177 366.375L203.499 364.631C201.623 365.41 197.226 373.268 196.549 375.374C192.907 386.723 205.78 400.559 199.039 412.038C195.777 417.593 190.799 421.904 189.826 428.945C189.205 433.429 191.571 436.902 191.956 441.065C192.52 447.208 189.572 453.873 183.494 456.028C180.744 457.004 176.82 456.698 175.42 459.878C175.403 461.872 180.018 461.682 181.347 461.558C186.057 461.122 192.037 457.74 195.048 454.126C203.865 443.545 193.947 433.355 197.367 421.879C200.696 410.707 214.047 412.087 213.504 397.262C213.166 387.956 211.516 383.444 216.498 374.554C217.383 372.979 219.985 370.302 220.401 369.235C220.668 368.552 220.168 368.735 219.879 368.626C218.479 368.101 216.843 367.981 215.419 367.513C215.147 369.365 213.141 369.957 212.013 371.609C210.885 373.261 209.52 376.988 209.302 378.883C208.921 382.197 209.549 388.622 208.48 391.503C207.5 394.152 204.68 393.585 204.288 391.105C203.897 388.625 204.052 381.602 204.373 378.946C204.958 374.053 207.92 369.848 211.184 366.361L211.177 366.375ZM279.984 365.991L275.549 367.125C273.962 372.845 273.659 378.256 275.182 384.032C275.718 386.065 279.068 392.116 274.431 391.334C272.464 391.003 270.292 384.737 269.802 382.88C268.48 377.879 268.596 373.335 269.605 368.291L264.697 369.147C261.813 375.469 261.104 379.95 263.949 386.42C267.077 393.539 275.26 401.742 276.099 409.231C277.611 422.725 265.956 431.041 274.921 446.124C278.126 451.516 281.539 451.467 285.932 455.095C288.643 457.332 294.422 462.809 294.224 466.398C294.129 468.127 291.171 472.284 293.71 473.052C297.211 474.112 299.241 468.969 299.805 466.239C302.164 454.81 292.543 451.175 286.972 443.686C281.402 436.198 279.48 425.8 282.279 416.473C283.838 411.274 286.538 407.783 286.151 401.88C285.795 396.459 282.276 392.169 280.361 387.311C277.693 380.534 276.071 372.648 279.984 365.991ZM238.47 370.214L228.168 369.911C225.805 374.392 224.892 379.95 225.403 384.994C225.7 387.917 227.6 390.221 228.661 392.877C234.119 406.568 228.245 421.09 230.97 435.5C232.857 445.475 238.575 453.341 240.588 462.375C242.309 470.1 238.653 484.855 245.757 489.853C249.209 492.283 252.234 489.677 254.427 486.961C255.35 485.816 257.935 482.375 256.313 481.23C253.344 479.128 251.486 485.492 249.008 485.799C245.715 486.207 244.946 482.808 246.924 480.618C247.573 479.899 249.776 479.05 249.921 478.279C249.494 474.947 248.898 471.357 249.276 467.99C249.752 463.749 252.283 459.026 252.689 454.503C252.932 451.784 252.932 446.891 252.646 444.186C252.043 438.445 248.13 433.859 247.703 428.005C247.143 420.368 250.968 416.917 252.801 410.453C255.001 402.711 250.619 398.104 249.039 390.953C247.777 385.24 247.936 379.83 250.7 374.561L253.845 369.834L240.01 370.221C242.013 372.296 240.038 374.613 240.01 376.938C239.95 382.863 244.001 391.651 244.569 398.107C245.225 405.568 243.624 412.19 241.064 419.083C240.373 420.939 238.745 425.43 237.662 426.818C236.471 428.346 233.978 427.223 233.953 425.388C237.229 416.219 240.684 407.346 239.125 397.399C237.757 388.675 232.501 378.322 238.47 370.218V370.214Z" fill="black" stroke="black" stroke-width="4"/>
<path d="M228.22 267.803C226.912 269.163 225.774 273.904 226.514 275.58C227.625 278.088 229.701 275.651 231.379 275.38C232.455 275.207 233.953 275.302 235.032 275.524C240.754 276.707 245.133 285.436 251.557 280.941C255.008 278.525 255.766 273.463 259.095 271.216C263.198 271.544 258.612 277.549 259.014 278.437C259.955 280.497 266.717 278.462 266.816 274.714C266.862 273.041 263.22 271.487 264.401 269.596C265.931 267.141 270.567 272.03 270.775 274.4C271.399 281.434 262.67 285.496 257.49 280.829C254.204 284.763 249.924 286.246 244.816 285.725C240.853 285.319 237.902 281.931 234.397 281.537C231.612 281.219 229.416 283.22 226.472 282.96C217.788 282.195 217.654 268.613 223.732 264.288C226.08 262.618 233.227 260.896 234.189 259.374C234.961 258.148 235.356 255.778 235.663 254.32C239.432 236.447 238.907 218.427 224.25 205.655C207.43 190.999 187.971 197.529 170.421 206.804C167.713 208.234 162.269 212.936 159.449 211.252C155.874 209.118 162.696 205.617 164.402 204.634C182.743 194.095 200.946 186.86 221.691 197.071C241.974 207.057 245.14 225.972 241.42 246.63C240.694 250.656 239.012 260.698 236.135 263.238C234.253 264.901 230.159 265.792 228.217 267.807L228.22 267.803Z" fill="black" stroke="black" stroke-width="4"/>
<path d="M284.522 190.601C293.142 189.928 301.875 191.643 309.723 195.148C314.246 197.17 324.397 203.341 328.645 203.894C331.293 204.239 336.849 203.14 335.168 208.177C334.568 209.977 329.534 211.154 327.799 211.185C321.129 211.309 310.463 202.887 303.638 200.46C291.425 196.113 277.615 198.093 265.885 203.091C251.514 209.213 252.914 218.466 254.233 232.15C254.962 239.702 255.802 247.247 256.542 254.806C256.715 256.584 258.569 262.826 256.923 263.647C255.639 264.288 254.955 263.833 254.42 262.685C251.433 256.289 248.754 239.142 248.08 231.766C245.63 204.88 258.114 192.665 284.518 190.601H284.522Z" fill="black" stroke="black" stroke-width="4"/>
<path d="M293.442 222.746C297.08 229.699 288.079 237.3 281.638 233.957C277.601 231.861 276.067 228.149 278.063 223.897C276.727 222.784 269.115 230.741 267.782 231.097C263.689 232.189 265.138 227.842 266.714 225.803C273.589 216.902 287.314 216.028 297.366 218.624C307.707 221.294 315.484 229.582 326.516 227.173C327.799 226.895 329.231 225.38 330.341 226.779C327.895 232.53 318.474 230.688 313.711 229.174C307.005 227.039 301.064 222.654 293.438 222.742L293.442 222.746ZM281.998 229.181C283.951 231.136 289.342 229.547 289.014 226.183C286.729 223.446 281.032 223.274 281.553 227.899C281.596 228.283 281.733 228.917 281.998 229.181Z" fill="black" stroke="black" stroke-width="4"/>
<path d="M224.536 229.177C222.41 231.259 218.186 226.046 216.297 224.736C214.943 223.795 213.49 222.957 211.95 222.362C216.61 237.842 191.413 235.563 196.567 221.21C196.253 220.925 189.22 222.355 188.197 222.636C181.068 224.598 175.692 229.329 167.547 229.273C165.915 229.262 158.899 227.874 159.667 225.25C160.133 223.672 162.647 225.56 163.408 225.726C173.604 227.938 179.492 221.488 188.201 218.413C198.626 214.732 208.858 214 218.447 220.277C220.207 221.428 227.022 226.74 224.536 229.174V229.177ZM203.77 222.834C203.033 222.985 200.999 224.186 200.865 224.912C201.33 226.976 202.688 228.406 204.874 228.466C210.18 228.607 209.559 221.643 203.77 222.834Z" fill="black" stroke="black" stroke-width="4"/>
<path d="M257.335 298.806C256.451 301.846 253.411 304.558 250.196 304.928C244.157 305.622 242.295 302.508 237.444 300.018C231.662 303.692 224.473 305.745 217.57 305.263C215.549 305.122 205.914 303.576 208.459 300.099C209.82 298.239 214.555 299.976 216.759 299.965C220.228 299.948 227.582 298.968 230.872 297.912C232.804 297.292 234.584 295.802 236.731 295.682C242.683 295.355 246.099 304.09 253.055 299.335C254.494 298.352 255.96 295.344 257.501 295.355C258.756 295.362 264.105 297.943 265.853 298.503C269.897 299.8 270.416 299.708 274.424 298.408C275.969 297.908 278.253 295.964 279.833 297.214C282.593 299.398 275.933 302.949 274.22 303.583C266.002 306.622 264.281 300.885 257.339 298.813L257.335 298.806Z" fill="black" stroke="black" stroke-width="4"/>
<path d="M248.465 320.676C248.532 321.278 249.036 321.268 249.463 321.405C252.297 322.317 254.801 322.12 257.498 324.131C260.382 326.28 261.313 330.2 256.74 329.908C253.546 329.704 249.167 327.935 245.532 327.636C243.141 327.439 240.338 327.925 238.071 327.397C235.304 326.755 235.187 323.201 237.691 322.007L242.309 320.676C239.982 320.436 232.3 318.091 231.352 316.058C229.303 311.662 237.966 315.255 239.217 315.509C245.003 316.675 250.485 316.227 255.777 313.579C257.731 312.603 260.615 309.729 261.898 309.313C263.925 308.658 264.514 310.327 263.749 311.93C261.023 317.626 254.529 320.429 248.465 320.676Z" fill="black" stroke="black" stroke-width="4"/>
<path d="M320.251 219.576C320.004 219.822 319.324 220.037 318.971 220.037C317.205 220.051 311.973 215.169 309.699 213.982C298.215 207.973 278.179 211.171 267.715 218.357C266.403 219.255 262.575 223.359 261.732 223.123C260.036 222.654 263.1 218.875 263.678 218.163C275.676 203.426 304.643 201.749 318.439 214.852C319.482 215.842 321.598 218.227 320.251 219.572V219.576Z" fill="black" stroke="black" stroke-width="4"/>
<path d="M193.034 204.426C203.943 203.461 218.687 207.716 225.946 216.247C226.662 217.085 230.325 221.626 227.896 221.604C226.363 220.928 225.375 219.188 224.046 218.142C213.184 209.586 191.55 206.039 179.302 212.978C177.522 213.986 172.48 218.336 171.295 218.441C166.705 218.861 170.929 213.743 172.61 212.436C178.255 208.047 185.891 205.053 193.031 204.419L193.034 204.426Z" fill="black" stroke="black" stroke-width="4"/>
<path d="M179.538 334.188C182.189 333.371 188.916 338.323 191.564 339.69C200.015 344.051 208.685 346.749 217.693 349.683C218.849 350.06 220.591 349.598 221.091 351.285C221.8 353.67 219.886 354.572 217.858 354.804C212.577 355.407 199.148 350.352 194.117 347.89C191.441 346.583 180.708 340.204 179.073 338.341C177.987 337.105 177.775 334.727 179.538 334.185V334.188Z" fill="black" stroke="black" stroke-width="4"/>
<path d="M343.644 252.344C345.59 251.702 346.379 255.345 346.503 256.715C347.769 270.793 341.75 285.186 335.157 297.253C334.399 298.637 331.871 303.628 330.747 303.998C329.068 304.548 327.849 303.163 328.286 301.561C335.432 287.095 341.687 274.738 343.044 258.282C343.146 257.039 342.536 252.706 343.644 252.344Z" fill="black" stroke="black" stroke-width="4"/>
<path d="M221.465 232.819C223.616 234.968 218.944 239.314 217.069 240.339C210.56 243.9 196.44 242.234 189.777 239.321C186.251 237.779 183.236 234.876 179.672 233.288L178.868 231.787C179.097 230.582 180.162 230.174 181.287 230.498C185.912 232.238 190.947 234.689 195.601 236.186C201.14 237.969 211.001 237.835 216.053 234.721C217.414 233.883 219.575 230.935 221.462 232.819H221.465Z" fill="black" stroke="black" stroke-width="4"/>
<path d="M304.882 232.414C306.853 232.196 307.939 233.499 307.075 235.411C306.804 236.014 301.067 240.138 300.091 240.72C294.58 243.995 280.132 244.95 274.227 242.516C272.108 241.642 265.895 236.951 268.635 234.26C270.331 232.594 272.439 235.531 273.878 236.334C279.293 239.356 290.025 239.328 295.737 237.141C298.645 236.024 301.709 232.77 304.882 232.418V232.414Z" fill="black" stroke="black" stroke-width="4"/>
<path d="M144.948 287.718C146.009 287.401 147.44 287.69 148.082 288.658C151.015 294.065 153.156 299.877 156.008 305.319C158.137 309.38 161.564 313.677 163.422 317.506C164.353 319.426 162.625 321.483 160.813 320.905C158.328 320.113 154.978 314.558 153.702 312.233C151.354 307.961 145.099 295.013 144.098 290.722C143.851 289.659 143.59 288.123 144.951 287.718H144.948Z" fill="black" stroke="black" stroke-width="4"/>
<path d="M264.51 138.706C265.448 138.544 271.361 139.992 272.679 140.372C280.894 142.725 290.762 148.477 298.018 153.077C299.813 154.215 305.172 157.375 306.321 158.604C307.41 159.766 306.575 161.059 305.351 160.763C296.382 155.318 286.976 149.985 277.107 146.315C273.585 145.008 267.102 143.814 264.253 142.26C263.421 141.806 262.899 140.968 263.051 139.999C263.125 139.27 263.861 138.819 264.514 138.706H264.51Z" fill="black" stroke="black" stroke-width="4"/>
<path d="M173.781 173.274C176.651 172.404 178.579 175.648 176.968 178.005C176.062 179.329 171.701 181.591 170.043 182.989C167.727 184.944 159.9 194.606 157.905 194.715C156.096 194.813 155.493 192.76 155.997 191.228C156.304 190.294 159.576 186.367 160.447 185.307C162.442 182.88 165.347 179.59 167.734 177.61C168.393 177.064 173.421 173.38 173.777 173.271L173.781 173.274Z" fill="black" stroke="black" stroke-width="4"/>
<path d="M410.582 166.191C410.78 165.997 410.804 165.208 411.217 164.726C413.597 161.95 418.141 167.878 414.245 170.044C411.287 171.693 404.448 171.242 400.922 171.711C396.758 172.267 390.655 174.454 387.105 176.726C386.022 177.42 382.715 180.731 382.359 180.826C381.104 181.168 380.829 179.963 381.28 178.974C382.973 175.25 393.134 170.559 397.054 169.382C399.233 168.731 409.775 166.98 410.579 166.188L410.582 166.191Z" fill="black" stroke="black" stroke-width="4"/>
<path d="M373.654 189.812C375.367 189.734 375.942 191.457 375.621 192.894C375.022 195.599 365.989 199.871 363.183 198.191C362.125 195.162 366.426 194.722 368.514 193.478C370.079 192.545 372.233 189.875 373.654 189.812Z" fill="black" stroke="black" stroke-width="4"/>
<path d="M376.179 249.152C375.064 248.085 375.882 246.736 377.413 246.535C379.299 246.289 383.438 246.725 385.5 246.94C390.204 247.43 398.676 248.821 402.505 251.456C403.658 252.248 405.903 254.073 405.695 255.552C405.276 258.529 401.479 255.616 400.019 255.091C396.592 253.862 392.379 252.534 388.853 251.653C386.939 251.174 376.644 249.596 376.179 249.149V249.152Z" fill="black" stroke="black" stroke-width="4"/>
<path d="M413.089 259.515C411.752 258.374 413.223 256.81 414.739 256.56C420.496 255.605 427.724 256.856 434.147 255.598C435.766 255.281 440.24 252.967 440.67 255.2C441.036 257.092 439.538 257.634 438.093 258.391C433.312 260.892 425.83 260.642 420.464 260.396C419.35 260.343 413.497 259.867 413.085 259.515H413.089Z" fill="black" stroke="black" stroke-width="4"/>
<path d="M311.398 94.1492C312.487 93.8498 313.496 94.5578 313.365 95.7202C313.147 97.6997 311.042 101.173 310.467 103.617C308.482 112.043 309.677 117.206 305.182 125.604C304.174 127.488 298.318 137.192 296.029 132.405C294.989 130.228 297.077 129.989 298.254 128.668C307.223 118.594 304.48 113.987 307.072 102.532C307.438 100.916 309.875 94.5719 311.398 94.1528V94.1492Z" fill="black" stroke="black" stroke-width="4"/>
<path d="M287.039 79.6262C287.205 79.3761 287.794 79.2458 288.143 78.6329C289.239 76.7203 290.649 71.937 292.084 70.6584C293.625 69.2847 295.927 69.9328 296.153 71.9969C296.41 74.3111 293.872 82.2468 292.303 83.934C289.028 87.4493 284.247 83.8072 287.039 79.6297V79.6262Z" fill="black" stroke="black" stroke-width="4"/>
<path d="M367.896 88.3936C369.374 87.9639 369.867 89.0699 369.48 90.3626C369.328 90.8627 366.557 93.6137 365.933 94.5083C362.03 100.105 364.685 105.723 363.221 112.155C360.119 125.811 346.196 127.537 337.086 135.607L336.113 135.783C335.711 135.381 335.147 135.131 335.51 134.416C335.704 134.032 338.612 131.243 339.18 130.76C346.263 124.719 358.754 121.951 360.285 111.521C361.004 106.607 359.794 99.5769 361.794 95.3642C362.418 94.0504 366.74 88.7282 367.9 88.3901L367.896 88.3936Z" fill="black" stroke="black" stroke-width="4"/>
<path d="M330.592 142.951C334.163 142.623 331.008 151.056 329.897 152.598C329.354 153.352 328.995 153.863 327.923 153.563C326.442 152.884 326.858 151.454 327.055 150.14C327.295 148.548 328.864 143.109 330.592 142.951Z" fill="black" stroke="black" stroke-width="4"/>
<path d="M347.885 324.174C349.69 323.537 354.979 326.869 356.608 328.031C360.535 330.838 364.812 335.449 367.403 339.521C368.845 341.786 373.626 348.612 369.032 349.394C367.308 349.232 362.816 341.645 361.29 339.87C359.312 337.569 356.424 334.885 354.179 332.765C352.765 331.427 346.902 327.383 347.05 325.629C347.092 325.143 347.378 324.357 347.882 324.178L347.885 324.174Z" fill="black" stroke="black" stroke-width="4"/>
<path d="M159.551 87.6365C162.185 86.8334 163.087 89.7886 163.644 91.8457C164.025 93.2511 165.499 99.7462 165.453 100.81C165.33 103.677 162.012 104.839 160.351 102.05C159.29 100.264 157.608 93.6632 157.742 91.6061C157.816 90.4896 158.384 87.9923 159.548 87.6365H159.551Z" fill="black" stroke="black" stroke-width="4"/>
<path d="M316.39 386.019C318.343 385.438 320.677 388.266 321.894 389.598C324.905 392.891 328.117 397.798 329.382 402.084C329.915 403.884 331.695 411.242 329.96 412.267C326.449 414.342 326.05 407.526 325.444 405.635C324.277 402.01 322.726 399.059 320.505 395.977C319.387 394.423 311.888 387.354 316.39 386.019Z" fill="black" stroke="black" stroke-width="4"/>
<path d="M83.2662 183.098C82.212 181.422 83.0089 179.333 85.1771 179.812C86.2031 180.037 91.0438 182.468 92.2708 183.126C99.0541 186.768 104.558 192.073 112.367 193.771C114.92 194.327 124.139 194.859 125.384 196.902C126.459 198.67 124.897 200.298 123.011 200.065C115.515 198.072 108.351 197.416 101.504 193.482C97.115 190.96 90.5643 185.497 86.2242 183.789C85.2688 183.412 84.1547 183.704 83.2662 183.098Z" fill="black" stroke="black" stroke-width="4"/>
<path d="M148.795 132.954C151.989 131.982 157.975 135.589 160.063 138.051C161.381 139.608 164.85 145.561 162.968 147.121C161.346 148.467 159.826 144.124 158.836 142.736C157.256 140.517 155.588 138.932 153.152 137.664C151.957 137.044 149.345 136.445 148.537 135.748C147.589 134.927 147.416 133.377 148.795 132.954Z" fill="black" stroke="black" stroke-width="4"/>
<path d="M78.4612 250.846C82.1384 250.11 82.7202 254.576 79.4625 256.478C75.8028 258.616 62.8707 258.729 58.3825 258.451C57.2861 258.384 54.4091 258.155 53.5524 257.898C51.9517 257.419 51.0069 255.661 52.2444 254.242C53.4819 252.822 59.0172 253.59 61.0867 253.477C65.6948 253.22 71.6214 252.946 76.0426 251.903C76.9593 251.688 77.7349 250.987 78.4647 250.843L78.4612 250.846Z" fill="black" stroke="black" stroke-width="4"/>
<path d="M209.552 61.9058C213.642 61.4232 218.352 70.4615 219.35 73.8324C220.496 77.7034 220.708 82.5853 220.418 86.6184C220.341 87.6891 220.013 91.0142 218.994 91.3488C215.49 92.5006 216.738 85.9209 216.554 83.9203C216.008 77.964 213.402 70.9617 209.464 66.4285C208.907 65.7874 207.603 65.3894 207.384 64.6356C206.961 63.1703 208.23 62.0643 209.552 61.9058Z" fill="black" stroke="black" stroke-width="4"/>
<path d="M219.731 122.412C219.195 121.894 216.096 114.899 215.609 113.666C213.529 108.369 212.701 103.525 213.949 97.8227C214.121 97.0267 214.763 96.1355 215.616 96.0087C220.108 95.8185 218.003 100.352 218.183 102.997C218.479 107.301 223.866 119.031 223.017 121.855C222.629 123.141 220.549 123.201 219.727 122.412H219.731Z" fill="black" stroke="black" stroke-width="4"/>
<path d="M325.232 341.462C325.694 341.331 326.075 341.423 326.516 341.567C327.573 341.912 330.003 347.03 331.117 348.506C332.435 350.246 337.907 354.808 338.038 356.224C338.147 357.421 337.142 358.101 336.003 357.868C334.018 357.46 328.8 352.007 327.489 350.211C326.41 348.732 321.918 342.398 325.229 341.462H325.232Z" fill="black" stroke="black" stroke-width="4"/>
</svg>
