<svg width="825" height="162" viewBox="0 0 825 162" fill="none" xmlns="http://www.w3.org/2000/svg">
<path d="M732.14 71.0313C734.356 69.57 736.25 67.7191 738.481 66.2691C740.284 65.0967 742.201 64.0673 744.162 63.1816C746.554 59.3829 749.431 55.8668 751.881 52.1145C752.507 51.1539 752.965 50.0667 753.588 49.104C758.15 42.0605 762.147 36.8105 762.172 27.8663C762.173 27.4847 762.159 25.7937 762.055 25.595C761.825 25.157 760.53 26.2057 760.258 26.4218C757.88 28.3105 755.177 32.8232 753.329 35.3603C751.481 37.8973 749.524 39.5632 748.114 42.4641C745.488 47.8723 747.014 53.6966 745.169 59.6518C744.912 60.4833 744.083 62.2884 742.976 61.5705C742.159 61.0396 742.73 60.0599 742.733 59.2016C742.744 55.9976 741.512 53.9382 742.2 50.4599C743.549 43.6291 746.51 40.1115 750.053 34.5472C750.948 33.1411 751.573 31.5412 752.428 30.16C753.952 27.6994 757.635 23.659 760.321 22.5918C765.482 20.5401 765.549 27.4425 765.48 30.8073C765.247 42.2221 758.951 51.9519 751.712 60.2251C751.58 60.3748 751.342 60.2891 751.531 60.6435C753.927 59.4892 756.607 58.8704 758.915 57.5316C764.622 54.2207 767.678 48.2684 772.619 44.137C775.54 41.6953 780.186 38.5892 783.481 36.6223C787.868 34.003 795.266 31.4722 799.689 35.2175C803.02 38.0385 797.804 42.578 795.673 44.3975C791.295 48.1333 787.832 48.85 782.971 51.3316C777.532 54.1083 772.791 57.4549 766.68 59.0307C765.315 59.3829 764.031 58.8427 762.744 59.365L751.662 64.9385C751.673 65.1364 751.85 65.0553 751.996 65.0651C754.025 65.2079 756.056 65.2462 758.079 65.4951C762.359 66.0222 767.016 67.2241 771.327 67.1217C777.015 66.9877 788.183 62.5731 792.866 66.121C797.295 69.4755 792.546 74.2885 789.359 76.3022C783.627 79.9265 777.398 82.3705 770.679 80.3933C762.548 78.0001 754.886 72.4422 746.67 70.5093C745.364 70.2011 741.904 69.7668 740.723 70.2318C737.317 72.4878 734.239 74.4637 731.845 77.8336C731.692 78.0482 730.067 80.5536 730.296 80.6403C731.61 80.3038 733.057 79.9356 734.417 79.885C735.397 79.8486 736.455 80.0957 737.459 80.0978C746.002 80.1184 751.854 80.3332 760.013 83.2792C764.664 84.9589 768.292 86.5547 772.269 89.5288C775.032 91.5964 776.358 95.9144 772.41 97.4563C770.753 98.1034 767.595 98.4081 765.765 98.4782C760.611 98.6761 755.346 96.3193 750.93 93.8782C749.803 93.2562 748.609 92.1685 747.581 91.6347C746.758 91.2065 745.628 91.1752 744.677 90.6669C741.961 89.2152 740.448 88.2023 738.289 86.0438C737.656 85.4112 735.258 84.1679 734.396 84.0352C732.703 83.7735 730.471 84.374 728.687 83.7717C725.821 87.7798 725.533 93.0206 723.236 97.3554C724.678 96.4437 726.022 95.7799 727.699 95.3811C733.23 94.0668 739.919 92.8291 745.338 94.8526C748.633 96.0836 756.04 101.436 757.291 104.718C758.495 107.877 756.069 111.853 753.108 113.049C745.579 116.087 735.807 108.735 734.437 101.226C734.266 100.29 734.634 97.8049 734.434 97.3538C734.251 96.9403 733.177 97.2266 732.697 97.3036C730.013 97.7339 728.647 99.1256 726.261 99.9596C724.853 100.451 722.102 100.808 721.021 101.658C720.697 101.913 719.31 104.514 719.008 105.081C718.037 106.908 717.268 108.857 716.295 110.682C715.21 112.721 713.957 114.666 712.689 116.594C716.531 115.335 720.666 114.922 724.692 114.646C726.856 114.497 729.31 114.366 731.469 114.471C736.672 114.722 742.637 117.49 747.726 118.837C750.947 119.69 758.23 119.531 759.588 123.308C761.139 127.619 754.927 129.375 751.91 130.41C750.168 131.007 747.306 132.003 745.565 132.297C743.36 132.671 736.118 131.159 733.965 130.246C733.167 129.907 732.362 129.353 731.604 129.044C725.484 126.551 718.438 126.142 712.1 124.415C710.549 123.992 709.119 123.394 707.901 122.319L702.009 127.727L696.558 131.237C697.538 131.322 698.517 131.001 699.472 130.955C701.793 130.844 705.968 131.347 708.053 132.343C708.897 132.747 709.578 133.382 710.387 133.797C715.432 136.387 724.795 137.795 727.697 142.895C729.058 145.286 729.268 148.181 726.158 149.093C720.768 149.315 715.498 149.533 710.262 148.002C706.802 146.991 702.202 145.477 698.858 144.168C695.341 142.791 693.017 140.41 689.024 140.249C688.778 140.239 688.29 140.192 688.099 140.297C687.688 140.884 687.266 141.507 686.704 141.966C685.207 143.19 681.139 145.297 679.282 145.644C678.569 145.777 677.091 145.531 676.973 144.628C676.927 144.278 677.43 142.48 677.629 142.18C678.159 141.384 678.991 141.24 679.023 139.929C679.083 137.516 676.304 133.198 675.282 130.846C672.439 124.306 669.593 115.866 668.489 108.84C667.552 102.869 668.518 90.3285 672.04 85.3176C674.338 82.0457 677.408 82.982 679.436 85.9125C684.05 92.5809 682.192 99.7456 684.82 106.902C686.799 112.292 689.081 117.691 688.798 123.588C688.657 126.519 687.865 129.488 687.343 132.368L686.201 136.462L697.064 127.103C697.071 125.32 696.751 123.541 696.691 121.763C696.609 119.335 696.693 117.734 696.355 115.243C696.275 114.663 696.249 113.011 696.09 112.634C695.877 112.132 693.499 111.743 692.738 111.304C688.119 108.642 683.97 98.9069 686.613 93.8661C688.841 89.6173 692.391 89.0746 696.692 90.1685C701.229 91.3224 703.359 93.506 703.918 98.3468C704.291 101.584 703.271 109.623 700.545 111.658C699.475 112.459 698.409 112.309 698.7 114.005C699.089 116.276 699.567 118.515 699.778 120.831C699.899 122.159 699.948 123.478 699.867 124.806C703.246 121.882 706.604 118.765 709.033 114.976C710.48 112.719 709.861 112.112 710.006 109.671C710.389 103.212 710.608 96.6154 711.399 90.1909C711.927 85.9006 713.289 81.6197 712.367 77.2658C710.496 68.43 705.506 60.7256 702.394 52.3868L700.526 48.773C699.832 49.6743 699.761 51.0897 699.673 52.2109C699.254 57.6214 698.714 62.7976 701.419 67.6715C703.877 72.1013 707.059 76.5535 709.404 81.0062C711.387 84.7678 711.312 88.6024 710.643 92.6873C710.541 93.3097 710.564 94.1594 709.776 94.1401C709.066 94.1231 708.931 91.9331 708.727 91.2451C706.34 83.1621 701.416 76.5337 697.248 69.4413C693.593 63.2231 691.549 55.1598 695.995 48.822C697.142 47.1864 699.829 44.9176 701.542 47.0908C702.865 48.7687 704.177 51.3335 705.46 53.1703C706.894 55.2237 708.763 57.2409 709.993 59.4033C712.896 64.5062 716.644 72.1788 717.448 77.9361C718.182 83.1913 716.238 87.3668 715.426 92.3684C715.059 94.6275 715.032 96.9398 714.664 99.1989C714.297 101.458 713.414 103.809 713.473 106.138C713.478 106.295 713.445 106.654 713.631 106.697C714.579 104.7 715.481 102.674 716.461 100.694C717.648 98.2977 718.986 95.9515 720.085 93.5029C721.405 90.5643 722.253 87.3813 723.674 84.5334C725.094 81.6855 727.124 77.9578 728.873 75.1943C729.251 74.5975 729.759 73.9774 730.232 73.4509C729.75 71.4758 729.285 69.4835 729.259 67.4458C729.254 67.0301 729.463 65.1303 729.408 65.0023C729.329 64.8169 728.923 64.6121 728.787 64.2292C728.309 62.8741 728.162 61.6645 727.478 60.1697C725.944 56.8252 723.666 53.6506 722.408 50.1481C720.12 43.7779 721.387 38.2004 721.572 31.7723C721.683 27.9026 720.796 21.4041 724.292 18.7922C728.978 15.2909 733.129 20.3242 734.98 24.371C737.472 29.826 737.471 34.8063 737.528 40.6392C737.595 47.4433 737.659 55.2101 734.818 61.4769C734.419 62.3582 733.793 63.2565 733.398 64.1818C732.456 66.3833 732.209 68.6361 732.133 71.0176L732.14 71.0313ZM730.162 62.1673C731.762 59.5146 732.928 56.937 733.322 53.8333C733.846 49.701 733.752 44.2862 733.648 40.0725C733.518 34.8526 733.108 31.3514 730.513 26.6822C730.105 25.9474 727.923 22.4957 727.126 22.5414C726.635 22.5683 726.445 25.0809 726.434 25.529C726.359 28.6278 727.256 32.005 727.463 35.1401C727.763 39.6659 727.028 44.8271 727.96 49.2514C728.678 52.6635 729.412 54.7875 729.761 58.3647C729.885 59.6349 730.141 60.8876 730.163 62.1669L730.162 62.1673ZM796.12 37.6814C792.725 38.4883 789.552 39.5051 786.468 41.1404C779.822 44.6634 774.228 49.0794 768.523 53.8744L766.808 55.4148C772.045 53.4029 776.514 49.8194 781.405 47.1602C785.98 44.6729 792.82 42.6221 795.964 38.2375C796.09 38.0614 796.238 37.9198 796.118 37.6832L796.12 37.6814ZM682.998 136.752C683.26 136.513 683.277 136.046 683.334 135.715C683.898 132.476 684.918 123.737 684.412 120.743C683.188 113.51 679.406 107.878 678.824 100.563C678.45 95.864 679.17 92.9479 676.862 88.3855C676.671 88.0082 675.941 86.4168 675.439 86.5543C675.051 86.7851 674.945 87.3216 674.82 87.7325C673.255 92.8579 673.424 105.797 674.604 111.049C675.844 116.564 677.8 121.97 679.661 127.284C680.619 130.021 682.059 133.051 682.855 135.68C682.962 136.032 682.861 136.408 682.997 136.754L682.998 136.752ZM790.517 69.5238C790.56 69.4168 790.218 69.3349 790.115 69.3055C788.527 68.8532 782.238 70.4046 780.176 70.7144C773.443 71.7244 768.051 71.7524 761.337 70.6768C757.311 70.0318 753.467 68.0749 749.329 68.4163C751.469 69.1996 753.745 69.5831 755.882 70.3796C762.03 72.6701 771.531 78.9151 778.172 76.4875C780.098 75.7842 782.16 74.4396 783.988 73.4767C786.269 72.2761 788.659 71.4238 790.517 69.5238ZM695.123 95.5066C694.87 95.3597 694.875 95.5886 694.903 95.7879C694.974 96.2866 695.231 97.1001 695.394 97.6033C695.893 99.1397 696.621 100.652 697.112 102.197C697.604 103.741 697.828 105.253 698.414 106.699C698.653 106.095 698.664 105.273 698.668 104.617C698.679 102.393 698.202 99.7926 696.982 97.9031C696.45 97.0807 695.583 96.3921 695.123 95.5066ZM770.49 93.3758C770.69 93.0255 769.161 92.3611 768.892 92.1734C767.799 91.4145 766.824 90.4942 765.594 89.944C759.547 88.2109 753.756 85.3011 747.475 84.5285C745.308 84.2613 742.861 84.2112 740.68 84.2218C740.691 84.5642 741.184 84.5693 741.438 84.635C742.793 84.9875 744.474 85.1963 745.756 85.6933C750.334 87.4725 754.465 90.0136 758.975 91.8971C762.703 93.4546 766.474 93.8769 770.491 93.374L770.49 93.3758ZM751.972 102.031C749.471 99.583 746.318 97.7747 742.985 96.7265C742.844 96.6827 742.731 96.5377 742.613 96.7508C741.763 98.5444 742.061 98.7693 743.596 99.7682C745.93 101.287 749.194 102.133 751.972 102.031ZM718.523 122.092C719.904 122.15 721.372 122.308 722.711 122.659C723.644 122.904 724.735 123.502 725.628 123.709C727.728 124.193 728.232 124.352 730.241 125.072C731.102 125.381 732.134 125.506 732.965 125.842C734.485 126.456 735.463 127.346 737.251 127.778C738.129 127.991 738.859 127.925 739.66 128.074C740.991 128.321 742.185 128.968 743.56 129.043C745.527 129.149 749.047 127.883 751.037 127.224C752.399 126.773 754.074 126.244 755.382 125.718C758.541 124.449 756.494 123.362 754.351 123.054C752.207 122.747 750.137 123.096 748.053 123.005C743.518 122.806 738.725 121.151 734.346 120.125C729.59 119.011 724.717 120.41 720.044 121.382L718.522 122.094L718.523 122.092ZM724.295 145.895C723.297 143.929 720.983 143.333 719.044 142.673C715.252 141.38 711.827 140.858 708.298 138.711C706.992 137.917 706.076 136.63 704.578 136.191C702.165 135.486 699.631 135.921 697.176 136.023C696.259 136.061 695.017 135.853 694.156 135.966C693.216 136.09 691.875 136.918 690.822 136.997C690.856 137.415 690.989 137.191 691.211 137.229C700.536 138.776 709.666 145.621 719.336 146.063C720.924 146.135 722.693 145.957 724.293 145.894L724.295 145.895Z" fill="white"/>
<path d="M106.05 136.475C106.225 137.35 106.4 138.225 106.4 139.1C106.225 139.275 106.225 139.275 106.225 139.45C106.225 139.625 106.225 139.625 106.225 139.8C106.05 139.975 106.05 140.15 105.875 140.325C105.7 140.675 105.35 141.025 105.175 141.375C105 141.375 104.825 141.375 104.825 141.55C104.65 141.55 104.475 141.725 104.475 141.725C104.125 141.9 103.95 141.9 103.775 142.075C103.425 142.075 103.25 142.075 103.075 142.25C102.9 142.25 102.55 142.25 102.375 142.25C101.675 142.425 100.8 142.425 100.275 142.425C99.75 142.425 99.4 142.6 98.875 142.6C98.525 142.6 98.175 142.6 97.825 142.6C96.95 142.6 96.25 142.6 95.55 142.6C94.15 142.775 92.75 143.3 91 143.3C90.3 143.3 89.6 143.3 88.725 143.125C88.375 143.125 87.85 143.125 87.5 142.95C87.325 142.95 87.15 142.95 86.975 142.95C86.8 142.775 86.625 142.775 86.45 142.775L86.275 142.6H86.1C85.925 142.425 85.75 142.25 85.575 142.25C84.875 141.55 84.35 140.85 84 139.975C83.65 139.275 83.3 138.4 83.125 137.35C82.95 136.65 82.775 135.775 82.6 135.075C82.425 134.725 82.25 134.375 82.25 134.025L82.075 133.85C82.075 133.675 82.075 133.5 82.075 133.5C81.9 133.325 81.9 133.15 81.725 132.8C81.2 131.4 80.5 130 79.8 128.25C79.625 127.55 79.45 126.675 79.275 125.975C79.1 125.625 79.1 125.1 78.925 124.75V124.575C78.925 124.4 78.925 124.4 78.75 124.4L78.575 124.225C78.575 124.225 78.575 124.225 78.575 124.4H78.225C78.05 124.4 77.875 124.4 77.7 124.4C76.825 124.4 75.95 124.4 75.075 124.4C73.5 124.4 71.925 124.05 70.175 124.05C68.6 124.05 67.025 124.225 65.275 124.225C63.7 124.225 62.125 124.05 60.375 124.05C58.8 124.05 57.225 124.225 55.475 124.225C54.6 124.225 53.9 124.225 53.025 124.225H51.8L51.625 124.05H51.45C51.45 124.225 51.45 124.225 51.45 124.225C51.275 124.225 51.275 124.225 51.275 124.4V124.575V124.75L51.1 124.925C51.1 125.8 50.925 126.675 50.75 127.375C50.4 129.125 50.05 130.7 49.7 132.275C49.175 133.85 48.65 135.425 48.3 137L48.125 137.7L47.95 138.225L47.775 138.575V138.925C47.6 139.275 47.6 139.45 47.425 139.625C47.25 140.15 47.075 140.675 46.725 141.025C46.55 141.375 46.375 141.55 46.025 141.725C45.85 141.9 45.675 142.25 45.325 142.425C45.15 142.425 45.15 142.6 44.975 142.6L44.8 142.775H44.625C44.45 142.95 44.275 142.95 44.1 142.95L43.75 143.125C43.575 143.125 43.4 143.3 43.05 143.3C42.875 143.3 42.7 143.475 42.35 143.475C41.475 143.65 40.6 143.65 39.9 143.825C38.15 144 36.4 144.35 34.825 144.35C33.075 144.35 31.325 144.525 29.575 144.35C28.875 144.175 28.175 144.175 27.475 144C27.125 144 26.775 143.825 26.25 143.825C25.9 143.65 25.55 143.475 25.2 143.3C24.5 142.95 23.975 142.6 23.625 142.075C23.275 141.725 23.1 141.2 22.925 140.85C22.925 140.85 22.925 140.675 22.925 140.5C22.75 140.325 22.75 140.15 22.75 139.975C22.75 139.45 22.575 138.925 22.75 138.4C22.75 137.35 22.75 136.475 22.925 135.775C23.275 134.025 23.45 132.275 23.975 130.7C24.5 129.125 25.025 127.55 25.55 125.975C25.725 125.275 26.075 124.575 26.425 123.875C26.6 123.525 26.775 123 26.775 122.65C26.95 122.475 26.95 122.3 26.95 122.125C27.125 121.95 27.125 121.775 27.3 121.6C27.65 120.025 28.175 118.45 28.525 116.875C29.05 115.3 29.225 113.725 29.75 112.15C30.1 110.575 30.625 109.175 30.975 107.6C31.5 106.025 31.675 104.45 32.2 102.875C32.55 101.3 32.9 99.725 33.25 98.15C33.6 96.575 33.775 95 34.125 93.425C34.65 91.85 35.175 90.275 35.525 88.7C35.7 87.825 35.875 87.125 36.05 86.25C36.225 85.55 36.4 84.675 36.75 83.975C37.1 82.4 37.275 80.825 37.625 79.25C38.15 77.675 38.675 76.1 39.025 74.525C39.375 72.95 39.9 71.375 40.425 69.8C40.775 68.225 41.125 66.65 41.475 65.075C41.825 63.5 42 61.925 42.525 60.35C42.875 58.775 43.05 57.2 43.4 55.625C43.75 54.05 44.275 52.475 44.625 50.9C44.8 50.025 44.975 49.325 45.325 48.45L45.85 46.175C46.375 44.6 46.725 43.025 47.075 41.45C47.425 40.05 48.125 38.475 48.475 36.9C48.825 35.325 49.175 33.75 49.525 32.175C49.875 30.6 50.05 28.85 50.4 27.275C50.925 25.7 51.45 24.125 51.975 22.55L52.325 21.85C52.325 21.85 52.325 21.675 52.5 21.5V21.325C52.675 21.15 52.675 21.15 52.675 20.975C53.025 20.45 53.55 19.925 54.075 19.575C54.6 19.225 55.3 18.875 55.825 18.875C56.35 18.7 56.875 18.525 57.4 18.525H58.625H59.85C60.725 18.525 61.6 18.525 62.3 18.525C64.05 18.525 65.625 18.7 67.2 18.7H67.55H67.9C68.775 18.525 69.825 18.525 70.7 18.875C71.05 19.05 71.225 19.05 71.575 19.225C71.75 19.4 71.925 19.575 72.275 19.75C72.45 19.925 72.625 20.1 72.8 20.275C72.975 20.45 73.15 20.625 73.325 20.8C73.85 21.85 74.2 22.725 74.375 23.6C74.55 24.475 74.55 25.35 74.9 26.05C74.9 26.4 75.075 26.75 75.25 27.275L75.6 28.325C75.775 29.2 76.125 29.9 76.3 30.775C76.825 32.35 77.35 33.75 77.7 35.325C78.225 36.9 78.925 38.475 79.275 39.875C79.8 41.45 79.975 43.2 80.325 44.775C80.85 46.35 81.375 47.75 81.9 49.325C82.25 50.9 82.95 52.475 83.475 53.875C83.825 55.45 84.175 57.2 84.525 58.6C85.05 60.175 85.4 61.75 85.75 63.325C86.275 64.9 86.625 66.475 86.975 68.05C87.5 69.625 88.2 71.025 88.725 72.6C89.25 74.175 89.425 75.75 89.775 77.325C90.3 78.9 91.175 80.3 91.525 81.875C91.875 82.75 92.05 83.45 92.225 84.325C92.225 84.675 92.4 85.025 92.4 85.375C92.575 85.725 92.75 86.075 92.75 86.425C93.1 87.3 93.275 88 93.625 88.875C93.8 89.575 93.975 90.45 94.325 91.15C94.85 93.075 95.55 94.475 96.075 95.875C96.6 97.8 96.95 99.375 97.3 100.775C97.825 102.525 98.35 104.1 98.7 105.5C99.225 107.075 99.75 108.65 100.275 110.4C100.625 111.8 100.625 113.375 101.15 115.3C101.5 116.7 102.2 118.275 102.725 120.2C103.25 122.3 103.6 124.05 103.95 125.45C104.125 126.5 104.3 127.375 104.475 128.25C104.475 129.125 104.65 130 104.825 130.875C105 131.575 105.175 132.45 105.35 133.325C105.35 133.675 105.35 134.2 105.525 134.725C105.525 135.075 105.7 135.6 105.7 136.125V136.3C105.875 136.475 105.875 136.475 105.875 136.475C105.875 136.65 105.875 136.65 105.875 136.65C105.875 136.65 106.05 136.3 106.05 136.475ZM55.65 103.225C55.825 103.225 55.825 103.05 55.825 103.225C55.825 103.05 56.7 102.7 57.05 102.525C57.4 102.35 57.925 102.525 58.1 102.35C58.625 102.35 58.975 102.35 59.325 102.35C59.85 102.35 61.25 102 61.775 102C62.125 102 62.65 101.825 63 101.825C63.35 101.825 63.875 101.825 64.225 101.825C64.75 101.65 66.5 101.65 66.85 101.65C67.375 101.65 68.95 101.65 69.475 101.65C69.825 101.65 71.225 101.65 71.4 101.65H71.575C71.575 101.65 71.575 101.65 71.75 101.65C71.75 101.65 71.75 101.65 71.75 101.475V101.3V101.125V100.95L71.575 100.775C71.4 100.25 71.4 99.9 71.4 99.375C71.225 99.025 71.225 98.675 71.05 98.15C71.05 97.8 70.525 96.05 70.35 95.7C70.35 95.35 70 95 69.825 94.475C69.825 94.125 69.65 93.775 69.475 93.25C69.3 92.9 69.125 92.55 68.95 92.2C68.95 91.675 68.95 91.15 68.775 90.8C68.6 90.45 68.425 90.1 68.25 89.575C68.25 89.225 68.25 88.875 68.075 88.35C67.9 88 67.2 85.2 67.025 84.675C67.025 84.325 67.025 83.975 66.85 83.45C66.675 83.1 66.5 82.75 66.5 82.225C66.325 81.875 66.325 81.525 66.15 81C65.975 80.65 65.45 79.075 65.45 78.725C65.275 78.2 65.1 77.85 64.925 77.5C64.75 76.975 64.225 75.4 64.225 75.05C64.05 74.7 63.7 72.95 63.525 72.6C63.525 72.25 63.175 71.9 63 71.375C63 71.2 62.825 71.025 62.825 70.85C62.65 71.2 61.95 73.125 61.95 73.3C61.775 73.65 61.075 75.225 61.075 75.575C60.9 76.1 60.9 76.45 60.725 76.8C60.55 77.325 60.55 77.675 60.375 78.025C60.375 78.55 59.85 80.125 59.675 80.475C59.5 80.825 59.5 81.35 59.5 81.7C59.325 82.05 58.975 83.8 58.8 84.15C58.8 84.5 58.45 84.85 58.45 85.375C58.275 85.725 58.1 86.075 57.925 86.6C57.925 86.95 57.575 88.525 57.4 89.05C57.4 89.4 57.225 91.15 57.05 91.5C57.05 91.85 56.7 92.2 56.7 92.725C56.525 93.25 56.175 94.825 56.175 95.175C56 95.7 56 96.05 56 96.575C55.825 96.925 55.125 99.9 54.95 100.25C54.95 100.425 54.775 100.6 54.775 100.775C54.775 100.775 54.775 100.775 54.775 100.95C54.6 100.95 54.6 100.95 54.6 100.95C54.6 101.125 54.6 101.3 54.6 101.3C54.425 101.475 54.425 101.65 54.425 101.825C54.425 102 54.6 102.175 54.6 102.35C54.775 102.525 54.775 102.7 54.95 102.875C55.125 103.05 55.475 103.225 55.65 103.225ZM206.959 34.975C207.134 35.85 207.134 36.725 207.134 37.6C206.959 38.475 206.784 39.35 206.434 40.05C205.734 40.925 204.859 41.625 203.984 41.975C203.109 42.325 202.409 42.5 201.534 42.675C201.359 42.675 201.184 42.675 200.834 42.675C200.659 42.675 200.484 42.675 200.134 42.675C199.784 42.85 199.259 42.675 198.909 42.675C198.034 42.675 197.334 42.675 196.634 42.675C195.059 42.675 193.659 43.2 191.734 43.2C190.334 43.2 188.759 42.85 186.659 42.675C185.259 42.675 183.684 42.675 181.759 42.5C181.059 42.5 180.184 42.5 179.309 42.5C179.134 42.5 178.959 42.5 178.784 42.5C178.609 42.5 178.609 42.5 178.609 42.5C178.434 42.675 178.434 42.675 178.434 42.675C178.434 42.85 178.434 43.025 178.434 43.025V43.2L178.609 43.55C178.609 43.9 178.609 44.075 178.609 44.25C178.609 45.125 178.609 46 178.434 47.05C178.434 47.4 178.434 47.925 178.259 48.275C178.259 48.8 178.259 49.15 178.084 49.5C177.909 50.375 177.909 51.25 177.909 52.125C177.734 53.7 177.909 55.45 177.734 57.2C177.734 58.95 177.384 60.7 177.384 62.45C177.384 64.2 177.559 65.95 177.559 67.7C177.559 68.575 177.559 69.45 177.384 70.325C177.384 70.675 177.384 71.2 177.384 71.55C177.384 71.9 177.384 72.425 177.384 72.775C177.384 74.525 177.559 76.275 177.559 78.025C177.559 79.775 177.559 81.525 177.559 83.275C177.559 85.025 177.909 86.775 177.909 88.525C177.909 90.275 177.909 91.85 177.909 93.6C177.909 95.35 177.909 97.1 177.909 98.85C177.909 100.6 178.084 102.35 178.084 104.1C178.259 105.85 178.084 107.6 178.084 109.35C178.084 111.1 178.259 112.85 178.259 114.6C178.259 116.35 178.434 118.1 178.434 119.675C178.434 121.6 178.434 123.35 178.434 124.925C178.434 126.85 178.434 128.6 178.259 130.175C178.259 131.925 178.434 133.675 178.259 135.425C178.259 135.775 178.259 136.3 178.259 136.825L178.084 137.35V137.875V138.05V138.4C177.909 138.75 177.909 139.1 177.734 139.45C177.559 139.8 177.209 140.15 176.859 140.325C176.509 140.675 176.159 140.85 175.809 141.025C175.459 141.2 175.284 141.375 174.934 141.375C174.409 141.55 173.884 141.725 173.359 141.725C173.359 141.725 173.184 141.725 173.009 141.725H172.834L172.134 141.9C171.434 141.9 170.559 142.075 169.684 142.25C167.934 142.6 166.184 143.125 164.434 143.3C163.559 143.475 162.684 143.475 161.634 143.475C161.459 143.65 161.109 143.65 160.934 143.65H160.234C159.884 143.65 159.359 143.475 158.834 143.475C158.309 143.3 157.784 143.3 157.259 142.95C156.559 142.775 156.034 142.425 155.684 142.075C155.159 141.725 154.634 141.2 154.284 140.5C154.109 139.975 153.934 139.45 153.759 138.925C153.584 138.4 153.409 137.875 153.409 137.35C153.409 137.35 153.409 137.175 153.409 137C153.409 136.825 153.409 136.825 153.409 136.65V135.95C153.409 135.6 153.234 135.075 153.234 134.725C153.234 134.2 153.234 133.85 153.234 133.325C153.234 131.75 153.234 130 153.234 128.25C153.234 126.5 152.884 124.75 152.884 123C152.884 121.425 153.059 119.675 153.059 117.925C153.059 116.175 152.884 114.425 152.884 112.675C152.884 111.1 152.709 109.35 152.534 107.6C152.534 105.85 152.709 104.1 152.709 102.35C152.709 100.775 152.884 99.025 152.884 97.275C152.884 95.525 152.884 93.775 152.884 92.025C152.884 90.45 152.709 88.7 152.709 86.95C152.709 85.2 152.534 83.45 152.534 81.7C152.534 80.125 152.534 78.375 152.534 76.625C152.534 74.875 152.709 73.125 152.709 71.375C152.709 69.8 152.534 68.05 152.534 66.3C152.534 64.55 153.059 62.8 153.059 61.05C153.059 60.175 153.059 59.3 153.059 58.6C153.059 57.725 153.059 56.85 153.059 55.975C153.059 55.1 153.059 54.225 152.884 53.35C152.884 52.475 152.884 51.6 152.884 50.725C152.884 49.85 152.884 48.975 153.059 48.1C153.059 47.225 153.059 46.35 153.059 45.65C153.234 45.125 153.234 44.775 153.234 44.25V43.725V43.55C153.234 43.375 153.234 43.375 153.234 43.375C153.059 43.375 153.059 43.375 153.059 43.375H152.884H152.709L151.484 43.55C150.609 43.55 149.734 43.55 148.859 43.725C147.109 43.725 145.359 43.55 143.609 43.55C142.034 43.55 140.284 43.9 138.534 43.9C136.784 43.725 135.034 43.375 133.284 43.375C131.534 43.2 129.784 43.2 128.034 43.025C127.509 43.025 126.984 42.85 126.459 42.85C126.284 42.675 126.284 42.675 126.109 42.675C125.934 42.675 125.934 42.675 125.759 42.5H125.584C125.584 42.5 125.409 42.5 125.409 42.325C125.409 42.325 125.409 42.325 125.234 42.325C125.234 42.325 125.234 42.325 125.234 42.15C125.059 42.15 125.059 42.15 125.059 42.15L124.884 41.975L124.709 41.8V41.625C124.709 41.625 124.709 41.625 124.534 41.625C124.534 41.45 124.359 41.275 124.359 41.1C124.009 40.575 123.834 40.05 123.659 39.525C123.659 39 123.484 38.475 123.484 38.125C123.309 36.375 122.784 34.8 122.609 33.05C122.259 31.3 122.434 29.375 122.434 27.625C122.259 26.75 122.259 25.875 122.434 25C122.434 23.95 122.434 23.075 122.784 22.025C122.784 21.675 122.959 21.5 122.959 21.15C123.134 20.975 123.134 20.8 123.134 20.8C123.309 20.625 123.309 20.45 123.484 20.275C123.834 19.75 124.359 19.05 125.059 18.7C125.584 18.35 126.284 18.175 126.809 18C126.984 18 126.984 18 126.984 18H127.159H127.334H127.684H128.034H128.384C130.134 17.825 131.884 18 133.459 18C135.209 18 136.959 18.175 138.709 18C140.459 18 142.209 18.175 143.784 18.175C145.534 18.175 147.284 17.825 149.034 17.65C150.784 17.65 152.534 18 154.109 18C155.859 18 157.609 17.475 159.359 17.475C161.109 17.475 162.859 17.825 164.609 17.825C164.784 17.825 165.134 17.825 165.484 17.825H166.009H166.184H166.359H166.534H166.884H167.059C167.584 17.825 167.934 18 168.284 18C168.809 18 169.159 18 169.684 18C171.784 18 173.534 17.825 175.109 17.825C177.034 17.825 178.784 18 180.359 18.175C182.459 18.175 184.034 18.175 185.784 18.35C186.134 18.35 186.659 18.35 187.009 18.35C187.359 18.35 187.884 18.35 188.234 18.35C189.109 18.35 189.984 18.35 191.034 18.525C192.434 18.525 194.184 18.875 196.284 19.05C197.859 19.05 199.609 18.7 201.709 18.875C202.059 18.875 202.234 18.875 202.584 18.875C202.759 18.875 202.934 18.875 202.934 18.875C203.109 18.875 203.109 18.875 203.284 18.875H203.459C203.809 19.05 203.984 19.05 204.334 19.225C204.509 19.4 204.859 19.575 205.034 19.75C205.384 20.1 205.734 20.45 205.909 20.8C206.259 21.5 206.434 22.2 206.609 22.9C206.784 23.95 206.784 25 206.784 26.05C206.784 26.4 206.784 26.925 206.609 27.45C206.609 27.8 206.609 28.325 206.609 28.85C206.609 29.55 206.609 30.425 206.609 31.475C206.609 32.35 206.609 33.4 206.609 34.625C206.609 34.8 206.784 34.8 206.784 34.8C206.784 34.975 206.784 34.975 206.784 35.15C206.784 35.15 206.959 34.8 206.959 34.975ZM126.109 40.75C125.934 40.75 126.109 40.75 126.109 40.75V40.75ZM312.404 34.975C312.579 35.85 312.579 36.725 312.579 37.6C312.404 38.475 312.229 39.35 311.879 40.05C311.179 40.925 310.304 41.625 309.429 41.975C308.554 42.325 307.854 42.5 306.979 42.675C306.804 42.675 306.629 42.675 306.279 42.675C306.104 42.675 305.929 42.675 305.579 42.675C305.229 42.85 304.704 42.675 304.354 42.675C303.479 42.675 302.779 42.675 302.079 42.675C300.504 42.675 299.104 43.2 297.179 43.2C295.779 43.2 294.204 42.85 292.104 42.675C290.704 42.675 289.129 42.675 287.204 42.5C286.504 42.5 285.629 42.5 284.754 42.5C284.579 42.5 284.404 42.5 284.229 42.5C284.054 42.5 284.054 42.5 284.054 42.5C283.879 42.675 283.879 42.675 283.879 42.675C283.879 42.85 283.879 43.025 283.879 43.025V43.2L284.054 43.55C284.054 43.9 284.054 44.075 284.054 44.25C284.054 45.125 284.054 46 283.879 47.05C283.879 47.4 283.879 47.925 283.704 48.275C283.704 48.8 283.704 49.15 283.529 49.5C283.354 50.375 283.354 51.25 283.354 52.125C283.179 53.7 283.354 55.45 283.179 57.2C283.179 58.95 282.829 60.7 282.829 62.45C282.829 64.2 283.004 65.95 283.004 67.7C283.004 68.575 283.004 69.45 282.829 70.325C282.829 70.675 282.829 71.2 282.829 71.55C282.829 71.9 282.829 72.425 282.829 72.775C282.829 74.525 283.004 76.275 283.004 78.025C283.004 79.775 283.004 81.525 283.004 83.275C283.004 85.025 283.354 86.775 283.354 88.525C283.354 90.275 283.354 91.85 283.354 93.6C283.354 95.35 283.354 97.1 283.354 98.85C283.354 100.6 283.529 102.35 283.529 104.1C283.704 105.85 283.529 107.6 283.529 109.35C283.529 111.1 283.704 112.85 283.704 114.6C283.704 116.35 283.879 118.1 283.879 119.675C283.879 121.6 283.879 123.35 283.879 124.925C283.879 126.85 283.879 128.6 283.704 130.175C283.704 131.925 283.879 133.675 283.704 135.425C283.704 135.775 283.704 136.3 283.704 136.825L283.529 137.35V137.875V138.05V138.4C283.354 138.75 283.354 139.1 283.179 139.45C283.004 139.8 282.654 140.15 282.304 140.325C281.954 140.675 281.604 140.85 281.254 141.025C280.904 141.2 280.729 141.375 280.379 141.375C279.854 141.55 279.329 141.725 278.804 141.725C278.804 141.725 278.629 141.725 278.454 141.725H278.279L277.579 141.9C276.879 141.9 276.004 142.075 275.129 142.25C273.379 142.6 271.629 143.125 269.879 143.3C269.004 143.475 268.129 143.475 267.079 143.475C266.904 143.65 266.554 143.65 266.379 143.65H265.679C265.329 143.65 264.804 143.475 264.279 143.475C263.754 143.3 263.229 143.3 262.704 142.95C262.004 142.775 261.479 142.425 261.129 142.075C260.604 141.725 260.079 141.2 259.729 140.5C259.554 139.975 259.379 139.45 259.204 138.925C259.029 138.4 258.854 137.875 258.854 137.35C258.854 137.35 258.854 137.175 258.854 137C258.854 136.825 258.854 136.825 258.854 136.65V135.95C258.854 135.6 258.679 135.075 258.679 134.725C258.679 134.2 258.679 133.85 258.679 133.325C258.679 131.75 258.679 130 258.679 128.25C258.679 126.5 258.329 124.75 258.329 123C258.329 121.425 258.504 119.675 258.504 117.925C258.504 116.175 258.329 114.425 258.329 112.675C258.329 111.1 258.154 109.35 257.979 107.6C257.979 105.85 258.154 104.1 258.154 102.35C258.154 100.775 258.329 99.025 258.329 97.275C258.329 95.525 258.329 93.775 258.329 92.025C258.329 90.45 258.154 88.7 258.154 86.95C258.154 85.2 257.979 83.45 257.979 81.7C257.979 80.125 257.979 78.375 257.979 76.625C257.979 74.875 258.154 73.125 258.154 71.375C258.154 69.8 257.979 68.05 257.979 66.3C257.979 64.55 258.504 62.8 258.504 61.05C258.504 60.175 258.504 59.3 258.504 58.6C258.504 57.725 258.504 56.85 258.504 55.975C258.504 55.1 258.504 54.225 258.329 53.35C258.329 52.475 258.329 51.6 258.329 50.725C258.329 49.85 258.329 48.975 258.504 48.1C258.504 47.225 258.504 46.35 258.504 45.65C258.679 45.125 258.679 44.775 258.679 44.25V43.725V43.55C258.679 43.375 258.679 43.375 258.679 43.375C258.504 43.375 258.504 43.375 258.504 43.375H258.329H258.154L256.929 43.55C256.054 43.55 255.179 43.55 254.304 43.725C252.554 43.725 250.804 43.55 249.054 43.55C247.479 43.55 245.729 43.9 243.979 43.9C242.229 43.725 240.479 43.375 238.729 43.375C236.979 43.2 235.229 43.2 233.479 43.025C232.954 43.025 232.429 42.85 231.904 42.85C231.729 42.675 231.729 42.675 231.554 42.675C231.379 42.675 231.379 42.675 231.204 42.5H231.029C231.029 42.5 230.854 42.5 230.854 42.325C230.854 42.325 230.854 42.325 230.679 42.325C230.679 42.325 230.679 42.325 230.679 42.15C230.504 42.15 230.504 42.15 230.504 42.15L230.329 41.975L230.154 41.8V41.625C230.154 41.625 230.154 41.625 229.979 41.625C229.979 41.45 229.804 41.275 229.804 41.1C229.454 40.575 229.279 40.05 229.104 39.525C229.104 39 228.929 38.475 228.929 38.125C228.754 36.375 228.229 34.8 228.054 33.05C227.704 31.3 227.879 29.375 227.879 27.625C227.704 26.75 227.704 25.875 227.879 25C227.879 23.95 227.879 23.075 228.229 22.025C228.229 21.675 228.404 21.5 228.404 21.15C228.579 20.975 228.579 20.8 228.579 20.8C228.754 20.625 228.754 20.45 228.929 20.275C229.279 19.75 229.804 19.05 230.504 18.7C231.029 18.35 231.729 18.175 232.254 18C232.429 18 232.429 18 232.429 18H232.604H232.779H233.129H233.479H233.829C235.579 17.825 237.329 18 238.904 18C240.654 18 242.404 18.175 244.154 18C245.904 18 247.654 18.175 249.229 18.175C250.979 18.175 252.729 17.825 254.479 17.65C256.229 17.65 257.979 18 259.554 18C261.304 18 263.054 17.475 264.804 17.475C266.554 17.475 268.304 17.825 270.054 17.825C270.229 17.825 270.579 17.825 270.929 17.825H271.454H271.629H271.804H271.979H272.329H272.504C273.029 17.825 273.379 18 273.729 18C274.254 18 274.604 18 275.129 18C277.229 18 278.979 17.825 280.554 17.825C282.479 17.825 284.229 18 285.804 18.175C287.904 18.175 289.479 18.175 291.229 18.35C291.579 18.35 292.104 18.35 292.454 18.35C292.804 18.35 293.329 18.35 293.679 18.35C294.554 18.35 295.429 18.35 296.479 18.525C297.879 18.525 299.629 18.875 301.729 19.05C303.304 19.05 305.054 18.7 307.154 18.875C307.504 18.875 307.679 18.875 308.029 18.875C308.204 18.875 308.379 18.875 308.379 18.875C308.554 18.875 308.554 18.875 308.729 18.875H308.904C309.254 19.05 309.429 19.05 309.779 19.225C309.954 19.4 310.304 19.575 310.479 19.75C310.829 20.1 311.179 20.45 311.354 20.8C311.704 21.5 311.879 22.2 312.054 22.9C312.229 23.95 312.229 25 312.229 26.05C312.229 26.4 312.229 26.925 312.054 27.45C312.054 27.8 312.054 28.325 312.054 28.85C312.054 29.55 312.054 30.425 312.054 31.475C312.054 32.35 312.054 33.4 312.054 34.625C312.054 34.8 312.229 34.8 312.229 34.8C312.229 34.975 312.229 34.975 312.229 35.15C312.229 35.15 312.404 34.8 312.404 34.975ZM231.554 40.75C231.379 40.75 231.554 40.75 231.554 40.75V40.75Z" fill="white"/>
<path d="M374.559 39.625C374.559 40.85 374.209 42.075 374.209 43.3C374.034 44.525 374.384 45.75 374.384 46.975C374.209 48.375 374.209 49.6 374.034 50.825C373.859 51.875 373.684 53.1 373.509 54.325C373.509 55.375 373.684 56.6 373.684 57.825C373.684 59.05 373.684 60.275 373.684 61.5C373.684 62.725 373.334 63.95 373.334 65.175C373.509 66.4 373.684 67.625 373.684 68.85C373.684 69.9 373.859 71.3 373.684 72.7C373.684 73.75 373.159 75.15 373.159 76.375C373.159 77.6 373.159 78.825 372.984 80.05C372.984 81.275 372.984 82.5 372.984 83.9C372.984 85.125 373.159 86.35 373.159 87.575C373.159 88.1 373.159 88.8 373.159 89.325C372.984 90.025 372.984 90.55 372.984 91.25C373.159 92.475 373.334 93.7 373.334 95.1C373.509 96.325 373.684 97.55 373.859 98.775C373.859 100 373.684 101.4 373.684 102.625C373.684 103.85 373.859 105.075 373.859 106.3C373.859 107.7 373.684 108.925 373.684 110.15C373.684 111.375 374.034 112.775 374.034 113.825C374.034 115.225 373.859 116.625 373.859 117.675C373.684 118.9 373.684 120.125 373.684 121.175C373.684 122.4 373.334 123.625 373.334 124.5C373.159 125.9 373.509 127.125 373.334 128.175C373.334 129.225 372.984 130.275 372.809 131.5C372.634 132.55 372.809 133.775 372.459 135C372.459 135.525 372.284 136.05 372.109 136.575C371.934 136.925 371.934 137.1 371.759 137.45C371.759 137.625 371.584 137.8 371.584 137.975C371.584 137.975 371.584 138.15 371.409 138.15C371.409 138.15 371.409 138.325 371.234 138.325C371.234 138.5 371.409 138.325 371.234 138.325C371.234 138.5 371.234 138.5 371.059 138.675H371.234C370.709 139.2 370.009 139.55 369.484 139.725C368.959 139.9 368.259 140.075 367.734 140.25C366.509 140.6 365.284 140.6 364.059 140.95C362.834 141.3 361.784 142 360.559 142.175C359.334 142.525 358.109 142.7 356.709 142.7C356.009 142.7 355.484 142.7 354.784 142.7C354.084 142.7 353.384 142.525 352.509 142.175C352.159 142 351.809 141.825 351.634 141.65C351.284 141.475 350.934 141.125 350.584 140.775C350.059 140.075 349.884 139.2 349.534 138.5C349.359 137.8 349.184 137.1 349.184 136.4C349.009 135.875 349.009 135.175 348.834 134.475C348.834 133.425 348.834 132.2 348.834 130.8C348.659 129.575 348.484 128.35 348.484 127.125C348.484 125.9 348.659 124.675 348.659 123.45C348.659 122.225 348.484 121 348.484 119.775C348.484 118.55 348.309 117.325 348.309 116.1C348.309 114.875 348.309 113.65 348.309 112.425C348.309 111.2 348.484 109.975 348.484 108.75C348.484 107.525 348.309 106.3 348.309 105.075C348.309 103.85 348.309 102.625 348.134 101.4C348.134 100.175 348.134 98.95 348.134 97.725C348.134 96.5 348.309 95.275 348.309 94.05C348.309 92.825 348.309 91.6 348.309 90.375C348.309 89.15 348.134 87.925 348.134 86.7C347.959 85.475 348.134 84.425 348.134 83.025C348.134 81.975 348.134 80.75 348.134 79.525C348.134 78.3 348.309 77.075 348.309 75.85C348.309 74.625 348.309 73.4 348.309 72.175C348.309 70.95 348.134 69.725 348.134 68.5C348.134 67.275 348.134 66.05 348.134 64.825C348.134 63.6 348.484 62.375 348.484 61.15C348.484 59.925 348.134 58.7 348.309 57.475C348.309 56.25 348.484 55.025 348.484 53.8C348.484 52.575 348.309 51.35 348.309 50.125C348.309 49.425 348.309 48.9 348.309 48.2L348.484 46.45C348.484 45.225 348.834 44 348.834 42.775C348.834 41.55 348.834 40.5 348.834 39.275C348.834 38.05 348.659 36.825 348.659 35.6V31.925C348.659 30.7 348.659 29.475 348.659 28.25C348.834 27.025 348.484 25.8 348.484 24.575C348.484 24.4 348.484 24.225 348.484 24.05V23.875L348.659 23.7V23.525C348.659 23.175 348.659 23 348.834 22.825C348.834 22.65 348.834 22.475 349.009 22.3C349.009 21.95 349.184 21.6 349.359 21.25C349.534 20.9 349.884 20.55 350.059 20.2C350.409 19.5 350.934 18.8 351.634 18.1C352.159 17.575 352.859 17.225 353.559 16.875C355.134 16.35 356.709 16.7 357.934 16.7C359.159 16.7 360.384 16.7 361.609 16.7C362.309 16.7 362.834 16.7 363.359 16.7C364.059 16.525 364.584 16.525 365.109 16.525H365.634C365.809 16.525 365.984 16.525 366.159 16.525C366.334 16.525 366.509 16.525 366.684 16.525L367.209 16.7C367.384 16.7 367.559 16.7 367.909 16.7C368.084 16.875 368.259 16.875 368.434 16.875C368.784 17.05 369.134 17.225 369.484 17.4C370.359 17.75 371.059 18.1 371.584 18.625C371.759 18.8 371.934 18.975 372.109 19.15C372.284 19.15 372.459 19.325 372.459 19.5C372.809 19.85 372.984 20.2 373.159 20.55C373.859 21.95 374.034 23.35 374.209 24.75C374.209 25.1 374.384 25.45 374.384 25.8V26.675C374.559 27.375 374.559 27.9 374.559 28.6C374.559 29.825 374.209 31.05 374.384 32.275C374.384 33.5 374.384 34.725 374.384 35.95C374.384 37.175 374.559 38.4 374.559 39.625ZM526.336 108.925C526.336 112.425 526.336 115.925 526.336 119.775C526.336 123.275 526.686 126.95 526.511 130.625C526.511 131.5 526.511 132.55 526.511 133.425C526.511 133.6 526.511 133.775 526.511 134.125C526.511 134.3 526.336 134.475 526.336 134.825C526.336 135 526.336 135.175 526.336 135.525V135.875C526.336 136.05 526.336 136.05 526.336 136.225C526.161 136.75 525.986 137.275 525.811 137.975C525.636 138.5 525.286 139.025 524.936 139.55C524.761 139.9 524.411 140.075 524.236 140.425C523.886 140.6 523.711 140.775 523.361 140.95C522.836 141.125 522.311 141.475 521.611 141.65C520.561 141.825 519.511 141.825 518.811 142C517.761 142 516.886 142.175 516.011 142.175C514.086 142.35 512.336 142.35 510.236 142.175C509.186 142.175 507.961 142 506.736 141.65C506.211 141.475 505.511 141.475 504.811 141.125C504.636 141.125 504.111 140.95 503.761 140.775C503.411 140.425 503.061 140.075 502.711 139.725C502.536 139.725 502.536 139.725 502.536 139.55L502.361 139.375C502.361 139.375 502.186 139.2 502.186 139.025C502.186 138.85 502.186 138.85 502.011 138.675C502.011 138.5 502.011 138.325 502.011 138.15V137.975V137.8L501.836 137.625C501.836 137.45 501.836 137.275 501.836 137.1C501.836 136.4 501.661 135.7 501.661 135C501.486 131.325 501.311 127.65 501.136 123.975C501.136 120.475 501.311 116.8 501.311 113.125C501.311 109.45 501.136 105.775 501.311 102.275C501.311 98.6 501.661 94.925 501.836 91.25C501.836 90.375 501.836 89.5 501.836 88.625C501.836 87.575 502.011 86.7 502.011 85.825C502.011 84.075 502.011 82.325 502.011 80.575C502.011 79.35 502.186 78.125 502.186 77.075C501.311 80.05 500.436 83.025 499.736 86C498.861 89.5 498.336 93.175 497.461 96.5C496.586 100.175 495.886 103.675 495.186 107.175C494.311 110.85 493.611 114.35 492.736 117.85C492.211 119.6 491.861 121.525 491.336 123.275C490.811 125.025 490.461 126.6 489.936 128.35C489.761 129.225 489.586 130.1 489.411 130.975C489.061 131.85 488.886 132.725 488.711 133.6C488.536 133.95 488.361 134.475 488.361 134.825C488.186 135.35 488.011 135.7 488.011 136.225L487.661 136.925C487.661 137.1 487.661 137.275 487.486 137.45C487.311 137.975 487.136 138.5 486.961 138.85V139.025C486.961 139.2 486.961 139.2 486.786 139.375L486.611 139.725V139.9C486.261 140.25 486.086 140.425 485.736 140.775C485.211 141.3 484.511 141.65 483.986 141.825C483.286 142 482.586 142.175 482.061 142.175C481.711 142.175 481.536 142.175 481.186 142.175H480.661C478.736 142.175 476.986 142.175 475.236 142.175C473.661 142.175 472.086 142.175 470.511 142.175H470.686C470.511 142.175 470.161 142.175 469.811 142.175L469.286 142C469.111 142 468.936 142 468.761 142C468.411 141.825 468.061 141.825 467.711 141.65C467.536 141.475 467.361 141.475 467.186 141.3C467.011 141.3 466.836 141.125 466.661 140.95C466.486 140.95 466.311 140.775 466.136 140.6C466.136 140.6 465.961 140.425 465.786 140.25L465.436 139.9L465.261 139.375C465.086 139.2 465.086 139.2 464.911 139.025C464.911 138.85 464.736 138.675 464.736 138.5C464.561 138.325 464.386 137.975 464.386 137.8C464.036 136.75 463.686 135.875 463.511 135.175C463.161 134.3 462.986 133.425 462.636 132.55C462.111 130.8 461.586 129.225 460.886 127.475C459.836 123.975 458.611 120.65 457.386 117.325C456.336 113.825 455.461 110.325 454.236 107C453.186 103.5 451.961 100.175 450.911 96.675C449.861 93.35 448.636 90.025 447.586 86.525C446.536 83.2 445.136 79.875 444.086 76.375L443.911 76.2C443.911 76.375 443.911 76.55 443.911 76.9C443.911 80.4 444.261 83.9 444.436 87.4C444.786 91.075 444.786 94.75 444.961 98.25C445.136 101.925 444.961 105.425 444.961 109.1C445.136 112.6 445.136 116.275 445.311 119.775C445.311 123.45 445.311 127.125 445.311 130.625C445.311 132.55 445.311 134.3 445.136 136.225C445.136 136.575 445.136 137.1 444.961 137.625C444.961 137.8 444.961 137.975 444.961 138.325C444.961 138.675 444.786 138.85 444.786 139.2C444.786 139.375 444.786 139.375 444.611 139.55C444.611 139.725 444.611 139.725 444.611 139.9H444.436V140.075C444.436 140.075 444.261 140.075 444.261 140.25L444.086 140.425L443.736 140.775C443.561 140.95 443.211 141.125 442.861 141.3C442.336 141.65 441.636 141.825 441.111 142C440.586 142.175 440.061 142.175 439.711 142.35H439.011L438.311 142.525C437.261 142.7 436.386 142.7 435.336 142.7C433.411 142.7 431.661 142.7 429.736 142.525L427.111 142.35L426.411 142.175C426.236 142.175 426.061 142.175 425.711 142.175C425.186 142.175 424.661 142 424.136 141.825C423.436 141.65 422.911 141.475 422.386 141.125C422.211 140.95 422.036 140.95 422.036 140.775H421.861L421.686 140.6C421.686 140.6 421.686 140.425 421.511 140.425C421.336 140.25 420.986 139.9 420.811 139.55C420.461 139.025 420.111 138.325 419.936 137.8C419.761 137.275 419.761 136.75 419.586 136.225V135.7C419.586 135.7 419.586 135.525 419.586 135.35V134.65V133.25L419.411 130.625C419.411 128.875 419.236 126.95 419.236 125.2C419.236 121.7 419.586 118.025 419.586 114.525C419.586 110.85 419.411 107.35 419.411 103.675C419.411 100 419.061 96.5 419.061 92.825C419.061 89.325 419.061 85.65 419.061 82.15C419.061 78.475 419.061 74.975 419.061 71.3C419.061 69.55 419.061 67.8 419.061 65.875C418.886 64.125 418.886 62.375 419.061 60.625C419.061 58.7 419.061 56.95 419.236 55.2C419.236 53.45 419.411 51.525 419.411 49.775C419.411 48.9 419.411 48.025 419.586 46.975C419.586 46.1 419.586 45.225 419.586 44.35C419.411 42.6 419.411 40.85 419.411 39.1C419.411 35.425 419.761 31.925 419.761 28.25C419.761 26.5 419.761 24.75 419.761 22.825V21.6V21.25C419.761 21.075 419.761 20.9 419.761 20.725C419.761 20.375 419.761 20.025 419.936 19.675C420.111 19.15 420.461 18.45 420.986 17.925C421.161 17.75 421.511 17.4 421.861 17.225C422.211 16.875 422.561 16.7 422.911 16.7C423.086 16.7 423.261 16.525 423.436 16.525C424.311 16.525 425.186 16.525 426.236 16.35C427.111 16.35 427.986 16.35 428.861 16.175C430.611 16.175 432.361 16 434.111 16C437.611 16 441.286 15.825 444.961 16C445.836 16 446.711 16.175 447.761 16.175L448.111 16.35C448.286 16.35 448.286 16.35 448.461 16.35C448.636 16.35 448.986 16.35 449.161 16.525C449.336 16.525 449.511 16.7 449.686 16.7C449.861 16.875 450.036 16.875 450.211 17.05L450.561 17.225V17.4H450.736C450.911 17.75 451.086 17.925 451.261 18.1C451.961 18.975 452.486 19.85 452.836 20.725C453.361 21.6 453.711 22.475 454.061 23.35C454.411 24.225 454.761 25.1 455.111 25.975L455.286 26.5C455.286 26.85 455.461 27.025 455.461 27.2L455.986 28.425C456.686 30.175 457.211 31.925 457.911 33.5C458.961 37 460.361 40.325 461.411 43.825C462.461 47.15 463.336 50.65 464.211 54.15C465.261 57.65 466.136 61.15 467.186 64.475C468.236 67.975 469.111 71.475 470.161 74.8C471.211 78.3 472.436 81.625 473.486 85.125C474.011 86.7 474.536 88.275 475.061 89.85C475.061 90.2 475.236 90.55 475.236 90.9C475.411 90.375 475.586 89.675 475.586 89.15C475.761 88.8 475.761 88.275 475.936 87.75C476.111 87.225 476.286 86.875 476.286 86.525C476.461 85.65 476.811 84.775 476.986 83.9C477.161 83.55 477.336 83.025 477.336 82.675C477.511 82.325 477.686 81.8 477.686 81.45C478.036 80.575 478.211 79.7 478.561 78.825C478.736 77.95 478.911 77.075 479.261 76.2C479.261 75.85 479.436 75.5 479.611 74.975C479.611 74.625 479.786 74.1 479.786 73.75C479.961 72.875 480.136 72 480.486 71.125C480.661 70.25 480.836 69.375 481.011 68.5C481.361 66.75 481.711 65 482.061 63.25C482.761 59.05 482.936 55.55 483.461 52.225C484.161 48.025 484.861 44.525 485.561 41.375C485.911 39.275 486.261 37.35 486.611 35.6C486.786 34.55 486.961 33.675 487.136 32.8C487.311 32.1 487.486 31.225 487.661 30.35C487.836 29.475 488.011 28.6 488.361 27.725C488.536 26.85 488.711 25.975 488.886 25.1C489.061 24.575 489.236 24.225 489.236 23.7C489.411 23.525 489.411 23.175 489.411 23C489.411 22.825 489.586 22.65 489.586 22.65C489.586 22.475 489.761 22.3 489.761 22.3C489.936 21.775 490.111 21.25 490.461 20.725C490.636 20.375 490.636 20.2 490.986 19.85C491.161 19.675 491.336 19.325 491.686 19.15C491.686 18.975 491.861 18.8 492.036 18.8L492.211 18.625C492.386 18.45 492.736 18.275 492.911 18.275C493.086 18.1 493.261 17.925 493.611 17.925C493.786 17.75 493.961 17.575 494.311 17.575C495.361 17.225 496.236 17.225 497.286 17.225C499.211 17.225 501.136 17.225 503.236 17.225C504.811 17.225 506.561 17.225 508.486 17.225H508.661H509.011C509.011 17.225 509.186 17.225 509.361 17.225C509.536 17.225 509.711 17.225 509.886 17.225C510.411 17.225 510.936 17.225 511.461 17.225C512.336 17.225 513.386 17.225 514.436 17.225C514.961 17.225 515.661 17.225 516.186 17.225C516.536 17.225 516.886 17.4 517.061 17.4C517.411 17.4 517.761 17.4 517.936 17.4C519.161 17.4 520.211 17.575 521.261 17.925C522.311 18.275 523.361 18.8 524.236 19.675C524.411 19.85 524.586 20.2 524.586 20.375C524.761 20.55 524.936 20.9 525.111 21.075C525.111 21.25 525.111 21.6 525.286 21.775C525.286 22.125 525.286 22.3 525.461 22.475C525.461 22.65 525.461 22.65 525.461 22.825V23C525.461 23.175 525.461 23.35 525.461 23.525C525.461 23.7 525.461 24.05 525.461 24.225C525.461 24.75 525.461 25.275 525.461 25.8C525.461 26.85 525.286 27.9 525.286 28.775C525.286 30.7 525.111 32.625 524.936 34.725C524.936 36.3 524.936 38.225 524.761 40.15C524.761 42.075 524.761 44.175 524.761 46.625C524.761 46.8 524.761 46.8 524.761 46.8C524.761 47.15 524.936 47.325 524.761 47.325C524.761 47.5 524.761 47.675 524.761 47.85C524.936 47.85 524.936 46.975 524.936 47.5C525.111 49.425 525.286 51.175 525.461 52.925C525.461 54.5 525.636 56.075 525.811 57.65C525.811 59.575 525.811 61.5 525.811 63.25C525.811 65 525.986 66.4 525.986 67.975C526.161 71.825 525.986 75.15 525.986 78.3C526.161 81.275 526.511 84.425 526.686 88.275C526.686 91.25 526.336 94.575 526.336 98.775C526.336 101.75 526.336 105.075 526.336 108.925ZM640.235 81.625C640.235 82.325 640.41 83.025 640.41 83.725C640.41 84.95 640.06 86.175 639.885 87.925C639.885 88.975 639.71 90.375 639.535 91.95C639.535 92.65 639.36 93.35 639.36 94.05C639.185 94.75 639.185 95.45 639.01 96.15C638.835 96.85 638.835 97.55 638.835 98.425C638.66 98.775 638.66 99.125 638.66 99.475C638.66 99.825 638.485 100.175 638.485 100.525C638.485 100.875 638.31 101.225 638.135 101.575C638.135 101.925 637.96 102.275 637.785 102.625C637.785 102.975 637.61 103.325 637.435 103.675C637.435 104.025 637.26 104.375 637.26 104.725C637.085 105.075 636.91 105.425 636.91 105.775C636.735 106.125 636.735 106.475 636.56 106.825C636.56 107.175 636.385 107.525 636.385 107.875C636.21 108.225 636.21 108.575 636.035 108.925C635.51 110.325 634.81 111.55 634.11 112.95C633.585 114.175 633.235 115.575 632.535 116.975C631.835 118.2 631.135 119.425 630.26 120.65C629.56 121.875 629.035 123.275 628.16 124.5C627.985 124.85 627.81 125.2 627.635 125.375L627.285 125.9L626.935 126.25C626.935 126.425 626.76 126.425 626.76 126.6L626.585 126.775C626.41 126.95 626.41 127.125 626.235 127.3C626.06 127.475 625.71 127.825 625.535 128.175C624.485 129.225 623.61 130.45 622.56 131.5C621.51 132.375 620.285 133.25 619.235 134.3C618.885 134.475 618.71 134.65 618.36 134.825C618.185 135.175 617.835 135.35 617.66 135.525C617.31 135.875 616.96 136.05 616.61 136.225C616.26 136.575 616.085 136.75 615.735 136.925C614.335 137.8 613.11 138.675 611.71 139.2C611.36 139.375 611.01 139.55 610.66 139.725C610.31 139.725 609.785 139.9 609.435 139.9L608.91 140.075C608.735 140.25 608.56 140.25 608.385 140.25C608.035 140.25 607.685 140.425 607.335 140.6C606.635 140.775 605.935 140.95 605.235 141.125C604.36 141.3 603.66 141.475 602.96 141.65C601.385 141.825 599.985 142 598.585 142C598.235 142 597.71 142.175 597.36 142.175C597.01 142.175 596.66 142.175 596.31 142.175C595.96 142.175 595.435 142.175 595.085 142.175C594.735 142.175 594.385 142.175 594.035 142C592.46 142 591.06 141.65 589.66 141.3C588.085 141.125 586.51 140.775 585.11 140.075C583.71 139.375 582.31 138.5 581.26 137.45C580.91 137.275 580.735 137.1 580.385 136.75C580.21 136.575 579.86 136.225 579.685 136.05C579.16 135.525 578.635 135 578.11 134.475C577.585 133.95 577.06 133.425 576.535 132.9L576.36 132.725L576.01 132.375L575.485 132.025L575.31 131.85H575.135L574.96 131.5C573.91 130.45 572.86 129.575 571.81 128.35C571.635 128 571.46 127.825 571.285 127.475C570.935 127.125 570.76 126.775 570.585 126.6L570.06 125.55C569.885 125.375 569.71 125.025 569.36 124.675C569.185 124.325 569.01 124.15 568.835 123.8C568.66 123.45 568.485 123.1 568.31 122.925C567.785 122.225 567.435 121.7 567.085 121C566.385 119.775 565.86 118.375 565.16 117.15C564.985 116.45 564.635 115.75 564.285 115.05C563.935 114.525 563.585 113.825 563.41 113.125C563.235 112.425 562.885 111.725 562.71 111.025C562.535 110.325 562.36 109.625 562.185 108.925C561.835 107.525 561.31 106.125 561.135 104.725C560.96 104.375 560.96 104.025 560.785 103.675C560.785 103.325 560.61 102.975 560.435 102.625C560.26 101.925 560.085 101.225 560.085 100.525C559.91 99.125 559.91 97.55 559.735 96.15C559.56 94.75 559.735 93.35 559.56 91.95C559.56 90.55 559.385 89.15 559.385 87.575C559.21 86.175 559.035 84.775 559.035 83.375C559.035 81.975 558.86 80.575 559.035 79.175C559.035 77.6 559.035 76.2 559.035 74.8C559.21 74.1 559.21 73.4 559.21 72.7L559.385 70.6C559.56 70.25 559.56 69.9 559.56 69.55V68.325C559.735 67.625 559.735 66.925 559.735 66.225C559.91 64.825 560.61 63.425 560.785 62.025C560.96 61.325 561.135 60.625 561.135 59.925C561.31 59.225 561.485 58.525 561.485 57.825C561.835 56.425 561.835 55.025 562.185 53.625C562.36 52.925 562.71 52.225 562.885 51.525L563.235 50.475L563.41 49.425C563.76 48.725 563.935 48.025 564.11 47.325C564.46 46.625 564.635 45.925 564.985 45.4C564.985 45.05 565.16 44.7 565.335 44.35L565.51 43.825L565.685 43.475C565.685 43.3 565.86 43.125 565.86 42.95L566.035 42.775V42.6V42.425C566.21 42.075 566.385 41.725 566.56 41.375C567.085 39.975 567.785 38.75 568.485 37.525C569.185 36.3 569.535 34.725 570.235 33.5C570.585 32.975 571.11 32.275 571.635 31.75V31.575H571.81C571.81 31.4 571.81 31.4 571.985 31.4V31.225L572.335 30.875C572.685 30.525 572.86 30.35 573.21 30C574.085 28.95 575.135 27.725 576.185 26.85C577.235 25.8 578.285 24.75 579.335 23.875C579.685 23.7 579.86 23.525 580.21 23.175L580.56 22.825L580.735 22.65V22.475H580.91H580.735C581.085 22.3 581.26 21.95 581.61 21.6C581.96 21.425 582.135 21.075 582.485 20.9C583.71 19.85 585.285 19.325 586.685 18.8C588.085 18.1 589.485 17.575 590.885 17.225C592.285 16.7 593.685 16.175 595.26 16C596.66 15.825 598.235 16 599.635 16C601.035 16 602.61 16.175 604.01 16.175C605.41 16.35 606.81 16.525 608.21 16.875C608.56 16.875 609.085 16.875 609.26 16.875H609.96L610.485 17.05C611.36 17.05 612.06 17.225 612.935 17.575C614.335 18.1 615.56 19.325 616.785 20.2C616.96 20.2 616.96 20.375 617.135 20.55C617.31 20.55 617.485 20.725 617.66 20.725L618.535 21.425C619.235 21.775 619.76 22.125 620.285 22.65C620.81 23.175 621.335 23.7 621.86 24.225L622.21 24.75L622.385 24.925V25.1C622.56 25.1 622.56 25.1 622.56 25.1C622.56 25.1 622.56 25.1 622.56 25.275H622.735C622.735 25.45 622.91 25.45 623.085 25.625L623.26 25.8C623.435 25.8 623.61 25.975 623.61 25.975L623.96 26.325L624.135 26.5C624.31 26.85 624.485 27.025 624.835 27.375C625.185 27.9 625.71 28.6 626.06 29.125C626.585 29.825 627.11 30.35 627.635 30.875C628.16 31.575 628.685 32.1 629.035 32.625C629.385 33.325 629.91 34.025 630.26 34.725C630.61 35.425 630.785 35.95 631.135 36.475C631.31 36.825 631.485 37.175 631.66 37.525C631.835 37.875 632.01 38.225 632.185 38.575C632.535 39.275 632.885 39.8 633.235 40.5C633.41 41.2 633.76 41.725 634.11 42.425C634.46 43.125 634.635 43.825 634.985 44.7C635.16 45.225 635.16 45.925 635.335 46.625C635.51 47.325 635.51 48.2 635.86 48.9C636.035 49.6 636.21 50.3 636.385 51C636.735 51.7 636.91 52.4 637.085 53.275C637.26 53.625 637.26 54.15 637.26 54.675C637.435 55.025 637.435 55.375 637.61 55.725C637.61 56.6 637.785 57.3 637.96 57.825C638.31 59.575 638.485 60.975 638.66 62.55C638.66 63.25 638.835 63.95 638.66 64.825C638.66 65.525 639.36 70.425 639.535 71.65C639.71 73.225 639.71 74.625 639.885 75.675C639.885 76.375 639.885 77.075 639.885 77.775C639.885 78.475 639.885 79.175 639.885 79.7C639.885 80.4 640.06 80.925 640.235 81.625ZM585.285 107.525C585.285 107.525 585.985 108.225 586.16 108.575C586.51 108.925 586.86 109.275 587.035 109.45C587.21 109.8 587.56 110.15 587.735 110.5C587.91 110.675 587.91 110.85 588.085 111.025C588.26 111.2 588.26 111.375 588.435 111.375C588.785 111.725 588.96 112.075 589.31 112.425C589.485 112.6 589.66 112.95 590.01 113.125C590.36 113.475 590.71 113.65 591.06 113.825C591.41 113.825 591.76 114 592.11 114.35C592.46 114.525 592.635 114.7 592.985 115.05C592.985 115.225 593.16 115.4 593.335 115.575C593.51 115.575 593.685 115.75 593.86 115.925C594.56 116.275 595.26 116.625 595.96 116.975C596.31 117.15 596.66 117.15 597.01 117.325C597.535 117.5 597.885 117.5 598.235 117.675C598.585 117.85 599.11 117.85 599.46 117.85C599.635 117.85 599.81 117.85 600.16 117.85C600.335 117.85 600.51 117.85 600.685 118.025C601.035 118.025 601.385 118.025 601.91 118.2C602.085 118.2 602.26 118.375 602.435 118.375C602.61 118.375 602.785 118.375 602.96 118.375C603.31 118.375 603.31 118.375 603.31 118.375C603.485 118.375 603.31 118.375 603.485 118.2C603.66 118.2 603.835 118.2 603.835 118.025C604.185 117.85 604.36 117.85 604.535 117.675C605.06 117.325 605.935 117.15 606.46 116.45C607.16 115.925 607.51 115.225 608.035 114.7C608.56 114 609.26 113.475 609.785 112.775C609.96 112.6 610.135 112.425 610.135 112.25L610.31 111.9L610.485 111.55C610.66 111.2 610.835 110.85 611.01 110.5C611.36 110.15 611.535 109.975 611.71 109.625C611.885 109.275 612.235 108.925 612.41 108.575C612.585 108.05 612.585 107.7 612.76 107.35C612.935 107 612.935 106.475 613.11 106.125C613.285 105.425 613.635 104.55 613.81 103.85C613.985 103.5 614.16 102.975 614.335 102.625C614.335 102.275 614.51 101.75 614.685 101.4C614.685 101.05 614.685 100.525 614.685 100.175C614.86 99.65 614.86 99.3 614.86 98.775C615.035 97.9 615.385 97.2 615.56 96.325C615.56 95.45 615.56 94.575 615.735 93.7C615.735 93.175 615.735 92.825 615.91 92.3C615.91 91.95 615.91 91.425 616.085 91.075C616.085 90.725 616.085 90.55 616.085 90.375C616.085 90.2 616.085 90.025 616.085 89.675C616.085 89.325 616.26 88.975 616.26 88.45C616.26 87.575 616.61 86.7 616.61 86C616.61 85.125 616.61 84.25 616.61 83.375C616.61 82.5 616.785 81.625 616.785 80.75C616.96 79.875 617.135 79.175 617.135 78.3C617.135 77.425 617.31 76.55 617.31 75.675C617.31 74.8 616.96 73.925 616.96 73.05C617.135 72.175 617.135 71.3 617.135 70.425C617.135 69.55 617.135 68.675 617.135 67.8C617.135 67.45 617.135 66.925 617.135 66.575V66.225V66.05C617.135 65.875 617.135 65.7 617.135 65.525C616.96 65.35 616.96 65.175 616.96 64.825V64.65H616.785V64.475L616.61 64.3C616.61 64.125 616.61 63.95 616.435 63.95C616.435 63.6 616.26 63.425 616.26 63.075C616.085 62.725 616.085 62.2 616.085 61.675V60.975V60.625C615.91 60.1 615.735 59.75 615.735 59.225C615.56 58.875 615.385 58.525 615.385 58C615.035 57.3 614.685 56.425 614.51 55.725C614.16 54.85 614.16 53.975 613.81 53.275C613.635 52.925 613.635 52.4 613.46 52.05C613.46 51.7 613.285 51.175 613.11 50.825C612.935 50.475 612.76 50.125 612.585 49.775C612.41 49.425 612.235 49.075 612.06 48.55C611.885 48.2 611.535 47.85 611.36 47.5C611.185 47.325 610.835 46.975 610.66 46.625C610.31 45.925 609.61 45.4 609.085 44.7C608.91 44.525 608.56 44.175 608.385 43.825L607.86 43.475C607.86 43.3 607.685 43.3 607.51 43.125C607.335 42.95 607.16 42.775 607.16 42.775L606.635 42.425C606.46 42.25 606.285 42.075 606.285 41.9L605.76 41.725C605.585 41.55 605.41 41.375 605.235 41.375L604.71 41.2C604.535 41.025 604.36 41.025 604.185 40.85C604.01 40.85 603.835 40.85 603.66 40.675C603.485 40.675 603.31 40.5 603.135 40.5C602.96 40.325 602.785 40.15 602.61 40.15C602.61 39.975 602.435 39.8 602.26 39.8C602.085 39.625 601.91 39.625 601.56 39.625C601.385 39.625 601.21 39.45 601.035 39.45H600.51L599.81 39.275C599.635 39.275 599.46 39.275 599.285 39.275C598.585 39.275 597.71 39.625 597.01 39.625H596.31C595.96 39.625 595.61 39.8 595.61 39.625V39.8H595.435L595.085 39.975C594.91 39.975 594.735 40.15 594.56 40.15L594.385 40.325L594.21 40.5C593.86 40.675 593.51 40.85 593.335 41.025C592.81 41.55 592.285 42.075 591.76 42.775C591.235 43.3 590.535 43.825 590.01 44.525C589.66 44.875 589.485 45.225 589.31 45.575C589.135 45.75 588.96 45.925 588.96 46.1C588.785 46.275 588.785 46.45 588.61 46.625C588.435 46.975 588.085 47.15 587.735 47.5C587.56 47.675 587.385 47.85 587.385 48.025C587.21 48.025 587.21 48.025 587.21 48.2C587.035 48.2 587.035 48.375 587.035 48.375C586.86 48.725 586.685 49.075 586.51 49.6C586.335 49.95 586.16 50.3 585.985 50.65C585.81 51 585.635 51.35 585.635 51.875C585.46 52.225 585.285 52.575 585.285 52.925C584.935 53.8 584.935 54.675 584.76 55.375C584.76 55.9 584.585 56.25 584.41 56.6C584.235 56.95 584.06 57.475 583.885 57.825C583.71 58.7 583.71 59.575 583.535 60.275C583.535 61.15 583.535 62.025 583.535 62.9C583.36 63.775 583.01 64.65 582.835 65.525C582.835 66.05 582.66 66.4 582.485 66.75C582.485 67.275 582.31 67.625 582.31 67.975C582.31 68.5 582.135 68.85 582.135 69.375C582.135 69.725 581.96 70.075 581.96 70.6C581.785 71.475 582.135 72.35 582.135 73.225C581.96 74.1 581.61 74.8 581.61 75.675C581.61 76.55 581.96 77.425 581.96 78.3C581.96 79.175 581.61 80.05 581.61 80.925C581.61 81.8 581.435 82.675 581.435 83.55C581.435 84.425 581.61 85.3 581.61 86.175C581.61 87.225 581.435 88.1 581.435 88.8C581.435 89.85 581.435 90.725 581.435 91.6V91.775V91.95C581.435 92.125 581.61 92.3 581.61 92.65C581.61 92.825 581.61 93 581.785 93.35V93.525C581.785 93.7 581.785 93.7 581.785 93.7C582.135 94.575 581.785 95.625 581.96 96.675C581.96 96.85 581.96 97.025 581.96 97.375C582.135 97.375 582.135 97.375 582.135 97.375C582.135 97.55 582.135 97.55 582.135 97.55L582.31 97.725C582.485 98.075 582.66 98.6 582.835 99.125C583.185 100.175 583.36 101.05 583.535 101.75C583.885 102.8 584.06 103.675 584.235 104.725C584.585 105.425 585.285 107.525 585.285 107.525Z" fill="white"/>
</svg>
