<svg width="665" height="280" viewBox="0 0 665 280" fill="none" xmlns="http://www.w3.org/2000/svg">
<path d="M106.05 181.475C106.225 182.35 106.4 183.225 106.4 184.1C106.225 184.275 106.225 184.275 106.225 184.45C106.225 184.625 106.225 184.625 106.225 184.8C106.05 184.975 106.05 185.15 105.875 185.325C105.7 185.675 105.35 186.025 105.175 186.375C105 186.375 104.825 186.375 104.825 186.55C104.65 186.55 104.475 186.725 104.475 186.725C104.125 186.9 103.95 186.9 103.775 187.075C103.425 187.075 103.25 187.075 103.075 187.25C102.9 187.25 102.55 187.25 102.375 187.25C101.675 187.425 100.8 187.425 100.275 187.425C99.75 187.425 99.4 187.6 98.875 187.6C98.525 187.6 98.175 187.6 97.825 187.6C96.95 187.6 96.25 187.6 95.55 187.6C94.15 187.775 92.75 188.3 91 188.3C90.3 188.3 89.6 188.3 88.725 188.125C88.375 188.125 87.85 188.125 87.5 187.95C87.325 187.95 87.15 187.95 86.975 187.95C86.8 187.775 86.625 187.775 86.45 187.775L86.275 187.6H86.1C85.925 187.425 85.75 187.25 85.575 187.25C84.875 186.55 84.35 185.85 84 184.975C83.65 184.275 83.3 183.4 83.125 182.35C82.95 181.65 82.775 180.775 82.6 180.075C82.425 179.725 82.25 179.375 82.25 179.025L82.075 178.85C82.075 178.675 82.075 178.5 82.075 178.5C81.9 178.325 81.9 178.15 81.725 177.8C81.2 176.4 80.5 175 79.8 173.25C79.625 172.55 79.45 171.675 79.275 170.975C79.1 170.625 79.1 170.1 78.925 169.75V169.575C78.925 169.4 78.925 169.4 78.75 169.4L78.575 169.225C78.575 169.225 78.575 169.225 78.575 169.4H78.225C78.05 169.4 77.875 169.4 77.7 169.4C76.825 169.4 75.95 169.4 75.075 169.4C73.5 169.4 71.925 169.05 70.175 169.05C68.6 169.05 67.025 169.225 65.275 169.225C63.7 169.225 62.125 169.05 60.375 169.05C58.8 169.05 57.225 169.225 55.475 169.225C54.6 169.225 53.9 169.225 53.025 169.225H51.8L51.625 169.05H51.45C51.45 169.225 51.45 169.225 51.45 169.225C51.275 169.225 51.275 169.225 51.275 169.4V169.575V169.75L51.1 169.925C51.1 170.8 50.925 171.675 50.75 172.375C50.4 174.125 50.05 175.7 49.7 177.275C49.175 178.85 48.65 180.425 48.3 182L48.125 182.7L47.95 183.225L47.775 183.575V183.925C47.6 184.275 47.6 184.45 47.425 184.625C47.25 185.15 47.075 185.675 46.725 186.025C46.55 186.375 46.375 186.55 46.025 186.725C45.85 186.9 45.675 187.25 45.325 187.425C45.15 187.425 45.15 187.6 44.975 187.6L44.8 187.775H44.625C44.45 187.95 44.275 187.95 44.1 187.95L43.75 188.125C43.575 188.125 43.4 188.3 43.05 188.3C42.875 188.3 42.7 188.475 42.35 188.475C41.475 188.65 40.6 188.65 39.9 188.825C38.15 189 36.4 189.35 34.825 189.35C33.075 189.35 31.325 189.525 29.575 189.35C28.875 189.175 28.175 189.175 27.475 189C27.125 189 26.775 188.825 26.25 188.825C25.9 188.65 25.55 188.475 25.2 188.3C24.5 187.95 23.975 187.6 23.625 187.075C23.275 186.725 23.1 186.2 22.925 185.85C22.925 185.85 22.925 185.675 22.925 185.5C22.75 185.325 22.75 185.15 22.75 184.975C22.75 184.45 22.575 183.925 22.75 183.4C22.75 182.35 22.75 181.475 22.925 180.775C23.275 179.025 23.45 177.275 23.975 175.7C24.5 174.125 25.025 172.55 25.55 170.975C25.725 170.275 26.075 169.575 26.425 168.875C26.6 168.525 26.775 168 26.775 167.65C26.95 167.475 26.95 167.3 26.95 167.125C27.125 166.95 27.125 166.775 27.3 166.6C27.65 165.025 28.175 163.45 28.525 161.875C29.05 160.3 29.225 158.725 29.75 157.15C30.1 155.575 30.625 154.175 30.975 152.6C31.5 151.025 31.675 149.45 32.2 147.875C32.55 146.3 32.9 144.725 33.25 143.15C33.6 141.575 33.775 140 34.125 138.425C34.65 136.85 35.175 135.275 35.525 133.7C35.7 132.825 35.875 132.125 36.05 131.25C36.225 130.55 36.4 129.675 36.75 128.975C37.1 127.4 37.275 125.825 37.625 124.25C38.15 122.675 38.675 121.1 39.025 119.525C39.375 117.95 39.9 116.375 40.425 114.8C40.775 113.225 41.125 111.65 41.475 110.075C41.825 108.5 42 106.925 42.525 105.35C42.875 103.775 43.05 102.2 43.4 100.625C43.75 99.05 44.275 97.475 44.625 95.9C44.8 95.025 44.975 94.325 45.325 93.45L45.85 91.175C46.375 89.6 46.725 88.025 47.075 86.45C47.425 85.05 48.125 83.475 48.475 81.9C48.825 80.325 49.175 78.75 49.525 77.175C49.875 75.6 50.05 73.85 50.4 72.275C50.925 70.7 51.45 69.125 51.975 67.55L52.325 66.85C52.325 66.85 52.325 66.675 52.5 66.5V66.325C52.675 66.15 52.675 66.15 52.675 65.975C53.025 65.45 53.55 64.925 54.075 64.575C54.6 64.225 55.3 63.875 55.825 63.875C56.35 63.7 56.875 63.525 57.4 63.525H58.625H59.85C60.725 63.525 61.6 63.525 62.3 63.525C64.05 63.525 65.625 63.7 67.2 63.7H67.55H67.9C68.775 63.525 69.825 63.525 70.7 63.875C71.05 64.05 71.225 64.05 71.575 64.225C71.75 64.4 71.925 64.575 72.275 64.75C72.45 64.925 72.625 65.1 72.8 65.275C72.975 65.45 73.15 65.625 73.325 65.8C73.85 66.85 74.2 67.725 74.375 68.6C74.55 69.475 74.55 70.35 74.9 71.05C74.9 71.4 75.075 71.75 75.25 72.275L75.6 73.325C75.775 74.2 76.125 74.9 76.3 75.775C76.825 77.35 77.35 78.75 77.7 80.325C78.225 81.9 78.925 83.475 79.275 84.875C79.8 86.45 79.975 88.2 80.325 89.775C80.85 91.35 81.375 92.75 81.9 94.325C82.25 95.9 82.95 97.475 83.475 98.875C83.825 100.45 84.175 102.2 84.525 103.6C85.05 105.175 85.4 106.75 85.75 108.325C86.275 109.9 86.625 111.475 86.975 113.05C87.5 114.625 88.2 116.025 88.725 117.6C89.25 119.175 89.425 120.75 89.775 122.325C90.3 123.9 91.175 125.3 91.525 126.875C91.875 127.75 92.05 128.45 92.225 129.325C92.225 129.675 92.4 130.025 92.4 130.375C92.575 130.725 92.75 131.075 92.75 131.425C93.1 132.3 93.275 133 93.625 133.875C93.8 134.575 93.975 135.45 94.325 136.15C94.85 138.075 95.55 139.475 96.075 140.875C96.6 142.8 96.95 144.375 97.3 145.775C97.825 147.525 98.35 149.1 98.7 150.5C99.225 152.075 99.75 153.65 100.275 155.4C100.625 156.8 100.625 158.375 101.15 160.3C101.5 161.7 102.2 163.275 102.725 165.2C103.25 167.3 103.6 169.05 103.95 170.45C104.125 171.5 104.3 172.375 104.475 173.25C104.475 174.125 104.65 175 104.825 175.875C105 176.575 105.175 177.45 105.35 178.325C105.35 178.675 105.35 179.2 105.525 179.725C105.525 180.075 105.7 180.6 105.7 181.125V181.3C105.875 181.475 105.875 181.475 105.875 181.475C105.875 181.65 105.875 181.65 105.875 181.65C105.875 181.65 106.05 181.3 106.05 181.475ZM55.65 148.225C55.825 148.225 55.825 148.05 55.825 148.225C55.825 148.05 56.7 147.7 57.05 147.525C57.4 147.35 57.925 147.525 58.1 147.35C58.625 147.35 58.975 147.35 59.325 147.35C59.85 147.35 61.25 147 61.775 147C62.125 147 62.65 146.825 63 146.825C63.35 146.825 63.875 146.825 64.225 146.825C64.75 146.65 66.5 146.65 66.85 146.65C67.375 146.65 68.95 146.65 69.475 146.65C69.825 146.65 71.225 146.65 71.4 146.65H71.575C71.575 146.65 71.575 146.65 71.75 146.65C71.75 146.65 71.75 146.65 71.75 146.475V146.3V146.125V145.95L71.575 145.775C71.4 145.25 71.4 144.9 71.4 144.375C71.225 144.025 71.225 143.675 71.05 143.15C71.05 142.8 70.525 141.05 70.35 140.7C70.35 140.35 70 140 69.825 139.475C69.825 139.125 69.65 138.775 69.475 138.25C69.3 137.9 69.125 137.55 68.95 137.2C68.95 136.675 68.95 136.15 68.775 135.8C68.6 135.45 68.425 135.1 68.25 134.575C68.25 134.225 68.25 133.875 68.075 133.35C67.9 133 67.2 130.2 67.025 129.675C67.025 129.325 67.025 128.975 66.85 128.45C66.675 128.1 66.5 127.75 66.5 127.225C66.325 126.875 66.325 126.525 66.15 126C65.975 125.65 65.45 124.075 65.45 123.725C65.275 123.2 65.1 122.85 64.925 122.5C64.75 121.975 64.225 120.4 64.225 120.05C64.05 119.7 63.7 117.95 63.525 117.6C63.525 117.25 63.175 116.9 63 116.375C63 116.2 62.825 116.025 62.825 115.85C62.65 116.2 61.95 118.125 61.95 118.3C61.775 118.65 61.075 120.225 61.075 120.575C60.9 121.1 60.9 121.45 60.725 121.8C60.55 122.325 60.55 122.675 60.375 123.025C60.375 123.55 59.85 125.125 59.675 125.475C59.5 125.825 59.5 126.35 59.5 126.7C59.325 127.05 58.975 128.8 58.8 129.15C58.8 129.5 58.45 129.85 58.45 130.375C58.275 130.725 58.1 131.075 57.925 131.6C57.925 131.95 57.575 133.525 57.4 134.05C57.4 134.4 57.225 136.15 57.05 136.5C57.05 136.85 56.7 137.2 56.7 137.725C56.525 138.25 56.175 139.825 56.175 140.175C56 140.7 56 141.05 56 141.575C55.825 141.925 55.125 144.9 54.95 145.25C54.95 145.425 54.775 145.6 54.775 145.775C54.775 145.775 54.775 145.775 54.775 145.95C54.6 145.95 54.6 145.95 54.6 145.95C54.6 146.125 54.6 146.3 54.6 146.3C54.425 146.475 54.425 146.65 54.425 146.825C54.425 147 54.6 147.175 54.6 147.35C54.775 147.525 54.775 147.7 54.95 147.875C55.125 148.05 55.475 148.225 55.65 148.225ZM206.959 79.975C207.134 80.85 207.134 81.725 207.134 82.6C206.959 83.475 206.784 84.35 206.434 85.05C205.734 85.925 204.859 86.625 203.984 86.975C203.109 87.325 202.409 87.5 201.534 87.675C201.359 87.675 201.184 87.675 200.834 87.675C200.659 87.675 200.484 87.675 200.134 87.675C199.784 87.85 199.259 87.675 198.909 87.675C198.034 87.675 197.334 87.675 196.634 87.675C195.059 87.675 193.659 88.2 191.734 88.2C190.334 88.2 188.759 87.85 186.659 87.675C185.259 87.675 183.684 87.675 181.759 87.5C181.059 87.5 180.184 87.5 179.309 87.5C179.134 87.5 178.959 87.5 178.784 87.5C178.609 87.5 178.609 87.5 178.609 87.5C178.434 87.675 178.434 87.675 178.434 87.675C178.434 87.85 178.434 88.025 178.434 88.025V88.2L178.609 88.55C178.609 88.9 178.609 89.075 178.609 89.25C178.609 90.125 178.609 91 178.434 92.05C178.434 92.4 178.434 92.925 178.259 93.275C178.259 93.8 178.259 94.15 178.084 94.5C177.909 95.375 177.909 96.25 177.909 97.125C177.734 98.7 177.909 100.45 177.734 102.2C177.734 103.95 177.384 105.7 177.384 107.45C177.384 109.2 177.559 110.95 177.559 112.7C177.559 113.575 177.559 114.45 177.384 115.325C177.384 115.675 177.384 116.2 177.384 116.55C177.384 116.9 177.384 117.425 177.384 117.775C177.384 119.525 177.559 121.275 177.559 123.025C177.559 124.775 177.559 126.525 177.559 128.275C177.559 130.025 177.909 131.775 177.909 133.525C177.909 135.275 177.909 136.85 177.909 138.6C177.909 140.35 177.909 142.1 177.909 143.85C177.909 145.6 178.084 147.35 178.084 149.1C178.259 150.85 178.084 152.6 178.084 154.35C178.084 156.1 178.259 157.85 178.259 159.6C178.259 161.35 178.434 163.1 178.434 164.675C178.434 166.6 178.434 168.35 178.434 169.925C178.434 171.85 178.434 173.6 178.259 175.175C178.259 176.925 178.434 178.675 178.259 180.425C178.259 180.775 178.259 181.3 178.259 181.825L178.084 182.35V182.875V183.05V183.4C177.909 183.75 177.909 184.1 177.734 184.45C177.559 184.8 177.209 185.15 176.859 185.325C176.509 185.675 176.159 185.85 175.809 186.025C175.459 186.2 175.284 186.375 174.934 186.375C174.409 186.55 173.884 186.725 173.359 186.725C173.359 186.725 173.184 186.725 173.009 186.725H172.834L172.134 186.9C171.434 186.9 170.559 187.075 169.684 187.25C167.934 187.6 166.184 188.125 164.434 188.3C163.559 188.475 162.684 188.475 161.634 188.475C161.459 188.65 161.109 188.65 160.934 188.65H160.234C159.884 188.65 159.359 188.475 158.834 188.475C158.309 188.3 157.784 188.3 157.259 187.95C156.559 187.775 156.034 187.425 155.684 187.075C155.159 186.725 154.634 186.2 154.284 185.5C154.109 184.975 153.934 184.45 153.759 183.925C153.584 183.4 153.409 182.875 153.409 182.35C153.409 182.35 153.409 182.175 153.409 182C153.409 181.825 153.409 181.825 153.409 181.65V180.95C153.409 180.6 153.234 180.075 153.234 179.725C153.234 179.2 153.234 178.85 153.234 178.325C153.234 176.75 153.234 175 153.234 173.25C153.234 171.5 152.884 169.75 152.884 168C152.884 166.425 153.059 164.675 153.059 162.925C153.059 161.175 152.884 159.425 152.884 157.675C152.884 156.1 152.709 154.35 152.534 152.6C152.534 150.85 152.709 149.1 152.709 147.35C152.709 145.775 152.884 144.025 152.884 142.275C152.884 140.525 152.884 138.775 152.884 137.025C152.884 135.45 152.709 133.7 152.709 131.95C152.709 130.2 152.534 128.45 152.534 126.7C152.534 125.125 152.534 123.375 152.534 121.625C152.534 119.875 152.709 118.125 152.709 116.375C152.709 114.8 152.534 113.05 152.534 111.3C152.534 109.55 153.059 107.8 153.059 106.05C153.059 105.175 153.059 104.3 153.059 103.6C153.059 102.725 153.059 101.85 153.059 100.975C153.059 100.1 153.059 99.225 152.884 98.35C152.884 97.475 152.884 96.6 152.884 95.725C152.884 94.85 152.884 93.975 153.059 93.1C153.059 92.225 153.059 91.35 153.059 90.65C153.234 90.125 153.234 89.775 153.234 89.25V88.725V88.55C153.234 88.375 153.234 88.375 153.234 88.375C153.059 88.375 153.059 88.375 153.059 88.375H152.884H152.709L151.484 88.55C150.609 88.55 149.734 88.55 148.859 88.725C147.109 88.725 145.359 88.55 143.609 88.55C142.034 88.55 140.284 88.9 138.534 88.9C136.784 88.725 135.034 88.375 133.284 88.375C131.534 88.2 129.784 88.2 128.034 88.025C127.509 88.025 126.984 87.85 126.459 87.85C126.284 87.675 126.284 87.675 126.109 87.675C125.934 87.675 125.934 87.675 125.759 87.5H125.584C125.584 87.5 125.409 87.5 125.409 87.325C125.409 87.325 125.409 87.325 125.234 87.325C125.234 87.325 125.234 87.325 125.234 87.15C125.059 87.15 125.059 87.15 125.059 87.15L124.884 86.975L124.709 86.8V86.625C124.709 86.625 124.709 86.625 124.534 86.625C124.534 86.45 124.359 86.275 124.359 86.1C124.009 85.575 123.834 85.05 123.659 84.525C123.659 84 123.484 83.475 123.484 83.125C123.309 81.375 122.784 79.8 122.609 78.05C122.259 76.3 122.434 74.375 122.434 72.625C122.259 71.75 122.259 70.875 122.434 70C122.434 68.95 122.434 68.075 122.784 67.025C122.784 66.675 122.959 66.5 122.959 66.15C123.134 65.975 123.134 65.8 123.134 65.8C123.309 65.625 123.309 65.45 123.484 65.275C123.834 64.75 124.359 64.05 125.059 63.7C125.584 63.35 126.284 63.175 126.809 63C126.984 63 126.984 63 126.984 63H127.159H127.334H127.684H128.034H128.384C130.134 62.825 131.884 63 133.459 63C135.209 63 136.959 63.175 138.709 63C140.459 63 142.209 63.175 143.784 63.175C145.534 63.175 147.284 62.825 149.034 62.65C150.784 62.65 152.534 63 154.109 63C155.859 63 157.609 62.475 159.359 62.475C161.109 62.475 162.859 62.825 164.609 62.825C164.784 62.825 165.134 62.825 165.484 62.825H166.009H166.184H166.359H166.534H166.884H167.059C167.584 62.825 167.934 63 168.284 63C168.809 63 169.159 63 169.684 63C171.784 63 173.534 62.825 175.109 62.825C177.034 62.825 178.784 63 180.359 63.175C182.459 63.175 184.034 63.175 185.784 63.35C186.134 63.35 186.659 63.35 187.009 63.35C187.359 63.35 187.884 63.35 188.234 63.35C189.109 63.35 189.984 63.35 191.034 63.525C192.434 63.525 194.184 63.875 196.284 64.05C197.859 64.05 199.609 63.7 201.709 63.875C202.059 63.875 202.234 63.875 202.584 63.875C202.759 63.875 202.934 63.875 202.934 63.875C203.109 63.875 203.109 63.875 203.284 63.875H203.459C203.809 64.05 203.984 64.05 204.334 64.225C204.509 64.4 204.859 64.575 205.034 64.75C205.384 65.1 205.734 65.45 205.909 65.8C206.259 66.5 206.434 67.2 206.609 67.9C206.784 68.95 206.784 70 206.784 71.05C206.784 71.4 206.784 71.925 206.609 72.45C206.609 72.8 206.609 73.325 206.609 73.85C206.609 74.55 206.609 75.425 206.609 76.475C206.609 77.35 206.609 78.4 206.609 79.625C206.609 79.8 206.784 79.8 206.784 79.8C206.784 79.975 206.784 79.975 206.784 80.15C206.784 80.15 206.959 79.8 206.959 79.975ZM126.109 85.75C125.934 85.75 126.109 85.75 126.109 85.75V85.75ZM312.404 79.975C312.579 80.85 312.579 81.725 312.579 82.6C312.404 83.475 312.229 84.35 311.879 85.05C311.179 85.925 310.304 86.625 309.429 86.975C308.554 87.325 307.854 87.5 306.979 87.675C306.804 87.675 306.629 87.675 306.279 87.675C306.104 87.675 305.929 87.675 305.579 87.675C305.229 87.85 304.704 87.675 304.354 87.675C303.479 87.675 302.779 87.675 302.079 87.675C300.504 87.675 299.104 88.2 297.179 88.2C295.779 88.2 294.204 87.85 292.104 87.675C290.704 87.675 289.129 87.675 287.204 87.5C286.504 87.5 285.629 87.5 284.754 87.5C284.579 87.5 284.404 87.5 284.229 87.5C284.054 87.5 284.054 87.5 284.054 87.5C283.879 87.675 283.879 87.675 283.879 87.675C283.879 87.85 283.879 88.025 283.879 88.025V88.2L284.054 88.55C284.054 88.9 284.054 89.075 284.054 89.25C284.054 90.125 284.054 91 283.879 92.05C283.879 92.4 283.879 92.925 283.704 93.275C283.704 93.8 283.704 94.15 283.529 94.5C283.354 95.375 283.354 96.25 283.354 97.125C283.179 98.7 283.354 100.45 283.179 102.2C283.179 103.95 282.829 105.7 282.829 107.45C282.829 109.2 283.004 110.95 283.004 112.7C283.004 113.575 283.004 114.45 282.829 115.325C282.829 115.675 282.829 116.2 282.829 116.55C282.829 116.9 282.829 117.425 282.829 117.775C282.829 119.525 283.004 121.275 283.004 123.025C283.004 124.775 283.004 126.525 283.004 128.275C283.004 130.025 283.354 131.775 283.354 133.525C283.354 135.275 283.354 136.85 283.354 138.6C283.354 140.35 283.354 142.1 283.354 143.85C283.354 145.6 283.529 147.35 283.529 149.1C283.704 150.85 283.529 152.6 283.529 154.35C283.529 156.1 283.704 157.85 283.704 159.6C283.704 161.35 283.879 163.1 283.879 164.675C283.879 166.6 283.879 168.35 283.879 169.925C283.879 171.85 283.879 173.6 283.704 175.175C283.704 176.925 283.879 178.675 283.704 180.425C283.704 180.775 283.704 181.3 283.704 181.825L283.529 182.35V182.875V183.05V183.4C283.354 183.75 283.354 184.1 283.179 184.45C283.004 184.8 282.654 185.15 282.304 185.325C281.954 185.675 281.604 185.85 281.254 186.025C280.904 186.2 280.729 186.375 280.379 186.375C279.854 186.55 279.329 186.725 278.804 186.725C278.804 186.725 278.629 186.725 278.454 186.725H278.279L277.579 186.9C276.879 186.9 276.004 187.075 275.129 187.25C273.379 187.6 271.629 188.125 269.879 188.3C269.004 188.475 268.129 188.475 267.079 188.475C266.904 188.65 266.554 188.65 266.379 188.65H265.679C265.329 188.65 264.804 188.475 264.279 188.475C263.754 188.3 263.229 188.3 262.704 187.95C262.004 187.775 261.479 187.425 261.129 187.075C260.604 186.725 260.079 186.2 259.729 185.5C259.554 184.975 259.379 184.45 259.204 183.925C259.029 183.4 258.854 182.875 258.854 182.35C258.854 182.35 258.854 182.175 258.854 182C258.854 181.825 258.854 181.825 258.854 181.65V180.95C258.854 180.6 258.679 180.075 258.679 179.725C258.679 179.2 258.679 178.85 258.679 178.325C258.679 176.75 258.679 175 258.679 173.25C258.679 171.5 258.329 169.75 258.329 168C258.329 166.425 258.504 164.675 258.504 162.925C258.504 161.175 258.329 159.425 258.329 157.675C258.329 156.1 258.154 154.35 257.979 152.6C257.979 150.85 258.154 149.1 258.154 147.35C258.154 145.775 258.329 144.025 258.329 142.275C258.329 140.525 258.329 138.775 258.329 137.025C258.329 135.45 258.154 133.7 258.154 131.95C258.154 130.2 257.979 128.45 257.979 126.7C257.979 125.125 257.979 123.375 257.979 121.625C257.979 119.875 258.154 118.125 258.154 116.375C258.154 114.8 257.979 113.05 257.979 111.3C257.979 109.55 258.504 107.8 258.504 106.05C258.504 105.175 258.504 104.3 258.504 103.6C258.504 102.725 258.504 101.85 258.504 100.975C258.504 100.1 258.504 99.225 258.329 98.35C258.329 97.475 258.329 96.6 258.329 95.725C258.329 94.85 258.329 93.975 258.504 93.1C258.504 92.225 258.504 91.35 258.504 90.65C258.679 90.125 258.679 89.775 258.679 89.25V88.725V88.55C258.679 88.375 258.679 88.375 258.679 88.375C258.504 88.375 258.504 88.375 258.504 88.375H258.329H258.154L256.929 88.55C256.054 88.55 255.179 88.55 254.304 88.725C252.554 88.725 250.804 88.55 249.054 88.55C247.479 88.55 245.729 88.9 243.979 88.9C242.229 88.725 240.479 88.375 238.729 88.375C236.979 88.2 235.229 88.2 233.479 88.025C232.954 88.025 232.429 87.85 231.904 87.85C231.729 87.675 231.729 87.675 231.554 87.675C231.379 87.675 231.379 87.675 231.204 87.5H231.029C231.029 87.5 230.854 87.5 230.854 87.325C230.854 87.325 230.854 87.325 230.679 87.325C230.679 87.325 230.679 87.325 230.679 87.15C230.504 87.15 230.504 87.15 230.504 87.15L230.329 86.975L230.154 86.8V86.625C230.154 86.625 230.154 86.625 229.979 86.625C229.979 86.45 229.804 86.275 229.804 86.1C229.454 85.575 229.279 85.05 229.104 84.525C229.104 84 228.929 83.475 228.929 83.125C228.754 81.375 228.229 79.8 228.054 78.05C227.704 76.3 227.879 74.375 227.879 72.625C227.704 71.75 227.704 70.875 227.879 70C227.879 68.95 227.879 68.075 228.229 67.025C228.229 66.675 228.404 66.5 228.404 66.15C228.579 65.975 228.579 65.8 228.579 65.8C228.754 65.625 228.754 65.45 228.929 65.275C229.279 64.75 229.804 64.05 230.504 63.7C231.029 63.35 231.729 63.175 232.254 63C232.429 63 232.429 63 232.429 63H232.604H232.779H233.129H233.479H233.829C235.579 62.825 237.329 63 238.904 63C240.654 63 242.404 63.175 244.154 63C245.904 63 247.654 63.175 249.229 63.175C250.979 63.175 252.729 62.825 254.479 62.65C256.229 62.65 257.979 63 259.554 63C261.304 63 263.054 62.475 264.804 62.475C266.554 62.475 268.304 62.825 270.054 62.825C270.229 62.825 270.579 62.825 270.929 62.825H271.454H271.629H271.804H271.979H272.329H272.504C273.029 62.825 273.379 63 273.729 63C274.254 63 274.604 63 275.129 63C277.229 63 278.979 62.825 280.554 62.825C282.479 62.825 284.229 63 285.804 63.175C287.904 63.175 289.479 63.175 291.229 63.35C291.579 63.35 292.104 63.35 292.454 63.35C292.804 63.35 293.329 63.35 293.679 63.35C294.554 63.35 295.429 63.35 296.479 63.525C297.879 63.525 299.629 63.875 301.729 64.05C303.304 64.05 305.054 63.7 307.154 63.875C307.504 63.875 307.679 63.875 308.029 63.875C308.204 63.875 308.379 63.875 308.379 63.875C308.554 63.875 308.554 63.875 308.729 63.875H308.904C309.254 64.05 309.429 64.05 309.779 64.225C309.954 64.4 310.304 64.575 310.479 64.75C310.829 65.1 311.179 65.45 311.354 65.8C311.704 66.5 311.879 67.2 312.054 67.9C312.229 68.95 312.229 70 312.229 71.05C312.229 71.4 312.229 71.925 312.054 72.45C312.054 72.8 312.054 73.325 312.054 73.85C312.054 74.55 312.054 75.425 312.054 76.475C312.054 77.35 312.054 78.4 312.054 79.625C312.054 79.8 312.229 79.8 312.229 79.8C312.229 79.975 312.229 79.975 312.229 80.15C312.229 80.15 312.404 79.8 312.404 79.975ZM231.554 85.75C231.379 85.75 231.554 85.75 231.554 85.75V85.75Z" fill="white"/>
<path d="M374.559 86.625C374.559 87.85 374.209 89.075 374.209 90.3C374.034 91.525 374.384 92.75 374.384 93.975C374.209 95.375 374.209 96.6 374.034 97.825C373.859 98.875 373.684 100.1 373.509 101.325C373.509 102.375 373.684 103.6 373.684 104.825C373.684 106.05 373.684 107.275 373.684 108.5C373.684 109.725 373.334 110.95 373.334 112.175C373.509 113.4 373.684 114.625 373.684 115.85C373.684 116.9 373.859 118.3 373.684 119.7C373.684 120.75 373.159 122.15 373.159 123.375C373.159 124.6 373.159 125.825 372.984 127.05C372.984 128.275 372.984 129.5 372.984 130.9C372.984 132.125 373.159 133.35 373.159 134.575C373.159 135.1 373.159 135.8 373.159 136.325C372.984 137.025 372.984 137.55 372.984 138.25C373.159 139.475 373.334 140.7 373.334 142.1C373.509 143.325 373.684 144.55 373.859 145.775C373.859 147 373.684 148.4 373.684 149.625C373.684 150.85 373.859 152.075 373.859 153.3C373.859 154.7 373.684 155.925 373.684 157.15C373.684 158.375 374.034 159.775 374.034 160.825C374.034 162.225 373.859 163.625 373.859 164.675C373.684 165.9 373.684 167.125 373.684 168.175C373.684 169.4 373.334 170.625 373.334 171.5C373.159 172.9 373.509 174.125 373.334 175.175C373.334 176.225 372.984 177.275 372.809 178.5C372.634 179.55 372.809 180.775 372.459 182C372.459 182.525 372.284 183.05 372.109 183.575C371.934 183.925 371.934 184.1 371.759 184.45C371.759 184.625 371.584 184.8 371.584 184.975C371.584 184.975 371.584 185.15 371.409 185.15C371.409 185.15 371.409 185.325 371.234 185.325C371.234 185.5 371.409 185.325 371.234 185.325C371.234 185.5 371.234 185.5 371.059 185.675H371.234C370.709 186.2 370.009 186.55 369.484 186.725C368.959 186.9 368.259 187.075 367.734 187.25C366.509 187.6 365.284 187.6 364.059 187.95C362.834 188.3 361.784 189 360.559 189.175C359.334 189.525 358.109 189.7 356.709 189.7C356.009 189.7 355.484 189.7 354.784 189.7C354.084 189.7 353.384 189.525 352.509 189.175C352.159 189 351.809 188.825 351.634 188.65C351.284 188.475 350.934 188.125 350.584 187.775C350.059 187.075 349.884 186.2 349.534 185.5C349.359 184.8 349.184 184.1 349.184 183.4C349.009 182.875 349.009 182.175 348.834 181.475C348.834 180.425 348.834 179.2 348.834 177.8C348.659 176.575 348.484 175.35 348.484 174.125C348.484 172.9 348.659 171.675 348.659 170.45C348.659 169.225 348.484 168 348.484 166.775C348.484 165.55 348.309 164.325 348.309 163.1C348.309 161.875 348.309 160.65 348.309 159.425C348.309 158.2 348.484 156.975 348.484 155.75C348.484 154.525 348.309 153.3 348.309 152.075C348.309 150.85 348.309 149.625 348.134 148.4C348.134 147.175 348.134 145.95 348.134 144.725C348.134 143.5 348.309 142.275 348.309 141.05C348.309 139.825 348.309 138.6 348.309 137.375C348.309 136.15 348.134 134.925 348.134 133.7C347.959 132.475 348.134 131.425 348.134 130.025C348.134 128.975 348.134 127.75 348.134 126.525C348.134 125.3 348.309 124.075 348.309 122.85C348.309 121.625 348.309 120.4 348.309 119.175C348.309 117.95 348.134 116.725 348.134 115.5C348.134 114.275 348.134 113.05 348.134 111.825C348.134 110.6 348.484 109.375 348.484 108.15C348.484 106.925 348.134 105.7 348.309 104.475C348.309 103.25 348.484 102.025 348.484 100.8C348.484 99.575 348.309 98.35 348.309 97.125C348.309 96.425 348.309 95.9 348.309 95.2L348.484 93.45C348.484 92.225 348.834 91 348.834 89.775C348.834 88.55 348.834 87.5 348.834 86.275C348.834 85.05 348.659 83.825 348.659 82.6V78.925C348.659 77.7 348.659 76.475 348.659 75.25C348.834 74.025 348.484 72.8 348.484 71.575C348.484 71.4 348.484 71.225 348.484 71.05V70.875L348.659 70.7V70.525C348.659 70.175 348.659 70 348.834 69.825C348.834 69.65 348.834 69.475 349.009 69.3C349.009 68.95 349.184 68.6 349.359 68.25C349.534 67.9 349.884 67.55 350.059 67.2C350.409 66.5 350.934 65.8 351.634 65.1C352.159 64.575 352.859 64.225 353.559 63.875C355.134 63.35 356.709 63.7 357.934 63.7C359.159 63.7 360.384 63.7 361.609 63.7C362.309 63.7 362.834 63.7 363.359 63.7C364.059 63.525 364.584 63.525 365.109 63.525H365.634C365.809 63.525 365.984 63.525 366.159 63.525C366.334 63.525 366.509 63.525 366.684 63.525L367.209 63.7C367.384 63.7 367.559 63.7 367.909 63.7C368.084 63.875 368.259 63.875 368.434 63.875C368.784 64.05 369.134 64.225 369.484 64.4C370.359 64.75 371.059 65.1 371.584 65.625C371.759 65.8 371.934 65.975 372.109 66.15C372.284 66.15 372.459 66.325 372.459 66.5C372.809 66.85 372.984 67.2 373.159 67.55C373.859 68.95 374.034 70.35 374.209 71.75C374.209 72.1 374.384 72.45 374.384 72.8V73.675C374.559 74.375 374.559 74.9 374.559 75.6C374.559 76.825 374.209 78.05 374.384 79.275C374.384 80.5 374.384 81.725 374.384 82.95C374.384 84.175 374.559 85.4 374.559 86.625ZM526.336 155.925C526.336 159.425 526.336 162.925 526.336 166.775C526.336 170.275 526.686 173.95 526.511 177.625C526.511 178.5 526.511 179.55 526.511 180.425C526.511 180.6 526.511 180.775 526.511 181.125C526.511 181.3 526.336 181.475 526.336 181.825C526.336 182 526.336 182.175 526.336 182.525V182.875C526.336 183.05 526.336 183.05 526.336 183.225C526.161 183.75 525.986 184.275 525.811 184.975C525.636 185.5 525.286 186.025 524.936 186.55C524.761 186.9 524.411 187.075 524.236 187.425C523.886 187.6 523.711 187.775 523.361 187.95C522.836 188.125 522.311 188.475 521.611 188.65C520.561 188.825 519.511 188.825 518.811 189C517.761 189 516.886 189.175 516.011 189.175C514.086 189.35 512.336 189.35 510.236 189.175C509.186 189.175 507.961 189 506.736 188.65C506.211 188.475 505.511 188.475 504.811 188.125C504.636 188.125 504.111 187.95 503.761 187.775C503.411 187.425 503.061 187.075 502.711 186.725C502.536 186.725 502.536 186.725 502.536 186.55L502.361 186.375C502.361 186.375 502.186 186.2 502.186 186.025C502.186 185.85 502.186 185.85 502.011 185.675C502.011 185.5 502.011 185.325 502.011 185.15V184.975V184.8L501.836 184.625C501.836 184.45 501.836 184.275 501.836 184.1C501.836 183.4 501.661 182.7 501.661 182C501.486 178.325 501.311 174.65 501.136 170.975C501.136 167.475 501.311 163.8 501.311 160.125C501.311 156.45 501.136 152.775 501.311 149.275C501.311 145.6 501.661 141.925 501.836 138.25C501.836 137.375 501.836 136.5 501.836 135.625C501.836 134.575 502.011 133.7 502.011 132.825C502.011 131.075 502.011 129.325 502.011 127.575C502.011 126.35 502.186 125.125 502.186 124.075C501.311 127.05 500.436 130.025 499.736 133C498.861 136.5 498.336 140.175 497.461 143.5C496.586 147.175 495.886 150.675 495.186 154.175C494.311 157.85 493.611 161.35 492.736 164.85C492.211 166.6 491.861 168.525 491.336 170.275C490.811 172.025 490.461 173.6 489.936 175.35C489.761 176.225 489.586 177.1 489.411 177.975C489.061 178.85 488.886 179.725 488.711 180.6C488.536 180.95 488.361 181.475 488.361 181.825C488.186 182.35 488.011 182.7 488.011 183.225L487.661 183.925C487.661 184.1 487.661 184.275 487.486 184.45C487.311 184.975 487.136 185.5 486.961 185.85V186.025C486.961 186.2 486.961 186.2 486.786 186.375L486.611 186.725V186.9C486.261 187.25 486.086 187.425 485.736 187.775C485.211 188.3 484.511 188.65 483.986 188.825C483.286 189 482.586 189.175 482.061 189.175C481.711 189.175 481.536 189.175 481.186 189.175H480.661C478.736 189.175 476.986 189.175 475.236 189.175C473.661 189.175 472.086 189.175 470.511 189.175H470.686C470.511 189.175 470.161 189.175 469.811 189.175L469.286 189C469.111 189 468.936 189 468.761 189C468.411 188.825 468.061 188.825 467.711 188.65C467.536 188.475 467.361 188.475 467.186 188.3C467.011 188.3 466.836 188.125 466.661 187.95C466.486 187.95 466.311 187.775 466.136 187.6C466.136 187.6 465.961 187.425 465.786 187.25L465.436 186.9L465.261 186.375C465.086 186.2 465.086 186.2 464.911 186.025C464.911 185.85 464.736 185.675 464.736 185.5C464.561 185.325 464.386 184.975 464.386 184.8C464.036 183.75 463.686 182.875 463.511 182.175C463.161 181.3 462.986 180.425 462.636 179.55C462.111 177.8 461.586 176.225 460.886 174.475C459.836 170.975 458.611 167.65 457.386 164.325C456.336 160.825 455.461 157.325 454.236 154C453.186 150.5 451.961 147.175 450.911 143.675C449.861 140.35 448.636 137.025 447.586 133.525C446.536 130.2 445.136 126.875 444.086 123.375L443.911 123.2C443.911 123.375 443.911 123.55 443.911 123.9C443.911 127.4 444.261 130.9 444.436 134.4C444.786 138.075 444.786 141.75 444.961 145.25C445.136 148.925 444.961 152.425 444.961 156.1C445.136 159.6 445.136 163.275 445.311 166.775C445.311 170.45 445.311 174.125 445.311 177.625C445.311 179.55 445.311 181.3 445.136 183.225C445.136 183.575 445.136 184.1 444.961 184.625C444.961 184.8 444.961 184.975 444.961 185.325C444.961 185.675 444.786 185.85 444.786 186.2C444.786 186.375 444.786 186.375 444.611 186.55C444.611 186.725 444.611 186.725 444.611 186.9H444.436V187.075C444.436 187.075 444.261 187.075 444.261 187.25L444.086 187.425L443.736 187.775C443.561 187.95 443.211 188.125 442.861 188.3C442.336 188.65 441.636 188.825 441.111 189C440.586 189.175 440.061 189.175 439.711 189.35H439.011L438.311 189.525C437.261 189.7 436.386 189.7 435.336 189.7C433.411 189.7 431.661 189.7 429.736 189.525L427.111 189.35L426.411 189.175C426.236 189.175 426.061 189.175 425.711 189.175C425.186 189.175 424.661 189 424.136 188.825C423.436 188.65 422.911 188.475 422.386 188.125C422.211 187.95 422.036 187.95 422.036 187.775H421.861L421.686 187.6C421.686 187.6 421.686 187.425 421.511 187.425C421.336 187.25 420.986 186.9 420.811 186.55C420.461 186.025 420.111 185.325 419.936 184.8C419.761 184.275 419.761 183.75 419.586 183.225V182.7C419.586 182.7 419.586 182.525 419.586 182.35V181.65V180.25L419.411 177.625C419.411 175.875 419.236 173.95 419.236 172.2C419.236 168.7 419.586 165.025 419.586 161.525C419.586 157.85 419.411 154.35 419.411 150.675C419.411 147 419.061 143.5 419.061 139.825C419.061 136.325 419.061 132.65 419.061 129.15C419.061 125.475 419.061 121.975 419.061 118.3C419.061 116.55 419.061 114.8 419.061 112.875C418.886 111.125 418.886 109.375 419.061 107.625C419.061 105.7 419.061 103.95 419.236 102.2C419.236 100.45 419.411 98.525 419.411 96.775C419.411 95.9 419.411 95.025 419.586 93.975C419.586 93.1 419.586 92.225 419.586 91.35C419.411 89.6 419.411 87.85 419.411 86.1C419.411 82.425 419.761 78.925 419.761 75.25C419.761 73.5 419.761 71.75 419.761 69.825V68.6V68.25C419.761 68.075 419.761 67.9 419.761 67.725C419.761 67.375 419.761 67.025 419.936 66.675C420.111 66.15 420.461 65.45 420.986 64.925C421.161 64.75 421.511 64.4 421.861 64.225C422.211 63.875 422.561 63.7 422.911 63.7C423.086 63.7 423.261 63.525 423.436 63.525C424.311 63.525 425.186 63.525 426.236 63.35C427.111 63.35 427.986 63.35 428.861 63.175C430.611 63.175 432.361 63 434.111 63C437.611 63 441.286 62.825 444.961 63C445.836 63 446.711 63.175 447.761 63.175L448.111 63.35C448.286 63.35 448.286 63.35 448.461 63.35C448.636 63.35 448.986 63.35 449.161 63.525C449.336 63.525 449.511 63.7 449.686 63.7C449.861 63.875 450.036 63.875 450.211 64.05L450.561 64.225V64.4H450.736C450.911 64.75 451.086 64.925 451.261 65.1C451.961 65.975 452.486 66.85 452.836 67.725C453.361 68.6 453.711 69.475 454.061 70.35C454.411 71.225 454.761 72.1 455.111 72.975L455.286 73.5C455.286 73.85 455.461 74.025 455.461 74.2L455.986 75.425C456.686 77.175 457.211 78.925 457.911 80.5C458.961 84 460.361 87.325 461.411 90.825C462.461 94.15 463.336 97.65 464.211 101.15C465.261 104.65 466.136 108.15 467.186 111.475C468.236 114.975 469.111 118.475 470.161 121.8C471.211 125.3 472.436 128.625 473.486 132.125C474.011 133.7 474.536 135.275 475.061 136.85C475.061 137.2 475.236 137.55 475.236 137.9C475.411 137.375 475.586 136.675 475.586 136.15C475.761 135.8 475.761 135.275 475.936 134.75C476.111 134.225 476.286 133.875 476.286 133.525C476.461 132.65 476.811 131.775 476.986 130.9C477.161 130.55 477.336 130.025 477.336 129.675C477.511 129.325 477.686 128.8 477.686 128.45C478.036 127.575 478.211 126.7 478.561 125.825C478.736 124.95 478.911 124.075 479.261 123.2C479.261 122.85 479.436 122.5 479.611 121.975C479.611 121.625 479.786 121.1 479.786 120.75C479.961 119.875 480.136 119 480.486 118.125C480.661 117.25 480.836 116.375 481.011 115.5C481.361 113.75 481.711 112 482.061 110.25C482.761 106.05 482.936 102.55 483.461 99.225C484.161 95.025 484.861 91.525 485.561 88.375C485.911 86.275 486.261 84.35 486.611 82.6C486.786 81.55 486.961 80.675 487.136 79.8C487.311 79.1 487.486 78.225 487.661 77.35C487.836 76.475 488.011 75.6 488.361 74.725C488.536 73.85 488.711 72.975 488.886 72.1C489.061 71.575 489.236 71.225 489.236 70.7C489.411 70.525 489.411 70.175 489.411 70C489.411 69.825 489.586 69.65 489.586 69.65C489.586 69.475 489.761 69.3 489.761 69.3C489.936 68.775 490.111 68.25 490.461 67.725C490.636 67.375 490.636 67.2 490.986 66.85C491.161 66.675 491.336 66.325 491.686 66.15C491.686 65.975 491.861 65.8 492.036 65.8L492.211 65.625C492.386 65.45 492.736 65.275 492.911 65.275C493.086 65.1 493.261 64.925 493.611 64.925C493.786 64.75 493.961 64.575 494.311 64.575C495.361 64.225 496.236 64.225 497.286 64.225C499.211 64.225 501.136 64.225 503.236 64.225C504.811 64.225 506.561 64.225 508.486 64.225H508.661H509.011C509.011 64.225 509.186 64.225 509.361 64.225C509.536 64.225 509.711 64.225 509.886 64.225C510.411 64.225 510.936 64.225 511.461 64.225C512.336 64.225 513.386 64.225 514.436 64.225C514.961 64.225 515.661 64.225 516.186 64.225C516.536 64.225 516.886 64.4 517.061 64.4C517.411 64.4 517.761 64.4 517.936 64.4C519.161 64.4 520.211 64.575 521.261 64.925C522.311 65.275 523.361 65.8 524.236 66.675C524.411 66.85 524.586 67.2 524.586 67.375C524.761 67.55 524.936 67.9 525.111 68.075C525.111 68.25 525.111 68.6 525.286 68.775C525.286 69.125 525.286 69.3 525.461 69.475C525.461 69.65 525.461 69.65 525.461 69.825V70C525.461 70.175 525.461 70.35 525.461 70.525C525.461 70.7 525.461 71.05 525.461 71.225C525.461 71.75 525.461 72.275 525.461 72.8C525.461 73.85 525.286 74.9 525.286 75.775C525.286 77.7 525.111 79.625 524.936 81.725C524.936 83.3 524.936 85.225 524.761 87.15C524.761 89.075 524.761 91.175 524.761 93.625C524.761 93.8 524.761 93.8 524.761 93.8C524.761 94.15 524.936 94.325 524.761 94.325C524.761 94.5 524.761 94.675 524.761 94.85C524.936 94.85 524.936 93.975 524.936 94.5C525.111 96.425 525.286 98.175 525.461 99.925C525.461 101.5 525.636 103.075 525.811 104.65C525.811 106.575 525.811 108.5 525.811 110.25C525.811 112 525.986 113.4 525.986 114.975C526.161 118.825 525.986 122.15 525.986 125.3C526.161 128.275 526.511 131.425 526.686 135.275C526.686 138.25 526.336 141.575 526.336 145.775C526.336 148.75 526.336 152.075 526.336 155.925ZM640.235 128.625C640.235 129.325 640.41 130.025 640.41 130.725C640.41 131.95 640.06 133.175 639.885 134.925C639.885 135.975 639.71 137.375 639.535 138.95C639.535 139.65 639.36 140.35 639.36 141.05C639.185 141.75 639.185 142.45 639.01 143.15C638.835 143.85 638.835 144.55 638.835 145.425C638.66 145.775 638.66 146.125 638.66 146.475C638.66 146.825 638.485 147.175 638.485 147.525C638.485 147.875 638.31 148.225 638.135 148.575C638.135 148.925 637.96 149.275 637.785 149.625C637.785 149.975 637.61 150.325 637.435 150.675C637.435 151.025 637.26 151.375 637.26 151.725C637.085 152.075 636.91 152.425 636.91 152.775C636.735 153.125 636.735 153.475 636.56 153.825C636.56 154.175 636.385 154.525 636.385 154.875C636.21 155.225 636.21 155.575 636.035 155.925C635.51 157.325 634.81 158.55 634.11 159.95C633.585 161.175 633.235 162.575 632.535 163.975C631.835 165.2 631.135 166.425 630.26 167.65C629.56 168.875 629.035 170.275 628.16 171.5C627.985 171.85 627.81 172.2 627.635 172.375L627.285 172.9L626.935 173.25C626.935 173.425 626.76 173.425 626.76 173.6L626.585 173.775C626.41 173.95 626.41 174.125 626.235 174.3C626.06 174.475 625.71 174.825 625.535 175.175C624.485 176.225 623.61 177.45 622.56 178.5C621.51 179.375 620.285 180.25 619.235 181.3C618.885 181.475 618.71 181.65 618.36 181.825C618.185 182.175 617.835 182.35 617.66 182.525C617.31 182.875 616.96 183.05 616.61 183.225C616.26 183.575 616.085 183.75 615.735 183.925C614.335 184.8 613.11 185.675 611.71 186.2C611.36 186.375 611.01 186.55 610.66 186.725C610.31 186.725 609.785 186.9 609.435 186.9L608.91 187.075C608.735 187.25 608.56 187.25 608.385 187.25C608.035 187.25 607.685 187.425 607.335 187.6C606.635 187.775 605.935 187.95 605.235 188.125C604.36 188.3 603.66 188.475 602.96 188.65C601.385 188.825 599.985 189 598.585 189C598.235 189 597.71 189.175 597.36 189.175C597.01 189.175 596.66 189.175 596.31 189.175C595.96 189.175 595.435 189.175 595.085 189.175C594.735 189.175 594.385 189.175 594.035 189C592.46 189 591.06 188.65 589.66 188.3C588.085 188.125 586.51 187.775 585.11 187.075C583.71 186.375 582.31 185.5 581.26 184.45C580.91 184.275 580.735 184.1 580.385 183.75C580.21 183.575 579.86 183.225 579.685 183.05C579.16 182.525 578.635 182 578.11 181.475C577.585 180.95 577.06 180.425 576.535 179.9L576.36 179.725L576.01 179.375L575.485 179.025L575.31 178.85H575.135L574.96 178.5C573.91 177.45 572.86 176.575 571.81 175.35C571.635 175 571.46 174.825 571.285 174.475C570.935 174.125 570.76 173.775 570.585 173.6L570.06 172.55C569.885 172.375 569.71 172.025 569.36 171.675C569.185 171.325 569.01 171.15 568.835 170.8C568.66 170.45 568.485 170.1 568.31 169.925C567.785 169.225 567.435 168.7 567.085 168C566.385 166.775 565.86 165.375 565.16 164.15C564.985 163.45 564.635 162.75 564.285 162.05C563.935 161.525 563.585 160.825 563.41 160.125C563.235 159.425 562.885 158.725 562.71 158.025C562.535 157.325 562.36 156.625 562.185 155.925C561.835 154.525 561.31 153.125 561.135 151.725C560.96 151.375 560.96 151.025 560.785 150.675C560.785 150.325 560.61 149.975 560.435 149.625C560.26 148.925 560.085 148.225 560.085 147.525C559.91 146.125 559.91 144.55 559.735 143.15C559.56 141.75 559.735 140.35 559.56 138.95C559.56 137.55 559.385 136.15 559.385 134.575C559.21 133.175 559.035 131.775 559.035 130.375C559.035 128.975 558.86 127.575 559.035 126.175C559.035 124.6 559.035 123.2 559.035 121.8C559.21 121.1 559.21 120.4 559.21 119.7L559.385 117.6C559.56 117.25 559.56 116.9 559.56 116.55V115.325C559.735 114.625 559.735 113.925 559.735 113.225C559.91 111.825 560.61 110.425 560.785 109.025C560.96 108.325 561.135 107.625 561.135 106.925C561.31 106.225 561.485 105.525 561.485 104.825C561.835 103.425 561.835 102.025 562.185 100.625C562.36 99.925 562.71 99.225 562.885 98.525L563.235 97.475L563.41 96.425C563.76 95.725 563.935 95.025 564.11 94.325C564.46 93.625 564.635 92.925 564.985 92.4C564.985 92.05 565.16 91.7 565.335 91.35L565.51 90.825L565.685 90.475C565.685 90.3 565.86 90.125 565.86 89.95L566.035 89.775V89.6V89.425C566.21 89.075 566.385 88.725 566.56 88.375C567.085 86.975 567.785 85.75 568.485 84.525C569.185 83.3 569.535 81.725 570.235 80.5C570.585 79.975 571.11 79.275 571.635 78.75V78.575H571.81C571.81 78.4 571.81 78.4 571.985 78.4V78.225L572.335 77.875C572.685 77.525 572.86 77.35 573.21 77C574.085 75.95 575.135 74.725 576.185 73.85C577.235 72.8 578.285 71.75 579.335 70.875C579.685 70.7 579.86 70.525 580.21 70.175L580.56 69.825L580.735 69.65V69.475H580.91H580.735C581.085 69.3 581.26 68.95 581.61 68.6C581.96 68.425 582.135 68.075 582.485 67.9C583.71 66.85 585.285 66.325 586.685 65.8C588.085 65.1 589.485 64.575 590.885 64.225C592.285 63.7 593.685 63.175 595.26 63C596.66 62.825 598.235 63 599.635 63C601.035 63 602.61 63.175 604.01 63.175C605.41 63.35 606.81 63.525 608.21 63.875C608.56 63.875 609.085 63.875 609.26 63.875H609.96L610.485 64.05C611.36 64.05 612.06 64.225 612.935 64.575C614.335 65.1 615.56 66.325 616.785 67.2C616.96 67.2 616.96 67.375 617.135 67.55C617.31 67.55 617.485 67.725 617.66 67.725L618.535 68.425C619.235 68.775 619.76 69.125 620.285 69.65C620.81 70.175 621.335 70.7 621.86 71.225L622.21 71.75L622.385 71.925V72.1C622.56 72.1 622.56 72.1 622.56 72.1C622.56 72.1 622.56 72.1 622.56 72.275H622.735C622.735 72.45 622.91 72.45 623.085 72.625L623.26 72.8C623.435 72.8 623.61 72.975 623.61 72.975L623.96 73.325L624.135 73.5C624.31 73.85 624.485 74.025 624.835 74.375C625.185 74.9 625.71 75.6 626.06 76.125C626.585 76.825 627.11 77.35 627.635 77.875C628.16 78.575 628.685 79.1 629.035 79.625C629.385 80.325 629.91 81.025 630.26 81.725C630.61 82.425 630.785 82.95 631.135 83.475C631.31 83.825 631.485 84.175 631.66 84.525C631.835 84.875 632.01 85.225 632.185 85.575C632.535 86.275 632.885 86.8 633.235 87.5C633.41 88.2 633.76 88.725 634.11 89.425C634.46 90.125 634.635 90.825 634.985 91.7C635.16 92.225 635.16 92.925 635.335 93.625C635.51 94.325 635.51 95.2 635.86 95.9C636.035 96.6 636.21 97.3 636.385 98C636.735 98.7 636.91 99.4 637.085 100.275C637.26 100.625 637.26 101.15 637.26 101.675C637.435 102.025 637.435 102.375 637.61 102.725C637.61 103.6 637.785 104.3 637.96 104.825C638.31 106.575 638.485 107.975 638.66 109.55C638.66 110.25 638.835 110.95 638.66 111.825C638.66 112.525 639.36 117.425 639.535 118.65C639.71 120.225 639.71 121.625 639.885 122.675C639.885 123.375 639.885 124.075 639.885 124.775C639.885 125.475 639.885 126.175 639.885 126.7C639.885 127.4 640.06 127.925 640.235 128.625ZM585.285 154.525C585.285 154.525 585.985 155.225 586.16 155.575C586.51 155.925 586.86 156.275 587.035 156.45C587.21 156.8 587.56 157.15 587.735 157.5C587.91 157.675 587.91 157.85 588.085 158.025C588.26 158.2 588.26 158.375 588.435 158.375C588.785 158.725 588.96 159.075 589.31 159.425C589.485 159.6 589.66 159.95 590.01 160.125C590.36 160.475 590.71 160.65 591.06 160.825C591.41 160.825 591.76 161 592.11 161.35C592.46 161.525 592.635 161.7 592.985 162.05C592.985 162.225 593.16 162.4 593.335 162.575C593.51 162.575 593.685 162.75 593.86 162.925C594.56 163.275 595.26 163.625 595.96 163.975C596.31 164.15 596.66 164.15 597.01 164.325C597.535 164.5 597.885 164.5 598.235 164.675C598.585 164.85 599.11 164.85 599.46 164.85C599.635 164.85 599.81 164.85 600.16 164.85C600.335 164.85 600.51 164.85 600.685 165.025C601.035 165.025 601.385 165.025 601.91 165.2C602.085 165.2 602.26 165.375 602.435 165.375C602.61 165.375 602.785 165.375 602.96 165.375C603.31 165.375 603.31 165.375 603.31 165.375C603.485 165.375 603.31 165.375 603.485 165.2C603.66 165.2 603.835 165.2 603.835 165.025C604.185 164.85 604.36 164.85 604.535 164.675C605.06 164.325 605.935 164.15 606.46 163.45C607.16 162.925 607.51 162.225 608.035 161.7C608.56 161 609.26 160.475 609.785 159.775C609.96 159.6 610.135 159.425 610.135 159.25L610.31 158.9L610.485 158.55C610.66 158.2 610.835 157.85 611.01 157.5C611.36 157.15 611.535 156.975 611.71 156.625C611.885 156.275 612.235 155.925 612.41 155.575C612.585 155.05 612.585 154.7 612.76 154.35C612.935 154 612.935 153.475 613.11 153.125C613.285 152.425 613.635 151.55 613.81 150.85C613.985 150.5 614.16 149.975 614.335 149.625C614.335 149.275 614.51 148.75 614.685 148.4C614.685 148.05 614.685 147.525 614.685 147.175C614.86 146.65 614.86 146.3 614.86 145.775C615.035 144.9 615.385 144.2 615.56 143.325C615.56 142.45 615.56 141.575 615.735 140.7C615.735 140.175 615.735 139.825 615.91 139.3C615.91 138.95 615.91 138.425 616.085 138.075C616.085 137.725 616.085 137.55 616.085 137.375C616.085 137.2 616.085 137.025 616.085 136.675C616.085 136.325 616.26 135.975 616.26 135.45C616.26 134.575 616.61 133.7 616.61 133C616.61 132.125 616.61 131.25 616.61 130.375C616.61 129.5 616.785 128.625 616.785 127.75C616.96 126.875 617.135 126.175 617.135 125.3C617.135 124.425 617.31 123.55 617.31 122.675C617.31 121.8 616.96 120.925 616.96 120.05C617.135 119.175 617.135 118.3 617.135 117.425C617.135 116.55 617.135 115.675 617.135 114.8C617.135 114.45 617.135 113.925 617.135 113.575V113.225V113.05C617.135 112.875 617.135 112.7 617.135 112.525C616.96 112.35 616.96 112.175 616.96 111.825V111.65H616.785V111.475L616.61 111.3C616.61 111.125 616.61 110.95 616.435 110.95C616.435 110.6 616.26 110.425 616.26 110.075C616.085 109.725 616.085 109.2 616.085 108.675V107.975V107.625C615.91 107.1 615.735 106.75 615.735 106.225C615.56 105.875 615.385 105.525 615.385 105C615.035 104.3 614.685 103.425 614.51 102.725C614.16 101.85 614.16 100.975 613.81 100.275C613.635 99.925 613.635 99.4 613.46 99.05C613.46 98.7 613.285 98.175 613.11 97.825C612.935 97.475 612.76 97.125 612.585 96.775C612.41 96.425 612.235 96.075 612.06 95.55C611.885 95.2 611.535 94.85 611.36 94.5C611.185 94.325 610.835 93.975 610.66 93.625C610.31 92.925 609.61 92.4 609.085 91.7C608.91 91.525 608.56 91.175 608.385 90.825L607.86 90.475C607.86 90.3 607.685 90.3 607.51 90.125C607.335 89.95 607.16 89.775 607.16 89.775L606.635 89.425C606.46 89.25 606.285 89.075 606.285 88.9L605.76 88.725C605.585 88.55 605.41 88.375 605.235 88.375L604.71 88.2C604.535 88.025 604.36 88.025 604.185 87.85C604.01 87.85 603.835 87.85 603.66 87.675C603.485 87.675 603.31 87.5 603.135 87.5C602.96 87.325 602.785 87.15 602.61 87.15C602.61 86.975 602.435 86.8 602.26 86.8C602.085 86.625 601.91 86.625 601.56 86.625C601.385 86.625 601.21 86.45 601.035 86.45H600.51L599.81 86.275C599.635 86.275 599.46 86.275 599.285 86.275C598.585 86.275 597.71 86.625 597.01 86.625H596.31C595.96 86.625 595.61 86.8 595.61 86.625V86.8H595.435L595.085 86.975C594.91 86.975 594.735 87.15 594.56 87.15L594.385 87.325L594.21 87.5C593.86 87.675 593.51 87.85 593.335 88.025C592.81 88.55 592.285 89.075 591.76 89.775C591.235 90.3 590.535 90.825 590.01 91.525C589.66 91.875 589.485 92.225 589.31 92.575C589.135 92.75 588.96 92.925 588.96 93.1C588.785 93.275 588.785 93.45 588.61 93.625C588.435 93.975 588.085 94.15 587.735 94.5C587.56 94.675 587.385 94.85 587.385 95.025C587.21 95.025 587.21 95.025 587.21 95.2C587.035 95.2 587.035 95.375 587.035 95.375C586.86 95.725 586.685 96.075 586.51 96.6C586.335 96.95 586.16 97.3 585.985 97.65C585.81 98 585.635 98.35 585.635 98.875C585.46 99.225 585.285 99.575 585.285 99.925C584.935 100.8 584.935 101.675 584.76 102.375C584.76 102.9 584.585 103.25 584.41 103.6C584.235 103.95 584.06 104.475 583.885 104.825C583.71 105.7 583.71 106.575 583.535 107.275C583.535 108.15 583.535 109.025 583.535 109.9C583.36 110.775 583.01 111.65 582.835 112.525C582.835 113.05 582.66 113.4 582.485 113.75C582.485 114.275 582.31 114.625 582.31 114.975C582.31 115.5 582.135 115.85 582.135 116.375C582.135 116.725 581.96 117.075 581.96 117.6C581.785 118.475 582.135 119.35 582.135 120.225C581.96 121.1 581.61 121.8 581.61 122.675C581.61 123.55 581.96 124.425 581.96 125.3C581.96 126.175 581.61 127.05 581.61 127.925C581.61 128.8 581.435 129.675 581.435 130.55C581.435 131.425 581.61 132.3 581.61 133.175C581.61 134.225 581.435 135.1 581.435 135.8C581.435 136.85 581.435 137.725 581.435 138.6V138.775V138.95C581.435 139.125 581.61 139.3 581.61 139.65C581.61 139.825 581.61 140 581.785 140.35V140.525C581.785 140.7 581.785 140.7 581.785 140.7C582.135 141.575 581.785 142.625 581.96 143.675C581.96 143.85 581.96 144.025 581.96 144.375C582.135 144.375 582.135 144.375 582.135 144.375C582.135 144.55 582.135 144.55 582.135 144.55L582.31 144.725C582.485 145.075 582.66 145.6 582.835 146.125C583.185 147.175 583.36 148.05 583.535 148.75C583.885 149.8 584.06 150.675 584.235 151.725C584.585 152.425 585.285 154.525 585.285 154.525Z" fill="white"/>
</svg>
